<?xml version="1.0" encoding="iso-8859-1"?>
<!-- Generator: Adobe Illustrator 17.0.0, SVG Export Plug-In . SVG Version: 6.00 Build 0)  -->
<!DOCTYPE svg PUBLIC "-//W3C//DTD SVG 1.1//EN" "http://www.w3.org/Graphics/SVG/1.1/DTD/svg11.dtd">
<svg version="1.1" id="Capa_1" xmlns="http://www.w3.org/2000/svg" xmlns:xlink="http://www.w3.org/1999/xlink" x="0px" y="0px"
	 width="64px" height="64px" viewBox="0 0 64 64" style="enable-background:new 0 0 64 64;" xml:space="preserve">
<polygon points="25.929,14.629 27.18,12.335 28.953,13.002 30.257,11.682 32.447,13.002 34.168,10.743 36.202,12.229 37.532,10.743 
	39.487,12.686 41.442,10.743 42.694,13.002 44.963,11.135 46.449,13.325 48.014,12.308 49.187,14.106 50.83,13.002 52.081,14.629 
	53.333,14.106 54.585,16.219 43.946,46.962 42.538,46.022 41.834,46.962 40.739,46.335 40.257,47.431 39.253,46.257 38.079,47.431 
	37.298,46.022 36.436,46.727 35.42,45.71 34.247,46.727 33.386,45.161 32.37,45.866 31.899,44.692 31.196,45.24 30.413,43.989 
	29.396,44.927 "/>
<path d="M55.367,16.846L45.276,46.18l5.045,1.251l3.246-1.643L61.86,20.6C61.86,20.6,58.34,18.566,55.367,16.846z"/>
<polygon points="11.401,45.412 6.519,24.442 6.446,24.136 5.977,22.126 4.52,23.729 9.851,47.128 "/>
<polygon points="12.676,35.722 16.087,35.251 15.865,34.306 12.311,34.799 12.254,34.386 9.571,34.794 9.99,36.593 12.737,36.174 
	"/>
<polygon points="11.476,31.602 15.112,31.098 14.853,29.994 11.185,30.503 11.128,30.098 8.568,30.487 9.013,32.394 11.532,32.01 
	"/>
<polygon points="12.153,33.662 15.602,33.185 15.376,32.221 11.634,32.739 11.575,32.319 9.084,32.701 9.5,34.489 12.212,34.075 "/>
<polygon points="11.026,29.366 14.591,28.873 14.375,27.954 10.852,28.442 10.694,27.306 14.111,26.833 13.885,25.869 
	10.174,26.382 10.116,25.964 7.604,26.347 8.497,30.183 11.085,29.786 "/>
<polygon points="9.339,23.185 13.132,22.661 12.601,20.398 6.565,21.889 7.067,24.041 9.407,23.685 "/>
<polygon points="10.017,25.246 13.622,24.746 13.395,23.782 9.496,24.321 9.45,23.994 7.138,24.347 7.532,26.041 10.073,25.654 "/>
<polygon points="17.806,42.567 14.397,43.04 14.339,42.616 11.494,43.051 12.085,45.59 10.581,47.253 18.413,45.156 "/>
<polygon points="17.321,40.502 13.876,40.979 13.82,40.576 11.018,41.005 11.423,42.744 14.296,42.307 14.24,41.903 17.542,41.445 
	"/>
<polygon points="13.196,37.782 16.571,37.315 16.351,36.372 12.833,36.859 12.78,36.483 10.061,36.897 10.464,38.623 13.255,38.197 
	"/>
<polygon points="13.777,40.268 13.719,39.844 17.058,39.38 16.836,38.438 13.354,38.919 13.298,38.508 10.534,38.929 10.946,40.699 
	"/>
<path d="M25.095,15.125l-8.292,1.876l-3.647,3.017l6.043,25.747l7.539-0.604l1.33-1.955L25.095,15.125z M18.444,19.349
	c0-0.519,0.421-0.939,0.94-0.939c0.519,0,0.938,0.421,0.938,0.939c0,0.518-0.419,0.938-0.938,0.938
	C18.865,20.286,18.444,19.866,18.444,19.349z M19.384,23.182c0-0.519,0.42-0.939,0.938-0.939c0.518,0,0.939,0.421,0.939,0.939
	c0,0.517-0.421,0.938-0.939,0.938C19.804,24.12,19.384,23.698,19.384,23.182z M19.852,26.466c0-0.518,0.422-0.938,0.94-0.938
	c0.518,0,0.938,0.42,0.938,0.938c0,0.519-0.42,0.94-0.938,0.94C20.274,27.405,19.852,26.984,19.852,26.466z M21.73,30.965
	c-0.519,0-0.938-0.421-0.938-0.939c0-0.52,0.42-0.938,0.938-0.938c0.519,0,0.938,0.419,0.938,0.938
	C22.669,30.544,22.249,30.965,21.73,30.965z"/>
</svg>
