<?xml version="1.0" encoding="iso-8859-1"?>
<!-- Generator: Adobe Illustrator 17.0.0, SVG Export Plug-In . SVG Version: 6.00 Build 0)  -->
<!DOCTYPE svg PUBLIC "-//W3C//DTD SVG 1.1//EN" "http://www.w3.org/Graphics/SVG/1.1/DTD/svg11.dtd">
<svg version="1.1" id="Capa_1" xmlns="http://www.w3.org/2000/svg" xmlns:xlink="http://www.w3.org/1999/xlink" x="0px" y="0px"
	 width="64px" height="64px" viewBox="0 0 64 64" style="enable-background:new 0 0 64 64;" xml:space="preserve">
<path d="M58.57,7.037l-6.819,0.349c-1.027,0.053-1.817,0.928-1.764,1.955l1.493,29.136c0.053,1.027,0.928,1.817,1.955,1.764
	l6.819-0.349c1.027-0.053,1.817-0.928,1.764-1.955L60.525,8.801C60.473,7.774,59.598,6.984,58.57,7.037z"/>
<path d="M20.808,57.735l3.342-3.435l1.126,1.096c0.737,0.717,1.916,0.701,2.633-0.036l4.761-4.894
	c0.717-0.737,0.701-1.916-0.036-2.633l-20.91-20.344c-0.737-0.717-1.916-0.701-2.633,0.036l-4.761,4.894
	c-0.717,0.737-0.701,1.916,0.036,2.633l1.375,1.338L2.4,39.825c-0.599,0.616-0.618,1.568-0.042,2.128l16.324,15.883
	C19.257,58.396,20.209,58.351,20.808,57.735z M13.311,50.602l2.28-2.281l0.048,0.048l0.833,0.833l1.203-1.203l1.743-1.743
	l0.296-0.296l0.839,0.839l-0.285,0.285l-1.743,1.743L17.31,50.04l0.881,0.881l-2.28,2.281l-2.552-2.552L13.311,50.602z M9.41,35.657
	l1.943,1.943l-0.411,0.411L9.2,39.754l-1.088,1.088l0.805,0.805l-2.281,2.28L3.888,41.18l3.342-3.342l1.743-1.743L9.41,35.657z
	 M9.346,42.076l0.881,0.881l1.117-1.117l1.743-1.743l0.382-0.382l1.075,1.075l-0.367,0.367L12.434,42.9l-1.132,1.132l0.793,0.793
	l-2.281,2.28l-2.749-2.748L9.346,42.076z M17.273,44.17l-1.743,1.743l-1.174,1.174l0.881,0.881l-2.281,2.281l-2.701-2.702
	l2.281-2.28l0.881,0.881l1.161-1.161l1.743-1.743l0.338-0.338l0.939,0.939L17.273,44.17z M24.534,50.781l-0.23,0.23l-1.743,1.743
	l-3.55,3.55l-2.6-2.601l-0.148-0.148l2.28-2.281l0.149,0.149l0.732,0.732l1.243-1.243l1.743-1.743l0.256-0.256L24.534,50.781z"/>
<path d="M15.336,22.494c-0.632,0.535-0.71,1.481-0.175,2.114l18.001,21.26c0.297,0.35,0.72,0.53,1.146,0.53
	c0.342,0,0.687-0.116,0.969-0.355c0.632-0.535,0.71-1.481,0.175-2.114L17.45,22.669C16.915,22.039,15.97,21.957,15.336,22.494z"/>
<path d="M23.642,16.143c-0.716,0.416-0.959,1.334-0.543,2.051l14.276,24.569c0.278,0.479,0.781,0.746,1.298,0.746
	c0.256,0,0.516-0.065,0.753-0.203c0.716-0.416,0.959-1.334,0.543-2.051L25.692,16.686C25.276,15.971,24.357,15.727,23.642,16.143z"
	/>
<path d="M43.092,41.02c0.166,0,0.336-0.027,0.501-0.086c0.781-0.277,1.189-1.135,0.913-1.915l-9.481-26.734
	c-0.277-0.78-1.137-1.189-1.915-0.913c-0.781,0.277-1.189,1.135-0.913,1.915l9.481,26.734C41.896,40.636,42.475,41.02,43.092,41.02z
	"/>
<path d="M45.267,10.044c-0.113-0.82-0.864-1.389-1.691-1.281c-0.82,0.113-1.394,0.87-1.281,1.691l3.869,28.101
	c0.104,0.751,0.747,1.295,1.484,1.295c0.068,0,0.137-0.005,0.207-0.014c0.82-0.113,1.394-0.87,1.281-1.691L45.267,10.044z"/>
</svg>
