<?xml version="1.0" encoding="iso-8859-1"?>
<!-- Generator: Adobe Illustrator 17.0.0, SVG Export Plug-In . SVG Version: 6.00 Build 0)  -->
<!DOCTYPE svg PUBLIC "-//W3C//DTD SVG 1.1//EN" "http://www.w3.org/Graphics/SVG/1.1/DTD/svg11.dtd">
<svg version="1.1" id="Capa_1" xmlns="http://www.w3.org/2000/svg" xmlns:xlink="http://www.w3.org/1999/xlink" x="0px" y="0px"
	 width="64px" height="64px" viewBox="0 0 64 64" style="enable-background:new 0 0 64 64;" xml:space="preserve">
<path d="M61.951,5.307l-0.053-0.122c-0.035-0.083-0.92-2.081-2.042-1.972c0.011-0.146-0.005-0.341-0.106-0.559
	c-0.257-0.551-0.927-0.984-1.992-1.288l-0.12-0.035l-0.056,0.112c-0.015,0.031-1.573,3.138-4.927,5.67L52.541,7.2l0.081,0.118
	c0.026,0.039,0.627,0.954-0.677,2.204L31.207,29.403c-0.205-0.289-0.434-0.56-0.681-0.807c-1.18-1.18-2.748-1.829-4.416-1.829
	c-1.668,0-3.237,0.649-4.417,1.829c-1.146,1.146-1.793,2.67-1.825,4.296c-0.062,0.18-0.842,2.315-2.943,2.433
	c-0.013,0.001-0.024,0.002-0.035,0.004c-0.687-0.106-1.386-0.16-2.081-0.16c-3.589,0-6.959,1.394-9.49,3.924
	c-2.482,2.481-3.567,5.5-3.14,8.729c0.396,2.985,2.031,5.99,4.731,8.689c3.109,3.11,6.681,4.823,10.057,4.823h0
	c2.739,0,5.216-1.087,7.36-3.232c2.454-2.454,3.843-5.699,3.93-9.163l0.005,0.003l-0.001-0.415
	c-0.003-0.749,0.105-4.491,2.571-4.644c2.924-0.181,4.549-2.295,4.608-2.375c0.104-0.116,1.01-1.148,0.722-1.798
	c-0.186-0.417-0.782-0.549-1.798-0.396c-0.754,0.115-1.352-0.065-1.778-0.53c-0.927-1.013-0.793-3.062-0.781-3.228
	c0.06-0.135,0.116-0.271,0.166-0.409l22.231-23.4c0.006-0.009,0.658-0.925,1.655-0.925c0.128,0,0.258,0.016,0.387,0.045l0.097,0.022
	l0.059-0.08c0.029-0.04,2.927-3.97,5.435-5.439L61.951,5.307z M21.436,37.587l1.152-1.152c0.399-0.399,1.046-0.399,1.446,0
	l3.072,3.072c0.399,0.399,0.399,1.046,0,1.446l-1.152,1.152c-0.399,0.399-1.046,0.399-1.446,0l-3.072-3.072
	C21.037,38.633,21.037,37.986,21.436,37.587z"/>
</svg>
