<?xml version="1.0" encoding="iso-8859-1"?>
<!-- Generator: Adobe Illustrator 17.0.0, SVG Export Plug-In . SVG Version: 6.00 Build 0)  -->
<!DOCTYPE svg PUBLIC "-//W3C//DTD SVG 1.1//EN" "http://www.w3.org/Graphics/SVG/1.1/DTD/svg11.dtd">
<svg version="1.1" id="Capa_1" xmlns="http://www.w3.org/2000/svg" xmlns:xlink="http://www.w3.org/1999/xlink" x="0px" y="0px"
	 width="64px" height="64px" viewBox="0 0 64 64" style="enable-background:new 0 0 64 64;" xml:space="preserve">
<g>
	<circle cx="28.473" cy="7.586" r="0.948"/>
	<circle cx="28.473" cy="10.259" r="0.948"/>
	<circle cx="28.473" cy="12.933" r="0.947"/>
	<circle cx="36.549" cy="7.104" r="0.947"/>
	<circle cx="36.549" cy="9.778" r="0.948"/>
	<circle cx="36.549" cy="12.45" r="0.948"/>
	<path d="M31.564,33.285c-1.607,0.683-3.469,1.923-3.322,3.987c0.258,3.584,3.328,2.39,3.328,5.033c0,2.645-4.521,4.692-4.691,8.786
		c-0.172,4.096,1.877,6.654,3.455,7.849c0,0,1.334,1.332,4.771,1.27c3.438-0.062,4.772-1.27,4.772-1.27
		c1.578-1.194,3.625-3.753,3.455-7.849c-0.17-4.094-4.691-6.142-4.691-8.786c0-2.644,3.07-1.449,3.326-5.033
		c0.185-2.592-2.791-3.884-4.455-4.403l0.727,6.366h-6.473L31.564,33.285z M38.055,51.35c0,0.533-0.434,0.967-0.969,0.967
		c-0.533,0-0.965-0.434-0.965-0.967c0,0.533-0.434,0.967-0.969,0.967c-0.533,0-0.965-0.434-0.965-0.967
		c0,0.533-0.434,0.967-0.969,0.967c-0.533,0-0.967-0.434-0.967-0.967V50.78h5.803V51.35z M35.105,43.841
		c1.602,0,2.9,1.299,2.9,2.901c0,1.602-1.299,2.9-2.9,2.9c-1.602,0-2.9-1.299-2.9-2.9C32.205,45.14,33.504,43.841,35.105,43.841z"/>
	<polygon points="31.873,16.288 31.941,18.288 34.685,18.288 34.457,16.288 	"/>
	<polygon points="35.371,24.288 35.143,22.288 32.074,22.288 32.143,24.288 	"/>
	<polygon points="31.975,19.288 32.041,21.288 35.027,21.288 34.799,19.288 	"/>
	<path d="M23.509,58.805c0,0,1.673,1.595,3.741,1.407c2.068-0.188,1.682-1.15,1.682-1.15c-1.363-1.216-3.51-3.846-3.324-8.268
		c0.109-2.6,1.705-4.457,2.988-5.95c0.914-1.062,1.703-1.979,1.703-2.794c0-0.626-0.189-0.764-0.91-1.191
		c-0.893-0.527-2.24-1.326-2.414-3.769c-0.148-2.082,1.25-3.859,3.941-5.003l1.477-0.366l0.219,6.471h4.35l-1.475-12.903h-3.311
		l0.055,1.604C31.045,31.077,28.5,31.5,28.5,31.5s-0.502,0.096-1.12,0.214c-0.618,0.118-2.313,1.618-2.625,3.805
		c-0.242,1.701-0.257,3.578-0.257,4.712c0,2.219,2.729-0.738,2.787,2.276c0.057,3.015-4.695,5.057-5.289,10.293
		C21.562,56.625,23.509,58.805,23.509,58.805z"/>
	<path d="M32.867,5.861h-0.512c-1.131,0-2.047,0.916-2.047,2.047v5.802h1.479l0.053,1.578h2.502l-0.18-1.578h0.752V7.908
		C34.914,6.777,33.998,5.861,32.867,5.861z"/>
</g>
</svg>
