<?xml version="1.0" encoding="iso-8859-1"?>
<!-- Generator: Adobe Illustrator 17.0.0, SVG Export Plug-In . SVG Version: 6.00 Build 0)  -->
<!DOCTYPE svg PUBLIC "-//W3C//DTD SVG 1.1//EN" "http://www.w3.org/Graphics/SVG/1.1/DTD/svg11.dtd">
<svg version="1.1" id="Capa_1" xmlns="http://www.w3.org/2000/svg" xmlns:xlink="http://www.w3.org/1999/xlink" x="0px" y="0px"
	 width="64px" height="64px" viewBox="0 0 64 64" style="enable-background:new 0 0 64 64;" xml:space="preserve">
<path d="M41.074,40.892H26.009l0.232,2.959c-5.25,0.455-11.072,1.604-11.072,4.465c0,3.01,6.449,4.123,11.893,4.529
	c0.836,3.562,3.561,6.293,6.479,6.293c2.931,0,5.664-2.754,6.489-6.34c5.311-0.44,11.311-1.58,11.311-4.483
	c0-2.75-5.379-3.92-10.457-4.41C41.002,42.149,41.074,40.892,41.074,40.892z M18.794,48.315c1.236-0.506,3.842-1.111,7.682-1.463
	l0.231,2.945C22.738,49.45,20.056,48.829,18.794,48.315z M47.716,48.315c-1.193,0.486-3.664,1.068-7.29,1.424
	c0.086-0.92,0.166-1.883,0.239-2.828C44.165,47.269,46.548,47.837,47.716,48.315z"/>
<path d="M34.9,12.032L46.782,9.3c0.808-0.186,1.312-0.99,1.126-1.797c-0.186-0.809-0.992-1.311-1.798-1.127l-13.046,3
	C32.382,9.534,31.9,10.14,31.9,10.839v12.863c0,0.082,0.011,0.162,0.023,0.24c-2.614,0.82-4.812,3.723-5.207,7.185
	c-0.471,4.102-0.85,7.428-0.85,7.428h15.065l-0.848-7.428c-0.398-3.463-2.595-6.365-5.208-7.185c0.013-0.078,0.024-0.158,0.024-0.24
	V12.032z M28.898,35.651c-0.414,0-0.75-0.336-0.75-0.75c0-0.414,0.336-0.75,0.75-0.75c0.414,0,0.75,0.336,0.75,0.75
	C29.648,35.315,29.312,35.651,28.898,35.651z M28.9,33.026c-0.414,0-0.75-0.336-0.75-0.75c0-0.414,0.336-0.75,0.75-0.75
	c0.414,0,0.75,0.336,0.75,0.75C29.65,32.69,29.314,33.026,28.9,33.026z M30.4,30.089c-0.414,0-0.75-0.336-0.75-0.75
	c0-0.414,0.336-0.75,0.75-0.75c0.414,0,0.75,0.336,0.75,0.75C31.15,29.753,30.814,30.089,30.4,30.089z M31.898,35.651
	c-0.414,0-0.75-0.336-0.75-0.75c0-0.414,0.336-0.75,0.75-0.75c0.414,0,0.75,0.336,0.75,0.75
	C32.648,35.315,32.312,35.651,31.898,35.651z M31.9,33.026c-0.414,0-0.75-0.336-0.75-0.75c0-0.414,0.336-0.75,0.75-0.75
	c0.414,0,0.75,0.336,0.75,0.75C32.65,32.69,32.314,33.026,31.9,33.026z M32.648,26.776c0-0.414,0.336-0.75,0.75-0.75
	c0.414,0,0.75,0.336,0.75,0.75c0,0.414-0.336,0.75-0.75,0.75C32.984,27.526,32.648,27.19,32.648,26.776z M32.933,29.339
	c0-0.414,0.336-0.75,0.75-0.75c0.414,0,0.75,0.336,0.75,0.75c0,0.414-0.336,0.75-0.75,0.75
	C33.269,30.089,32.933,29.753,32.933,29.339z M34.898,35.651c-0.414,0-0.75-0.336-0.75-0.75c0-0.414,0.336-0.75,0.75-0.75
	c0.414,0,0.75,0.336,0.75,0.75C35.648,35.315,35.312,35.651,34.898,35.651z M37.898,35.651c-0.414,0-0.75-0.336-0.75-0.75
	c0-0.414,0.336-0.75,0.75-0.75c0.414,0,0.75,0.336,0.75,0.75C38.648,35.315,38.312,35.651,37.898,35.651z M38.65,32.276
	c0,0.414-0.336,0.75-0.75,0.75c-0.414,0-0.75-0.336-0.75-0.75c0-0.414,0.336-0.75,0.75-0.75
	C38.314,31.526,38.65,31.862,38.65,32.276z M37.025,28.589c0.414,0,0.75,0.336,0.75,0.75c0,0.414-0.336,0.75-0.75,0.75
	c-0.414,0-0.75-0.336-0.75-0.75C36.275,28.925,36.611,28.589,37.025,28.589z M34.9,31.526c0.414,0,0.75,0.336,0.75,0.75
	c0,0.414-0.336,0.75-0.75,0.75c-0.414,0-0.75-0.336-0.75-0.75C34.15,31.862,34.486,31.526,34.9,31.526z"/>
</svg>
