<?xml version="1.0" encoding="iso-8859-1"?>
<!-- Generator: Adobe Illustrator 17.0.0, SVG Export Plug-In . SVG Version: 6.00 Build 0)  -->
<!DOCTYPE svg PUBLIC "-//W3C//DTD SVG 1.1//EN" "http://www.w3.org/Graphics/SVG/1.1/DTD/svg11.dtd">
<svg version="1.1" id="Capa_1" xmlns="http://www.w3.org/2000/svg" xmlns:xlink="http://www.w3.org/1999/xlink" x="0px" y="0px"
	 width="64px" height="64px" viewBox="0 0 64 64" style="enable-background:new 0 0 64 64;" xml:space="preserve">
<g>
	<path d="M41.704,42.804c1.129-0.674,1.828-1.524,1.828-2.571c0-0.425-0.131-1.011-0.656-1.62c2.288-8.925,3.209-19.532,3.209-26.17
		c0-1.688-0.134-3.647-0.252-5.376c-0.005-0.07-0.009-0.135-0.014-0.203c-0.411,0.493-1.055,0.956-1.913,1.37
		c0.093,1.417,0.178,2.909,0.178,4.209c0,8.68-1.256,18.761-3.276,26.309c-0.251,0.936-0.513,1.817-0.781,2.664
		c-1.352,0.596-3.611,1.168-6.748,1.309c-0.12-0.708-0.733-1.248-1.475-1.248s-1.354,0.54-1.475,1.248
		c-3.276-0.147-5.597-0.765-6.925-1.388c-2.414-8.378-3.575-19.844-3.575-28.894c0-1.359,0-2.811,0.008-4.144
		c-0.88-0.41-1.553-0.869-1.989-1.359c-0.019,1.659-0.02,3.667-0.02,5.504c0,6.037,0.656,17.018,2.817,26.273
		c-0.457,0.576-0.571,1.125-0.571,1.517c0,0.984,0.612,1.798,1.623,2.452l-4.642,13.924c-0.262,0.786,0.162,1.636,0.948,1.897
		c0.157,0.053,0.317,0.077,0.475,0.077c0.628,0,1.214-0.397,1.423-1.025l3.456-10.367c1.753,3.937,4.026,6.72,6.945,7.348v6.464
		c0,0.828,0.672,1.5,1.5,1.5s1.5-0.672,1.5-1.5v-6.59c2.702-0.827,4.9-3.558,6.662-7.337l3.495,10.482
		c0.209,0.628,0.795,1.025,1.423,1.025c0.157,0,0.317-0.024,0.475-0.077c0.786-0.262,1.21-1.111,0.948-1.897L41.704,42.804z
		 M24.34,44.25l0.13-0.391c1.716,0.49,3.763,0.773,5.834,0.865v7.745C27.887,51.665,25.904,48.585,24.34,44.25z M33.305,52.272
		v-7.549c1.98-0.088,3.943-0.348,5.611-0.798l0.111,0.333C37.345,48.556,35.394,51.294,33.305,52.272z"/>
	<path d="M42.117,8.147V7.342c0.694-0.247,1.252-0.498,1.68-0.737c0.675-0.377,1.029-0.72,1.029-0.944
		c0-0.202-0.277-0.498-0.823-0.83C42.351,3.827,38.228,2.5,31.804,2.5c-7.295,0-11.613,1.709-12.724,2.715
		c-0.19,0.172-0.298,0.327-0.298,0.445c0,0.229,0.369,0.581,1.072,0.968c0.548,0.301,1.297,0.623,2.263,0.925v0.793v0.779v2.258
		c-0.561,0.454-0.933,1.274-0.933,2.242c0,1.469,0.849,2.619,1.933,2.619c1.083,0,1.932-1.15,1.932-2.619
		c0-0.967-0.372-1.787-0.932-2.241V9.61v-0.76V8.073c1.79,0.387,4.027,0.672,6.688,0.731v0.75v0.75v2.901
		c-0.95,0.394-1.62,1.329-1.62,2.419c0,1.444,1.176,2.619,2.62,2.619s2.619-1.175,2.619-2.619c0-1.09-0.67-2.025-1.619-2.419v-2.901
		v-0.75v-0.75c2.983-0.066,5.426-0.418,7.312-0.876v0.785v0.765v1.905c-0.561,0.454-0.933,1.274-0.933,2.242
		c0,1.469,0.849,2.619,1.933,2.619c1.083,0,1.932-1.15,1.932-2.619c0-0.967-0.372-1.787-0.932-2.241V8.94V8.147z"/>
</g>
</svg>
