<?xml version="1.0" encoding="iso-8859-1"?>
<!-- Generator: Adobe Illustrator 17.0.0, SVG Export Plug-In . SVG Version: 6.00 Build 0)  -->
<!DOCTYPE svg PUBLIC "-//W3C//DTD SVG 1.1//EN" "http://www.w3.org/Graphics/SVG/1.1/DTD/svg11.dtd">
<svg version="1.1" id="Capa_1" xmlns="http://www.w3.org/2000/svg" xmlns:xlink="http://www.w3.org/1999/xlink" x="0px" y="0px"
	 width="64px" height="64px" viewBox="0 0 64 64" style="enable-background:new 0 0 64 64;" xml:space="preserve">
<g>
	<path d="M17.35,13.987c0,1.104,6.547,2.347,14.625,2.347c8.076,0,14.625-1.242,14.625-2.347s-6.549-2-14.625-2
		C23.896,11.987,17.35,12.883,17.35,13.987z"/>
	<path d="M46.225,19.136v-3.856c0,0-6.418,1.667-14.25,1.75c-7.834,0.083-14.25-1.75-14.25-1.75v4.368
		c0.598,0.086,1.443,0.191,2.529,0.295v-2.246h3.334v2.484c1.869,0.097,4.102,0.156,6.719,0.13v-1.948h3.334v1.871
		c2.67-0.091,4.957-0.24,6.863-0.408v-2.463h3.334v2.112C44.832,19.351,45.625,19.233,46.225,19.136z"/>
	<path d="M45.818,41.369l-3.309-5.838h1.496v-2.666h-1.316c1.975-3.916,2.426-8.664,2.496-11.546
		c-0.408,0.057-0.851,0.115-1.348,0.176v0.034h-0.295c-2.354,0.277-5.645,0.563-9.902,0.706v0.294h-3.334V22.31
		c-0.445,0.005-0.885,0.008-1.309,0.008c-4.744,0-8.143-0.271-10.24-0.516c0.051,2.754,0.481,7.282,2.457,11.062h-1.127v2.666h2.078
		l-3.711,6.552c-0.328-0.187-0.701-0.302-1.105-0.302c-1.244,0-2.25,1.007-2.25,2.25c0,1.243,1.006,2.25,2.25,2.25
		c1.242,0,2.25-1.007,2.25-2.25c0-0.358-0.092-0.691-0.24-0.992l5.828-5.58c1.598,1.079,3.588,1.795,6.061,1.951l0.58,4.688
		c-0.99,0.235-1.729,1.12-1.729,2.184c0,1.243,1.006,2.25,2.25,2.25c1.242,0,2.25-1.007,2.25-2.25c0-0.929-0.562-1.724-1.365-2.067
		l0.676-4.863c2.16-0.262,3.904-1.037,5.322-2.137l4.986,4.773c-0.432,0.409-0.703,0.984-0.703,1.627c0,1.243,1.008,2.25,2.25,2.25
		c1.242,0,2.25-1.007,2.25-2.25C48.016,42.389,47.035,41.397,45.818,41.369z"/>
</g>
</svg>
