<?xml version="1.0" encoding="iso-8859-1"?>
<!-- Generator: Adobe Illustrator 17.0.0, SVG Export Plug-In . SVG Version: 6.00 Build 0)  -->
<!DOCTYPE svg PUBLIC "-//W3C//DTD SVG 1.1//EN" "http://www.w3.org/Graphics/SVG/1.1/DTD/svg11.dtd">
<svg version="1.1" id="Capa_1" xmlns="http://www.w3.org/2000/svg" xmlns:xlink="http://www.w3.org/1999/xlink" x="0px" y="0px"
	 width="64px" height="64px" viewBox="0 0 64 64" style="enable-background:new 0 0 64 64;" xml:space="preserve">
<g>
	<ellipse cx="18.839" cy="31.944" rx="13.022" ry="1.673"/>
	<path d="M30.282,35.95c0,0.426-0.346,0.771-0.772,0.771h-0.708c-0.426,0-0.772-0.346-0.772-0.771v-2.089
		c-2.198,0.279-5.024,0.446-8.063,0.479v2.604c0,0.426-0.346,0.772-0.772,0.772h-0.708c-0.427,0-0.772-0.347-0.772-0.772V34.34
		c-2.884-0.031-5.578-0.183-7.724-0.437v2.047c0,0.426-0.345,0.771-0.773,0.771H8.509c-0.426,0-0.772-0.346-0.772-0.771v-2.394
		c-0.892-0.183-1.449-0.374-1.79-0.566l1.114,6.038c1.633,0.267,5.335,0.753,10.873,0.812c5.829,0.069,10.665-0.535,12.688-0.835
		l1.111-6.015c-0.295,0.166-0.753,0.333-1.45,0.493V35.95z"/>
	<path d="M17.893,43.701c-4.599-0.049-7.987-0.377-10.09-0.658l0.215,1.164c0.206,1.119,1.295,2.025,2.433,2.025h16.777
		c1.137,0,2.227-0.906,2.433-2.025l0.222-1.2c-2.398,0.308-6.365,0.699-11.081,0.699C18.5,43.706,18.199,43.704,17.893,43.701z"/>
	<ellipse cx="45.589" cy="19.944" rx="13.023" ry="1.673"/>
	<path d="M57.032,23.95c0,0.426-0.346,0.772-0.772,0.772h-0.708c-0.426,0-0.772-0.346-0.772-0.772v-2.089
		c-2.198,0.279-5.024,0.446-8.063,0.479v2.604c0,0.426-0.346,0.772-0.772,0.772h-0.708c-0.427,0-0.772-0.347-0.772-0.772V22.34
		c-2.884-0.031-5.578-0.183-7.724-0.437v2.047c0,0.426-0.345,0.772-0.772,0.772h-0.708c-0.426,0-0.772-0.346-0.772-0.772v-2.394
		c-0.892-0.183-1.449-0.374-1.79-0.566l1.114,6.038c1.633,0.267,5.335,0.753,10.873,0.812c5.829,0.069,10.666-0.535,12.688-0.835
		l1.111-6.015c-0.295,0.166-0.753,0.333-1.45,0.493V23.95z"/>
	<path d="M44.643,31.701c-4.599-0.049-7.987-0.377-10.09-0.658l0.215,1.164l2.113,13.051c0.177,1.091,1.215,1.975,2.32,1.975h12.777
		c1.104,0,2.143-0.884,2.32-1.975l2.113-13.051l0.222-1.2c-2.398,0.308-6.365,0.699-11.082,0.699
		C45.25,31.706,44.949,31.704,44.643,31.701z"/>
</g>
</svg>
