<?xml version="1.0" encoding="iso-8859-1"?>
<!-- Generator: Adobe Illustrator 17.0.0, SVG Export Plug-In . SVG Version: 6.00 Build 0)  -->
<!DOCTYPE svg PUBLIC "-//W3C//DTD SVG 1.1//EN" "http://www.w3.org/Graphics/SVG/1.1/DTD/svg11.dtd">
<svg version="1.1" id="Capa_1" xmlns="http://www.w3.org/2000/svg" xmlns:xlink="http://www.w3.org/1999/xlink" x="0px" y="0px"
	 width="64px" height="64px" viewBox="0 0 64 64" style="enable-background:new 0 0 64 64;" xml:space="preserve">
<path d="M29.432,25.949c-3.438,0-6.226,2.787-6.226,6.225c0,3.439,2.787,6.227,6.226,6.227c3.437,0,6.226-2.787,6.226-6.227
	C35.657,28.736,32.869,25.949,29.432,25.949z M28.84,32.293l-1.252,0.719c-0.217,0.124-0.391,0.023-0.391-0.226v-1.433
	c0-0.249,0.174-0.35,0.391-0.226l1.252,0.719C29.057,31.97,29.057,32.17,28.84,32.293z M29.736,32.752
	c0,0.249-0.136,0.452-0.305,0.452c-0.169,0-0.307-0.203-0.307-0.452v-1.365c0-0.249,0.138-0.45,0.307-0.45
	c0.169,0,0.305,0.201,0.305,0.45V32.752z M31.003,32.752c0,0.249-0.136,0.452-0.306,0.452c-0.168,0-0.306-0.203-0.306-0.452v-1.365
	c0-0.249,0.138-0.45,0.306-0.45c0.17,0,0.306,0.201,0.306,0.45V32.752z"/>
<path d="M36.166,31.606v0.927c0,0.161,0.112,0.227,0.253,0.146l0.811-0.465c0.139-0.08,0.139-0.21,0-0.29l-0.811-0.465
	C36.278,31.38,36.166,31.445,36.166,31.606z"/>
<path d="M38.578,32.803c0.108,0,0.197-0.131,0.197-0.291v-0.884c0-0.161-0.089-0.292-0.197-0.292c-0.108,0-0.197,0.131-0.197,0.292
	v0.256l-0.737-0.424c-0.14-0.08-0.253-0.015-0.253,0.146v0.927c0,0.161,0.113,0.227,0.253,0.146l0.737-0.424v0.256
	C38.381,32.672,38.47,32.803,38.578,32.803z"/>
<path d="M21.361,31.925c-0.14,0.08-0.14,0.21,0,0.29l0.811,0.465c0.14,0.08,0.253,0.015,0.253-0.146v-0.927
	c0-0.161-0.113-0.226-0.253-0.146L21.361,31.925z"/>
<path d="M20.012,31.336c-0.109,0-0.198,0.131-0.198,0.292v0.884c0,0.16,0.089,0.291,0.198,0.291s0.197-0.131,0.197-0.291v-0.256
	l0.737,0.424c0.141,0.08,0.252,0.015,0.252-0.146v-0.927c0-0.161-0.111-0.226-0.252-0.146l-0.737,0.424v-0.256
	C20.209,31.467,20.121,31.336,20.012,31.336z"/>
<path d="M29.432,24.914c0.125,0,0.228-0.103,0.228-0.229v-0.537h0.537c0.125,0,0.227-0.101,0.227-0.227
	c0-0.125-0.102-0.228-0.227-0.228h-0.537v-0.536c0-0.126-0.103-0.227-0.228-0.227c-0.126,0-0.228,0.102-0.228,0.227v0.536h-0.538
	c-0.125,0-0.228,0.103-0.228,0.228c0,0.126,0.103,0.227,0.228,0.227h0.538v0.537C29.204,24.812,29.306,24.914,29.432,24.914z"/>
<path d="M30.03,40.567c0.125,0,0.227-0.103,0.227-0.228c0-0.126-0.102-0.229-0.227-0.229H28.5c-0.125,0-0.228,0.103-0.228,0.229
	c0,0.125,0.103,0.228,0.228,0.228H30.03z"/>
<path d="M44.302,34.169c0,0-1.196-1.285-3.191-0.399c-1.994,0.887-6.204,5.273-6.47,9.794c0,0-0.133,2.349,1.905,2.835
	c0,0-0.531-0.841-0.089-3.013C36.901,41.215,40.048,35.188,44.302,34.169z"/>
<path d="M45.539,36.446c-0.198-0.626-0.458-1.177-0.839-1.613c0,0-2.217,0.222-5.229,4.388c-3.013,4.165-2.08,7.355-2.08,7.355
	s5.183,0.664,9.791,0c4.609-0.664,5.716-1.729,5.716-1.729s0.976-0.664,0.533-2.326c-0.444-1.662-1.995-1.669-1.995-1.669
	l-3.767,1.026c0,0-1.285-0.62-1.551-2.481c-0.103-0.719-0.204-1.408-0.34-2.044c6.793-0.142,13.959,0.475,14.206,1.774
	c0.005,0.031,0.007,0.057-0.03,0.104c-0.223,0.289-1.05,0.501-1.745,0.601c-0.362-0.548-1.074-1.207-2.286-0.789
	c-1.929,0.665-3.756,1.28-3.756,1.28s1.43,0.348,1.827,1.844c0.4,1.496-0.182,2.493-0.182,2.493l3.606-1.33
	c0,0,1.521-0.645,1.15-2.63c0.713-0.116,1.688-0.369,2.106-0.912c0.19-0.246,0.26-0.534,0.204-0.83
	C60.386,36.353,49.68,36.349,45.539,36.446z M38.775,46.022c-0.274,0-0.498-0.224-0.498-0.499c0-0.275,0.224-0.498,0.498-0.498
	c0.276,0,0.499,0.223,0.499,0.498C39.274,45.799,39.052,46.022,38.775,46.022z M38.973,44.66c-0.276,0-0.499-0.224-0.499-0.499
	c0-0.275,0.223-0.498,0.499-0.498c0.274,0,0.498,0.223,0.498,0.498C39.471,44.437,39.247,44.66,38.973,44.66z M39.471,43.164
	c-0.275,0-0.498-0.224-0.498-0.498c0-0.275,0.223-0.499,0.498-0.499s0.498,0.224,0.498,0.499
	C39.969,42.94,39.746,43.164,39.471,43.164z M40.276,41.636c-0.275,0-0.498-0.223-0.498-0.499c0-0.275,0.223-0.498,0.498-0.498
	c0.275,0,0.499,0.223,0.499,0.498C40.775,41.413,40.552,41.636,40.276,41.636z M41.233,40.04c-0.276,0-0.499-0.224-0.499-0.498
	c0-0.276,0.223-0.499,0.499-0.499c0.274,0,0.498,0.223,0.498,0.499C41.731,39.816,41.508,40.04,41.233,40.04z"/>
<path d="M29.432,42.521c-5.715,0-10.347-4.633-10.347-10.348c0-5.714,4.632-10.347,10.347-10.347
	c5.714,0,10.347,4.633,10.347,10.347c0,0.477-0.044,0.943-0.106,1.403c0.389-0.278,0.754-0.499,1.069-0.64
	c0.583-0.259,1.168-0.39,1.739-0.39c0.294,0,0.557,0.041,0.802,0.096V20.631v-0.598V19.8c0-0.459-0.893-0.831-1.993-0.831h-2.392
	l0.928-0.576h1.464c0,0,0-0.248,0-0.553c0-0.307-0.893-0.555-1.994-0.555h-28.76c-1.101,0-1.994,0.248-1.994,0.555v0.553h3.511
	c-0.366,0.161-0.6,0.358-0.621,0.576H8.497c-1.102,0-1.994,0.372-1.994,0.831c0,0.083,0,0.157,0,0.233v0.598v23.684h27.28
	c-0.046-0.298-0.064-0.578-0.051-0.804c0.042-0.717,0.181-1.425,0.378-2.117C32.704,42.11,31.117,42.521,29.432,42.521z
	 M36.113,18.393l1.012,0.576h-0.748l-1.012-0.576H36.113z M14.377,19.685c-1.04,0-1.883-0.288-1.883-0.643
	c0-0.354,0.843-0.642,1.883-0.642c1.041,0,1.884,0.288,1.884,0.642C16.261,19.396,15.418,19.685,14.377,19.685z M16.641,18.393
	h17.423l-0.928,0.576H17.261C17.239,18.751,17.006,18.554,16.641,18.393z"/>
</svg>
