<?xml version="1.0" encoding="iso-8859-1"?>
<!-- Generator: Adobe Illustrator 17.0.0, SVG Export Plug-In . SVG Version: 6.00 Build 0)  -->
<!DOCTYPE svg PUBLIC "-//W3C//DTD SVG 1.1//EN" "http://www.w3.org/Graphics/SVG/1.1/DTD/svg11.dtd">
<svg version="1.1" id="Capa_1" xmlns="http://www.w3.org/2000/svg" xmlns:xlink="http://www.w3.org/1999/xlink" x="0px" y="0px"
	 width="64px" height="64px" viewBox="0 0 64 64" style="enable-background:new 0 0 64 64;" xml:space="preserve">
<g>
	<path d="M43.566,3H19.934c-2.008,0-3.635,1.628-3.635,3.636v51.229c0,2.008,1.628,3.636,3.635,3.636h23.631
		c2.008,0,3.635-1.628,3.635-3.636V6.636C47.201,4.628,45.573,3,43.566,3z M20.803,9.36c0-1.256,1.59-2.275,3.551-2.275h14.794
		c1.961,0,3.551,1.018,3.551,2.275v16.45c0,1.256-1.59,2.275-3.551,2.275H24.353c-1.961,0-3.551-1.018-3.551-2.275V9.36z
		 M31.75,56.695c-6.442,0-11.664-5.222-11.664-11.664s5.222-11.664,11.664-11.664s11.664,5.222,11.664,11.664
		S38.192,56.695,31.75,56.695z"/>
	<circle cx="31.75" cy="45.031" r="6.706"/>
	<path d="M30.809,24.696c0.827-0.827,1.274-1.846,1.335-2.792h0.015v-0.388v-0.03V13.25h5.091V9.117h-5.972
		c-0.486,0-0.881,0.401-0.881,0.895v9.229c-1.169-0.326-2.662,0.119-3.793,1.25c-1.517,1.517-1.805,3.688-0.644,4.849
		C27.121,26.502,29.292,26.213,30.809,24.696z"/>
</g>
</svg>
