<?xml version="1.0" encoding="iso-8859-1"?>
<!-- Generator: Adobe Illustrator 17.0.0, SVG Export Plug-In . SVG Version: 6.00 Build 0)  -->
<!DOCTYPE svg PUBLIC "-//W3C//DTD SVG 1.1//EN" "http://www.w3.org/Graphics/SVG/1.1/DTD/svg11.dtd">
<svg version="1.1" id="Capa_1" xmlns="http://www.w3.org/2000/svg" xmlns:xlink="http://www.w3.org/1999/xlink" x="0px" y="0px"
	 width="64px" height="64px" viewBox="0 0 64 64" style="enable-background:new 0 0 64 64;" xml:space="preserve">
<g>
	<path d="M5.818,56.678c0.112,0,0.227-0.014,0.342-0.043l7.718-1.967l0.233,0.899l13.743-3.552c0.834,1.753,2.097,2.829,3.218,2.569
		c0.262-0.061,0.488-0.212,0.696-0.4l1.835,1.187c0.427,0.276,1.168,0.379,1.654,0.229l17.171-5.284
		c2.433-0.748,4.489-3.415,4.597-5.957l1.034-24.648c0.022-0.508-0.22-1.251-0.65-1.522c-0.555-0.351-1.519-0.763-3.097-0.987
		c-0.287-2.859-1.152-8.448-3.692-12.319c-0.558-0.851-1.698-1.088-2.552-0.53c-0.85,0.558-1.088,1.701-0.528,2.551
		c1.988,3.031,2.767,7.639,3.062,10.258c-2.164,0.356-2.521,1.398-2.521,1.398l-3.454,18.079l-13.877,5.204
		c-0.477,0.179-1.005,0.71-1.18,1.188l-0.481,1.312c-0.13-0.004-0.26,0.002-0.388,0.032c-0.997,0.232-1.615,1.472-1.727,3.108
		l-14.016,3.623l0.228,0.884l-7.708,1.964c-0.74,0.188-1.187,0.94-0.998,1.68C4.64,56.262,5.201,56.678,5.818,56.678z"/>
</g>
</svg>
