<?xml version="1.0" encoding="iso-8859-1"?>
<!-- Generator: Adobe Illustrator 16.0.4, SVG Export Plug-In . SVG Version: 6.00 Build 0)  -->
<!DOCTYPE svg PUBLIC "-//W3C//DTD SVG 1.1//EN" "http://www.w3.org/Graphics/SVG/1.1/DTD/svg11.dtd">
<svg version="1.1" id="Capa_1" xmlns="http://www.w3.org/2000/svg" xmlns:xlink="http://www.w3.org/1999/xlink" x="0px" y="0px"
	 width="64px" height="64px" viewBox="0 0 64 64" style="enable-background:new 0 0 64 64;" xml:space="preserve">
<path d="M49.796,17.553l-7.539,7.539l3.405,3.404L27.666,46.492l-7.296,3.404l-0.061-0.061l-4.803,4.803l-1.752-1.752l-8.025,8.076
	L2,57.234l8.025-8.076l-1.774-1.774l4.859-4.858l3.369-7.219L34.475,17.31l3.739,3.739l7.539-7.539L49.796,17.553z M46.24,13.023
	l4.043,4.043l5.593-5.593L51.833,7.43L46.24,13.023z M52.472,6.792l4.043,4.043l0.942-0.942l-4.043-4.043L52.472,6.792z
	 M60.998,2.308l-4.119-0.471l-1.915,3.86l2.646,2.645l3.859-1.915L60.998,2.308z"/>
</svg>
