<?xml version="1.0" encoding="iso-8859-1"?>
<!-- Generator: Adobe Illustrator 17.0.0, SVG Export Plug-In . SVG Version: 6.00 Build 0)  -->
<!DOCTYPE svg PUBLIC "-//W3C//DTD SVG 1.1//EN" "http://www.w3.org/Graphics/SVG/1.1/DTD/svg11.dtd">
<svg version="1.1" id="Capa_1" xmlns="http://www.w3.org/2000/svg" xmlns:xlink="http://www.w3.org/1999/xlink" x="0px" y="0px"
	 width="64px" height="64px" viewBox="0 0 64 64" style="enable-background:new 0 0 64 64;" xml:space="preserve">
<g>
	<polygon points="24.603,19.213 23.853,19.213 23.853,22.587 22.061,22.587 22.061,25.087 23.853,25.087 23.853,29.024 
		24.603,29.024 24.603,25.087 26.603,25.087 26.603,22.587 24.603,22.587 	"/>
	<polygon points="33.187,18.932 32.437,18.932 32.437,22.306 30.644,22.306 30.644,24.806 32.437,24.806 32.437,28.743 
		33.187,28.743 33.187,24.806 35.187,24.806 35.187,22.306 33.187,22.306 	"/>
	<polygon points="41.77,18.65 41.02,18.65 41.02,22.024 39.228,22.024 39.228,24.524 41.02,24.524 41.02,28.462 41.77,28.462 
		41.77,24.524 43.77,24.524 43.77,22.024 41.77,22.024 	"/>
	<path d="M13.262,57.501h38.768c2.762,0,5-2.239,5-5V13.295c0-2.761-2.238-5-5-5H13.262c-2.762,0-5,2.239-5,5v39.206
		C8.262,55.262,10.5,57.501,13.262,57.501z M24.228,54.169c-1.197,0-2.167-0.97-2.167-2.167c0-1.197,0.97-2.167,2.167-2.167
		c1.197,0,2.167,0.97,2.167,2.167C26.395,53.199,25.426,54.169,24.228,54.169z M24.228,48.274c-1.197,0-2.167-0.97-2.167-2.167
		c0-1.197,0.97-2.167,2.167-2.167c1.197,0,2.167,0.97,2.167,2.167C26.395,47.305,25.426,48.274,24.228,48.274z M24.228,42.38
		c-1.197,0-2.167-0.97-2.167-2.167s0.97-2.167,2.167-2.167c1.197,0,2.167,0.97,2.167,2.167S25.426,42.38,24.228,42.38z
		 M26.603,35.337h-4.75v-2.439h4.75V35.337z M32.916,54.169c-1.197,0-2.167-0.97-2.167-2.167c0-1.197,0.97-2.167,2.167-2.167
		c1.197,0,2.167,0.97,2.167,2.167C35.083,53.199,34.113,54.169,32.916,54.169z M30.27,35.337v-2.439h4.75v2.439H30.27z
		 M32.916,48.274c-1.197,0-2.167-0.97-2.167-2.167c0-1.197,0.97-2.167,2.167-2.167c1.197,0,2.167,0.97,2.167,2.167
		C35.083,47.305,34.113,48.274,32.916,48.274z M32.916,42.38c-1.197,0-2.167-0.97-2.167-2.167s0.97-2.167,2.167-2.167
		c1.197,0,2.167,0.97,2.167,2.167S34.113,42.38,32.916,42.38z M41.603,54.169c-1.197,0-2.167-0.97-2.167-2.167
		c0-1.197,0.97-2.167,2.167-2.167c1.197,0,2.167,0.97,2.167,2.167C43.77,53.199,42.801,54.169,41.603,54.169z M38.687,35.337v-2.439
		h4.75v2.439H38.687z M41.603,48.274c-1.197,0-2.167-0.97-2.167-2.167c0-1.197,0.97-2.167,2.167-2.167
		c1.197,0,2.167,0.97,2.167,2.167C43.77,47.305,42.801,48.274,41.603,48.274z M41.603,42.38c-1.197,0-2.167-0.97-2.167-2.167
		s0.97-2.167,2.167-2.167c1.197,0,2.167,0.97,2.167,2.167S42.801,42.38,41.603,42.38z M19.603,10.712h0.522h25.103h1v20.375H19.603
		V10.712z M18.103,54.587h-6.25V41.962h6.25V54.587z M14.144,11.713c0.736,0,1.333,0.597,1.333,1.333
		c0,0.736-0.597,1.333-1.333,1.333c-0.736,0-1.333-0.597-1.333-1.333C12.811,12.31,13.408,11.713,14.144,11.713z M14.144,16.547
		c0.736,0,1.333,0.597,1.333,1.333s-0.597,1.333-1.333,1.333c-0.736,0-1.333-0.597-1.333-1.333S13.408,16.547,14.144,16.547z
		 M11.395,21.379h5.833v0.917h-5.833V21.379z M11.395,38.962h5.833v0.917h-5.833V38.962z"/>
</g>
</svg>
