<?xml version="1.0" encoding="iso-8859-1"?>
<!-- Generator: Adobe Illustrator 17.0.0, SVG Export Plug-In . SVG Version: 6.00 Build 0)  -->
<!DOCTYPE svg PUBLIC "-//W3C//DTD SVG 1.1//EN" "http://www.w3.org/Graphics/SVG/1.1/DTD/svg11.dtd">
<svg version="1.1" id="Capa_1" xmlns="http://www.w3.org/2000/svg" xmlns:xlink="http://www.w3.org/1999/xlink" x="0px" y="0px"
	 width="64px" height="64px" viewBox="0 0 64 64" style="enable-background:new 0 0 64 64;" xml:space="preserve">
<path d="M32,40.087c-2.757,0-5,2.243-5,5s2.243,5,5,5s5-2.243,5-5S34.757,40.087,32,40.087z"/>
<path d="M32,25.087c2.757,0,5-2.243,5-5s-2.243-5-5-5s-5,2.243-5,5S29.243,25.087,32,25.087z"/>
<path d="M46.125,62.337v-2.759c5.323-2.021,5.329-7.113,5.329-13.079V15.674c0-7.738-5.2-14.011-11.614-14.011H24.16
	c-6.414,0-11.614,6.273-11.614,14.011v30.825c0,5.966,0.006,11.058,5.329,13.079v2.759h6.25V60.51c0.012,0,0.023,0.001,0.035,0.001
	H39.84c0.012,0,0.023-0.001,0.035-0.001v1.827H46.125z M32,9.087c6.075,0,11,4.925,11,11s-4.925,11-11,11s-11-4.925-11-11
	S25.925,9.087,32,9.087z M32,56.087c-6.075,0-11-4.925-11-11s4.925-11,11-11s11,4.925,11,11S38.075,56.087,32,56.087z"/>
</svg>
