<?xml version="1.0" encoding="iso-8859-1"?>
<!-- Generator: Adobe Illustrator 17.0.0, SVG Export Plug-In . SVG Version: 6.00 Build 0)  -->
<!DOCTYPE svg PUBLIC "-//W3C//DTD SVG 1.1//EN" "http://www.w3.org/Graphics/SVG/1.1/DTD/svg11.dtd">
<svg version="1.1" id="Capa_1" xmlns="http://www.w3.org/2000/svg" xmlns:xlink="http://www.w3.org/1999/xlink" x="0px" y="0px"
	 width="64px" height="64px" viewBox="0 0 64 64" style="enable-background:new 0 0 64 64;" xml:space="preserve">
<path d="M18.542,7.609c-2.209,0-4,1.791-4,4v36.168c0,2.209,1.791,4,4,4s4-1.791,4-4V11.609C22.542,9.4,20.751,7.609,18.542,7.609z"
	/>
<path d="M35.743,26.095c0.135,0.178,0.275,0.347,0.466,0.557c0.14,0.153,0.286,0.301,0.509,0.506
	c0.146,0.133,0.296,0.259,0.451,0.378l0.098,0.07c0.152,0.114,0.309,0.221,0.471,0.321l0.125,0.075
	c0.156,0.092,0.316,0.178,0.482,0.261l0.145,0.067c0.166,0.075,0.336,0.146,0.507,0.208l0.159,0.057
	c0.176,0.059,0.354,0.111,0.543,0.159l0.153,0.035c0.188,0.043,0.383,0.078,0.595,0.107l0.221,0.03
	c0.059,0.01,0.117,0.018,0.178,0.022l0.536,0.024v-0.006c0.16-0.001,0.326-0.011,0.497-0.029l0.606-0.088
	c0.328-0.071,0.671-0.184,1.106-0.363c1.564-0.649,3.055-1.88,3.983-3.281c1.286-1.835,1.884-3.88,1.884-6.449
	c0-2.587-0.893-4.706-2.893-6.869c-1.471-1.604-3.698-2.682-5.543-2.682l-0.104,0.001c-2.95,0.027-6.494,2.292-6.861,5.498
	l-0.081,0.74l0.044-0.013c0.023,0.377,0.127,0.748,0.305,1.089c0.204,0.431,0.516,0.8,0.907,1.084
	c0.474,0.376,1.046,0.642,1.654,0.771c0.284,0.061,0.573,0.091,0.859,0.091c1.599,0,2.913-0.936,3.198-2.276
	c0.168-0.797-0.043-1.618-0.598-2.314c-0.532-0.667-1.32-1.14-2.241-1.328c0,0-0.116-0.041-0.359-0.093
	c0.054-0.055,0.116-0.113,0.185-0.172c0.539-0.539,1.48-0.787,2.145-0.789c1.216,0,2.008,0.537,2.01,0.538
	c0.433,0.311,0.726,0.664,0.886,0.89c0.886,1.356,1.032,3.093,1.058,4.768c0.004,0.253,0.006,0.505,0.006,0.755l0.005,0.72
	c0.015,1.563,0.036,3.705-0.548,5.223c-0.128,0.273-0.27,0.543-0.433,0.799l-0.055,0.088c-0.067,0.101-0.14,0.198-0.216,0.293
	l-0.104,0.122c-0.073,0.084-0.149,0.166-0.231,0.242l-0.118,0.096c-0.485,0.401-1.067,0.611-1.784,0.641l-0.152,0.003
	c-1.443,0-2.499-1.017-3.119-1.855c-0.859-1.257-1.172-2.232-1.421-3.493c-0.1-0.501-0.535-0.891-1.042-0.906
	c-0.253,0-0.493,0.107-0.66,0.296c-0.162,0.184-0.244,0.429-0.229,0.684l-0.002,0.012l0.001,0.009l-3.718,5.936V9.609
	c0-1.104-0.896-2-2-2c-1.105,0-2,0.896-2,2v40c0,1.105,0.895,2,2,2c1.104,0,2-0.895,2-2V33.822l3.718,5.937l-0.001,0.011
	l0.002,0.012c-0.015,0.253,0.067,0.498,0.229,0.681c0.166,0.188,0.406,0.296,0.688,0.296h0.001c0.479-0.016,0.914-0.405,1.015-0.907
	c0.248-1.26,0.56-2.235,1.408-3.478c0.632-0.854,1.688-1.87,3.131-1.87l0.156,0.004c0.713,0.028,1.295,0.238,1.779,0.64l0.119,0.096
	c0.082,0.076,0.157,0.158,0.262,0.278l0.072,0.085c0.076,0.096,0.148,0.192,0.216,0.294l0.055,0.088
	c0.163,0.256,0.305,0.525,0.419,0.766c0.598,1.551,0.576,3.692,0.562,5.256l-0.005,0.72c0,0.25-0.002,0.502-0.006,0.755
	c-0.025,1.675-0.172,3.412-1.047,4.753c-0.17,0.24-0.464,0.593-0.893,0.901c-0.008,0.005-0.799,0.541-2.031,0.541
	c-0.646-0.002-1.588-0.25-2.154-0.814c-0.057-0.049-0.11-0.099-0.158-0.146c0.179-0.037,0.29-0.07,0.3-0.075l0.081-0.015
	c0.9-0.191,1.688-0.664,2.221-1.331c0.555-0.695,0.766-1.517,0.598-2.313c-0.285-1.341-1.6-2.276-3.198-2.276
	c-0.286,0-0.575,0.03-0.858,0.091c-0.609,0.129-1.182,0.396-1.639,0.759c-0.408,0.297-0.72,0.666-0.915,1.079
	c-0.187,0.357-0.292,0.736-0.315,1.105l0.039,0.729c0.367,3.206,3.911,5.471,6.856,5.498l0.109,0.001
	c1.845,0,4.072-1.077,5.542-2.681c2.001-2.164,2.894-4.283,2.894-6.884c0-2.556-0.598-4.601-1.877-6.425
	c-0.936-1.412-2.427-2.643-4.017-3.303c-0.409-0.169-0.752-0.281-1.08-0.353l-0.606-0.087c-0.163-0.018-0.497-0.05-0.497-0.05
	l-0.536,0.038c-0.061,0.005-0.119,0.013-0.262,0.034l-0.151,0.021c-0.197,0.027-0.392,0.062-0.573,0.104l-0.166,0.038
	c-0.183,0.047-0.361,0.1-0.559,0.166l-0.135,0.048c-0.174,0.063-0.344,0.134-0.549,0.228l-0.107,0.05
	c-0.164,0.082-0.324,0.168-0.48,0.26l-0.125,0.075c-0.162,0.1-0.318,0.207-0.471,0.321l-0.098,0.07
	c-0.155,0.119-0.305,0.245-0.523,0.441c-0.15,0.142-0.297,0.289-0.48,0.487c-0.146,0.165-0.287,0.334-0.436,0.53
	c-0.352,0.468-0.643,0.987-0.899,1.528V24.545C35.091,25.092,35.384,25.619,35.743,26.095z M41.022,51.468l-0.001-0.006h0.001
	V51.468z"/>
</svg>
