<?xml version="1.0" encoding="iso-8859-1"?>
<!-- Generator: Adobe Illustrator 17.0.0, SVG Export Plug-In . SVG Version: 6.00 Build 0)  -->
<!DOCTYPE svg PUBLIC "-//W3C//DTD SVG 1.1//EN" "http://www.w3.org/Graphics/SVG/1.1/DTD/svg11.dtd">
<svg version="1.1" id="Capa_1" xmlns="http://www.w3.org/2000/svg" xmlns:xlink="http://www.w3.org/1999/xlink" x="0px" y="0px"
	 width="64px" height="64px" viewBox="0 0 64 64" style="enable-background:new 0 0 64 64;" xml:space="preserve">
<g>
	<path d="M58.057,8.14c0.168-0.067,0.366-0.258,0.423-0.43c0.379-1.141,0.117-2.447-0.791-3.355c0,0-0.044-0.044-0.097-0.097
		c-0.054-0.054-0.107,0.05-0.136,0.229c-0.093,0.579-0.306,1.085-0.526,1.305c-0.502,0.502-1.671,0.147-2.611-0.793
		c-0.94-0.94-1.295-2.109-0.793-2.611c0.22-0.22,0.726-0.433,1.305-0.526c0.179-0.029,0.282-0.082,0.229-0.136l-0.097-0.097
		c-0.904-0.904-2.203-1.168-3.341-0.796c-0.172,0.056-0.363,0.253-0.43,0.421c-0.202,0.503-0.382,0.995-0.49,1.387
		c-0.053,0.192-0.135,0.448-0.246,0.737l-0.547-0.547c0.202-0.225,0.288-0.429,0.025-0.692c-0.39-0.39-1.022-0.39-1.412,0
		s-0.39,1.022,0,1.412c0.263,0.263,0.468,0.177,0.692-0.025l0.807,0.807c-0.284,0.529-0.665,1.096-1.167,1.622L48.05,5.151
		c0.202-0.225,0.288-0.429,0.025-0.692c-0.39-0.39-1.022-0.39-1.412,0s-0.39,1.022,0,1.412c0.263,0.263,0.468,0.177,0.692-0.025
		l0.763,0.763c-0.508,0.392-1.107,0.731-1.815,0.973l-0.807-0.807c0.202-0.225,0.288-0.429,0.025-0.692
		c-0.39-0.39-1.022-0.39-1.412,0s-0.39,1.022,0,1.412c0.263,0.263,0.468,0.177,0.692-0.025l0.388,0.388
		c-0.172,0.029-0.342,0.06-0.525,0.078c-0.18,0.018-0.275,0.163-0.222,0.336c0.577,1.866-0.074,3.041-0.645,3.663
		c-0.126-0.073-0.282-0.077-0.389,0.031l-0.208,0.208c-0.128,0.128-0.128,0.336,0,0.464l0.072,0.072L31.049,25.127
		c-0.706-0.055-1.117-0.377-1.954-1.967c-1.068-2.029,0.961-6.833,0.107-10.89c-0.854-4.057-1.548-0.801-5.712,8.702
		C19.325,30.473,8.81,31.131,8.81,31.131l0.009,0.017c-0.847,0.039-1.661,0.225-2.413,0.606c-4.692,2.38-5.355,10.768-1.148,19.062
		c4.207,8.294,11.185,13.716,16.237,10.974c0.889-0.482,1.616-1.201,2.186-2.099l0.002,0.004c1.528-1.902,2.85-5.999,4.451-10.911
		c1.602-4.911,3.737-5.979,6.246-6.993c2.509-1.014,4.271-2.242,5.499-4.111c1.228-1.868,0.694-3.577-0.801-2.509
		c-1.495,1.068-4.431,2.509-6.299,0.641c-1.868-1.868,0.534-5.659,0.534-5.659l0.257-0.668l13.144-13.351
		c0.129,0.104,0.314,0.107,0.433-0.013l0.208-0.208c0.105-0.105,0.102-0.255,0.035-0.379c0.621-0.572,1.796-1.225,3.663-0.649
		c0.173,0.053,0.318-0.042,0.336-0.222c0.018-0.184,0.049-0.354,0.078-0.527l0.384,0.384c-0.202,0.225-0.288,0.429-0.025,0.692
		c0.39,0.39,1.022,0.39,1.412,0s0.39-1.022,0-1.412c-0.263-0.263-0.468-0.177-0.692,0.025l-0.803-0.803
		c0.242-0.708,0.581-1.307,0.973-1.815l0.759,0.759c-0.202,0.225-0.288,0.429-0.025,0.692c0.39,0.39,1.022,0.39,1.412,0
		s0.39-1.022,0-1.412c-0.263-0.263-0.468-0.177-0.692,0.025l-0.798-0.798c0.526-0.502,1.093-0.883,1.622-1.167l0.803,0.803
		c-0.202,0.225-0.288,0.429-0.025,0.692c0.39,0.39,1.022,0.39,1.412,0s0.39-1.022,0-1.412c-0.263-0.263-0.468-0.177-0.692,0.025
		l-0.543-0.543c0.289-0.111,0.545-0.193,0.737-0.246C57.073,8.517,57.56,8.34,58.057,8.14z"/>
</g>
</svg>
