<?xml version="1.0" encoding="iso-8859-1"?>
<!-- Generator: Adobe Illustrator 17.0.0, SVG Export Plug-In . SVG Version: 6.00 Build 0)  -->
<!DOCTYPE svg PUBLIC "-//W3C//DTD SVG 1.1//EN" "http://www.w3.org/Graphics/SVG/1.1/DTD/svg11.dtd">
<svg version="1.1" id="Capa_1" xmlns="http://www.w3.org/2000/svg" xmlns:xlink="http://www.w3.org/1999/xlink" x="0px" y="0px"
	 width="64px" height="64px" viewBox="0 0 64 64" style="enable-background:new 0 0 64 64;" xml:space="preserve">
<path d="M53.687,20.347H41.684c-0.338-4.804-4.344-8.612-9.233-8.612s-8.895,3.808-9.233,8.612H9.979c-5.034,0-9.13,4.096-9.13,9.13
	v7.047c0,5.034,4.096,9.13,9.13,9.13h43.708c5.034,0,9.13-4.096,9.13-9.13v-7.047C62.817,24.442,58.722,20.347,53.687,20.347z
	 M32.451,13.734c3.785,0,6.901,2.912,7.232,6.612H25.219C25.551,16.646,28.666,13.734,32.451,13.734z M60.817,36.523
	c0,3.932-3.198,7.13-7.13,7.13H9.979c-3.932,0-7.13-3.198-7.13-7.13v-7.047c0-3.932,3.198-7.13,7.13-7.13h43.708
	c3.932,0,7.13,3.198,7.13,7.13V36.523z"/>
<path d="M13.451,24.734c-4.565,0-8.266,3.701-8.266,8.266c0,4.565,3.701,8.266,8.266,8.266c4.565,0,8.266-3.701,8.266-8.266
	C21.717,28.435,18.016,24.734,13.451,24.734z M13.451,36.266c-1.801,0-3.266-1.465-3.266-3.266s1.465-3.266,3.266-3.266
	s3.266,1.465,3.266,3.266S15.252,36.266,13.451,36.266z"/>
<path d="M50.451,24.734c-4.565,0-8.266,3.701-8.266,8.266c0,4.565,3.701,8.266,8.266,8.266c4.565,0,8.266-3.701,8.266-8.266
	C58.717,28.435,55.016,24.734,50.451,24.734z M50.451,36.266c-1.801,0-3.266-1.465-3.266-3.266s1.465-3.266,3.266-3.266
	s3.266,1.465,3.266,3.266S52.252,36.266,50.451,36.266z"/>
<path d="M37.167,24.5H26.5c-1.103,0-2,0.897-2,2v7c0,1.103,0.897,2,2,2h10.667c1.103,0,2-0.897,2-2v-7
	C39.167,25.397,38.27,24.5,37.167,24.5z M26.5,33.5v-7h10.667l0.001,7H26.5z"/>
<rect x="24" y="38.333" width="3" height="3"/>
<rect x="30" y="38.333" width="3" height="3"/>
<rect x="36" y="38.333" width="3" height="3"/>
</svg>
