<?xml version="1.0" encoding="iso-8859-1"?>
<!-- Generator: Adobe Illustrator 17.0.0, SVG Export Plug-In . SVG Version: 6.00 Build 0)  -->
<!DOCTYPE svg PUBLIC "-//W3C//DTD SVG 1.1//EN" "http://www.w3.org/Graphics/SVG/1.1/DTD/svg11.dtd">
<svg version="1.1" id="Capa_1" xmlns="http://www.w3.org/2000/svg" xmlns:xlink="http://www.w3.org/1999/xlink" x="0px" y="0px"
	 width="64px" height="64px" viewBox="0 0 64 64" style="enable-background:new 0 0 64 64;" xml:space="preserve">
<g>
	<path d="M49.966,40.513l1.641-1.641l-2.517-2.517l-1.641,1.641l-2.634-2.634l4.434-4.434L30.233,11.912L11.217,30.928
		l19.016,19.016l4.434-4.434l10.385,10.385c2.802,2.802,7.346,2.802,10.148,0c2.802-2.802,2.802-7.346,0-10.148L49.966,40.513z"/>
	<path d="M18.947,19.642c4.455-4.455,8.777-7.357,4.322-11.813s-11.679-4.455-16.135,0s-4.455,11.679,0,16.135
		S14.491,24.098,18.947,19.642z"/>
</g>
</svg>
