<?xml version="1.0" encoding="iso-8859-1"?>
<!-- Generator: Adobe Illustrator 17.0.0, SVG Export Plug-In . SVG Version: 6.00 Build 0)  -->
<!DOCTYPE svg PUBLIC "-//W3C//DTD SVG 1.1//EN" "http://www.w3.org/Graphics/SVG/1.1/DTD/svg11.dtd">
<svg version="1.1" id="Capa_1" xmlns="http://www.w3.org/2000/svg" xmlns:xlink="http://www.w3.org/1999/xlink" x="0px" y="0px"
	 width="64px" height="64px" viewBox="0 0 64 64" style="enable-background:new 0 0 64 64;" xml:space="preserve">
<g>
	<path d="M7.544,36.836c0,0-1.364-0.487-3.896,4.383c-2.532,4.87-1.071,10.714,0.584,12.76c0.998,1.233,3.037,1.456,4.502,1.439
		c-0.016,1.465,0.206,3.504,1.439,4.502c2.045,1.656,7.889,3.117,12.76,0.584c4.87-2.532,4.383-3.896,4.383-3.896
		s0.292-1.172,1.558-0.974c0,0,6.964,2.289,15.195-8.084c0,0,4.481-4.48-9.302-9.302c0,0-2.612-0.338-2.33-2.606l15.749-16.007
		c2.002-0.063,4.472-1.239,6.555-3.322c0.169-0.169,0.328-0.341,0.485-0.514l0.001,0.002c0,0,6.545-6.822,4.173-14.801
		c0,0-3.707,4.253-6.764,5.411c-0.155,0.047-0.31,0.099-0.467,0.156c-0.012,0.003-0.024,0.009-0.036,0.012l0.001,0.002
		c-1.436,0.536-2.94,1.498-4.282,2.841c-1.956,1.957-3.113,4.254-3.299,6.186l-0.028-0.027L28.684,31.68
		c-2.42,0.435-2.78-2.295-2.78-2.295c-4.821-13.782-9.302-9.302-9.302-9.302c-10.373,8.23-8.084,15.195-8.084,15.195
		C8.716,36.543,7.544,36.836,7.544,36.836z"/>
</g>
</svg>
