<?xml version="1.0" encoding="iso-8859-1"?>
<!-- Generator: Adobe Illustrator 17.0.0, SVG Export Plug-In . SVG Version: 6.00 Build 0)  -->
<!DOCTYPE svg PUBLIC "-//W3C//DTD SVG 1.1//EN" "http://www.w3.org/Graphics/SVG/1.1/DTD/svg11.dtd">
<svg version="1.1" id="Capa_1" xmlns="http://www.w3.org/2000/svg" xmlns:xlink="http://www.w3.org/1999/xlink" x="0px" y="0px"
	 width="64px" height="64px" viewBox="0 0 64 64" style="enable-background:new 0 0 64 64;" xml:space="preserve">
<path d="M46.779,31.733c-0.224-0.688-0.78-1.215-1.481-1.4c-0.699-0.186-1.444-0.002-1.979,0.486l-5.078,4.637
	c-0.84-3.931-2.363-7.919-3.738-11.032c3.59-0.971,8.871-3.137,10.431-7.667c2.134-6.198,1.94-8.316,1.88-8.679l-9.529-5.761
	l-1.045,1.496l7.823,5.468c-0.114,1.001-0.492,3.027-1.717,6.585c-1.219,3.539-5.966,5.268-9.009,6.028
	c-0.387-0.799-0.73-1.48-1.008-2.014c1.221-1.862,1.352-4.498,0.118-6.824c-1.718-3.24-5.415-4.645-8.26-3.138
	c-2.844,1.508-3.758,5.356-2.04,8.596c1.395,2.633,4.098,4.054,6.588,3.686c0.201,0.396,0.414,0.827,0.635,1.284l-7.563,2.753
	l-9.599-2.923l-3.619-7.643L6.92,16.407l4.491,9.525l10.035,3.056c0.13,0.039,0.265,0.059,0.398,0.059
	c0.158,0,0.317-0.028,0.469-0.083l8.207-2.987c2.448,5.565,5.068,13.255,3.779,17.605c-2.359,7.961-5.639,15.156-5.672,15.228
	l3.87,1.773c0.14-0.304,3.437-7.531,5.884-15.792c0.376-1.267,0.523-2.674,0.502-4.159l4.866-4.443l3.237,9.972l4.049-1.314
	L46.779,31.733z"/>
</svg>
