<?xml version="1.0" encoding="iso-8859-1"?>
<!-- Generator: Adobe Illustrator 17.0.0, SVG Export Plug-In . SVG Version: 6.00 Build 0)  -->
<!DOCTYPE svg PUBLIC "-//W3C//DTD SVG 1.1//EN" "http://www.w3.org/Graphics/SVG/1.1/DTD/svg11.dtd">
<svg version="1.1" id="Capa_1" xmlns="http://www.w3.org/2000/svg" xmlns:xlink="http://www.w3.org/1999/xlink" x="0px" y="0px"
	 width="64px" height="64px" viewBox="0 0 64 64" style="enable-background:new 0 0 64 64;" xml:space="preserve">
<path d="M56.977,12.807H7.023c-2.904,0-5.258,2.354-5.258,5.258v27.869c0,2.904,2.354,5.258,5.258,5.258h2.7
	c-0.029-0.227-0.069-0.451-0.069-0.685v-0.548c0-0.283,0.028-0.558,0.069-0.83l44.568,0.098c0.032,0.24,0.054,0.483,0.054,0.731
	v0.548c0,0.235-0.04,0.458-0.069,0.685h2.7c2.904,0,5.258-2.354,5.258-5.258V18.065C62.235,15.161,59.881,12.807,56.977,12.807z
	 M11.214,46.133c0.996-1.021,2.385-1.657,3.924-1.657h33.724c1.584,0,3.006,0.675,4.008,1.749L11.214,46.133z M59.235,45.934
	c0,1.184-0.916,2.158-2.076,2.251c-0.818-3.829-4.227-6.71-8.297-6.71H15.138c-4.07,0-7.479,2.881-8.297,6.71
	c-1.16-0.093-2.076-1.067-2.076-2.251V18.065c0-1.245,1.013-2.258,2.258-2.258h49.954c1.245,0,2.258,1.013,2.258,2.258V45.934z"/>
<path d="M18.565,22c-3.7,0-6.709,3.01-6.709,6.71c0,3.699,3.01,6.709,6.709,6.709s6.709-3.01,6.709-6.709
	C25.274,25.01,22.265,22,18.565,22z M18.565,32.419c-2.045,0-3.709-1.664-3.709-3.709c0-2.046,1.664-3.71,3.709-3.71
	s3.709,1.664,3.709,3.71C22.274,30.755,20.61,32.419,18.565,32.419z"/>
<path d="M44.887,22c-3.7,0-6.709,3.01-6.709,6.71c0,3.699,3.01,6.709,6.709,6.709s6.709-3.01,6.709-6.709
	C51.596,25.01,48.586,22,44.887,22z M44.887,32.419c-2.045,0-3.709-1.664-3.709-3.709c0-2.046,1.664-3.71,3.709-3.71
	s3.709,1.664,3.709,3.71C48.596,30.755,46.932,32.419,44.887,32.419z"/>
<path d="M8.969,17.742c-2.122,0-2.122,3.29,0,3.29S11.09,17.742,8.969,17.742z"/>
<path d="M54.849,17.742c-2.122,0-2.122,3.29,0,3.29C56.97,21.033,56.97,17.742,54.849,17.742z"/>
<path d="M32,20.735c-0.552,0-1,0.447-1,1v13.949c0,0.553,0.448,1,1,1s1-0.447,1-1V21.735C33,21.183,32.552,20.735,32,20.735z"/>
</svg>
