<?xml version="1.0" encoding="iso-8859-1"?>
<!-- Generator: Adobe Illustrator 17.0.0, SVG Export Plug-In . SVG Version: 6.00 Build 0)  -->
<!DOCTYPE svg PUBLIC "-//W3C//DTD SVG 1.1//EN" "http://www.w3.org/Graphics/SVG/1.1/DTD/svg11.dtd">
<svg version="1.1" id="Capa_1" xmlns="http://www.w3.org/2000/svg" xmlns:xlink="http://www.w3.org/1999/xlink" x="0px" y="0px"
	 width="64px" height="64px" viewBox="0 0 64 64" style="enable-background:new 0 0 64 64;" xml:space="preserve">
<circle cx="19.892" cy="27.907" r="3.599"/>
<circle cx="43.992" cy="27.907" r="3.599"/>
<polygon points="47.315,44.067 16.651,44.067 15.308,48.189 48.659,48.189 "/>
<path d="M57.551,14.65H6.416c-1.105,0-2,0.896-2,2v29.539c0,1.104,0.895,2,2,2h5.737l2.32-7.122h35.02l2.32,7.122h5.737
	c1.104,0,2-0.896,2-2V16.65C59.551,15.546,58.655,14.65,57.551,14.65z M56.528,35.552H7.403V21.83l2.159-2.304h44.842l2.124,2.304
	V35.552z"/>
</svg>
