<?xml version="1.0" encoding="iso-8859-1"?>
<!-- Generator: Adobe Illustrator 17.0.0, SVG Export Plug-In . SVG Version: 6.00 Build 0)  -->
<!DOCTYPE svg PUBLIC "-//W3C//DTD SVG 1.1//EN" "http://www.w3.org/Graphics/SVG/1.1/DTD/svg11.dtd">
<svg version="1.1" id="Capa_1" xmlns="http://www.w3.org/2000/svg" xmlns:xlink="http://www.w3.org/1999/xlink" x="0px" y="0px"
	 width="64px" height="64px" viewBox="0 0 64 64" style="enable-background:new 0 0 64 64;" xml:space="preserve">
<g>
	<path d="M40.813,15.806c-0.103-2.395-0.713-5.668-2.935-8.34c-1.972-2.369-4.083-3.572-6.278-3.572
		c-2.539,0-5.055,1.631-7.477,4.846c-2.717,3.609-3.473,7.42-3.607,10.092c-1.26,0.504-2.055,1.494-2.055,2.594v7.949
		c-5.547,1.988-9.523,7.279-9.523,13.51c0,7.936,6.433,14.367,14.367,14.367c5.33,0,9.973-2.91,12.451-7.221
		c0.708,0.125,1.434,0.197,2.178,0.197c6.844,0,12.392-5.549,12.392-12.393c0-5.141-3.127-9.547-7.581-11.426v-8.274
		C42.745,17.13,41.982,16.228,40.813,15.806z M22.493,49.373c-3.584,0-6.488-2.904-6.488-6.488c0-3.582,2.904-6.486,6.488-6.486
		c3.582,0,6.486,2.904,6.486,6.486C28.979,46.468,26.075,49.373,22.493,49.373z M28.702,29.576c-0.174-0.07-0.355-0.123-0.533-0.188
		v-7.963c0-1.225-1.002-2.311-2.484-2.74c0.023-4.672,0.859-12.078,5.875-12.457c3.135,0.611,4.137,6.145,4.458,9.666
		c-1.05,0.451-1.708,1.301-1.708,2.242v7.858C32.124,26.666,30.19,27.914,28.702,29.576z M43.942,37.833
		c0,3.318-2.69,6.008-6.008,6.008c-0.105,0-0.207-0.012-0.311-0.016c0.02-0.312,0.048-0.623,0.048-0.941
		c0-3.68-1.396-7.025-3.673-9.568c1.057-0.92,2.425-1.49,3.936-1.49C41.252,31.826,43.942,34.515,43.942,37.833z"/>
</g>
</svg>
