<?xml version="1.0" encoding="iso-8859-1"?>
<!-- Generator: Adobe Illustrator 17.0.0, SVG Export Plug-In . SVG Version: 6.00 Build 0)  -->
<!DOCTYPE svg PUBLIC "-//W3C//DTD SVG 1.1//EN" "http://www.w3.org/Graphics/SVG/1.1/DTD/svg11.dtd">
<svg version="1.1" id="Capa_1" xmlns="http://www.w3.org/2000/svg" xmlns:xlink="http://www.w3.org/1999/xlink" x="0px" y="0px"
	 width="64px" height="64px" viewBox="0 0 64 64" style="enable-background:new 0 0 64 64;" xml:space="preserve">
<g>
	<path d="M40.211,7.891c0,1.644,0.644,2.641,1.707,3.245c1.323,0.751,3.296,0.891,5.504,0.891s4.181-0.14,5.504-0.891
		c1.063-0.604,1.707-1.601,1.707-3.245c0-3.69-3.228-6.681-7.211-6.681C43.439,1.211,40.211,4.202,40.211,7.891z"/>
	<path d="M34.671,59.187c0.139-0.065,0.28-0.143,0.422-0.248c6.781-5.038,12.503-13.557,13.634-22.158
		c1.7-0.596,2.936-2.296,2.936-4.325l1.195-20.185c-1.74,0.747-3.928,0.755-5.437,0.755s-3.697-0.008-5.437-0.755l0.214,3.617
		h-0.175c-1.001,0-1.813,0.812-1.813,1.813s0.812,1.813,1.813,1.813h0.39l0.766,12.942c0,1.704,0.876,3.172,2.16,3.957
		c-0.434,3.378-1.695,6.957-3.477,10.278c0.016-0.297,0.045-0.59,0.045-0.891c0-8.845-7.17-16.015-16.015-16.015
		c-6.328,0-11.783,3.68-14.384,9.008c-0.131-4.262,0.304-8.567,0.961-12.452c0.994-0.494,1.796-1.54,2.051-2.866l1.056-5.486
		l-1.128-0.217l0.855-4.627l-3.999-0.77l-0.855,4.627l-1.067-0.205l-1.056,5.486c-0.251,1.305,0.088,2.557,0.803,3.386
		c-1.454,8.715-1.778,17.927,1.916,26.116c0.104,0.23,0.198,0.461,0.308,0.689c0.001,0.002,0.002,0.003,0.003,0.005
		c2.533,5.504,8.08,9.335,14.536,9.335C29.136,61.816,32.149,60.845,34.671,59.187z M14.096,51.265
		c-0.097-0.208-0.191-0.415-0.277-0.628c-0.602-1.497-0.942-3.126-0.942-4.836c0-7.177,5.838-13.015,13.015-13.015
		s13.015,5.838,13.015,13.015c0,7.176-5.838,13.015-13.015,13.015C20.669,58.816,16.167,55.716,14.096,51.265z"/>
	<path d="M11.485,11.394l3.999,0.77l0.077-0.414l-2.048-0.394l0.223,0.043l1.825,0.351c0,0,0.042-0.618-0.326-0.963
		c-0.367-0.345-0.027-0.201,0.323-0.72c0.35-0.52-1.089-2.37-1.089-2.37l-0.02-0.004l-0.34-0.065l-0.02-0.004
		c0,0-2.023,1.184-1.891,1.796c0.132,0.612,0.501,0.605,0.032,0.789c-0.469,0.184-0.66,0.773-0.66,0.773l0.866,0.167l-0.874-0.168
		L11.485,11.394z"/>
</g>
</svg>
