<?xml version="1.0" encoding="iso-8859-1"?>
<!-- Generator: Adobe Illustrator 17.0.0, SVG Export Plug-In . SVG Version: 6.00 Build 0)  -->
<!DOCTYPE svg PUBLIC "-//W3C//DTD SVG 1.1//EN" "http://www.w3.org/Graphics/SVG/1.1/DTD/svg11.dtd">
<svg version="1.1" id="Capa_1" xmlns="http://www.w3.org/2000/svg" xmlns:xlink="http://www.w3.org/1999/xlink" x="0px" y="0px"
	 width="64px" height="64px" viewBox="0 0 64 64" style="enable-background:new 0 0 64 64;" xml:space="preserve">
<path d="M30.837,42.85c6.773,0,12.262-5.49,12.262-12.264c0-6.773-5.488-12.262-12.262-12.262c-6.773,0-12.262,5.488-12.262,12.262
	C18.576,37.359,24.064,42.85,30.837,42.85z M30.837,25.036c3.065,0,5.549,2.485,5.549,5.55c0,3.066-2.484,5.551-5.549,5.551
	c-3.066,0-5.551-2.484-5.551-5.551C25.287,27.521,27.771,25.036,30.837,25.036z"/>
<path d="M30.837,46.52c8.866,0,16.078-7.214,16.078-16.08c0-8.866-7.212-16.08-16.078-16.08c-8.867,0-16.08,7.214-16.08,16.08
	C14.757,39.306,21.971,46.52,30.837,46.52z M30.837,15.359c8.314,0,15.078,6.765,15.078,15.08c0,8.315-6.764,15.08-15.078,15.08
	c-8.315,0-15.08-6.765-15.08-15.08C15.757,22.124,22.522,15.359,30.837,15.359z"/>
<path d="M9.033,44.354c0.853-0.445,1.811-0.723,2.84-0.723c3.418,0,6.199,2.781,6.199,6.197c0,0.994-0.258,1.924-0.676,2.76
	c3.916,2.398,8.508,3.807,13.441,3.807c4.932,0,9.523-1.408,13.441-3.807c-0.42-0.836-0.676-1.764-0.676-2.76
	c0-3.416,2.779-6.197,6.195-6.197c1.029,0,1.986,0.277,2.844,0.723c2.521-3.988,4.004-8.699,4.004-13.768
	c0-4.398-1.106-8.536-3.049-12.16c-1.053,0.825-2.361,1.338-3.799,1.338c-3.416,0-6.195-2.781-6.195-6.197
	c0-1.676,0.674-3.193,1.758-4.31c-4.139-2.823-9.137-4.479-14.523-4.479c-5.389,0-10.387,1.656-14.527,4.479
	c1.088,1.116,1.762,2.635,1.762,4.31c0,3.416-2.781,6.197-6.199,6.197c-1.438,0-2.744-0.513-3.799-1.338
	c-1.939,3.625-3.045,7.763-3.045,12.16C5.029,35.654,6.511,40.365,9.033,44.354z M30.837,12.826c9.809,0,17.76,7.951,17.76,17.76
	c0,9.811-7.951,17.762-17.76,17.762s-17.762-7.951-17.762-17.762C13.076,20.777,21.029,12.826,30.837,12.826z"/>
<circle cx="11.873" cy="13.566" r="3.977"/>
<path d="M53.777,13.566c0-2.197-1.779-3.977-3.979-3.977c-2.195,0-3.975,1.78-3.975,3.977c0,2.195,1.779,3.977,3.975,3.977
	C51.998,17.543,53.777,15.762,53.777,13.566z"/>
<path d="M11.873,45.852c-2.195,0-3.977,1.781-3.977,3.976c0,2.197,1.781,3.977,3.977,3.977c2.199,0,3.979-1.779,3.979-3.977
	C15.851,47.633,14.072,45.852,11.873,45.852z"/>
<path d="M53.777,49.828c0-2.195-1.779-3.976-3.979-3.976c-2.195,0-3.975,1.781-3.975,3.976c0,2.197,1.779,3.977,3.975,3.977
	C51.998,53.805,53.777,52.025,53.777,49.828z"/>
</svg>
