<?xml version="1.0" encoding="iso-8859-1"?>
<!-- Generator: Adobe Illustrator 17.0.0, SVG Export Plug-In . SVG Version: 6.00 Build 0)  -->
<!DOCTYPE svg PUBLIC "-//W3C//DTD SVG 1.1//EN" "http://www.w3.org/Graphics/SVG/1.1/DTD/svg11.dtd">
<svg version="1.1" id="Capa_1" xmlns="http://www.w3.org/2000/svg" xmlns:xlink="http://www.w3.org/1999/xlink" x="0px" y="0px"
	 width="64px" height="64px" viewBox="0 0 64 64" style="enable-background:new 0 0 64 64;" xml:space="preserve">
<g>
	<path d="M15.697,51.517c-3.102-2.537-5.965-2.159-5.965-2.159s-2.173-0.02-2.644,2.487c-0.463,2.457,1.038,3.147,1.038,3.147
		c2.928,1.479,6.61,0.719,6.61,0.719c0.117-0.149,0.217-0.309,0.309-0.473l2.02,0.473l0.111-0.534c4.266,0.956,7.997,1.3,11.139,1.3
		c2.309,0,4.3-0.183,5.955-0.438l0.108,0.464l5.017-0.701c0.341,0.464,0.764,0.844,1.272,1.106c2.582,1.329,6.31-0.769,8.327-4.688
		c2.019-3.917,1.562-8.171-1.019-9.5c-0.136-0.07-0.276-0.125-0.419-0.176c1.221-2.822,2.948-8.326,2.559-16.377
		c-0.605-12.507-7.246-20.91-16.525-20.91c-8.217,0-13.336,6.093-13.692,16.298c-0.228,6.583,1.093,12.705,1.673,15.038
		c-1.832,1.473-2.668,4.735-1.896,8.196c0.959,4.301,4.033,7.276,6.866,6.645c2.834-0.632,4.353-4.631,3.394-8.933
		c-0.887-3.98-3.586-6.818-6.227-6.721c-0.576-2.397-1.754-8.137-1.545-14.146c0.138-3.919,1.355-12.632,9.32-13.939
		c3.342,0.977,12.439,4.933,16.392,19.486c0.225,8.041-1.798,13.259-2.796,15.312c-2.007,0.531-4.094,2.32-5.43,4.915
		c-0.998,1.938-1.39,3.956-1.219,5.664l-4.683,0.725l0.173,0.741c-3.769,0.565-9.352,0.752-16.436-0.834l0.099-0.473l-1.87-0.581
		C15.751,51.988,15.697,51.517,15.697,51.517z"/>
</g>
</svg>
