<?xml version="1.0" encoding="iso-8859-1"?>
<!-- Generator: Adobe Illustrator 17.0.0, SVG Export Plug-In . SVG Version: 6.00 Build 0)  -->
<!DOCTYPE svg PUBLIC "-//W3C//DTD SVG 1.1//EN" "http://www.w3.org/Graphics/SVG/1.1/DTD/svg11.dtd">
<svg version="1.1" id="Capa_1" xmlns="http://www.w3.org/2000/svg" xmlns:xlink="http://www.w3.org/1999/xlink" x="0px" y="0px"
	 width="64px" height="64px" viewBox="0 0 64 64" style="enable-background:new 0 0 64 64;" xml:space="preserve">
<g>
	<circle cx="23.463" cy="32.333" r="1.067"/>
	<path d="M23.463,37.721c2.971,0,5.389-2.417,5.389-5.388c0-2.971-2.418-5.387-5.389-5.387s-5.389,2.417-5.389,5.387
		C18.074,35.304,20.492,37.721,23.463,37.721z M23.463,28.945c1.869,0,3.389,1.52,3.389,3.387c0,1.868-1.52,3.388-3.389,3.388
		c-1.869,0-3.389-1.52-3.389-3.388C20.074,30.465,21.594,28.945,23.463,28.945z"/>
	<path d="M8.703,50.376h46.594c1.965,0,3.557-1.592,3.557-3.557V17.18c0-1.964-1.592-3.557-3.557-3.557H8.703
		c-1.965,0-3.557,1.593-3.557,3.557v29.639C5.146,48.784,6.738,50.376,8.703,50.376z M53.962,45.901
		c-0.835,0-1.512-0.677-1.512-1.512c0-0.835,0.677-1.512,1.512-1.512c0.835,0,1.512,0.677,1.512,1.512
		C55.474,45.225,54.797,45.901,53.962,45.901z M53.962,38.877c-0.835,0-1.512-0.677-1.512-1.512c0-0.836,0.677-1.512,1.512-1.512
		c0.835,0,1.512,0.676,1.512,1.512C55.474,38.2,54.797,38.877,53.962,38.877z M53.962,31.852c-0.835,0-1.512-0.677-1.512-1.512
		c0-0.835,0.677-1.512,1.512-1.512c0.835,0,1.512,0.677,1.512,1.512C55.474,31.175,54.797,31.852,53.962,31.852z M53.962,18.07
		c1.277,0,2.312,1.035,2.312,2.312c0,1.277-1.035,2.312-2.312,2.312c-1.276,0-2.312-1.035-2.312-2.312
		C51.65,19.104,52.686,18.07,53.962,18.07z M48.271,16.024c0-0.552,0.447-1,1-1s1,0.448,1,1v31.211c0,0.553-0.447,1-1,1
		s-1-0.447-1-1V16.024z M41.014,16.003c2.903,0,5.259,2.356,5.259,5.259c0,2.905-2.355,5.259-5.259,5.259
		c-0.538,0-1.047-0.104-1.535-0.254l1.694-2.538c1.295-0.083,2.323-1.149,2.323-2.467c0-0.282-0.058-0.547-0.143-0.8l0.566-0.849
		c0.46-0.689,0.273-1.621-0.415-2.08c-0.689-0.46-1.622-0.274-2.081,0.415l-0.566,0.849c-1.296,0.083-2.324,1.15-2.324,2.465
		c0,0.282,0.058,0.549,0.145,0.802l-1.694,2.538c-0.755-0.911-1.227-2.065-1.227-3.34C35.755,18.358,38.107,16.003,41.014,16.003z
		 M23.463,19.103c5.346,0,9.939,3.176,12.026,7.737l-5.581,8.363l-6.743,5.246c-0.654,0.508-0.771,1.45-0.263,2.104
		c0.295,0.38,0.737,0.579,1.185,0.579c0.322,0,0.646-0.104,0.92-0.316l6.936-5.394c0.127-0.099,0.237-0.217,0.327-0.351l4.302-6.448
		c0.072,0.561,0.123,1.128,0.123,1.709c0,7.308-5.923,13.231-13.231,13.231c-7.308,0-13.232-5.923-13.232-13.231
		C10.231,25.026,16.155,19.103,23.463,19.103z"/>
</g>
</svg>
