<?xml version="1.0" encoding="iso-8859-1"?>
<!-- Generator: Adobe Illustrator 17.0.0, SVG Export Plug-In . SVG Version: 6.00 Build 0)  -->
<!DOCTYPE svg PUBLIC "-//W3C//DTD SVG 1.1//EN" "http://www.w3.org/Graphics/SVG/1.1/DTD/svg11.dtd">
<svg version="1.1" id="Capa_1" xmlns="http://www.w3.org/2000/svg" xmlns:xlink="http://www.w3.org/1999/xlink" x="0px" y="0px"
	 width="64px" height="64px" viewBox="0 0 64 64" style="enable-background:new 0 0 64 64;" xml:space="preserve">
<ellipse cx="35.244" cy="33.167" rx="5.558" ry="6.903"/>
<ellipse cx="34.778" cy="20.808" rx="1.866" ry="2.358"/>
<path d="M34.614,15.739c1.559,0,2.826-1.513,2.826-3.371s-1.267-3.37-2.826-3.37s-2.826,1.512-2.826,3.37
	S33.056,15.739,34.614,15.739z M36.55,12.368c0,0.257-0.038,0.499-0.096,0.731l-0.469-0.415c0.027-0.103,0.045-0.205,0.045-0.316
	c0-0.509-0.305-0.944-0.741-1.141c-0.018-0.322-0.066-0.809-0.177-1.246C35.937,10.265,36.55,11.223,36.55,12.368z M34.778,13.621
	c0.215,0,0.415-0.06,0.593-0.156l0.653,0.591c-0.354,0.485-0.854,0.793-1.41,0.793c-0.506,0-0.963-0.255-1.308-0.663l1.093-0.629
	C34.519,13.596,34.644,13.621,34.778,13.621z M33.987,10.034c0.069,0.347,0.154,0.834,0.175,1.25
	c-0.379,0.216-0.637,0.618-0.637,1.084c0,0.204,0.053,0.392,0.139,0.562l-0.808,0.464c-0.111-0.313-0.179-0.659-0.179-1.026
	C32.678,11.283,33.228,10.369,33.987,10.034z"/>
<path d="M21.757,21.44l1.327,15.764c0.14,1.65,0.5,3.303,0.807,3.691l0.554,0.701c-0.03,0.86-0.068,1.713-0.115,2.553
	c-0.078,1.408,0.587,2.778,1.541,2.987c0.495,0.108,1.082,0.224,1.739,0.327l-1.643,3.36c0,0,0.968,2.104,4.419,2.271
	c3.453,0.168,3.747-1.22,3.747-1.22l-0.169-4.153c1.983-0.18,4.032-0.649,5.904-1.612c1.473-0.758,3.327-2.952,3.382-4.608
	c0.231-6.979,0.06-24.917-1.702-32.938c-0.356-1.618-2.033-3.216-3.671-3.462C34.974,4.664,30.3,4.248,25.57,5.016
	c-1.636,0.265-2.771,1.973-2.601,3.621c0.211,2.042,0.496,5.014,0.765,8.534c0,0-0.499,0.286-1.115,0.64
	C22.004,18.164,21.617,19.789,21.757,21.44z M29.743,28.085c1.893-2.133,1.864-2.668,1.865-3.298
	c0.002-0.633-0.589-2.435-0.589-2.435c-0.162-0.483-0.25-1.003-0.25-1.544c0-0.527,0.083-1.033,0.237-1.505h0.001
	c0.536-1.474,1.04-2.408,0.126-3.609c-1.347-1.768-1.169-3.987-1.169-3.987V11.58c0-2.807,2.052-5.085,4.584-5.085
	c2.531,0,4.584,2.278,4.584,5.085c0,0,0.178,1.852-0.506,3.991c-0.461,1.436,0.021,2.017,0.689,3.989l0.001,0.001
	c0.106,0.396,0.162,0.813,0.162,1.246c0,0.541-0.089,1.061-0.251,1.544c0,0-0.532,2.151,0.25,3.001
	c1.237,1.343,1.474,1.644,2.011,3.001c0,0,0.709,1.803,0.561,4.813c0.001-0.025,0.002-0.049,0.003-0.078l0.021-0.758
	c0.006,0.114-0.013,0.498-0.021,0.758l-0.006,0.216c0,4.443-3.129,8.046-6.988,8.046c-3.859,0-6.987-3.603-6.987-8.046
	C28.071,31.312,28.701,29.489,29.743,28.085z"/>
<path d="M22.199,52.157c-0.537,2.843,1.168,4.988,2.148,5.903c0.978,0.916,2.651,2.179,5.704,0.253
	c3.051-1.925,8.881-2.21,10.175-2.084c1.295,0.128,2.146-0.221,2.21-1.01c0.065-0.789-0.767-1.2-0.767-1.2
	c-2.442-1.475-7.031-3.113-7.031-3.113l0.379,1.304c0,0-1.21,1.972-5.557,1.5c-3.746-0.405-4.335-2.888-4.335-2.888l0.842-1.559
	C24.272,49.243,22.735,49.315,22.199,52.157z"/>
</svg>
