<?xml version="1.0" encoding="iso-8859-1"?>
<!-- Generator: Adobe Illustrator 17.0.0, SVG Export Plug-In . SVG Version: 6.00 Build 0)  -->
<!DOCTYPE svg PUBLIC "-//W3C//DTD SVG 1.1//EN" "http://www.w3.org/Graphics/SVG/1.1/DTD/svg11.dtd">
<svg version="1.1" id="Capa_1" xmlns="http://www.w3.org/2000/svg" xmlns:xlink="http://www.w3.org/1999/xlink" x="0px" y="0px"
	 width="64px" height="64px" viewBox="0 0 64 64" style="enable-background:new 0 0 64 64;" xml:space="preserve">
<path d="M21.186,18.698c0.785,7.481,0.254,12.942-0.389,16.371c-2.139-0.233-4.561,0.426-6.631,2.004
	c-3.734,2.845-4.907,7.585-2.619,10.587c2.287,3.001,7.168,3.129,10.902,0.284c2.121-1.617,3.414-3.846,3.716-6.021
	c0.59-1.467,3.017-8.332,2.274-20.452l17.311-1.741c0.647,2.76,1.352,7.642,0.367,13.584c-2.027-0.105-4.264,0.564-6.195,2.036
	c-3.733,2.845-4.906,7.585-2.619,10.587c2.287,3.001,7.169,3.129,10.902,0.284c2.471-1.882,3.811-4.592,3.779-7.081
	c3.856-13.683-0.285-24.063-0.469-24.511l-0.99-2.416l-29.707,2.988L21.186,18.698z"/>
</svg>
