<?xml version="1.0" encoding="iso-8859-1"?>
<!-- Generator: Adobe Illustrator 17.0.0, SVG Export Plug-In . SVG Version: 6.00 Build 0)  -->
<!DOCTYPE svg PUBLIC "-//W3C//DTD SVG 1.1//EN" "http://www.w3.org/Graphics/SVG/1.1/DTD/svg11.dtd">
<svg version="1.1" id="Capa_1" xmlns="http://www.w3.org/2000/svg" xmlns:xlink="http://www.w3.org/1999/xlink" x="0px" y="0px"
	 width="64px" height="64px" viewBox="0 0 64 64" style="enable-background:new 0 0 64 64;" xml:space="preserve">
<path d="M24.886,13.126c-0.178-1.81-0.865-3.47-1.915-4.836c-1.646,0.499-4.667,1.896-7.543,5.771
	c-3.242,4.368-4.497,7.061-4.909,8.085c1.438,0.879,3.123,1.396,4.933,1.396c0,0,0.34-2.329,3.916-6.331
	C22.943,13.21,24.886,13.126,24.886,13.126z"/>
<path d="M13.663,12.443c2.933-3.497,5.857-5.194,7.503-5.946c-1.589-1.203-3.568-1.917-5.715-1.917c-5.236,0-9.48,4.245-9.48,9.48
	c0,2.552,1.013,4.863,2.652,6.567C9.1,19.301,10.42,16.31,13.663,12.443z"/>
<path d="M31.797,22.623l-6.385-8.325c0,0-5.705,1.807-8.429,9.639l9.28,4.938l22.391,18.73c0,0,1.132-0.107,2.342-1.019l3.423,2.679
	c0.868,0.679,1.427,1.646,1.572,2.72c0.144,1.064-0.136,2.109-0.786,2.941c-0.651,0.832-1.598,1.354-2.666,1.47
	c-1.082,0.114-2.151-0.194-3.019-0.873l-1.495-1.17c-0.437-0.342-1.063-0.263-1.403,0.171c-0.341,0.435-0.265,1.063,0.171,1.404
	l1.495,1.17c1.103,0.863,2.432,1.322,3.802,1.321c0.221,0,0.442-0.012,0.665-0.036c1.609-0.175,3.039-0.965,4.024-2.226
	c0.987-1.26,1.411-2.838,1.193-4.442c-0.216-1.594-1.04-3.024-2.321-4.027l-3.275-2.563c0.505-0.746,0.943-1.712,1.216-2.97
	L31.797,22.623z M23.815,24.341c-1.164,0-2.107-0.943-2.107-2.107c0-1.164,0.943-2.107,2.107-2.107c1.164,0,2.108,0.943,2.108,2.107
	C25.923,23.398,24.979,24.341,23.815,24.341z M31.797,29.833c-0.565,0-1.021-0.458-1.021-1.021c0-0.564,0.457-1.022,1.021-1.022
	c0.564,0,1.021,0.457,1.021,1.022C32.818,29.375,32.361,29.833,31.797,29.833z M34.267,31.973c-0.564,0-1.022-0.458-1.022-1.021
	c0-0.565,0.458-1.022,1.022-1.022c0.563,0,1.021,0.457,1.021,1.022C35.288,31.516,34.83,31.973,34.267,31.973z"/>
</svg>
