<?xml version="1.0" encoding="iso-8859-1"?>
<!-- Generator: Adobe Illustrator 17.0.0, SVG Export Plug-In . SVG Version: 6.00 Build 0)  -->
<!DOCTYPE svg PUBLIC "-//W3C//DTD SVG 1.1//EN" "http://www.w3.org/Graphics/SVG/1.1/DTD/svg11.dtd">
<svg version="1.1" id="Capa_1" xmlns="http://www.w3.org/2000/svg" xmlns:xlink="http://www.w3.org/1999/xlink" x="0px" y="0px"
	 width="64px" height="64px" viewBox="0 0 64 64" style="enable-background:new 0 0 64 64;" xml:space="preserve">
<g>
	<rect x="26.811" y="32.235" width="2.346" height="1.284"/>
	<rect x="26.811" y="35.444" width="2.346" height="1.284"/>
	<rect x="34.936" y="32.236" width="2.346" height="1.284"/>
	<rect x="34.936" y="35.445" width="2.346" height="1.284"/>
	<rect x="29.917" y="32.235" width="4.26" height="1.284"/>
	<rect x="29.917" y="35.444" width="4.26" height="1.284"/>
	<path d="M14.012,32.267c0.718,1.689,2.668,2.476,4.358,1.758c0.786-0.334,1.374-0.939,1.709-1.658l2.226,1.492
		c0.376-0.679,0.616-1.426,0.707-2.2l-2.641-0.333c0.061-0.547-0.012-1.116-0.244-1.66c-0.717-1.688-2.668-2.476-4.358-1.758
		c-0.774,0.329-1.357,0.918-1.693,1.621l-2.233-1.474c-0.388,0.699-0.637,1.474-0.722,2.273l2.65,0.245
		C13.705,31.132,13.775,31.713,14.012,32.267z M16.572,29.799c0.646-0.275,1.392,0.026,1.664,0.671
		c0.276,0.645-0.025,1.391-0.671,1.664c-0.645,0.275-1.391-0.026-1.664-0.672C15.627,30.818,15.928,30.073,16.572,29.799z"/>
	<path d="M45.312,36.714l0.521-2.629c0.743,0.272,1.587,0.283,2.38-0.037c1.703-0.686,2.526-2.622,1.84-4.324
		c-0.226-0.559-0.587-1.02-1.027-1.367l1.701-2.047c-0.626-0.505-1.35-0.877-2.119-1.097l-0.537,2.622
		c-0.735-0.26-1.564-0.264-2.344,0.051c-1.701,0.687-2.525,2.623-1.837,4.325c0.221,0.548,0.57,1.001,1,1.347l-1.633,2.101
		C43.87,36.142,44.568,36.499,45.312,36.714z M46.496,29.791c0.649-0.263,1.39,0.052,1.65,0.701
		c0.263,0.651-0.051,1.391-0.701,1.653c-0.65,0.263-1.389-0.052-1.652-0.702C45.53,30.792,45.845,30.052,46.496,29.791z"/>
	<path d="M6.283,41.799H57c1.657,0,3-1.343,3-3V21.616c0-1.657-1.343-3-3-3H6.283c-1.657,0-3,1.343-3,3v17.184
		C3.283,40.456,4.626,41.799,6.283,41.799z M55.514,22.894c0-0.458,0.37-0.828,0.827-0.828h0.828c0.457,0,0.828,0.37,0.828,0.828
		v2.846h-0.828v1.397h0.828v1.449h-0.828v4.036h-0.013l-2.678,5.323l-1.708-1.217l3.57-4.492V25.74h-0.827V22.894z M44.359,24.495
		c3.574-1.442,7.641,0.286,9.083,3.86c1.442,3.575-0.286,7.641-3.861,9.083c-3.573,1.442-7.64-0.286-9.083-3.86
		C39.056,30.003,40.784,25.938,44.359,24.495z M25.708,22.756h12.626v15.87H25.708V22.756z M14.34,24.544
		c3.547-1.508,7.645,0.145,9.152,3.692c1.507,3.547-0.147,7.645-3.693,9.152c-3.548,1.508-7.643-0.145-9.152-3.692
		C9.139,30.149,10.792,26.052,14.34,24.544z M6.043,27.137H6.87V25.74H6.043v-2.846c0-0.458,0.37-0.828,0.827-0.828h0.829
		c0.457,0,0.827,0.37,0.827,0.828v2.846H7.699v6.496l3.57,4.492l-1.708,1.217l-2.678-5.323H6.87v-4.036H6.043V27.137z"/>
</g>
</svg>
