<?xml version="1.0" encoding="iso-8859-1"?>
<!-- Generator: Adobe Illustrator 17.0.0, SVG Export Plug-In . SVG Version: 6.00 Build 0)  -->
<!DOCTYPE svg PUBLIC "-//W3C//DTD SVG 1.1//EN" "http://www.w3.org/Graphics/SVG/1.1/DTD/svg11.dtd">
<svg version="1.1" id="Capa_1" xmlns="http://www.w3.org/2000/svg" xmlns:xlink="http://www.w3.org/1999/xlink" x="0px" y="0px"
	 width="64px" height="64px" viewBox="0 0 64 64" style="enable-background:new 0 0 64 64;" xml:space="preserve">
<g>
	<circle cx="32.135" cy="14.456" r="7.292"/>
	<path d="M18.851,5.706l-2.465,0.416c-1.361,0.23-2.093,2.623-1.634,5.347l2.668,15.819c0.203,1.203,1.245,2.084,2.465,2.084h1.812
		l2.188,9.75h15.75l2.487-9.75h1.638c1.188,0,2.211-0.835,2.449-1.998l3.246-15.852c0.554-2.705-0.093-5.123-1.446-5.4
		c-1.353-0.277-2.449-0.502-2.449-0.502l-3.841,18.752H21.999L18.851,5.706z"/>
	<path d="M59.625,41.372H4.375L3.036,51.416c-0.365,2.737,1.578,4.956,4.339,4.956h49.25c2.761,0,4.704-2.219,4.339-4.956
		L59.625,41.372z M18.937,53.997c-5.523,0-10-2.381-10-5.316c0-2.935,4.477-5.316,10-5.316s10,2.381,10,5.316
		C28.937,51.616,24.46,53.997,18.937,53.997z M45.062,53.997c-5.523,0-10-2.381-10-5.316c0-2.935,4.477-5.316,10-5.316
		s10,2.381,10,5.316C55.062,51.616,50.585,53.997,45.062,53.997z"/>
</g>
</svg>
