<?xml version="1.0" encoding="iso-8859-1"?>
<!-- Generator: Adobe Illustrator 17.0.0, SVG Export Plug-In . SVG Version: 6.00 Build 0)  -->
<!DOCTYPE svg PUBLIC "-//W3C//DTD SVG 1.1//EN" "http://www.w3.org/Graphics/SVG/1.1/DTD/svg11.dtd">
<svg version="1.1" id="Capa_1" xmlns="http://www.w3.org/2000/svg" xmlns:xlink="http://www.w3.org/1999/xlink" x="0px" y="0px"
	 width="64px" height="64px" viewBox="0 0 64 64" style="enable-background:new 0 0 64 64;" xml:space="preserve">
<g>
	<path d="M18.905,28.905c0.203,1.203,1.245,2.084,2.465,2.084h1.812l2.188,9.75h15.75l2.487-9.75h1.638
		c1.188,0,2.211-0.835,2.449-1.998l3.247-15.852c0.554-2.705-0.093-5.123-1.446-5.4c-1.353-0.277-2.449-0.502-2.449-0.502
		l-3.841,18.752H23.484L20.336,7.323l-2.465,0.416c-1.361,0.23-2.093,2.623-1.634,5.347L18.905,28.905z"/>
	<path d="M61.11,42.989H5.86L4.52,53.033c-0.365,2.737,1.578,4.956,4.339,4.956h49.25c2.761,0,4.704-2.219,4.339-4.956L61.11,42.989
		z M20.422,55.614c-5.523,0-10-2.381-10-5.315c0-2.936,4.477-5.316,10-5.316c5.523,0,10,2.381,10,5.316
		C30.422,53.233,25.945,55.614,20.422,55.614z M46.547,55.614c-5.523,0-10-2.381-10-5.315c0-2.936,4.477-5.316,10-5.316
		c5.523,0,10,2.381,10,5.316C56.547,53.233,52.07,55.614,46.547,55.614z"/>
	<path d="M33.954,13.561h6.366c-1.148-2.63-3.762-4.472-6.816-4.472c-3.053,0-5.667,1.842-6.816,4.472h6.328H33.954z"/>
	<path d="M24.516,16.687c0.004,0,0.007,0.782,0.008,1.564c0.001,0.865,0.512,1.565,1.142,1.565h1.142
		c1.207,2.454,3.749,4.172,6.697,4.172c2.937,0,5.469-1.703,6.682-4.172c0,0,0.506,0,1.13,0c0.624,0,1.129-0.7,1.129-1.565v-1.564
		c0.009,0,0.009-6.246,0.009-6.246c0-3.726-3.577-6.757-7.974-6.757h-1.99c-4.398,0-7.975,3.031-7.975,6.757V16.687z M25.541,10.44
		c0-2.377,1.761-4.421,4.264-5.289c0.84,0.312,1.979,0.868,3.263,0.894c1.312,0.025,2.877-0.616,3.77-0.993
		c2.672,0.799,4.591,2.909,4.591,5.388v4.821h-0.593c-0.063-0.366-0.16-0.721-0.274-1.066l-5.076,3.047
		c-0.519,0.31-1.105,0.102-1.311-0.468l-0.412-1.14c-0.154-0.427-0.404-0.427-0.558,0l-0.412,1.14
		c-0.205,0.569-0.792,0.777-1.311,0.468l-5.044-3.027c-0.112,0.34-0.205,0.688-0.268,1.047h-0.63V10.44z"/>
	<ellipse cx="20.292" cy="50.417" rx="2.875" ry="1"/>
	<ellipse cx="46.625" cy="50.489" rx="2.875" ry="1"/>
</g>
</svg>
