<?xml version="1.0" encoding="iso-8859-1"?>
<!-- Generator: Adobe Illustrator 17.0.0, SVG Export Plug-In . SVG Version: 6.00 Build 0)  -->
<!DOCTYPE svg PUBLIC "-//W3C//DTD SVG 1.1//EN" "http://www.w3.org/Graphics/SVG/1.1/DTD/svg11.dtd">
<svg version="1.1" id="Capa_1" xmlns="http://www.w3.org/2000/svg" xmlns:xlink="http://www.w3.org/1999/xlink" x="0px" y="0px"
	 width="64px" height="64px" viewBox="0 0 64 64" style="enable-background:new 0 0 64 64;" xml:space="preserve">
<path d="M32.534,8.485c-13.277,0-24.042,10.765-24.042,24.042c0,13.277,10.765,24.042,24.042,24.042
	c13.277,0,24.042-10.765,24.042-24.042C56.576,19.25,45.811,8.485,32.534,8.485z M32.534,40.99c-4.675,0-8.464-3.788-8.464-8.463
	s3.789-8.463,8.464-8.463c4.675,0,8.463,3.788,8.463,8.463S37.209,40.99,32.534,40.99z M33.142,13.16
	c-11.736,0-21.25,9.514-21.25,21.25L11.8,36.188c-0.278-1.353-0.425-2.753-0.425-4.188c0-11.391,9.234-20.625,20.625-20.625
	c5.981,0,11.369,2.547,15.137,6.615C43.394,14.699,38.518,13.16,33.142,13.16z"/>
<circle cx="32.534" cy="32.527" r="3.527"/>
</svg>
