<?xml version="1.0" encoding="iso-8859-1"?>
<!-- Generator: Adobe Illustrator 17.0.0, SVG Export Plug-In . SVG Version: 6.00 Build 0)  -->
<!DOCTYPE svg PUBLIC "-//W3C//DTD SVG 1.1//EN" "http://www.w3.org/Graphics/SVG/1.1/DTD/svg11.dtd">
<svg version="1.1" id="Capa_1" xmlns="http://www.w3.org/2000/svg" xmlns:xlink="http://www.w3.org/1999/xlink" x="0px" y="0px"
	 width="64px" height="64px" viewBox="0 0 64 64" style="enable-background:new 0 0 64 64;" xml:space="preserve">
<g>
	<path d="M9.625,20.5h15.5c0.567,0,1.395-0.485,1.697-1.019l3.161-5.231H9.625c-4.418,0-8,3.582-8,8v2.647
		C3.315,22.258,6.265,20.5,9.625,20.5z"/>
	<path d="M54.375,11h-18.75c-1.105,0-2.439,0.78-2.981,1.743l-0.91,1.507l-3.629,6.007C27.564,21.22,26.23,22,25.125,22h-15.5
		c-4.418,0-8,3.582-8,8v14.75v1.75c0,4.418,3.582,8,8,8h44.75c4.418,0,8-3.582,8-8v-1.75v-22.5V19
		C62.375,14.582,58.793,11,54.375,11z M39.497,27.314c6.863,2.676,10.497,0.251,10.699,0c0.202-0.251-0.151,2.727-4.895,4.19
		s-5.047,3.23-3.331,4.34c1.716,1.11,2.725-2.776,7.116-0.656c0,0-4.542,0.656-4.088,3.331c0.454,2.675,6.106-1.312,6.106-1.312
		s-2.372,7.62-10.547,7.217c-8.175-0.404-1.724,4.642,0.555,2.221c0,0-3.393,4.103-8.36,1.165c2.545-2.262,4.16-5.55,4.16-9.214
		c0-4.661-2.598-8.725-6.422-10.825C32.351,26.708,35.444,25.734,39.497,27.314z M24.569,49.936
		c-6.264,0-11.342-5.078-11.342-11.342s5.078-11.342,11.342-11.342c1.776,0,3.45,0.42,4.947,1.148
		c3.782,1.839,6.395,5.707,6.395,10.195c0,3.467-1.56,6.565-4.01,8.646C29.923,48.919,27.367,49.936,24.569,49.936z"/>
	<circle cx="24.569" cy="38.594" r="1.86"/>
	<path d="M24.569,34.437c-2.292,0-4.158,1.865-4.158,4.157c0,2.293,1.865,4.158,4.158,4.158c1.611,0,2.996-0.931,3.686-2.274
		c0.292-0.568,0.472-1.202,0.472-1.884c0-0.623-0.148-1.209-0.394-1.74C27.672,35.431,26.238,34.437,24.569,34.437z M24.569,41.752
		c-1.741,0-3.158-1.417-3.158-3.158s1.417-3.157,3.158-3.157s3.158,1.416,3.158,3.157S26.31,41.752,24.569,41.752z"/>
</g>
</svg>
