<?xml version="1.0" encoding="iso-8859-1"?>
<!-- Generator: Adobe Illustrator 17.0.0, SVG Export Plug-In . SVG Version: 6.00 Build 0)  -->
<!DOCTYPE svg PUBLIC "-//W3C//DTD SVG 1.1//EN" "http://www.w3.org/Graphics/SVG/1.1/DTD/svg11.dtd">
<svg version="1.1" id="Capa_1" xmlns="http://www.w3.org/2000/svg" xmlns:xlink="http://www.w3.org/1999/xlink" x="0px" y="0px"
	 width="64px" height="64px" viewBox="0 0 64 64" style="enable-background:new 0 0 64 64;" xml:space="preserve">
<g>
	<circle cx="26.186" cy="32.273" r="1.125"/>
	<path d="M11.436,52.398h39.5c2.762,0,5-2.239,5-5v-29c0-2.761-2.238-5-5-5h-39.5c-2.762,0-5,2.239-5,5v29
		C6.436,50.159,8.675,52.398,11.436,52.398z M18.936,49.316H15.52c-0.553,0-1-0.448-1-1c0-0.552,0.447-1,1-1h3.416
		c0.553,0,1,0.448,1,1C19.936,48.868,19.489,49.316,18.936,49.316z M51.686,46.981h-2.834V36.315h2.834V46.981z M41.951,42.933
		l0.347-2.809c0.094-0.762,0.607-1.362,1.279-1.617l2.402-14.118c-1.592-0.667-2.711-2.239-2.711-4.074
		c0-2.439,1.979-4.417,4.418-4.417c2.44,0,4.416,1.978,4.416,4.417c0,2.348-1.836,4.249-4.148,4.39l-2.403,14.122
		c0.51,0.421,0.804,1.082,0.717,1.787l-0.347,2.809c-0.125,1.013-0.987,1.755-1.982,1.755c-0.082,0-0.164-0.005-0.248-0.015
		C42.595,45.028,41.815,44.03,41.951,42.933z M26.186,18.023c7.87,0,14.25,6.38,14.25,14.25c0,7.87-6.38,14.25-14.25,14.25
		s-14.25-6.38-14.25-14.25C11.936,24.403,18.316,18.023,26.186,18.023z M9.186,47.316h3.416c0.553,0,1,0.448,1,1
		c0,0.552-0.447,1-1,1H9.186c-0.553,0-1-0.448-1-1C8.186,47.764,8.634,47.316,9.186,47.316z"/>
	<circle cx="47.75" cy="20.356" r="1.75"/>
</g>
</svg>
