<?xml version="1.0" encoding="iso-8859-1"?>
<!-- Generator: Adobe Illustrator 17.0.0, SVG Export Plug-In . SVG Version: 6.00 Build 0)  -->
<!DOCTYPE svg PUBLIC "-//W3C//DTD SVG 1.1//EN" "http://www.w3.org/Graphics/SVG/1.1/DTD/svg11.dtd">
<svg version="1.1" id="Capa_1" xmlns="http://www.w3.org/2000/svg" xmlns:xlink="http://www.w3.org/1999/xlink" x="0px" y="0px"
	 width="64px" height="64px" viewBox="0 0 64 64" style="enable-background:new 0 0 64 64;" xml:space="preserve">
<path d="M6.26,45.5h51.48c1.105,0,2-0.895,2-2V15.167c0-1.105-0.895-2-2-2H6.26c-1.105,0-2,0.895-2,2V43.5
	C4.26,44.605,5.155,45.5,6.26,45.5z M7.26,16.167h49.48V42.5H7.26V16.167z"/>
<path d="M5.167,52.833h53.667c1.105,0,2-1.343,2-3s-0.895-3-2-3H36.448c0,0.322-0.261,0.583-0.583,0.583h-7.729
	c-0.322,0-0.583-0.261-0.583-0.583H5.167c-1.105,0-2,1.343-2,3S4.062,52.833,5.167,52.833z M48.219,49.25h7.729
	c0.322,0,0.583,0.261,0.583,0.583s-0.261,0.583-0.583,0.583h-7.729c-0.322,0-0.583-0.261-0.583-0.583S47.897,49.25,48.219,49.25z"/>
<path d="M22.5,17.25c-6.673,0-12.083,5.41-12.083,12.083s5.41,12.083,12.083,12.083s12.083-5.41,12.083-12.083
	S29.173,17.25,22.5,17.25z M12.42,24.186c1.665-3.607,4.346-4.624,4.346-4.624l2.497,4.439c0,0-1.514,0.773-2.034,2.219
	L12.42,24.186z M22.5,34.173c-2.758,0-4.994-2.236-4.994-4.994c0-2.758,2.236-4.994,4.994-4.994s4.994,2.236,4.994,4.994
	C27.494,31.937,25.258,34.173,22.5,34.173z"/>
<circle cx="22.546" cy="28.948" r="0.971"/>
<path d="M52.416,28.09h-3.152v-6.396c0-1.177-0.955-2.132-2.132-2.132h-4.264c-1.177,0-2.132,0.954-2.132,2.132v6.396h-3.152
	c-1.177,0-1.457,0.675-0.624,1.508l6.533,6.533c0.833,0.833,2.182,0.833,3.015,0l6.533-6.533
	C53.873,28.765,53.593,28.09,52.416,28.09z"/>
</svg>
