<?xml version="1.0" encoding="iso-8859-1"?>
<!-- Generator: Adobe Illustrator 17.0.0, SVG Export Plug-In . SVG Version: 6.00 Build 0)  -->
<!DOCTYPE svg PUBLIC "-//W3C//DTD SVG 1.1//EN" "http://www.w3.org/Graphics/SVG/1.1/DTD/svg11.dtd">
<svg version="1.1" id="Capa_1" xmlns="http://www.w3.org/2000/svg" xmlns:xlink="http://www.w3.org/1999/xlink" x="0px" y="0px"
	 width="64px" height="64px" viewBox="0 0 64 64" style="enable-background:new 0 0 64 64;" xml:space="preserve">
<path d="M28.431,3.531c-2.505-0.426-4.555,1.419-4.555,3.96v26.262c-1.483-0.544-3.078-0.856-4.749-0.856
	c-7.631,0-13.817,6.186-13.817,13.817S11.496,60.53,19.127,60.53c4.349,0,8.221-2.015,10.752-5.157l-6.326-6.326
	c-1.925-1.925-1.491-3.682-1.215-4.349s1.212-2.216,3.934-2.216h2.303v-7.246c0-2.692,1.862-4.951,4.365-5.573
	c0.004-5.652,0.004-10.421,0.004-10.421c17.853,0,16.779,10.697,14.691,16.84c-0.818,2.406-0.332,2.809,1.387,0.937
	C70.807,13.292,40.478,5.58,28.431,3.531z"/>
<path d="M40.82,31.988h-6.497c-0.498,0-0.964,0.121-1.386,0.321c-1.098,0.521-1.862,1.631-1.862,2.927v9.746h-4.803
	c-1.794,0-2.22,1.028-0.951,2.297l5.973,5.973l3.981,3.981c0.634,0.634,1.466,0.952,2.297,0.952c0.831,0,1.663-0.317,2.297-0.952
	l9.954-9.954c1.269-1.269,0.843-2.297-0.951-2.297h-4.803v-9.746C44.069,33.443,42.614,31.988,40.82,31.988z"/>
</svg>
