<?xml version="1.0" encoding="iso-8859-1"?>
<!-- Generator: Adobe Illustrator 17.0.0, SVG Export Plug-In . SVG Version: 6.00 Build 0)  -->
<!DOCTYPE svg PUBLIC "-//W3C//DTD SVG 1.1//EN" "http://www.w3.org/Graphics/SVG/1.1/DTD/svg11.dtd">
<svg version="1.1" id="Capa_1" xmlns="http://www.w3.org/2000/svg" xmlns:xlink="http://www.w3.org/1999/xlink" x="0px" y="0px"
	 width="64px" height="64px" viewBox="0 0 64 64" style="enable-background:new 0 0 64 64;" xml:space="preserve">
<g>
	<ellipse cx="32.733" cy="13.502" rx="13.581" ry="2.013"/>
	<path d="M29.271,23.271c-1.066-0.266-1.893-0.842-2.587-1.329c-0.665-0.468-1.238-0.871-1.811-0.871
		c-0.569,0-1.428,0.392-2.26,0.768c-0.676,0.308-1.366,0.619-2.041,0.804l6.291,24.232L29.271,23.271z"/>
	<path d="M39.097,23.262c-0.74-0.225-1.356-0.688-1.917-1.115c-0.688-0.522-1.283-0.975-1.982-0.975l-0.037,0.001
		c-0.677,0.015-1.075,0.373-1.626,0.87c-0.539,0.485-1.188,1.059-2.196,1.28l4.098,18.135L39.097,23.262z"/>
	<path d="M38.523,55.114c0.469-0.093,0.833-0.174,1.064-0.229V24.229L35.798,43.06L38.523,55.114z"/>
	<path d="M46.255,22.764c-1.008,0-1.523-0.597-1.899-1.032c-0.392-0.453-0.595-0.642-1.131-0.58c-0.333,0.038-0.506,0.25-0.85,0.76
		c-0.396,0.586-0.928,1.375-2.119,1.478v30.844c2.096-4.184,6.049-25.708,7.136-31.773c-0.234,0.151-0.505,0.249-0.811,0.285
		C46.467,22.758,46.358,22.764,46.255,22.764z"/>
	<path d="M26.714,54.957c0.382,0.088,0.94,0.207,1.641,0.331l-1.203-4.632L26.714,54.957z"/>
	<path d="M33.251,55.72c0.884-0.01,1.752-0.057,2.425-0.143c0.829-0.106,1.567-0.225,2.187-0.338l-2.389-10.57L33.251,55.72z"/>
	<path d="M30.67,23.408c-0.071,0.004-0.136,0.013-0.21,0.013c-0.052,0-0.104,0-0.158-0.002c-0.127-0.004-0.246-0.021-0.367-0.033
		L27.348,48.74l1.732,6.669c0.389,0.062,0.808,0.122,1.255,0.178c0.623,0.079,1.415,0.122,2.232,0.132l2.545-12.651L30.67,23.408z"
		/>
	<path d="M19.474,22.81c-0.387,0-0.744-0.074-1.059-0.222c-0.054-0.025-0.101-0.061-0.151-0.09c1.231,6.437,5.809,29.815,7.8,32.237
		l0.606-5.943l-6.753-26.014C19.767,22.797,19.62,22.81,19.474,22.81z"/>
	<path d="M46.394,14.053c0,1.11-6.08,2.012-13.581,2.012c-7.501,0-13.581-0.901-13.581-2.012l-0.224,3.688c0,0-1.676,3.521,0,4.304
		c1.677,0.782,4.458-1.579,6.176-1.579c1.719,0,2.893,2.264,5.449,2.347c2.557,0.084,2.819-2.201,4.823-2.246
		c1.886-0.042,2.962,2.23,4.848,2.229c1.887-0.003,1.688-2.078,3.156-2.245c1.833-0.21,1.593,1.802,3.353,1.593
		c1.76-0.21,1.131-3.186,0.545-4.317L46.394,14.053z M19.928,21.491c-0.44,0-0.796-0.329-0.796-0.733
		c0-0.405,0.356-0.734,0.796-0.734c0.439,0,0.796,0.329,0.796,0.734C20.725,21.162,20.368,21.491,19.928,21.491z M30.533,22.015
		c-0.439,0-0.796-0.328-0.796-0.733c0-0.405,0.357-0.733,0.796-0.733c0.44,0,0.797,0.328,0.797,0.733
		C31.33,21.687,30.973,22.015,30.533,22.015z M39.922,21.596c-0.44,0-0.796-0.328-0.796-0.733c0-0.405,0.356-0.733,0.796-0.733
		c0.439,0,0.796,0.328,0.796,0.733C40.719,21.268,40.362,21.596,39.922,21.596z M46.251,20.862c-0.439,0-0.796-0.328-0.796-0.733
		s0.357-0.733,0.796-0.733c0.44,0,0.796,0.328,0.796,0.733S46.691,20.862,46.251,20.862z"/>
</g>
</svg>
