<?xml version="1.0" encoding="iso-8859-1"?>
<!-- Generator: Adobe Illustrator 17.0.0, SVG Export Plug-In . SVG Version: 6.00 Build 0)  -->
<!DOCTYPE svg PUBLIC "-//W3C//DTD SVG 1.1//EN" "http://www.w3.org/Graphics/SVG/1.1/DTD/svg11.dtd">
<svg version="1.1" id="Capa_1" xmlns="http://www.w3.org/2000/svg" xmlns:xlink="http://www.w3.org/1999/xlink" x="0px" y="0px"
	 width="64px" height="64px" viewBox="0 0 64 64" style="enable-background:new 0 0 64 64;" xml:space="preserve">
<g>
	<path d="M26.168,54.839h-0.017l0.321,4.117c0.072,0.927,0.884,1.678,1.814,1.678h3.513h3.352c0.93,0,1.762-0.75,1.858-1.674
		l0.43-4.121H37.43h-3.208v1.964h-4.846v-1.964H26.168z"/>
	<path d="M19.015,12h1.565v0.272c0,0.55,0.225,1.047,0.587,1.405V26.75h-1.333c-0.414,0-0.75,0.336-0.75,0.75s0.336,0.75,0.75,0.75
		h1.333v2.083h2.782v-1.415c0.951-0.241,2.113-0.382,3.254-0.463l-3.254,20.759l1.825,4.625h4.506v0.5v0v0.454v0.046v1.138h3.039
		v-1.138v-0.041v-0.459v0v-0.5h4.506l1.825-4.625l-3.246-20.707c0.991,0.091,1.96,0.234,2.764,0.452v1.375h2.782V28.25h1.384
		c0.414,0,0.75-0.336,0.75-0.75s-0.336-0.75-0.75-0.75h-1.384V13.677c0.362-0.359,0.587-0.855,0.587-1.405V12h1.38
		c0.552,0,1-0.448,1-1s-0.448-1-1-1h-1.38V9.728c0-1.093-0.886-1.978-1.978-1.978s-1.978,0.886-1.978,1.978V10h-5.281V8.389
		c1.343-0.581,2.284-1.916,2.284-3.472c0-2.09-1.694-3.784-3.784-3.784c-2.09,0-3.784,1.694-3.784,3.784
		c0,1.557,0.941,2.891,2.284,3.472V10h-5.763V9.728c0-1.093-0.886-1.978-1.978-1.978s-1.978,0.886-1.978,1.978V10h-1.565
		c-0.552,0-1,0.448-1,1S18.462,12,19.015,12z M38.579,12v0.272c0,0.55,0.225,1.047,0.587,1.405v11.852
		c-0.679,0.288-1.732,0.678-3.074,1.002l-0.108-0.691c-0.144-0.919-1.014-1.663-1.944-1.663h-1.492v-6.886
		c0.447-0.26,0.75-0.738,0.75-1.292v-4H38.579z M30.299,12v4c0,0.554,0.303,1.032,0.75,1.292v6.886h-1.491
		c-0.93,0-1.8,0.745-1.944,1.663l-0.13,0.829c-1.53-0.323-2.747-0.754-3.534-1.079V13.677c0.362-0.359,0.587-0.855,0.587-1.405V12
		H30.299z"/>
</g>
</svg>
