<?xml version="1.0" encoding="iso-8859-1"?>
<!-- Generator: Adobe Illustrator 17.0.0, SVG Export Plug-In . SVG Version: 6.00 Build 0)  -->
<!DOCTYPE svg PUBLIC "-//W3C//DTD SVG 1.1//EN" "http://www.w3.org/Graphics/SVG/1.1/DTD/svg11.dtd">
<svg version="1.1" id="Capa_1" xmlns="http://www.w3.org/2000/svg" xmlns:xlink="http://www.w3.org/1999/xlink" x="0px" y="0px"
	 width="64px" height="64px" viewBox="0 0 64 64" style="enable-background:new 0 0 64 64;" xml:space="preserve">
<g>
	<ellipse cx="20.713" cy="16.631" rx="6.66" ry="1.607"/>
	<path d="M26.911,42.182c-1.334,0.271-3.312,0.534-6.133,0.609c-0.342,0.008-0.671,0.013-0.985,0.013
		c-2.528,0-4.178-0.275-5.235-0.585c0.699,1.879,1.611,3.74,2.803,5.518c0,0,1.516,0.783,3.445,0.753
		c1.928,0.03,3.443-0.753,3.443-0.753C25.385,45.854,26.249,43.979,26.911,42.182z"/>
	<ellipse cx="42.573" cy="11.204" rx="8.389" ry="2.024"/>
	<path d="M50.962,23.182h1.892c-0.517-5.492-1.66-9.221-1.66-9.221s-3.125,2.276-8.621,2.276c-0.258,0-0.506-0.009-0.752-0.021
		v6.965h1.562l-2.083,4.049l-1.967-4.049h1.563V16.16c-4.401-0.39-6.711-2.199-6.711-2.199s-1.098,3.572-1.627,8.871h1.627
		l-1.873,3.64c-0.104,2.983,0.035,6.301,0.605,9.722h-4.408c0.694-4.05,0.426-6.841,0.426-6.841l-1.561-3.215h1.5
		c-0.409-4.359-1.317-7.318-1.317-7.318s-2.479,1.807-6.843,1.807c-0.205,0-0.402-0.007-0.598-0.017v5.528h1.24l-1.654,3.215
		l-1.561-3.215h1.24v-5.573c-3.494-0.31-5.328-1.745-5.328-1.745s-0.871,2.835-1.291,7.042h1.291l-1.486,2.889
		c-0.127,3.638,0.185,7.9,1.527,12.127c0.783,0.354,2.671,0.914,6.654,0.811c3.285-0.085,5.375-0.436,6.589-0.731
		c0.405-1.249,0.711-2.445,0.945-3.567h1.313l-6.163,18.487c-0.021,0.066-0.025,0.134-0.023,0.2c-1.15,0.056-2.049,0.49-2.049,1.026
		c0,0.574,1.025,1.039,2.291,1.039c1.265,0,2.291-0.465,2.291-1.039c0-0.42-0.553-0.778-1.344-0.941l5.154-15.464v9.632
		c-1.014,0.107-1.769,0.517-1.769,1.009c0,0.574,1.025,1.038,2.291,1.038c1.266,0,2.291-0.464,2.291-1.038
		c0-0.468-0.684-0.856-1.617-0.988v-9.94l4.81,15.139c-0.873,0.146-1.499,0.522-1.499,0.97c0,0.574,1.025,1.039,2.291,1.039
		c1.265,0,2.291-0.465,2.291-1.039c0-0.504-0.792-0.923-1.844-1.018l-5.757-18.111h1.891c0.283,1.446,0.641,2.903,1.103,4.359
		c0.987,0.446,3.365,1.152,8.383,1.021c4.139-0.107,6.771-0.549,8.3-0.922c2.644-8.145,2.012-14.617,2.012-14.617L50.962,23.182z"/>
	<path d="M41.414,44.175c-3.185,0-5.263-0.347-6.595-0.736c0.881,2.367,2.029,4.711,3.529,6.951c0,0,1.91,0.986,4.34,0.948
		c2.431,0.038,4.34-0.948,4.34-0.948c1.432-2.371,2.52-4.733,3.352-6.998c-1.68,0.341-4.172,0.673-7.725,0.767
		C42.223,44.169,41.81,44.175,41.414,44.175z"/>
</g>
</svg>
