<?xml version="1.0" encoding="iso-8859-1"?>
<!-- Generator: Adobe Illustrator 17.0.0, SVG Export Plug-In . SVG Version: 6.00 Build 0)  -->
<!DOCTYPE svg PUBLIC "-//W3C//DTD SVG 1.1//EN" "http://www.w3.org/Graphics/SVG/1.1/DTD/svg11.dtd">
<svg version="1.1" id="Capa_1" xmlns="http://www.w3.org/2000/svg" xmlns:xlink="http://www.w3.org/1999/xlink" x="0px" y="0px"
	 width="64px" height="64px" viewBox="0 0 64 64" style="enable-background:new 0 0 64 64;" xml:space="preserve">
<path d="M5.49,51.031l6.611-6.678c1.968,2.801,4.458,5.207,7.331,7.077l-5.317,7.408c-0.783,1.156-0.577,2.644,0.46,3.325
	c1.037,0.681,2.512,0.296,3.296-0.86l5.086-7.942C26.323,54.891,30.06,55.75,34,55.75c14.774,0,26.75-11.976,26.75-26.75
	S48.774,2.25,34,2.25S7.25,14.226,7.25,29c0,4.262,1.001,8.287,2.774,11.863l-7.685,6.986c-1.011,0.969-1.125,2.468-0.255,3.346
	C2.955,52.074,4.479,52,5.49,51.031z M11.25,29C11.25,16.456,21.456,6.25,34,6.25S56.75,16.456,56.75,29
	c0,12.544-10.206,22.75-22.75,22.75c-3.142,0-6.137-0.641-8.861-1.797l19.307-30.151c0.678-0.114,1.411-0.606,1.933-1.376
	c0.815-1.203,0.805-2.618-0.022-3.161c-0.828-0.543-2.159-0.009-2.974,1.194c-0.537,0.793-0.708,1.673-0.531,2.34l-21.08,29.371
	c-2.711-1.736-5.032-4.028-6.798-6.718l25.301-25.555c0.687,0.027,1.509-0.303,2.183-0.949c1.052-1.009,1.342-2.395,0.648-3.096
	s-2.11-0.452-3.162,0.557c-0.693,0.665-1.047,1.491-1.015,2.18l-25.8,23.454C11.923,35.268,11.25,32.212,11.25,29z"/>
</svg>
