<?xml version="1.0" encoding="iso-8859-1"?>
<!-- Generator: Adobe Illustrator 17.0.0, SVG Export Plug-In . SVG Version: 6.00 Build 0)  -->
<!DOCTYPE svg PUBLIC "-//W3C//DTD SVG 1.1//EN" "http://www.w3.org/Graphics/SVG/1.1/DTD/svg11.dtd">
<svg version="1.1" id="Capa_1" xmlns="http://www.w3.org/2000/svg" xmlns:xlink="http://www.w3.org/1999/xlink" x="0px" y="0px"
	 width="64px" height="64px" viewBox="0 0 64 64" style="enable-background:new 0 0 64 64;" xml:space="preserve">
<path d="M3.829,55.538c-1.354,1.354-1.482,3.421-0.286,4.617s3.263,1.068,4.617-0.286L29.35,37.553l24.718-11.567
	c0.859,0.364,2.062,0.332,3.233-0.179c1.826-0.798,2.869-2.447,2.329-3.684c-0.54-1.237-2.459-1.593-4.285-0.795
	c-1.204,0.526-2.055,1.422-2.349,2.325l-16.981,6.883l18.715-19.709c0.933,0.026,2.041-0.444,2.944-1.347
	c1.409-1.409,1.778-3.325,0.824-4.28s-2.87-0.586-4.28,0.824c-0.929,0.929-1.394,2.073-1.338,3.022l-27.01,25.601L1.423,44.555
	l0.037,6.049l14.958-7L3.829,55.538z"/>
</svg>
