<?xml version="1.0" encoding="iso-8859-1"?>
<!-- Generator: Adobe Illustrator 17.0.0, SVG Export Plug-In . SVG Version: 6.00 Build 0)  -->
<!DOCTYPE svg PUBLIC "-//W3C//DTD SVG 1.1//EN" "http://www.w3.org/Graphics/SVG/1.1/DTD/svg11.dtd">
<svg version="1.1" id="Capa_1" xmlns="http://www.w3.org/2000/svg" xmlns:xlink="http://www.w3.org/1999/xlink" x="0px" y="0px"
	 width="64px" height="64px" viewBox="0 0 64 64" style="enable-background:new 0 0 64 64;" xml:space="preserve">
<path d="M4.535,22.65l-0.782,6.339c-0.262,2.121,1.245,4.052,3.366,4.314l11.849,1.462c1.994-3.093,4.937-5.509,8.418-6.847
	l0.297-2.411c0.262-2.121-1.245-4.052-3.366-4.314L8.849,19.285C6.728,19.023,4.797,20.53,4.535,22.65z"/>
<path d="M44.197,7.307l-0.583-2.14l-3.507,1.056l0.576,2.113c-9.552,2.911-16.781,6.026-16.483,7.159
	c0.315,1.198,8.934-0.271,19.31-3.281l0.37,0.672c-0.891,0.416-1.515,1.353-1.515,2.446c0,1.171,0.718,2.156,1.712,2.52v0.88
	l-4.584,0.566c-2.121,0.262-3.628,2.193-3.366,4.314l0.42,3.403c2.794,0.477,5.356,1.618,7.53,3.259v0.614v0.637
	c-2.094-1.736-4.627-2.954-7.403-3.48c-0.993-0.188-2.015-0.297-3.062-0.297c-2.255,0-4.405,0.458-6.363,1.284
	c-2.919,1.232-5.407,3.286-7.18,5.868c-1.813,2.641-2.88,5.833-2.88,9.271c0,2.74,0.684,5.321,1.875,7.595l-0.362,0.411
	l-0.346,0.393l-3.544,4.027c-0.912,1.036-0.812,2.616,0.226,3.528c0.475,0.418,1.063,0.623,1.65,0.623
	c0.693,0,1.384-0.287,1.878-0.849l2.884-3.277l0.325-0.369l0.335-0.381c2.966,2.916,7.026,4.721,11.504,4.721
	c4.4,0,8.393-1.749,11.345-4.577l0.335,0.381l0.325,0.369l2.757,3.133c0.494,0.562,1.185,0.849,1.878,0.849
	c0.587,0,1.176-0.205,1.65-0.623c1.037-0.912,1.138-2.492,0.226-3.528l-3.376-3.836l-0.341-0.388l-0.351-0.399
	c1.26-2.323,1.976-4.981,1.976-7.804c0-3.821-1.323-7.333-3.52-10.127v-0.81v-0.573v-0.158c0.043,0.047,0.086,0.094,0.129,0.142
	l10.047-1.24c2.121-0.262,3.628-2.193,3.366-4.314l-0.782-6.339c-0.262-2.121-2.193-3.628-4.314-3.366l-8.446,1.042v-1.04
	c0.567-0.491,0.935-1.226,0.935-2.059c0-0.972-0.497-1.816-1.233-2.285l-0.773-1.407c9.709-2.939,17.106-6.109,16.805-7.255
	C61.946,3.236,54.003,4.542,44.197,7.307z"/>
</svg>
