<?xml version="1.0" encoding="iso-8859-1"?>
<!-- Generator: Adobe Illustrator 17.0.0, SVG Export Plug-In . SVG Version: 6.00 Build 0)  -->
<!DOCTYPE svg PUBLIC "-//W3C//DTD SVG 1.1//EN" "http://www.w3.org/Graphics/SVG/1.1/DTD/svg11.dtd">
<svg version="1.1" id="Capa_1" xmlns="http://www.w3.org/2000/svg" xmlns:xlink="http://www.w3.org/1999/xlink" x="0px" y="0px"
	 width="64px" height="64px" viewBox="0 0 64 64" style="enable-background:new 0 0 64 64;" xml:space="preserve">
<g>
	<path d="M35.688,30.312h-8.262c0.05,0.239,0.074,0.504,0.067,0.807c-0.073,2.933-3.241,18.401-3.27,21.627
		c0,0,1.029,2.42,7.333,2.493c6.305,0.074,7.334-2.493,7.334-2.493c-0.029-3.226-3.197-18.694-3.27-21.627
		C35.614,30.816,35.638,30.552,35.688,30.312z"/>
	<path d="M31.057,22.64c-2.013-2.038-3.051-5.726-3.051-5.726c-0.877,2.098-2.461,3.922-3.283,4.784v4.885
		c1.657,0.146,3.854,0.287,6.334,0.311V22.64z"/>
	<path d="M41.568,13.542c0-1.134-4.48-2.052-10.007-2.052c-5.526,0-10.006,0.918-10.006,2.052c0,0-1.759,8.798,0.733,12.316
		c0.129,0.183,0.26,0.352,0.391,0.515c0.294,0.035,0.652,0.073,1.045,0.113V21.27c-1.164-2.598-1.223-4.837-1.126-6.074
		c1.463,0.49,4.398,0.758,8.496,0.758c0.269,0,0.543-0.002,0.822-0.004c5.011-0.041,7.339-0.287,8.454-0.533
		c0.067,1.207-0.033,3.186-0.978,5.474v5.573c0.362-0.044,0.724-0.089,1.086-0.141c0.117-0.147,0.233-0.301,0.349-0.464
		c2.413-3.406,0.842-11.757,0.738-12.288C41.565,13.561,41.568,13.553,41.568,13.542z M31.907,14.949
		c-6.309,0.044-8.473-0.482-9.172-0.759c0.002-0.009,0.005-0.022,0.005-0.022c0-0.988,3.861-1.79,8.655-1.808v-0.002
		c0.027,0,0.054,0.001,0.081,0.001c0.027,0,0.053-0.001,0.08-0.001v0.002c4.794,0.017,8.655,0.819,8.655,1.808
		c0,0,0.022,0.092,0.05,0.254C39.477,14.609,37.387,14.904,31.907,14.949z"/>
	<path d="M38.391,21.866c-0.757-0.773-2.506-2.707-3.444-4.952c0,0-1.06,3.296-2.89,5.379v4.603c2-0.008,4.151-0.099,6.334-0.322
		V21.866z"/>
</g>
</svg>
