<?xml version="1.0" encoding="iso-8859-1"?>
<!-- Generator: Adobe Illustrator 17.0.0, SVG Export Plug-In . SVG Version: 6.00 Build 0)  -->
<!DOCTYPE svg PUBLIC "-//W3C//DTD SVG 1.1//EN" "http://www.w3.org/Graphics/SVG/1.1/DTD/svg11.dtd">
<svg version="1.1" id="Capa_1" xmlns="http://www.w3.org/2000/svg" xmlns:xlink="http://www.w3.org/1999/xlink" x="0px" y="0px"
	 width="64px" height="64px" viewBox="0 0 64 64" style="enable-background:new 0 0 64 64;" xml:space="preserve">
<g>
	<path d="M42.204,21.619l-0.902,2.213v2.606c0,1.066-0.349,1.958-0.891,2.462v1.318c0,0.578-0.469,1.048-1.048,1.048
		c-0.579,0-1.048-0.47-1.048-1.048V28.9c-0.542-0.504-0.891-1.396-0.891-2.462v-2.903h0.98l0.598-1.465l-0.393-0.501
		c-2.31,0.18-4.85,0.281-7.524,0.281c-2.164,0-4.239-0.067-6.178-0.188l-0.267,0.339l0.598,1.465h0.981v2.904
		c0,1.066-0.349,1.958-0.891,2.462v1.317c0,0.579-0.469,1.049-1.048,1.049s-1.048-0.47-1.048-1.049v-1.317
		c-0.543-0.504-0.891-1.396-0.891-2.462v-2.607l-0.902-2.212l0.128-0.163c-3.276-0.341-5.946-0.852-7.632-1.468L19.11,50.37
		c0.583,3.431,3.876,6.211,7.355,6.211h9.555c3.479,0,6.75-2.784,7.304-6.219l4.916-30.441c-1.457,0.532-3.652,0.985-6.335,1.32
		L42.204,21.619z"/>
	<path d="M46.941,15.579c0,0-2.887,3.045-15.793,2.749c-12.905-0.294-16.022-2.749-16.022-2.749
		c-1.801,0.693-1.736,3.354-1.736,3.354c1.706,0.749,4.825,1.363,8.749,1.741l1.255-1.597c0.477-0.607,1.354-0.713,1.962-0.235
		c0.607,0.477,0.712,1.356,0.234,1.963l-0.096,0.121c1.77,0.099,3.646,0.151,5.592,0.151c2.452,0,4.793-0.084,6.948-0.236
		l-0.028-0.036c-0.477-0.607-0.372-1.485,0.235-1.963c0.608-0.478,1.486-0.372,1.962,0.235l1.146,1.457
		c3.424-0.395,6.115-0.98,7.597-1.676C48.948,18.859,48.948,16.098,46.941,15.579z"/>
	<path d="M45.891,14.979c0,0-0.21-2.369-0.21-2.497c0-1.508-6.746-2.73-15.067-2.73c-8.322,0-15.068,1.223-15.068,2.73v2.31
		c0,0,1.595,2.455,15.602,2.678C44.342,17.679,45.891,14.979,45.891,14.979z M25.206,12.379c0-0.683,2.626-1.236,5.867-1.236
		c3.24,0,5.867,0.554,5.867,1.236c0,0.684-2.627,1.236-5.867,1.236C27.833,13.615,25.206,13.062,25.206,12.379z"/>
	<path d="M24.287,30.529c0.193,0,0.349-0.156,0.349-0.35v-1.675c0.514-0.27,0.891-1.104,0.891-2.105c0-1.218,0-2.205,0-2.205h-0.752
		l-0.928-2.276l1.245-1.583c0.238-0.304,0.186-0.743-0.117-0.981c-0.303-0.237-0.743-0.187-0.981,0.117l-1.748,2.223l1.02,2.501
		h-0.22v2.205c0,1.001,0.377,1.836,0.891,2.105v1.675C23.937,30.373,24.093,30.529,24.287,30.529z"/>
	<path d="M39.587,19.471c-0.239-0.304-0.679-0.354-0.981-0.117c-0.303,0.238-0.356,0.678-0.117,0.981l1.245,1.583l-0.929,2.276
		h-0.751c0,0,0,0.987,0,2.205c0,1.001,0.377,1.836,0.891,2.105v1.675c0,0.193,0.156,0.35,0.35,0.35c0.193,0,0.349-0.156,0.349-0.35
		v-1.675c0.514-0.27,0.891-1.104,0.891-2.105v-2.205h-0.22l1.021-2.501L39.587,19.471z"/>
</g>
</svg>
