<?xml version="1.0" encoding="iso-8859-1"?>
<!-- Generator: Adobe Illustrator 17.0.0, SVG Export Plug-In . SVG Version: 6.00 Build 0)  -->
<!DOCTYPE svg PUBLIC "-//W3C//DTD SVG 1.1//EN" "http://www.w3.org/Graphics/SVG/1.1/DTD/svg11.dtd">
<svg version="1.1" id="Capa_1" xmlns="http://www.w3.org/2000/svg" xmlns:xlink="http://www.w3.org/1999/xlink" x="0px" y="0px"
	 width="64px" height="64px" viewBox="0 0 64 64" style="enable-background:new 0 0 64 64;" xml:space="preserve">
<g>
	<path d="M15.706,11.36c5.381-1.369,7.712,5.949,7.929,6.67c0.104,0.685,1.196,7.742,2.864,14.729
		c1.619,6.78,3.069,10.612,4.324,12.763c0.288,0.778,2.855,7.402,7.459,9.093c1.378,0.506,2.791,0.525,4.218,0.059
		c0.531-0.174,1.065-0.415,1.602-0.724c2.027-1.171,3.181-2.747,3.43-4.688c0.461-3.605-2.418-7.421-3.88-9.099
		c0.193-1.278,0.928-2.271,1.289-2.691c0.589-0.027,1.099-0.226,1.448-0.618c0.979-1.096,0.348-3.257-1.409-4.826
		c-1.758-1.569-3.976-1.953-4.956-0.855c-0.381,0.428-0.515,1.018-0.434,1.671c-2.704,3.119,3.062,9.05,3.062,9.05
		s1.074,1.244,1.751,1.916c0.976,1.58,1.798,3.493,1.571,5.255c-0.186,1.447-1.055,2.6-2.657,3.524
		c-1.567,0.903-3.034,1.085-4.488,0.552c-2.169-0.795-3.868-3.029-4.993-4.967c0.068,0.007,0.135,0.012,0.199,0.015
		c0.439,0.013,0.811-0.045,1.122-0.147c0.654-0.214,1.049-0.624,1.279-0.991c1.66-2.63-1.45-8.994-2.083-10.232
		c-0.053-0.105-0.111-0.234-0.17-0.375c-0.503-2.532,1.425-4.154,2.129-4.652c0.578,0.115,1.12,0.044,1.555-0.253
		c1.212-0.829,1.12-3.078-0.21-5.024c-1.327-1.945-3.39-2.85-4.603-2.021c-0.474,0.323-0.745,0.865-0.826,1.518
		c-2.053,1.446-1.313,4.657-0.418,6.951c0.018,2.239,1.068,4.419,1.139,4.562c1.422,2.776,3.031,7.308,2.159,8.689
		c-0.073,0.117-0.267,0.428-1.027,0.405c-0.554-0.016-1.144-0.577-1.753-1.565c-0.029-0.077-0.048-0.125-0.049-0.13
		c-0.045-0.124-0.119-0.227-0.21-0.31c-2.49-4.494-5.233-15.845-6.889-26.871l-0.021-0.099c-0.949-3.324-4.226-9.234-9.838-7.806
		c-2.051,0.522-3.542,1.563-4.434,3.096c-1.129,1.938-0.964,4.117-0.796,5.143c-0.537,0.469-0.773,1.229-0.537,1.95l1.585,4.852
		c0.314,0.961,1.35,1.486,2.312,1.172c0.96-0.314,1.486-1.349,1.172-2.31l-1.585-4.852c-0.217-0.663-0.777-1.109-1.419-1.226
		c-0.121-0.866-0.201-2.528,0.631-3.948C12.921,12.565,14.082,11.774,15.706,11.36z"/>
</g>
</svg>
