<?xml version="1.0" encoding="iso-8859-1"?>
<!-- Generator: Adobe Illustrator 17.0.0, SVG Export Plug-In . SVG Version: 6.00 Build 0)  -->
<!DOCTYPE svg PUBLIC "-//W3C//DTD SVG 1.1//EN" "http://www.w3.org/Graphics/SVG/1.1/DTD/svg11.dtd">
<svg version="1.1" id="Capa_1" xmlns="http://www.w3.org/2000/svg" xmlns:xlink="http://www.w3.org/1999/xlink" x="0px" y="0px"
	 width="64px" height="64px" viewBox="0 0 64 64" style="enable-background:new 0 0 64 64;" xml:space="preserve">
<g>
	<path d="M38.602,22.667C53.347,28.222,60.258,9.575,60.883,7.785c-0.338,0.74-2.889,3.809-21.448-0.952
		c-22.641-5.807-20.994,6.961-20.994,6.961v11.539v11.462C14.979,35.592,10.39,36.85,6.95,40.29
		c-4.417,4.417-5.257,10.739-1.875,14.12c3.381,3.381,9.703,2.542,14.12-1.875c2.296-2.296,3.615-5.105,3.888-7.75h0.036v-0.425
		c0.025-0.415,0.028-0.825,0-1.227V21.644C26.25,20.369,31.183,19.872,38.602,22.667z"/>
	<path d="M60.883,7.785c0.042-0.092,0.052-0.151,0.052-0.151S60.915,7.695,60.883,7.785z"/>
	<path d="M43.803,25.912c-9.791,0-17.757,7.966-17.757,17.758c0,9.791,7.966,17.757,17.757,17.757
		c9.792,0,17.758-7.966,17.758-17.757C61.561,33.878,53.595,25.912,43.803,25.912z M43.803,57.427
		c-7.586,0-13.757-6.171-13.757-13.757s6.171-13.758,13.757-13.758s13.758,6.172,13.758,13.758S51.389,57.427,43.803,57.427z"/>
	<path d="M55.658,43.25l-5.425-3.088c-0.408-0.232-0.738-0.04-0.738,0.429v1.856l-4.014-2.285c-0.408-0.232-0.738-0.04-0.738,0.429
		v6.158c0,0.469,0.331,0.661,0.738,0.429l4.014-2.285v1.856c0,0.469,0.331,0.661,0.738,0.429l5.425-3.088
		C56.066,43.858,56.066,43.482,55.658,43.25z"/>
	<path d="M42.124,40.162l-4.014,2.285v-1.856c0-0.469-0.33-0.661-0.738-0.429l-5.425,3.088c-0.408,0.232-0.408,0.608,0,0.84
		l5.425,3.088c0.408,0.232,0.738,0.04,0.738-0.429v-1.856l4.014,2.285c0.408,0.232,0.738,0.04,0.738-0.429v-6.158
		C42.862,40.122,42.532,39.93,42.124,40.162z"/>
</g>
</svg>
