<?xml version="1.0" encoding="iso-8859-1"?>
<!-- Generator: Adobe Illustrator 17.0.0, SVG Export Plug-In . SVG Version: 6.00 Build 0)  -->
<!DOCTYPE svg PUBLIC "-//W3C//DTD SVG 1.1//EN" "http://www.w3.org/Graphics/SVG/1.1/DTD/svg11.dtd">
<svg version="1.1" id="Capa_1" xmlns="http://www.w3.org/2000/svg" xmlns:xlink="http://www.w3.org/1999/xlink" x="0px" y="0px"
	 width="64px" height="64px" viewBox="0 0 64 64" style="enable-background:new 0 0 64 64;" xml:space="preserve">
<path d="M30.488,54.867c5.117-1.649,8.361-5.921,7.544-9.75c0.014-0.219-0.015-0.445-0.099-0.664l-8.42-21.695
	c1.334,0.047,3.658,0.432,6.965,2.071c5.501,2.73,7.889,6.76,7.889,6.76c1.56-4.55-3.64-9.749-7.279-11.438
	c-2.541-1.18-7.676-3.661-10.547-5.053l-1.604-4.134c-0.312-0.803-1.215-1.203-2.019-0.89c-0.804,0.312-1.202,1.216-0.89,2.019
	L32.968,40.28c-2.094-0.594-4.599-0.566-7.104,0.242c-5.366,1.729-8.682,6.344-7.405,10.305
	C19.737,54.789,25.123,56.598,30.488,54.867z"/>
</svg>
