<?xml version="1.0" encoding="iso-8859-1"?>
<!-- Generator: Adobe Illustrator 17.0.0, SVG Export Plug-In . SVG Version: 6.00 Build 0)  -->
<!DOCTYPE svg PUBLIC "-//W3C//DTD SVG 1.1//EN" "http://www.w3.org/Graphics/SVG/1.1/DTD/svg11.dtd">
<svg version="1.1" id="Capa_1" xmlns="http://www.w3.org/2000/svg" xmlns:xlink="http://www.w3.org/1999/xlink" x="0px" y="0px"
	 width="64px" height="64px" viewBox="0 0 64 64" style="enable-background:new 0 0 64 64;" xml:space="preserve">
<g>
	<path d="M40.494,12.248c0,0-1.461,1.851-1.584,2.822c-0.195,1.526-0.494,3.863-0.494,3.863l-7.428,17.038
		c0,0-0.201,1.287-2.133,0.247c-1.932-1.04,0.049-5.25-2.18-4.655c-2.229,0.594-3.418,3.715-2.973,8.023
		c0.447,4.309-5.1,3.27-7.082,10.005c-1.98,6.736,4.805,7.231,7.479,8.223c2.676,0.99,8.619,1.486,10.154-3.615
		c1.535-5.103-0.693-5.597,0.494-7.132c1.189-1.536,5.455-6.588,3.668-7.133c-1.785-0.545-6.242,3.071-5.994-0.445
		c0.246-3.517,8.221-19.316,8.221-19.316s1.09-3.665,2.428-3.665c1.336,0,2.574-2.872,2.377-4.804
		c-0.199-1.932,4.357-1.587,2.674-3.519C46.437,6.255,43.268,7.345,40.494,12.248z"/>
</g>
</svg>
