<?xml version="1.0" encoding="iso-8859-1"?>
<!-- Generator: Adobe Illustrator 17.0.0, SVG Export Plug-In . SVG Version: 6.00 Build 0)  -->
<!DOCTYPE svg PUBLIC "-//W3C//DTD SVG 1.1//EN" "http://www.w3.org/Graphics/SVG/1.1/DTD/svg11.dtd">
<svg version="1.1" id="Capa_1" xmlns="http://www.w3.org/2000/svg" xmlns:xlink="http://www.w3.org/1999/xlink" x="0px" y="0px"
	 width="64px" height="64px" viewBox="0 0 64 64" style="enable-background:new 0 0 64 64;" xml:space="preserve">
<g>
	<path d="M62.424,8.554c-1.997,0.87-3.509-0.329-3.509-0.329s-1.323,1.215-2.329,0.19c-1.006-1.025,0.786-2.531,0.786-2.531
		c-1.208-2,2.967-5.007,1.426-4.669c-1.541,0.338-3.596,1.433-3.596,1.433c-0.859,5.873-7.657,8.855-7.657,8.855
		c0.901,1.067,0.469,2.116-0.049,2.808l-9.641,9.935c-5.243-0.089,0.093-10.271,0.093-10.271
		c-7.41-0.855-5.546,13.915-19.944,14.599S1.778,40.009,1.778,40.009l0.129,0.141c7.307-3.7,15.113-3.346,19.69,2.037
		c4.353,5.119,4.144,12.857,0.118,19.478c2.161-0.497,8.624-3.961,9.647-9.381c1.042-5.525,3.328-11.715,8.114-12.56
		c4.786-0.845,6.933-3.221,8.024-4.62s-0.288-1.171-0.288-1.171c-11.291,4.581-8.226-3.364-6.845-6.219l9.407-9.693
		c1.581-1.635,3.934-0.41,3.934-0.41c0.358-2.112,2.966-4.922,5.002-5.411C60.744,11.711,64.421,7.684,62.424,8.554z"/>
</g>
</svg>
