<?xml version="1.0" encoding="iso-8859-1"?>
<!-- Generator: Adobe Illustrator 17.0.0, SVG Export Plug-In . SVG Version: 6.00 Build 0)  -->
<!DOCTYPE svg PUBLIC "-//W3C//DTD SVG 1.1//EN" "http://www.w3.org/Graphics/SVG/1.1/DTD/svg11.dtd">
<svg version="1.1" id="Capa_1" xmlns="http://www.w3.org/2000/svg" xmlns:xlink="http://www.w3.org/1999/xlink" x="0px" y="0px"
	 width="64px" height="64px" viewBox="0 0 64 64" style="enable-background:new 0 0 64 64;" xml:space="preserve">
<g>
	<path d="M50.314,16.231l0.013,0.013c1.93-1.863,4.606-0.88,4.606-0.88c-0.352-5.904,7.439-6.906,7.439-6.906
		c1.364-2.296-0.532-3.394-0.532-3.394C58.479,5.696,59.51,4,59.51,4c0.532-0.732,4.026-0.765,1.431-1.897
		c-2.595-1.131-5.656-0.266-5.656-0.266c-0.333,6.721-7.353,7.353-7.353,7.353c1.098,2.961-0.566,4.093-0.566,4.093l0.054,0.054
		l-7.053,7.096c-1.333,0.285-3.05,0.32-3.678-1.144c-1.081-2.523,2.042-7.209,4.626-7.87c0,0-5.046-1.922-11.654,3.604
		c0,0,1.382,15.319-14.898,11.654c0,0-8.513,3.732-12.499,16.769c6.907-4.328,14.438-4.857,18.557-0.738
		c4.135,4.135,3.585,11.708-0.789,18.637c2.167-0.527,10.679-3.111,17.078-12.32c0,0-4.145-13.156,9.071-12.676
		c0,0,3.004-3.364,2.884-7.449c0,0-4.325,4.085-7.389,1.982c-1.813-1.244-1.562-3.367-1.057-4.897L50.314,16.231z"/>
</g>
</svg>
