<?xml version="1.0" encoding="iso-8859-1"?>
<!-- Generator: Adobe Illustrator 17.0.0, SVG Export Plug-In . SVG Version: 6.00 Build 0)  -->
<!DOCTYPE svg PUBLIC "-//W3C//DTD SVG 1.1//EN" "http://www.w3.org/Graphics/SVG/1.1/DTD/svg11.dtd">
<svg version="1.1" id="Capa_1" xmlns="http://www.w3.org/2000/svg" xmlns:xlink="http://www.w3.org/1999/xlink" x="0px" y="0px"
	 width="64px" height="64px" viewBox="0 0 64 64" style="enable-background:new 0 0 64 64;" xml:space="preserve">
<g>
	<path d="M60.96,2.427c-3.189,4.605-8.467,7.818-8.467,7.818c0.429,1.446-0.045,2.638-0.535,3.399L43.25,23.898
		c-0.786,0.489-6.29,3.697-4.412-3.573c2.02-7.822,2.292-5.12-0.086-8.897c0,0-4.022,5.016-4.975,10.161
		c-0.953,5.144-3.616,6.238-3.616,6.238s6.105,4.078-7.166,7.887C9.725,39.524,1.738,47.45,1.738,47.45s-1.212,2.136-0.529,4.456
		c0,0,17.182-7.666,25.207-5.035c8.025,2.631,3.276,5.383,3.276,5.383s3.519,5.799,3.914,10.521c0,0-0.322,0.994,2.969-1.195
		c3.291-2.19,3.475-6.348,4.029-12.143c0.554-5.795,0.141-8.607,5.273-10.834c5.132-2.227,6.127-2.923,8.517-4.683
		c0,0-0.923-1.285-2.975-1.412c0,0-8.176,3.852-6.472-4.09L55.576,15.9c1.033-0.317,1.709,0.221,1.709,0.221L63.504,4.02
		l-0.886-0.948C62.618,3.072,64.149-2.179,60.96,2.427z"/>
</g>
</svg>
