<?xml version="1.0" encoding="iso-8859-1"?>
<!-- Generator: Adobe Illustrator 17.0.0, SVG Export Plug-In . SVG Version: 6.00 Build 0)  -->
<!DOCTYPE svg PUBLIC "-//W3C//DTD SVG 1.1//EN" "http://www.w3.org/Graphics/SVG/1.1/DTD/svg11.dtd">
<svg version="1.1" id="Capa_1" xmlns="http://www.w3.org/2000/svg" xmlns:xlink="http://www.w3.org/1999/xlink" x="0px" y="0px"
	 width="64px" height="64px" viewBox="0 0 64 64" style="enable-background:new 0 0 64 64;" xml:space="preserve">
<g>
	<path d="M38.369,31.682c-2.267,0.835-6.359,0.409-6.359,0.409l-2.714,8.354L1.76,58.7l26.327-6.572
		c1.638-0.409,2.378,0.856,2.378,0.856l8.594,10.307l1.64-14.437L58.918,31.54c0,0-13.086,5.088-16.362,6.305
		c-2.068,0.768-2.052-1.574-1.76-3.407l9.981-16.002c0.803-0.749,1.551-0.814,1.551-0.814l9.226-10.508c0,0-6.819,2.925-7.662,3.255
		c-0.842,0.331-1.138-0.573-1.138-0.573l-1.001-8.321L47.2,14.916c0.491,0.911,0.255,1.94-0.016,2.634L38.369,31.682z"/>
</g>
</svg>
