<?xml version="1.0" encoding="iso-8859-1"?>
<!-- Generator: Adobe Illustrator 17.0.0, SVG Export Plug-In . SVG Version: 6.00 Build 0)  -->
<!DOCTYPE svg PUBLIC "-//W3C//DTD SVG 1.1//EN" "http://www.w3.org/Graphics/SVG/1.1/DTD/svg11.dtd">
<svg version="1.1" id="Capa_1" xmlns="http://www.w3.org/2000/svg" xmlns:xlink="http://www.w3.org/1999/xlink" x="0px" y="0px"
	 width="64px" height="64px" viewBox="0 0 64 64" style="enable-background:new 0 0 64 64;" xml:space="preserve">
<g>
	<path d="M7.03,57.179c9.203,8.508,19.853,4.225,19.853,4.225s-2.778-17.479,13.196-17.132c0,0-0.926-3.125,2.547-7.409
		l-0.521-0.521c0,0-4.225,4.341-8.335,3.589c-2.775-0.508-2.092-2.992-1.374-4.643l16.51-16.77c1.634-1.41,3.742-1.706,4.967-0.659
		c-0.086-1.68,0.69-3.621,2.233-5.164c1.619-1.619,3.674-2.389,5.409-2.209l1.164-1.164L62.503,5.76l-0.367-0.367
		c-0.131,0.392-0.324,0.794-0.593,1.182c-0.941,1.357-2.357,2.004-3.163,1.445c-0.497-0.345-0.643-1.068-0.464-1.889
		c-0.821,0.179-1.544,0.033-1.889-0.464c-0.559-0.806,0.088-2.222,1.445-3.163c0.388-0.269,0.79-0.462,1.182-0.593l-0.215-0.215
		l-3.599-0.177l-1.344,1.344c0.027,1.639-0.744,3.5-2.235,4.99s-3.351,2.261-4.99,2.235l-0.09,0.09
		c1.012,1.272,0.652,3.427-0.845,5.051L29.36,31.454c-0.808,0.411-1.699,0.719-2.362,0.547c-1.563-0.405-5.209-0.579,4.399-13.659
		l-0.521-0.521c0,0-5.962,4.688-9.608,4.746c0,0,1.447,16.032-18.753,14.933C2.516,37.5-2.173,48.671,7.03,57.179z"/>
</g>
</svg>
