<?xml version="1.0" encoding="iso-8859-1"?>
<!-- Generator: Adobe Illustrator 17.0.0, SVG Export Plug-In . SVG Version: 6.00 Build 0)  -->
<!DOCTYPE svg PUBLIC "-//W3C//DTD SVG 1.1//EN" "http://www.w3.org/Graphics/SVG/1.1/DTD/svg11.dtd">
<svg version="1.1" id="Capa_1" xmlns="http://www.w3.org/2000/svg" xmlns:xlink="http://www.w3.org/1999/xlink" x="0px" y="0px"
	 width="64px" height="64px" viewBox="0 0 64 64" style="enable-background:new 0 0 64 64;" xml:space="preserve">
<g>
	<path d="M62.891,3.993l-1.733,1.599c-0.828,0.764-2.12,0.713-2.884-0.116s-0.713-2.12,0.116-2.884l1.734-1.599
		c0.145-0.134,0.304-0.241,0.472-0.325l-0.123-0.133L56.213,1.02l-0.134,0.124c-0.073,1.11-0.873,2.719-2.304,4.04
		c-1.271,1.173-2.829,1.726-3.991,1.769l-0.597,0.551c1.212,1.331,1.446,2.645,0.065,3.94l-8.722,8.18
		c-1.637,0.618-2.989,0.459-2.989,0.459c-2.477,3.196-4.983,2.188-4.983,2.188c-4.27,6.556-8.704,4.517-8.704,4.517
		c-1.762,8.771-11.269,5.59-10.616,6.191c0.653,0.601,0.554,1.717,0.554,1.717c-6.549,0.562-12.366,3.858-12.366,3.858
		s2.259-0.539,10.721,0.753c8.462,1.292-5.995,4.598,2.681,4.045c3.917-0.25,6.913-1.516,9.023-2.83
		c-1.134,2.212-2.148,5.302-2.072,9.226c0.167,8.691,2.264-5.99,4.253,2.336s1.639,10.622,1.639,10.622s2.803-6.071,2.82-12.643
		c0,0,1.104-0.191,1.757,0.41c0.653,0.601-3.305-8.609,5.29-11.092c0,0-2.399-4.25,3.78-9.049c0,0-1.212-2.414,1.768-5.147
		c0,0-0.285-1.401,0.246-3.142l8.696-8.155l-0.009-0.01c1.242-0.938,2.397-0.622,3.503,0.496l0.601-0.554
		c0.137-1.155,0.813-2.663,2.084-3.836c1.431-1.321,3.099-1.989,4.211-1.973l0.134-0.124l0.825-4.206l-0.123-0.133
		C63.155,3.709,63.036,3.859,62.891,3.993z"/>
</g>
</svg>
