<?xml version="1.0" encoding="iso-8859-1"?>
<!-- Generator: Adobe Illustrator 17.0.0, SVG Export Plug-In . SVG Version: 6.00 Build 0)  -->
<!DOCTYPE svg PUBLIC "-//W3C//DTD SVG 1.1//EN" "http://www.w3.org/Graphics/SVG/1.1/DTD/svg11.dtd">
<svg version="1.1" id="Capa_1" xmlns="http://www.w3.org/2000/svg" xmlns:xlink="http://www.w3.org/1999/xlink" x="0px" y="0px"
	 width="64px" height="64px" viewBox="0 0 64 64" style="enable-background:new 0 0 64 64;" xml:space="preserve">
<g>
	<path d="M4.667,50.733c4.697,5.366,5.601,9.705,5.601,9.705c6.456-0.826,9.656,2.86,9.656,2.86c2.331-1.91,4.874-0.653,4.874-0.653
		c4.19-1.561,4.272-3.546,5.18-6.807c0.908-3.262,2.788-2.12,1.498-3.475c-1.29-1.355-1.11-7.242,4.991-9.05
		c6.101-1.808,7.331-7.986,5.647-6.621c-1.684,1.365-5.721,3.715-7.848,0.663c-2.127-3.052,4.517-9.5,4.517-9.5l-0.028-0.026
		l11.187-11.842c1.534-1.695,4.961-1.42,4.961-1.42c3.979-9.447,8.034-9.669,7.347-10.322s-2.067-0.657-4.118-0.684
		c-2.051-0.027-2.227-0.732-2.227-0.732c-1.842,3.557-8.347,6.68-8.347,6.68c1.548,1.932,0.096,3.776,0.096,3.776L35.848,25.781
		c-4.638,2.268-6.274,1.464-4.683-3.746c1.647-5.396,6.437-6.773,5.302-7.207s-3.458-0.837-5.592,1.002
		c-2.134,1.839-3.729,1.483-3.729,1.483c0.226,6.273-4.259,6.652-4.259,6.652s2.787,3.035-1.942,6.791
		c-4.729,3.756-7.692-0.994-7.923,0.334c-0.231,1.328-0.634,1.074-5.457,3.708C2.741,37.431-0.031,45.367,4.667,50.733z"/>
</g>
</svg>
