<?xml version="1.0" encoding="iso-8859-1"?>
<!-- Generator: Adobe Illustrator 17.0.0, SVG Export Plug-In . SVG Version: 6.00 Build 0)  -->
<!DOCTYPE svg PUBLIC "-//W3C//DTD SVG 1.1//EN" "http://www.w3.org/Graphics/SVG/1.1/DTD/svg11.dtd">
<svg version="1.1" id="Capa_1" xmlns="http://www.w3.org/2000/svg" xmlns:xlink="http://www.w3.org/1999/xlink" x="0px" y="0px"
	 width="64px" height="64px" viewBox="0 0 64 64" style="enable-background:new 0 0 64 64;" xml:space="preserve">
<g>
	<path d="M62.424,8.322c-1.986,0.895-3.513-0.285-3.513-0.285s-1.307,1.231-2.326,0.219c-1.019-1.012,0.753-2.541,0.753-2.541
		c-1.234-1.984,2.903-5.044,1.367-4.687s-3.577,1.478-3.577,1.478c-0.784,5.884-7.544,8.952-7.544,8.952
		c0.914,1.056,0.496,2.11-0.013,2.809l-0.778,0.823l0,0l-7.417,7.84c-0.501,0.076-1.025,0.094-1.54-0.003
		c0,0-8.119,3.813-14.034,3.953c0,0-5.507,8.373-14.647,7.039c0,0-6.935,8.531-6.939,12.557c0,0,6.149-10.294,14.046-6.781
		c0,0,0.14-3.418,6.779,0.01c6.639,3.428,2.002,8.01,0.9,8.037c0,0,6.208,3.859-5.744,13.644c0,0,7.784-1.201,8.591-3.213
		c0.807-2.012,1.612-2.28,3.021-1.675c0,0,2.734-9.921,10.363-14.654c0,0-3.627-2.479,0.538-8.112c0,0-2.139-1.348,1.289-7.439
		l7.894-8.345c1.56-1.655,3.928-0.461,3.928-0.461c0.331-2.117,2.903-4.96,4.932-5.474C60.785,11.5,64.41,7.427,62.424,8.322z"/>
</g>
</svg>
