<?xml version="1.0" encoding="iso-8859-1"?>
<!-- Generator: Adobe Illustrator 17.0.0, SVG Export Plug-In . SVG Version: 6.00 Build 0)  -->
<!DOCTYPE svg PUBLIC "-//W3C//DTD SVG 1.1//EN" "http://www.w3.org/Graphics/SVG/1.1/DTD/svg11.dtd">
<svg version="1.1" id="Capa_1" xmlns="http://www.w3.org/2000/svg" xmlns:xlink="http://www.w3.org/1999/xlink" x="0px" y="0px"
	 width="64px" height="64px" viewBox="0 0 64 64" style="enable-background:new 0 0 64 64;" xml:space="preserve">
<path d="M59.915,7.18c0.133-0.053,0.288-0.203,0.333-0.338c0.298-0.899,0.092-1.928-0.623-2.643c0,0-0.034-0.034-0.077-0.077
	c-0.042-0.042-0.084,0.039-0.107,0.18C59.368,4.758,59.2,5.157,59.027,5.33c-0.396,0.396-1.317,0.116-2.057-0.625
	c-0.741-0.741-1.02-1.662-0.625-2.057c0.173-0.173,0.572-0.341,1.028-0.414c0.141-0.023,0.222-0.065,0.18-0.107L57.477,2.05
	c-0.712-0.712-1.736-0.92-2.632-0.627c-0.136,0.044-0.286,0.199-0.339,0.332c-0.159,0.396-0.301,0.784-0.386,1.092
	c-0.042,0.151-0.106,0.353-0.194,0.581l-0.435-0.435c0.156-0.175,0.229-0.336,0.023-0.542c-0.307-0.307-0.805-0.307-1.112,0
	c-0.307,0.307-0.307,0.805,0,1.112c0.206,0.206,0.367,0.133,0.542-0.023l0.639,0.639c-0.223,0.417-0.524,0.863-0.919,1.278
	l-0.635-0.635c0.156-0.175,0.229-0.336,0.023-0.542c-0.307-0.307-0.805-0.307-1.112,0c-0.307,0.307-0.307,0.805,0,1.112
	c0.206,0.206,0.367,0.133,0.542-0.023l0.605,0.605c-0.4,0.309-0.872,0.576-1.43,0.767l-0.639-0.639
	c0.156-0.175,0.229-0.336,0.023-0.542c-0.307-0.307-0.805-0.307-1.112,0s-0.307,0.805,0,1.112c0.206,0.206,0.367,0.133,0.542-0.023
	l0.309,0.309c-0.136,0.023-0.27,0.047-0.414,0.061c-0.142,0.014-0.217,0.128-0.175,0.265c0.455,1.47-0.058,2.396-0.508,2.886
	c-0.099-0.057-0.222-0.06-0.307,0.024l-0.164,0.164c-0.101,0.101-0.101,0.265,0,0.366l0.069,0.069L27.978,31.095
	c-0.195-0.007-0.399-0.011-0.629-0.006c-0.999,0.021-1.309,0.045-2.212-1.67s0.812-5.777,0.09-9.208
	c-0.722-3.43-1.309-0.677-4.83,7.357c-3.521,8.034-12.411,8.59-12.411,8.59l0.007,0.014c-0.716,0.033-1.405,0.19-2.04,0.513
	c-3.967,2.012-4.528,9.104-0.97,16.117s9.456,11.597,13.728,9.278c0.752-0.408,1.366-1.015,1.848-1.775l0.002,0.003
	c1.292-1.608,2.409-5.072,3.764-9.225s3.159-5.055,5.281-5.913c2.121-0.858,3.611-1.896,4.649-3.475
	c1.038-1.58,0.587-3.024-0.677-2.121s-3.746,2.121-5.326,0.542c-1.173-1.173-0.356-3.238,0.143-4.226l22.492-22.492l0.069,0.069
	c0.101,0.101,0.265,0.101,0.366,0l0.164-0.164c0.082-0.082,0.08-0.201,0.028-0.299c0.489-0.45,1.415-0.965,2.886-0.511
	c0.136,0.042,0.251-0.033,0.265-0.175c0.014-0.145,0.039-0.279,0.061-0.415l0.306,0.306c-0.156,0.175-0.229,0.336-0.023,0.542
	c0.307,0.307,0.805,0.307,1.112,0s0.307-0.805,0-1.112c-0.206-0.206-0.367-0.133-0.542,0.023l-0.636-0.636
	c0.191-0.558,0.458-1.03,0.767-1.43l0.601,0.601c-0.156,0.175-0.229,0.336-0.023,0.542c0.307,0.307,0.805,0.307,1.112,0
	s0.307-0.805,0-1.112c-0.206-0.206-0.367-0.133-0.542,0.023l-0.632-0.632c0.414-0.395,0.861-0.696,1.278-0.919l0.636,0.636
	c-0.156,0.175-0.229,0.336-0.023,0.542c0.307,0.307,0.805,0.307,1.112,0s0.307-0.805,0-1.112c-0.206-0.206-0.367-0.133-0.542,0.023
	l-0.431-0.431c0.228-0.088,0.43-0.152,0.581-0.194C59.14,7.477,59.523,7.337,59.915,7.18z"/>
</svg>
