<?xml version="1.0" encoding="iso-8859-1"?>
<!-- Generator: Adobe Illustrator 17.0.0, SVG Export Plug-In . SVG Version: 6.00 Build 0)  -->
<!DOCTYPE svg PUBLIC "-//W3C//DTD SVG 1.1//EN" "http://www.w3.org/Graphics/SVG/1.1/DTD/svg11.dtd">
<svg version="1.1" id="Capa_1" xmlns="http://www.w3.org/2000/svg" xmlns:xlink="http://www.w3.org/1999/xlink" x="0px" y="0px"
	 width="64px" height="64px" viewBox="0 0 64 64" style="enable-background:new 0 0 64 64;" xml:space="preserve">
<g>
	<path d="M31.482,6c-14.359,0-26,11.641-26,26s11.641,26,26,26c14.359,0,26-11.641,26-26S45.842,6,31.482,6z M20.108,38.277v-13.59
		c0-2.361,1.66-3.322,3.707-2.148l11.888,6.816c2.047,1.174,2.047,3.079,0,4.253l-11.888,6.815
		C21.769,41.599,20.108,40.637,20.108,38.277z M46.282,33.608l-11.888,6.815c-2.004,1.15-3.632,0.25-3.7-2.001l6.729-3.858
		c1.327-0.762,2.09-1.885,2.09-3.082c0-1.197-0.763-2.32-2.09-3.082l-6.729-3.859c0.068-2.251,1.696-3.15,3.7-2.002l11.888,6.816
		C48.33,30.529,48.33,32.435,46.282,33.608z"/>
</g>
</svg>
