<?xml version="1.0" encoding="iso-8859-1"?>
<!-- Generator: Adobe Illustrator 17.0.0, SVG Export Plug-In . SVG Version: 6.00 Build 0)  -->
<!DOCTYPE svg PUBLIC "-//W3C//DTD SVG 1.1//EN" "http://www.w3.org/Graphics/SVG/1.1/DTD/svg11.dtd">
<svg version="1.1" id="Capa_1" xmlns="http://www.w3.org/2000/svg" xmlns:xlink="http://www.w3.org/1999/xlink" x="0px" y="0px"
	 width="64px" height="64px" viewBox="0 0 64 64" style="enable-background:new 0 0 64 64;" xml:space="preserve">
<g>
	<path d="M27.317,59.464c-5.748-4.135-11.078-5.37-13.588-5.736C15.195,55.085,23.622,59.262,27.317,59.464z"/>
	<path d="M45.812,4.249c0,0-3.946,6.945-8.522,15.083c0.375,0.358,0.422,1.132,0.076,1.873c-0.398,0.853-1.164,1.338-1.712,1.082
		c-0.007-0.002-0.012-0.009-0.019-0.012c-0.365,0.652-0.733,1.309-1.101,1.964c0.038,0.011,0.077,0.016,0.112,0.033
		c0.548,0.255,0.668,1.153,0.27,2.007c-0.398,0.852-1.164,1.338-1.711,1.082c-0.115-0.053-0.205-0.14-0.281-0.242
		c-0.394,0.704-0.783,1.404-1.17,2.097c0.059,0.011,0.118,0.024,0.174,0.049c0.547,0.256,0.666,1.154,0.268,2.008
		c-0.397,0.853-1.163,1.338-1.711,1.082c-0.131-0.061-0.234-0.16-0.315-0.285c-0.481,0.869-0.95,1.716-1.4,2.533
		c0.096,0.005,0.189,0.021,0.276,0.062c0.547,0.256,0.668,1.153,0.27,2.007c-0.398,0.853-1.164,1.338-1.712,1.083
		c-0.157-0.074-0.274-0.206-0.36-0.37c-0.455,0.834-0.881,1.618-1.27,2.341c0.147-0.039,0.295-0.039,0.436,0.007
		c0.574,0.188,0.799,1.067,0.504,1.961c-0.294,0.894-0.997,1.467-1.57,1.277c-0.337-0.111-0.55-0.464-0.611-0.915
		c-0.146,0.28-0.283,0.543-0.406,0.784c-3.129,6.09-6.815,9.296-9.404,10.486c2.966,0.601,7.443,2.018,12.274,5.35
		c-0.253-1.937-0.596-6.069,0.701-8.259c1.731-2.923,11.474-33.773,16.345-39.186C44.242,11.231,43.916,10.798,45.812,4.249z"/>
</g>
</svg>
