<?xml version="1.0" encoding="iso-8859-1"?>
<!-- Generator: Adobe Illustrator 17.0.0, SVG Export Plug-In . SVG Version: 6.00 Build 0)  -->
<!DOCTYPE svg PUBLIC "-//W3C//DTD SVG 1.1//EN" "http://www.w3.org/Graphics/SVG/1.1/DTD/svg11.dtd">
<svg version="1.1" id="Capa_1" xmlns="http://www.w3.org/2000/svg" xmlns:xlink="http://www.w3.org/1999/xlink" x="0px" y="0px"
	 width="64px" height="64px" viewBox="0 0 64 64" style="enable-background:new 0 0 64 64;" xml:space="preserve">
<path d="M8.945,6.779l2.882-1.488c0,0,1.817,1.072,3.239,4.548c0,0-2.969,0.46-4.524,2.337C10.542,12.176,8.31,9.352,8.945,6.779z"
	/>
<path d="M40.556,58.67c-0.309-0.965-1.822-1.351-1.822-1.351s-1.587-0.443-1.387-2.14c0.201-1.694-0.646-2.426-0.646-2.426
	l-2.279-3.688L22.982,26.199c0,0-0.07-2.491-1.246-3.66c-1.177-1.172-2.334-2.819-2.334-2.819s-2.944-6.059-2.985-7.067
	c-0.043-1.008-1.005-1.943-1.005-1.943c-2.912,0.632-4.285,2.213-4.285,2.213s0.206,1.327,1.004,1.945
	c0.798,0.615,4.036,6.522,4.036,6.522s0.674,1.898,0.947,3.535c0.274,1.637,2.265,3.135,2.265,3.135L31.41,50.623l1.688,3.991
	c0,0,0.108,1.114,1.606,1.931c1.498,0.818,0.943,2.37,0.943,2.37s-0.562,1.457,0.046,2.267l-0.015,0.008
	c0.014,0.009,0.033,0.011,0.049,0.019c0.361,0.377,1.625,0.051,2.775-0.55c1.154-0.591,2.152-1.433,2.055-1.944
	c0.002-0.019,0.011-0.035,0.012-0.052L40.556,58.67z M22.483,30.021c0.343-0.177,0.765-0.042,0.941,0.3
	c0.177,0.343,0.042,0.765-0.3,0.942c-0.342,0.177-0.764,0.041-0.941-0.301C22.007,30.62,22.14,30.198,22.483,30.021z M24.372,33.678
	c0.343-0.177,0.766-0.042,0.941,0.3c0.178,0.343,0.044,0.766-0.3,0.942c-0.342,0.177-0.764,0.042-0.941-0.301
	C23.896,34.277,24.03,33.854,24.372,33.678z M26.261,37.334c0.343-0.177,0.765-0.041,0.941,0.3c0.177,0.344,0.043,0.766-0.3,0.942
	c-0.343,0.178-0.765,0.042-0.942-0.301C25.785,37.934,25.919,37.511,26.261,37.334z M28.151,40.992
	c0.343-0.179,0.764-0.044,0.94,0.299c0.178,0.343,0.043,0.765-0.3,0.941c-0.343,0.177-0.765,0.042-0.94-0.301
	C27.673,41.59,27.808,41.168,28.151,40.992z M30.04,44.648c0.343-0.177,0.765-0.044,0.941,0.299
	c0.177,0.343,0.042,0.765-0.301,0.941c-0.342,0.177-0.763,0.043-0.941-0.3C29.562,45.246,29.697,44.825,30.04,44.648z
	 M31.333,49.397c-0.261-0.506-0.063-1.128,0.442-1.389c0.506-0.262,1.128-0.062,1.39,0.443c0.261,0.504,0.063,1.128-0.443,1.389
	C32.216,50.103,31.594,49.902,31.333,49.397z M34.992,53.862c-0.506,0.261-1.127,0.062-1.389-0.442
	c-0.262-0.507-0.063-1.127,0.443-1.39c0.506-0.262,1.127-0.062,1.388,0.441C35.696,52.979,35.498,53.6,34.992,53.862z"/>
</svg>
