<?xml version="1.0" encoding="iso-8859-1"?>
<!-- Generator: Adobe Illustrator 17.0.0, SVG Export Plug-In . SVG Version: 6.00 Build 0)  -->
<!DOCTYPE svg PUBLIC "-//W3C//DTD SVG 1.1//EN" "http://www.w3.org/Graphics/SVG/1.1/DTD/svg11.dtd">
<svg version="1.1" id="Capa_1" xmlns="http://www.w3.org/2000/svg" xmlns:xlink="http://www.w3.org/1999/xlink" x="0px" y="0px"
	 width="64px" height="64px" viewBox="0 0 64 64" style="enable-background:new 0 0 64 64;" xml:space="preserve">
<path d="M45.623,53.237c-0.824-1.147-2.428-1.491-4.107-1.072l-1.608-2.217c0.398-0.646,0.638-1.397,0.638-2.211
	c0-1.971-1.352-3.612-3.173-4.088l-3.685-6.128l-1.224,0.739c-0.136,0.082-0.284,0.119-0.431,0.119
	c-0.282,0-0.558-0.143-0.714-0.402c-0.238-0.395-0.112-0.907,0.283-1.146l1.226-0.738l-0.656-1.089l-1.219,0.736
	c-0.135,0.082-0.284,0.119-0.431,0.119c-0.282,0-0.558-0.143-0.714-0.402c-0.238-0.395-0.111-0.907,0.283-1.146l1.222-0.737
	l-0.655-1.088l-1.217,0.734c-0.135,0.081-0.283,0.119-0.43,0.119c-0.282,0-0.559-0.143-0.715-0.402
	c-0.238-0.395-0.111-0.908,0.283-1.146l1.219-0.735l-0.654-1.089l-1.214,0.733c-0.135,0.081-0.283,0.119-0.43,0.119
	c-0.282,0-0.558-0.143-0.715-0.402c-0.237-0.394-0.111-0.908,0.283-1.146l1.216-0.733l-0.654-1.089l-1.211,0.731
	c-0.135,0.081-0.283,0.119-0.43,0.119c-0.283,0-0.559-0.143-0.715-0.402c-0.238-0.395-0.111-0.907,0.283-1.146l1.213-0.732
	l-0.654-1.088l-1.209,0.729c-0.135,0.082-0.283,0.12-0.43,0.12c-0.282,0-0.558-0.143-0.714-0.402
	c-0.237-0.395-0.112-0.907,0.282-1.146l1.211-0.729l-0.654-1.089l-1.205,0.727c-0.135,0.082-0.284,0.12-0.43,0.12
	c-0.283,0-0.559-0.144-0.715-0.402c-0.238-0.395-0.112-0.907,0.283-1.146l1.206-0.727l-0.655-1.089l-1.201,0.725
	c-0.135,0.082-0.283,0.12-0.43,0.12c-0.282,0-0.559-0.144-0.715-0.402c-0.238-0.394-0.111-0.907,0.283-1.146l1.204-0.726
	l-1.694-2.818c0.125-0.4,0.211-0.817,0.211-1.26c0-2.246-1.753-4.066-3.963-4.212l-2.25-3.878c-0.463-0.796-1.482-1.067-2.279-0.604
	l-1.441,0.837c-0.797,0.463-1.068,1.482-0.605,2.278l2.353,4.058c-0.183,0.474-0.293,0.983-0.293,1.521
	c0,1.965,1.343,3.602,3.156,4.084l16.85,28.018c-0.123,0.395-0.207,0.808-0.207,1.243c0,2.341,1.897,4.24,4.239,4.24
	c0.054,0,0.104-0.015,0.157-0.018l1.407,2.507c-1.332,1.6-1.699,3.561-0.752,4.878c1.21,1.683,4.093,1.68,6.44-0.007
	C45.907,57.65,46.83,54.919,45.623,53.237z M42.795,58.216c-1.283,0.94-2.711,1.179-3.188,0.528
	c-0.477-0.649,0.178-1.939,1.462-2.881c1.284-0.942,2.711-1.178,3.188-0.528C44.733,55.984,44.078,57.274,42.795,58.216z"/>
</svg>
