<?xml version="1.0" encoding="iso-8859-1"?>
<!-- Generator: Adobe Illustrator 17.0.0, SVG Export Plug-In . SVG Version: 6.00 Build 0)  -->
<!DOCTYPE svg PUBLIC "-//W3C//DTD SVG 1.1//EN" "http://www.w3.org/Graphics/SVG/1.1/DTD/svg11.dtd">
<svg version="1.1" id="Capa_1" xmlns="http://www.w3.org/2000/svg" xmlns:xlink="http://www.w3.org/1999/xlink" x="0px" y="0px"
	 width="64px" height="64px" viewBox="0 0 64 64" style="enable-background:new 0 0 64 64;" xml:space="preserve">
<g>
	<path d="M9.625,20.5h15.5c0.567,0,1.395-0.485,1.697-1.019l3.161-5.231H9.625c-4.418,0-8,3.582-8,8v2.647
		C3.315,22.258,6.265,20.5,9.625,20.5z"/>
	<path d="M54.375,11h-18.75c-1.105,0-2.439,0.78-2.981,1.743l-0.91,1.507l-3.629,6.007C27.564,21.22,26.23,22,25.125,22h-15.5
		c-4.418,0-8,3.582-8,8v14.75v1.75c0,4.418,3.582,8,8,8h44.75c4.418,0,8-3.582,8-8v-1.75v-22.5V19
		C62.375,14.582,58.793,11,54.375,11z M12.185,28.603l22.95,8.432c0.425,0.559,0.792,0.902,1.089,1.114l7.98-0.01
		c0.153-0.152,0.402-0.437,0.614-0.892c0.228-0.489,0.693-0.761,1.19-0.553l7.821,3.276c0.498,0.208,0.499,0.551,0.004,0.765
		l-0.603,0.26c-0.495,0.214-1.33,0.319-1.863,0.24c-1.552-0.229-4.599-0.649-6.378-0.703l-0.657,0.001
		c-0.05,0.002-0.105,0.003-0.15,0.006l0-0.006l-8.773,0.011c-1.01,0.513-1.72,1.512-1.72,1.512l-17.636,5.708
		c-0.513,0.166-0.622-0.009-0.248-0.398c1.638-1.698,5.686-6.019,6.019-7.598c0.353-1.671-7.372-8.684-9.821-10.858
		C11.598,28.553,11.679,28.417,12.185,28.603z"/>
</g>
</svg>
