<?xml version="1.0" encoding="iso-8859-1"?>
<!-- Generator: Adobe Illustrator 17.0.0, SVG Export Plug-In . SVG Version: 6.00 Build 0)  -->
<!DOCTYPE svg PUBLIC "-//W3C//DTD SVG 1.1//EN" "http://www.w3.org/Graphics/SVG/1.1/DTD/svg11.dtd">
<svg version="1.1" id="Capa_1" xmlns="http://www.w3.org/2000/svg" xmlns:xlink="http://www.w3.org/1999/xlink" x="0px" y="0px"
	 width="64px" height="64px" viewBox="0 0 64 64" style="enable-background:new 0 0 64 64;" xml:space="preserve">
<path d="M7.335,22.997l24.379,14.064L54.453,16.55c0,0-7.267-6.211-13.362-3.281c-6.094,2.93-6.798-2.696-14.299-3.282
	C19.29,9.4,7.335,22.997,7.335,22.997z"/>
<polygon points="40.505,46.556 31.538,41.458 31.538,38.469 7.335,24.579 8.595,33.946 8.683,34.601 9.221,34.909 9.561,40.227 
	10.88,40.227 11.717,36.343 37.784,51.312 38.22,54.468 39.538,54.468 39.538,52.319 40.065,52.622 "/>
<path d="M57.647,30.489L41.679,46.644l-0.47,4.396l13.265-13.883c0.01,1.047,0.01,1.047,0.01,1.047h0.977l0.275-2.367l0.594-0.621
	L57.647,30.489z"/>
<path d="M56.964,29.667l1.299-1.154l-4.923-2.088l1.113-7.999L32.841,38.601v2.153l8.368,4.905l1.333-1.238l-5.493-3.291
	l0.546-0.492l5.382,3.225l1.215-1.178l-1.899-1.2L42.81,41l1.898,1.181l1.144-1.107l-5.175-3.218l0.545-0.491l5.069,3.153
	l0.919-0.82l-4.99-3.235l0.541-0.487l4.955,3.212l1.004-1.016l-4.942-3.113l0.542-0.49l4.841,3.05l1.116-1.022l-4.941-2.943
	l0.546-0.494l4.83,2.877l1.103-0.995l-4.926-2.79l0.551-0.496l4.887,2.768l0.877-0.887l-4.993-2.577l0.559-0.504l4.953,2.556
	l1.384-1.4l-4.975-2.385l0.563-0.51l4.934,2.365l0.921-0.932l-4.828-2.36l0.563-0.508L56.964,29.667z M39.333,35.632
	c-0.194-0.699,0.109-1.695,0.677-2.226l6.734-6.285c0.567-0.53,1.232-0.364,1.484,0.371l0.005,0.013
	c0.251,0.734-0.014,1.75-0.592,2.268l-6.91,6.185C40.153,36.478,39.527,36.33,39.333,35.632z"/>
</svg>
