<?xml version="1.0" encoding="iso-8859-1"?>
<!-- Generator: Adobe Illustrator 17.0.0, SVG Export Plug-In . SVG Version: 6.00 Build 0)  -->
<!DOCTYPE svg PUBLIC "-//W3C//DTD SVG 1.1//EN" "http://www.w3.org/Graphics/SVG/1.1/DTD/svg11.dtd">
<svg version="1.1" id="Capa_1" xmlns="http://www.w3.org/2000/svg" xmlns:xlink="http://www.w3.org/1999/xlink" x="0px" y="0px"
	 width="64px" height="64px" viewBox="0 0 64 64" style="enable-background:new 0 0 64 64;" xml:space="preserve">
<g>
	<path d="M45.121,50.212c0.167-0.63,0.326-1.29,0.477-1.975c0.028-0.13-0.014-0.266-0.111-0.355
		c-0.099-0.092-0.234-0.124-0.363-0.083c-0.612,0.187-1.264,0.372-1.954,0.55c-0.136,0.034-0.241,0.144-0.271,0.28
		c-0.151,0.676-0.311,1.324-0.478,1.943c-0.034,0.129,0.002,0.266,0.096,0.36c0.071,0.072,0.167,0.111,0.266,0.111
		c0.031,0,0.062-0.004,0.094-0.012c0.704-0.181,1.37-0.369,1.993-0.558C44.992,50.437,45.088,50.337,45.121,50.212z"/>
	<path d="M46.424,42.947c0.056-0.611,0.096-1.232,0.121-1.861c0.005-0.122-0.051-0.24-0.148-0.313
		c-0.099-0.074-0.227-0.097-0.343-0.057c-0.59,0.193-1.227,0.391-1.908,0.582c-0.154,0.043-0.264,0.181-0.271,0.341
		c-0.034,0.625-0.081,1.24-0.142,1.845c-0.013,0.124,0.037,0.245,0.132,0.325c0.068,0.057,0.153,0.087,0.24,0.087
		c0.034,0,0.069-0.005,0.104-0.015c0.705-0.203,1.36-0.41,1.962-0.613C46.311,43.222,46.411,43.095,46.424,42.947z"/>
	<path d="M45.936,46.533c0.112-0.624,0.215-1.265,0.301-1.921c0.017-0.127-0.033-0.254-0.132-0.336
		c-0.098-0.082-0.229-0.11-0.354-0.069c-0.603,0.193-1.251,0.387-1.941,0.576c-0.143,0.039-0.251,0.16-0.271,0.309
		c-0.091,0.648-0.193,1.282-0.308,1.898c-0.024,0.127,0.02,0.257,0.114,0.344c0.07,0.064,0.16,0.099,0.253,0.099
		c0.034,0,0.067-0.004,0.101-0.014c0.708-0.196,1.371-0.396,1.984-0.595C45.815,46.781,45.913,46.67,45.936,46.533z"/>
	<path d="M43.181,39.362c-0.001-0.187-0.006-0.37-0.01-0.554l-0.003-0.091c-0.005-0.203-0.171-0.365-0.374-0.365h-1.897
		c-0.101,0-0.197,0.041-0.268,0.112c-0.07,0.072-0.108,0.17-0.106,0.271l0.002,0.091c0.005,0.175,0.009,0.352,0.011,0.529
		c0.004,0.526-0.006,1.047-0.023,1.562c-0.004,0.115,0.045,0.226,0.134,0.3c0.068,0.057,0.153,0.087,0.24,0.087
		c0.026,0,0.052-0.003,0.078-0.008c0.668-0.142,1.312-0.292,1.925-0.45c0.161-0.042,0.276-0.186,0.28-0.353
		C43.179,40.118,43.184,39.742,43.181,39.362z"/>
	<path d="M40.044,48.264c0.023,0,0.047-0.002,0.07-0.007c0.676-0.13,1.328-0.27,1.954-0.419c0.143-0.033,0.251-0.146,0.28-0.289
		c0.128-0.631,0.247-1.277,0.351-1.944c0.019-0.124-0.024-0.248-0.115-0.333c-0.092-0.084-0.22-0.116-0.341-0.089
		c-0.615,0.146-1.256,0.284-1.921,0.411c-0.154,0.029-0.274,0.153-0.299,0.309c-0.104,0.654-0.22,1.294-0.347,1.912
		c-0.025,0.122,0.014,0.249,0.1,0.338C39.849,48.224,39.944,48.264,40.044,48.264z"/>
	<path d="M39.434,44.721c0.085-0.628,0.156-1.27,0.213-1.921c0.011-0.115-0.033-0.229-0.118-0.308
		c-0.085-0.078-0.205-0.114-0.315-0.094c-0.615,0.102-1.247,0.193-1.896,0.272c-0.175,0.022-0.312,0.162-0.327,0.339
		c-0.057,0.643-0.129,1.271-0.213,1.89c-0.016,0.114,0.023,0.229,0.104,0.312c0.071,0.072,0.168,0.112,0.268,0.112
		c0.015,0,0.029-0.001,0.045-0.003c0.662-0.081,1.305-0.177,1.933-0.282C39.287,45.013,39.412,44.883,39.434,44.721z"/>
	<path d="M41.461,51.171c0.181-0.627,0.356-1.287,0.523-1.979c0.029-0.126-0.007-0.258-0.098-0.351
		c-0.09-0.092-0.221-0.13-0.347-0.103c-0.617,0.135-1.255,0.263-1.916,0.379c-0.147,0.025-0.264,0.136-0.299,0.281
		c-0.163,0.678-0.335,1.324-0.511,1.938c-0.035,0.124-0.005,0.257,0.082,0.353c0.071,0.08,0.173,0.125,0.278,0.125
		c0.02,0,0.041-0.002,0.062-0.006c0.669-0.114,1.319-0.239,1.944-0.375C41.315,51.404,41.424,51.303,41.461,51.171z"/>
	<path d="M44.073,40.368c0.066,0.05,0.146,0.076,0.228,0.076c0.035,0,0.07-0.005,0.104-0.015c0.688-0.201,1.33-0.406,1.915-0.605
		c0.153-0.052,0.256-0.301,0.255-0.462c-0.001-0.187-0.006-0.371-0.011-0.556l-0.002-0.089c-0.005-0.203-0.171-0.365-0.374-0.365
		h-1.897c-0.101,0-0.197,0.041-0.268,0.112c-0.07,0.072-0.108,0.17-0.106,0.271l0.002,0.089c0.005,0.177,0.009,0.353,0.011,0.531
		c0.002,0.238-0.001,0.473-0.004,0.708C43.924,40.184,43.979,40.296,44.073,40.368z"/>
	<path d="M42.921,43.985c0.072-0.624,0.133-1.257,0.177-1.901c0.008-0.119-0.042-0.235-0.133-0.312
		c-0.092-0.077-0.215-0.104-0.33-0.077c-0.609,0.149-1.247,0.292-1.908,0.425c-0.164,0.033-0.286,0.172-0.3,0.339
		c-0.048,0.637-0.108,1.263-0.184,1.876c-0.015,0.12,0.029,0.239,0.118,0.32c0.069,0.064,0.16,0.1,0.254,0.1
		c0.024,0,0.05-0.002,0.075-0.007c0.675-0.14,1.327-0.288,1.948-0.443C42.79,44.267,42.902,44.14,42.921,43.985z"/>
	<path d="M32.088,25.761c0-0.101-0.04-0.196-0.113-0.267c-0.071-0.07-0.14-0.108-0.27-0.107c-0.394,0.008-0.786,0.021-1.176,0.042
		c-0.152,0.008-0.285,0.108-0.334,0.253c-0.298,0.873-0.576,1.777-0.826,2.687c-0.032,0.117-0.006,0.243,0.071,0.336
		c0.071,0.088,0.178,0.138,0.289,0.138c0.009,0,0.018,0,0.026-0.001c0.637-0.044,1.298-0.073,1.964-0.085
		c0.205-0.004,0.368-0.171,0.368-0.375V25.761z"/>
	<path d="M32.088,38.727c0-0.207-0.168-0.374-0.375-0.374H28.17c-0.203,0-0.369,0.162-0.374,0.365l-0.003,0.089
		c-0.004,0.185-0.009,0.369-0.01,0.556c-0.006,0.726,0.013,1.467,0.058,2.266c0.011,0.183,0.149,0.331,0.331,0.352
		c1.189,0.136,2.378,0.216,3.534,0.238c0.002,0,0.005,0,0.007,0c0.099,0,0.192-0.038,0.262-0.107
		c0.073-0.07,0.113-0.166,0.113-0.268V38.727z"/>
	<path d="M32.088,33.999c0-0.101-0.04-0.197-0.113-0.268c-0.07-0.07-0.173-0.116-0.269-0.106c-1.047,0.02-2.125,0.088-3.202,0.201
		c-0.172,0.018-0.309,0.15-0.332,0.321c-0.141,1.01-0.244,2.038-0.309,3.058c-0.007,0.104,0.029,0.205,0.101,0.28
		c0.07,0.075,0.169,0.118,0.272,0.118h3.477c0.207,0,0.375-0.167,0.375-0.374V33.999z"/>
	<path d="M28.487,28.708c0.236-0.903,0.5-1.802,0.784-2.67c0.039-0.12,0.016-0.251-0.063-0.35c-0.079-0.099-0.205-0.148-0.328-0.14
		c-0.876,0.085-1.773,0.2-2.663,0.346c-0.139,0.021-0.252,0.119-0.296,0.252c-0.296,0.897-0.568,1.822-0.811,2.746
		c-0.032,0.124,0,0.255,0.086,0.349c0.072,0.078,0.172,0.121,0.276,0.121c0.021,0,0.042-0.001,0.064-0.005
		c0.874-0.151,1.759-0.276,2.631-0.372C28.32,28.969,28.448,28.857,28.487,28.708z"/>
	<path d="M28.023,29.92c-0.081-0.091-0.196-0.137-0.324-0.12c-0.894,0.111-1.799,0.254-2.688,0.425
		c-0.146,0.027-0.263,0.14-0.295,0.285c-0.205,0.913-0.381,1.822-0.523,2.705c-0.02,0.12,0.021,0.243,0.109,0.328
		c0.07,0.067,0.164,0.105,0.261,0.105c0.023,0,0.047-0.003,0.071-0.007c0.864-0.169,1.753-0.314,2.643-0.431
		c0.164-0.021,0.294-0.147,0.32-0.311c0.144-0.874,0.315-1.766,0.515-2.646C28.139,30.135,28.105,30.01,28.023,29.92z"/>
	<path d="M36.539,48.787c0.014,0,0.026-0.001,0.039-0.002c0.655-0.07,1.296-0.154,1.92-0.25c0.153-0.023,0.275-0.14,0.309-0.29
		c0.139-0.63,0.269-1.278,0.385-1.947c0.021-0.119-0.018-0.24-0.103-0.326c-0.084-0.086-0.204-0.124-0.323-0.107
		c-0.615,0.095-1.247,0.179-1.893,0.25c-0.166,0.019-0.3,0.144-0.328,0.309c-0.112,0.657-0.238,1.294-0.371,1.911
		c-0.025,0.116,0.006,0.239,0.087,0.328C36.332,48.742,36.434,48.787,36.539,48.787z"/>
	<path d="M32.088,29.88c0-0.101-0.04-0.196-0.112-0.267c-0.071-0.07-0.141-0.104-0.27-0.107c-0.778,0.015-1.587,0.057-2.403,0.126
		c-0.161,0.014-0.295,0.129-0.333,0.286c-0.21,0.884-0.398,1.786-0.555,2.68c-0.021,0.115,0.014,0.233,0.093,0.319
		c0.072,0.077,0.172,0.12,0.276,0.12c0.011,0,0.022,0,0.034-0.001c0.964-0.09,1.941-0.144,2.9-0.162
		c0.204-0.003,0.368-0.17,0.368-0.374V29.88z"/>
	<path d="M40.187,24.08c-0.034-0.089-0.1-0.16-0.185-0.202c-0.683-0.333-1.409-0.628-2.159-0.874
		c-0.137-0.047-0.291-0.007-0.39,0.099c-0.1,0.105-0.129,0.26-0.076,0.395c0.157,0.393,0.322,0.823,0.495,1.304
		c0.048,0.131,0.162,0.225,0.3,0.244c0.647,0.092,1.276,0.196,1.887,0.31c0.023,0.004,0.046,0.007,0.069,0.007
		c0.108,0,0.214-0.048,0.285-0.133c0.088-0.102,0.112-0.244,0.066-0.37C40.379,24.583,40.282,24.324,40.187,24.08z"/>
	<path d="M44.216,35.359c-0.121-0.034-0.248-0.008-0.343,0.071c-0.096,0.08-0.146,0.201-0.134,0.325
		c0.048,0.489,0.086,0.989,0.116,1.496c0.012,0.197,0.176,0.352,0.374,0.352h1.893c0.103,0,0.201-0.042,0.272-0.117
		c0.071-0.075,0.108-0.178,0.101-0.28c-0.018-0.308-0.042-0.611-0.067-0.912c-0.013-0.148-0.112-0.275-0.253-0.322
		C45.573,35.769,44.919,35.562,44.216,35.359z"/>
	<path d="M44.477,27.197c-0.627-0.185-1.292-0.366-1.994-0.541c-0.131-0.032-0.269,0.008-0.361,0.105
		c-0.093,0.098-0.126,0.237-0.087,0.366c0.269,0.899,0.514,1.816,0.727,2.723c0.031,0.136,0.136,0.243,0.271,0.277
		c0.691,0.176,1.345,0.358,1.958,0.545c0.035,0.011,0.072,0.016,0.108,0.016c0.094,0,0.186-0.035,0.256-0.101
		c0.098-0.092,0.139-0.228,0.109-0.357c-0.218-0.94-0.465-1.876-0.733-2.78C44.692,27.328,44.598,27.233,44.477,27.197z"/>
	<path d="M45.569,31.653c-0.615-0.198-1.279-0.397-1.988-0.591c-0.123-0.035-0.259-0.002-0.354,0.087
		c-0.095,0.088-0.138,0.219-0.111,0.347c0.169,0.867,0.316,1.759,0.438,2.649c0.02,0.148,0.127,0.271,0.272,0.311
		c0.689,0.189,1.337,0.384,1.938,0.576c0.038,0.013,0.076,0.019,0.115,0.019c0.086,0,0.171-0.03,0.238-0.086
		c0.099-0.082,0.148-0.209,0.133-0.335c-0.112-0.89-0.257-1.795-0.428-2.69C45.797,31.805,45.699,31.695,45.569,31.653z"/>
	<path d="M34.417,28.802c0.007,0.001,0.013,0.001,0.018,0.001c0.113,0,0.221-0.052,0.292-0.141c0.075-0.094,0.101-0.218,0.069-0.334
		c-0.252-0.913-0.529-1.814-0.825-2.677c-0.051-0.146-0.187-0.248-0.342-0.253l-0.411-0.009c-0.102,0.002-0.197,0.036-0.27,0.106
		c-0.073,0.07-0.113,0.167-0.113,0.268v2.621c0,0.204,0.163,0.37,0.366,0.375C33.611,28.768,34.017,28.782,34.417,28.802z"/>
	<path d="M23.675,38.808c-0.005,0.185-0.009,0.368-0.011,0.555c-0.004,0.53,0.006,1.056,0.025,1.576
		c0.006,0.172,0.128,0.316,0.295,0.353c0.863,0.186,1.759,0.349,2.662,0.485c0.019,0.003,0.038,0.005,0.056,0.005
		c0.093,0,0.182-0.034,0.251-0.097c0.084-0.074,0.129-0.184,0.123-0.296c-0.033-0.711-0.047-1.376-0.042-2.032
		c0.002-0.179,0.006-0.354,0.011-0.531l0.002-0.089c0.002-0.102-0.036-0.199-0.107-0.271c-0.07-0.071-0.167-0.112-0.267-0.112
		h-2.622c-0.203,0-0.369,0.162-0.374,0.365L23.675,38.808z"/>
	<path d="M32.836,32.504c0,0.203,0.162,0.37,0.366,0.374c0.738,0.017,1.463,0.051,2.151,0.102c0.01,0.001,0.019,0.001,0.028,0.001
		c0.106,0,0.206-0.045,0.277-0.123c0.078-0.086,0.111-0.202,0.091-0.316c-0.154-0.879-0.342-1.778-0.557-2.675
		c-0.038-0.16-0.177-0.275-0.34-0.287c-0.537-0.034-1.082-0.058-1.634-0.07c-0.103-0.006-0.198,0.036-0.271,0.106
		c-0.072,0.07-0.113,0.167-0.113,0.268V32.504z"/>
	<path d="M33.202,49.753c-0.204,0.004-0.366,0.171-0.366,0.374v1.896c0,0.101,0.04,0.197,0.113,0.268
		c0.069,0.069,0.163,0.106,0.262,0.106c0.003,0,0.005,0,0.008,0c0.28-0.006,0.558-0.015,0.836-0.028
		c0.158-0.007,0.294-0.111,0.341-0.263c0.188-0.605,0.374-1.252,0.553-1.934c0.03-0.116,0.004-0.239-0.071-0.332
		c-0.076-0.093-0.192-0.149-0.311-0.137C34.117,49.727,33.662,49.742,33.202,49.753z"/>
	<path d="M33.144,54.811c0.023,0.003,0.044,0.006,0.066,0.006c0.154,0,0.296-0.096,0.351-0.245c0.108-0.294,0.22-0.605,0.334-0.935
		c0.04-0.116,0.021-0.245-0.052-0.344c-0.072-0.1-0.192-0.153-0.312-0.153L33.2,53.146c-0.202,0.006-0.364,0.172-0.364,0.374v0.921
		C32.836,54.623,32.967,54.778,33.144,54.811z"/>
	<path d="M35.327,48.633c0.143-0.621,0.275-1.27,0.396-1.935c0.021-0.114-0.012-0.231-0.09-0.317
		c-0.077-0.087-0.189-0.132-0.306-0.123c-0.677,0.05-1.392,0.084-2.126,0.1c-0.204,0.005-0.366,0.171-0.366,0.374v1.897
		c0,0.101,0.041,0.197,0.113,0.268c0.069,0.068,0.163,0.106,0.262,0.106c0.003,0,0.006,0,0.008,0
		c0.599-0.013,1.188-0.041,1.769-0.079C35.152,48.912,35.29,48.794,35.327,48.633z"/>
	<path d="M35.977,45.161c0.092-0.629,0.172-1.271,0.235-1.928c0.01-0.11-0.029-0.22-0.107-0.299
		c-0.078-0.079-0.184-0.12-0.298-0.109c-0.864,0.073-1.74,0.12-2.604,0.139c-0.203,0.005-0.366,0.171-0.366,0.374v1.897
		c0,0.101,0.041,0.197,0.113,0.268c0.069,0.068,0.163,0.106,0.262,0.106c0.003,0,0.006,0,0.008,0
		c0.808-0.019,1.622-0.061,2.419-0.129C35.81,45.465,35.951,45.333,35.977,45.161z"/>
	<path d="M38.367,29.958c-0.623-0.094-1.264-0.176-1.919-0.245c-0.119-0.012-0.238,0.034-0.318,0.124
		c-0.081,0.091-0.112,0.214-0.085,0.332c0.197,0.867,0.372,1.757,0.52,2.644c0.026,0.165,0.16,0.291,0.327,0.311
		c0.646,0.072,1.279,0.156,1.895,0.252c0.02,0.003,0.039,0.005,0.058,0.005c0.1,0,0.195-0.04,0.267-0.111
		c0.085-0.086,0.123-0.206,0.103-0.325c-0.152-0.911-0.333-1.819-0.536-2.699C38.642,30.094,38.519,29.98,38.367,29.958z"/>
	<path d="M40.835,37.604h1.892c0.104,0,0.202-0.042,0.273-0.118c0.071-0.075,0.107-0.177,0.102-0.279
		c-0.043-0.663-0.1-1.312-0.171-1.949c-0.018-0.155-0.129-0.283-0.281-0.321c-0.621-0.155-1.272-0.305-1.947-0.443
		c-0.118-0.027-0.239,0.01-0.329,0.09c-0.088,0.081-0.133,0.2-0.119,0.319c0.091,0.771,0.16,1.561,0.207,2.351
		C40.473,37.449,40.637,37.604,40.835,37.604z"/>
	<path d="M37.148,25.672c-0.614-0.074-1.242-0.136-1.881-0.185c-0.129-0.009-0.246,0.044-0.322,0.143
		c-0.077,0.099-0.1,0.229-0.06,0.349c0.283,0.863,0.548,1.758,0.785,2.658c0.04,0.153,0.171,0.265,0.328,0.278
		c0.639,0.057,1.262,0.126,1.872,0.208c0.017,0.003,0.033,0.004,0.05,0.004c0.106,0,0.21-0.046,0.281-0.127
		c0.083-0.095,0.113-0.224,0.08-0.345c-0.246-0.917-0.524-1.836-0.824-2.732C37.412,25.787,37.291,25.69,37.148,25.672z"/>
	<path d="M32.836,37.229c0,0.207,0.168,0.374,0.375,0.374h2.728c0.104,0,0.202-0.042,0.273-0.118
		c0.07-0.075,0.107-0.177,0.101-0.279c-0.065-1.043-0.173-2.096-0.317-3.128c-0.024-0.173-0.165-0.306-0.339-0.32
		c-0.807-0.068-1.627-0.112-2.438-0.131c-0.077,0-0.197,0.036-0.27,0.107c-0.072,0.07-0.113,0.166-0.113,0.268V37.229z"/>
	<path d="M32.836,41.84c0,0.102,0.041,0.198,0.113,0.268c0.069,0.069,0.163,0.107,0.262,0.107c0.003,0,0.006,0,0.009,0
		c0.922-0.021,1.854-0.075,2.771-0.16c0.184-0.017,0.328-0.166,0.339-0.352c0.048-0.822,0.068-1.588,0.062-2.341
		c-0.002-0.187-0.006-0.371-0.011-0.556l-0.002-0.089c-0.005-0.203-0.171-0.365-0.374-0.365h-2.795
		c-0.207,0-0.375,0.167-0.375,0.374V41.84z"/>
	<path d="M37.884,51.797c0.185-0.617,0.37-1.274,0.547-1.964c0.03-0.12,0-0.249-0.084-0.342c-0.082-0.093-0.205-0.137-0.33-0.122
		c-0.609,0.084-1.234,0.156-1.873,0.215c-0.158,0.016-0.29,0.129-0.329,0.282c-0.169,0.672-0.345,1.313-0.524,1.92
		c-0.035,0.118-0.009,0.246,0.069,0.342c0.071,0.088,0.178,0.138,0.29,0.138c0.01,0,0.021,0,0.031-0.001
		c0.645-0.054,1.276-0.124,1.893-0.204C37.72,52.042,37.841,51.938,37.884,51.797z"/>
	<path d="M36.895,34.024c-0.082,0.082-0.121,0.197-0.106,0.312c0.127,0.979,0.221,1.96,0.277,2.915
		c0.012,0.197,0.176,0.352,0.374,0.352h1.893c0.103,0,0.203-0.042,0.272-0.118c0.071-0.075,0.107-0.177,0.102-0.279
		c-0.057-0.89-0.145-1.793-0.26-2.686c-0.021-0.163-0.146-0.293-0.31-0.32c-0.627-0.106-1.271-0.202-1.932-0.283
		C37.095,33.9,36.977,33.942,36.895,34.024z"/>
	<path d="M40.767,26.269c-0.626-0.13-1.271-0.252-1.938-0.359c-0.133-0.024-0.259,0.026-0.344,0.125
		c-0.085,0.099-0.112,0.234-0.073,0.358c0.278,0.874,0.537,1.782,0.771,2.7c0.035,0.143,0.153,0.252,0.299,0.277
		c0.66,0.113,1.301,0.238,1.917,0.372c0.026,0.006,0.052,0.009,0.078,0.009c0.101,0,0.198-0.041,0.27-0.114
		c0.09-0.094,0.126-0.226,0.094-0.352c-0.235-0.928-0.501-1.857-0.791-2.764C41.006,26.393,40.899,26.296,40.767,26.269z"/>
	<path d="M39.988,30.233c-0.124-0.023-0.249,0.017-0.338,0.106c-0.087,0.09-0.124,0.217-0.098,0.34
		c0.188,0.872,0.353,1.766,0.489,2.654c0.023,0.157,0.143,0.281,0.299,0.312c0.665,0.128,1.306,0.267,1.92,0.412
		c0.029,0.006,0.059,0.01,0.087,0.01c0.093,0,0.184-0.034,0.254-0.099c0.091-0.084,0.135-0.208,0.116-0.331
		c-0.137-0.909-0.303-1.82-0.492-2.706c-0.031-0.142-0.14-0.253-0.281-0.285C41.318,30.498,40.664,30.36,39.988,30.233z"/>
	<path d="M39.75,41.24c0.029-0.639,0.042-1.271,0.036-1.878c-0.001-0.187-0.006-0.37-0.01-0.554l-0.002-0.091
		c-0.006-0.203-0.172-0.365-0.375-0.365h-1.896c-0.102,0-0.197,0.041-0.268,0.112c-0.071,0.072-0.109,0.17-0.107,0.271l0.003,0.091
		c0.004,0.175,0.009,0.352,0.01,0.529c0.005,0.679-0.01,1.378-0.048,2.14c-0.005,0.11,0.038,0.218,0.12,0.293
		c0.069,0.064,0.16,0.1,0.254,0.1c0.016,0,0.032-0.001,0.048-0.003c0.659-0.086,1.303-0.184,1.927-0.294
		C39.614,41.562,39.742,41.416,39.75,41.24z"/>
	<path d="M19.999,37.604h2.617c0.198,0,0.361-0.154,0.373-0.353c0.041-0.681,0.099-1.35,0.17-2.002
		c0.013-0.121-0.034-0.241-0.125-0.321c-0.092-0.081-0.217-0.112-0.336-0.082c-0.905,0.221-1.815,0.471-2.707,0.744
		c-0.144,0.044-0.248,0.172-0.263,0.322c-0.041,0.426-0.075,0.857-0.102,1.293c-0.007,0.104,0.03,0.205,0.101,0.28
		C19.797,37.561,19.896,37.604,19.999,37.604z"/>
	<path d="M21.746,52.751c0.023,0.07,0.066,0.134,0.126,0.179c1.014,0.793,2.113,1.471,3.267,2.014
		c0.051,0.023,0.106,0.035,0.159,0.035c0.092,0,0.182-0.033,0.252-0.098c0.112-0.102,0.151-0.261,0.1-0.403
		c-0.198-0.552-0.407-1.158-0.617-1.818c-0.041-0.131-0.151-0.228-0.285-0.254c-0.896-0.172-1.807-0.375-2.705-0.604
		c-0.132-0.036-0.271,0.007-0.363,0.105c-0.093,0.099-0.126,0.239-0.086,0.369L21.746,52.751z"/>
	<path d="M37.892,55.677c0.04,0,0.081-0.006,0.12-0.02c0.741-0.252,1.469-0.556,2.162-0.904c0.085-0.043,0.15-0.116,0.183-0.205
		c0.192-0.521,0.394-1.09,0.599-1.721c0.041-0.126,0.013-0.265-0.075-0.364c-0.088-0.099-0.225-0.144-0.353-0.119
		c-0.611,0.119-1.245,0.23-1.896,0.329c-0.141,0.021-0.257,0.119-0.3,0.255c-0.241,0.747-0.5,1.48-0.79,2.242
		c-0.052,0.135-0.021,0.289,0.08,0.393C37.694,55.637,37.791,55.677,37.892,55.677z"/>
	<path d="M31.713,56.559c0.097,0,0.19-0.038,0.261-0.106c0.073-0.07,0.114-0.168,0.114-0.269v-2.659c0-0.204-0.163-0.37-0.367-0.374
		c-0.362-0.008-0.723-0.018-1.079-0.034c-0.126-0.014-0.243,0.051-0.317,0.149c-0.074,0.1-0.094,0.229-0.054,0.347
		c0.327,0.948,0.675,1.862,1.034,2.716c0.058,0.137,0.223,0.227,0.37,0.229l0.038-0.374L31.7,56.559
		C31.704,56.559,31.709,56.559,31.713,56.559z"/>
	<path d="M34.18,56.491c0.013,0,0.025-0.001,0.038-0.003c0.631-0.064,1.282-0.169,1.934-0.312c0.121-0.026,0.22-0.11,0.267-0.225
		c0.34-0.831,0.661-1.694,0.957-2.569c0.041-0.121,0.018-0.255-0.063-0.354c-0.081-0.1-0.203-0.153-0.334-0.138
		c-0.601,0.068-1.215,0.125-1.84,0.168c-0.151,0.01-0.281,0.111-0.329,0.255c-0.301,0.904-0.63,1.801-0.977,2.663
		c-0.05,0.122-0.031,0.26,0.048,0.365C33.952,56.436,34.062,56.491,34.18,56.491z"/>
	<path d="M26.848,55.496c0.041,0.104,0.126,0.184,0.231,0.218c0.925,0.305,1.874,0.531,2.82,0.673
		c0.02,0.003,0.037,0.004,0.056,0.004c0.113,0,0.223-0.052,0.294-0.142c0.083-0.105,0.103-0.247,0.054-0.372
		c-0.337-0.838-0.657-1.719-0.955-2.617c-0.047-0.142-0.174-0.241-0.322-0.255c-0.863-0.076-1.742-0.182-2.61-0.314
		c-0.128-0.019-0.259,0.029-0.343,0.129c-0.084,0.1-0.109,0.236-0.068,0.36C26.268,53.968,26.551,54.747,26.848,55.496z"/>
	<path d="M18.961,50.038c0.046,0.058,0.108,0.101,0.178,0.124l0.512,0.164c0.037,0.012,0.075,0.018,0.113,0.018
		c0.094,0,0.186-0.035,0.256-0.102c0.099-0.094,0.14-0.232,0.108-0.364c-0.157-0.619-0.307-1.264-0.445-1.934
		c-0.027-0.133-0.125-0.24-0.254-0.281c-0.572-0.181-1.105-0.36-1.599-0.536c-0.148-0.049-0.31-0.007-0.41,0.111
		c-0.101,0.119-0.118,0.287-0.043,0.423C17.83,48.484,18.363,49.283,18.961,50.038z"/>
	<path d="M15.306,37.953l-0.023,0.301c-0.01,0.16,0.093,0.312,0.239,0.375c0,0,0.014,0.005,0.014,0.006
		c0.046,0.019,0.095,0.028,0.144,0.028c0.073,0,0.146-0.021,0.208-0.062c0.104-0.07,0.166-0.187,0.166-0.312v-0.307
		c0-0.201-0.158-0.365-0.358-0.374C15.495,37.602,15.322,37.753,15.306,37.953z"/>
	<path d="M15.416,41.779c0.019,0.131,0.104,0.242,0.226,0.293c0.88,0.371,1.818,0.729,2.791,1.064
		c0.04,0.014,0.081,0.021,0.122,0.021c0.082,0,0.163-0.027,0.229-0.079c0.101-0.078,0.154-0.2,0.144-0.326
		c-0.049-0.596-0.085-1.202-0.106-1.816c-0.006-0.155-0.107-0.291-0.255-0.341c-0.959-0.322-1.898-0.674-2.792-1.042
		c-0.115-0.048-0.251-0.034-0.356,0.038c-0.104,0.072-0.165,0.192-0.161,0.319C15.277,40.537,15.331,41.167,15.416,41.779z"/>
	<path d="M24.117,37.604h2.617c0.198,0,0.362-0.154,0.374-0.352c0.056-0.922,0.145-1.868,0.266-2.815
		c0.015-0.116-0.026-0.232-0.109-0.314c-0.083-0.081-0.196-0.119-0.315-0.104c-0.885,0.127-1.789,0.286-2.688,0.474
		c-0.157,0.032-0.276,0.162-0.296,0.321c-0.096,0.78-0.17,1.585-0.222,2.392c-0.007,0.104,0.029,0.205,0.101,0.28
		C23.915,37.561,24.015,37.604,24.117,37.604z"/>
	<path d="M42.022,53.599c0.075,0,0.148-0.021,0.213-0.066c0.539-0.373,1.066-0.784,1.569-1.225c0.13-0.114,0.165-0.304,0.083-0.458
		c-0.082-0.153-0.254-0.229-0.426-0.186c-0.403,0.107-0.815,0.213-1.244,0.313c-0.129,0.03-0.233,0.128-0.273,0.255
		c-0.093,0.304-0.185,0.592-0.277,0.875c-0.051,0.152,0.002,0.321,0.131,0.417C41.865,53.574,41.943,53.599,42.022,53.599z"/>
	<path d="M48.216,38.353h-0.53c-0.1,0-0.197,0.04-0.267,0.112c-0.07,0.071-0.108,0.169-0.107,0.27l0.004,0.206
		c0.003,0.122,0.064,0.234,0.166,0.303c0.062,0.042,0.136,0.063,0.209,0.063c0.045,0,0.09-0.008,0.134-0.025l0.53-0.207
		c0.167-0.066,0.263-0.242,0.229-0.418C48.549,38.479,48.395,38.353,48.216,38.353z"/>
	<path d="M48.873,38.011v0.287c0,0.128,0.075,0.241,0.182,0.31c0.06,0.038,0.131,0.057,0.202,0.057c0.058,0,0.114-0.013,0.167-0.036
		c0.141-0.063,0.228-0.209,0.218-0.363l-0.021-0.284c-0.017-0.199-0.15-0.341-0.388-0.345C49.031,37.645,48.873,37.81,48.873,38.011
		z"/>
	<path d="M48.168,32.578c-0.296-0.115-0.608-0.236-0.955-0.361c-0.125-0.047-0.265-0.021-0.367,0.064
		c-0.103,0.085-0.151,0.218-0.13,0.35c0.148,0.862,0.271,1.744,0.365,2.623c0.016,0.142,0.11,0.264,0.244,0.312
		c0.543,0.197,1.028,0.386,1.454,0.558c0.046,0.02,0.094,0.028,0.142,0.028c0.087,0,0.172-0.03,0.241-0.088
		c0.105-0.089,0.154-0.23,0.124-0.365c-0.216-0.998-0.522-1.979-0.909-2.914C48.339,32.69,48.263,32.615,48.168,32.578z"/>
	<path d="M46.936,30.039c-0.1-0.153-0.293-0.211-0.46-0.142c-0.167,0.07-0.26,0.251-0.22,0.428l0.046,0.202
		c0.031,0.131,0.062,0.263,0.091,0.399c0.026,0.13,0.119,0.235,0.244,0.277l0.294,0.104c0.041,0.015,0.084,0.022,0.125,0.022
		c0.109,0,0.215-0.048,0.287-0.135c0.101-0.121,0.116-0.291,0.038-0.427C47.239,30.521,47.092,30.278,46.936,30.039z"/>
	<path d="M48.475,45.687c0.273-0.691,0.501-1.393,0.677-2.082c0.035-0.136-0.01-0.281-0.115-0.374
		c-0.106-0.093-0.258-0.119-0.386-0.065c-0.397,0.158-0.839,0.329-1.331,0.508c-0.134,0.049-0.229,0.168-0.245,0.31
		c-0.071,0.635-0.157,1.257-0.254,1.865c-0.019,0.131,0.03,0.264,0.133,0.348c0.068,0.056,0.152,0.085,0.237,0.085
		c0.044,0,0.087-0.007,0.129-0.022c0.345-0.126,0.653-0.246,0.945-0.362C48.36,45.859,48.436,45.783,48.475,45.687z"/>
	<path d="M18.435,38.353h-1.684c-0.18,0-0.335,0.128-0.367,0.305c-0.034,0.177,0.063,0.353,0.231,0.418
		c0.49,0.191,1.055,0.402,1.686,0.622c0.04,0.014,0.081,0.021,0.122,0.021c0.076,0,0.151-0.023,0.215-0.067
		c0.099-0.07,0.158-0.183,0.16-0.303c0.002-0.203,0.007-0.404,0.012-0.611c0.003-0.102-0.035-0.199-0.105-0.271
		C18.633,38.394,18.536,38.353,18.435,38.353z"/>
	<path d="M48.864,37.301c0.033-0.175-0.062-0.351-0.228-0.418c-0.272-0.111-0.576-0.23-0.903-0.354
		c-0.119-0.045-0.253-0.027-0.355,0.05c-0.103,0.076-0.159,0.199-0.15,0.326l0.023,0.349c0.013,0.197,0.176,0.351,0.373,0.351h0.873
		C48.676,37.604,48.83,37.477,48.864,37.301z"/>
	<path d="M46.598,48.641c0.046,0.02,0.093,0.027,0.141,0.027c0.125,0,0.246-0.062,0.316-0.174c0.167-0.265,0.327-0.535,0.479-0.809
		c0.075-0.137,0.059-0.306-0.042-0.425c-0.102-0.119-0.264-0.161-0.412-0.11l-0.316,0.113c-0.126,0.044-0.219,0.151-0.244,0.282
		c-0.026,0.131-0.055,0.256-0.083,0.382l-0.064,0.289C46.335,48.395,46.43,48.572,46.598,48.641z"/>
	<path d="M49.506,41.792c0.086-0.607,0.14-1.236,0.16-1.868c0.004-0.127-0.057-0.248-0.162-0.32
		c-0.104-0.071-0.24-0.087-0.356-0.036c-0.452,0.188-0.979,0.399-1.591,0.626c-0.145,0.053-0.241,0.188-0.245,0.342
		c-0.015,0.607-0.043,1.206-0.087,1.797c-0.008,0.127,0.048,0.251,0.15,0.328c0.065,0.048,0.144,0.073,0.224,0.073
		c0.045,0,0.09-0.008,0.133-0.024c0.615-0.232,1.134-0.446,1.552-0.626C49.403,42.032,49.487,41.922,49.506,41.792z"/>
	<path d="M16.652,45.877c0.75,0.292,1.478,0.555,2.228,0.806c0.039,0.013,0.079,0.02,0.118,0.02c0.088,0,0.175-0.031,0.244-0.09
		c0.1-0.086,0.147-0.218,0.126-0.347c-0.104-0.61-0.194-1.236-0.273-1.875c-0.018-0.144-0.116-0.265-0.254-0.31
		c-0.869-0.286-1.734-0.601-2.572-0.934c-0.13-0.051-0.279-0.025-0.386,0.066c-0.104,0.093-0.149,0.237-0.115,0.373
		c0.173,0.686,0.398,1.386,0.672,2.079C16.478,45.762,16.556,45.839,16.652,45.877z"/>
	<path d="M21.356,50.829c0.913,0.252,1.841,0.477,2.755,0.671c0.026,0.005,0.053,0.008,0.078,0.008c0.102,0,0.201-0.042,0.272-0.118
		c0.09-0.095,0.123-0.23,0.088-0.356c-0.171-0.616-0.338-1.266-0.496-1.941c-0.033-0.142-0.144-0.25-0.286-0.281
		c-0.908-0.194-1.817-0.417-2.702-0.662c-0.127-0.038-0.264-0.003-0.358,0.089c-0.096,0.091-0.136,0.225-0.106,0.354
		c0.155,0.689,0.322,1.348,0.494,1.977C21.13,50.694,21.229,50.794,21.356,50.829z"/>
	<path d="M24.273,44.745c0.903,0.188,1.807,0.347,2.686,0.473c0.018,0.002,0.036,0.004,0.054,0.004c0.098,0,0.192-0.039,0.263-0.108
		c0.084-0.083,0.124-0.199,0.108-0.315c-0.082-0.616-0.152-1.246-0.207-1.888c-0.015-0.174-0.148-0.314-0.32-0.338
		c-0.859-0.121-1.744-0.274-2.628-0.454c-0.116-0.024-0.235,0.009-0.322,0.087c-0.089,0.077-0.135,0.192-0.125,0.309
		c0.051,0.649,0.117,1.286,0.196,1.911C23.998,44.585,24.117,44.713,24.273,44.745z"/>
	<path d="M18.924,36.48c0.01-0.125-0.045-0.247-0.145-0.324c-0.101-0.077-0.233-0.101-0.351-0.058
		c-0.731,0.252-1.44,0.516-2.108,0.783c-0.166,0.066-0.262,0.242-0.229,0.419c0.034,0.176,0.189,0.303,0.368,0.303h2.038
		c0.198,0,0.361-0.154,0.373-0.353C18.887,36.992,18.904,36.736,18.924,36.48z"/>
	<path d="M24.877,48.262c0.888,0.171,1.793,0.316,2.691,0.433c0.016,0.003,0.032,0.003,0.048,0.003c0.105,0,0.204-0.043,0.276-0.12
		c0.082-0.089,0.116-0.214,0.091-0.332c-0.132-0.617-0.255-1.254-0.367-1.91c-0.027-0.162-0.157-0.287-0.32-0.309
		c-0.876-0.114-1.765-0.258-2.641-0.428c-0.119-0.021-0.244,0.014-0.332,0.1c-0.088,0.085-0.129,0.209-0.108,0.329
		c0.111,0.667,0.234,1.316,0.368,1.944C24.613,48.119,24.729,48.232,24.877,48.262z"/>
	<path d="M19.998,43.646c0.895,0.273,1.806,0.523,2.707,0.744c0.029,0.007,0.059,0.011,0.089,0.011c0.09,0,0.178-0.032,0.247-0.094
		c0.092-0.08,0.139-0.201,0.125-0.322c-0.069-0.61-0.127-1.233-0.169-1.863c-0.011-0.164-0.127-0.302-0.286-0.34
		c-0.882-0.21-1.767-0.448-2.636-0.709c-0.116-0.036-0.243-0.013-0.338,0.063c-0.096,0.075-0.149,0.191-0.143,0.313
		c0.031,0.634,0.079,1.26,0.141,1.875C19.75,43.475,19.853,43.602,19.998,43.646z"/>
	<path d="M20.373,31.565c-0.179,0.891-0.33,1.798-0.452,2.698c-0.018,0.126,0.03,0.252,0.126,0.334
		c0.068,0.06,0.156,0.091,0.244,0.091c0.035,0,0.07-0.005,0.105-0.016c0.888-0.26,1.789-0.494,2.678-0.699
		c0.15-0.034,0.264-0.158,0.287-0.311c0.126-0.873,0.284-1.768,0.468-2.656c0.026-0.125-0.013-0.255-0.104-0.344
		c-0.09-0.088-0.221-0.126-0.345-0.097c-0.909,0.206-1.832,0.447-2.745,0.714C20.502,31.318,20.4,31.429,20.373,31.565z"/>
	<path d="M28.465,52.193c0.014,0.002,0.026,0.002,0.04,0.002c0.11,0,0.216-0.049,0.287-0.134c0.08-0.096,0.106-0.226,0.071-0.346
		c-0.178-0.607-0.353-1.25-0.521-1.925c-0.038-0.151-0.166-0.264-0.321-0.281c-0.869-0.099-1.757-0.228-2.636-0.382
		c-0.13-0.021-0.253,0.021-0.34,0.113c-0.086,0.093-0.119,0.224-0.089,0.347c0.173,0.691,0.354,1.351,0.537,1.971
		c0.04,0.137,0.155,0.238,0.296,0.263C26.676,51.974,27.576,52.099,28.465,52.193z"/>
	<path d="M21.5,27.1c-0.278,0.913-0.532,1.848-0.756,2.776c-0.03,0.129,0.009,0.265,0.104,0.356
		c0.071,0.068,0.165,0.105,0.261,0.105c0.033,0,0.066-0.005,0.099-0.014c0.905-0.248,1.813-0.468,2.702-0.654
		c0.141-0.03,0.251-0.138,0.286-0.277c0.223-0.908,0.476-1.82,0.752-2.71c0.039-0.127,0.009-0.265-0.08-0.362
		c-0.088-0.099-0.227-0.143-0.352-0.116c-0.919,0.186-1.845,0.402-2.753,0.643C21.638,26.881,21.538,26.976,21.5,27.1z"/>
	<path d="M19.557,38.809c-0.005,0.184-0.009,0.367-0.011,0.553l0.003,0.478c0,0.163,0.108,0.307,0.263,0.355
		c0.874,0.272,1.767,0.522,2.652,0.744c0.03,0.007,0.06,0.011,0.091,0.011c0.084,0,0.166-0.028,0.233-0.083
		c0.092-0.073,0.143-0.184,0.141-0.301c-0.01-0.4-0.016-0.803-0.013-1.209c0.001-0.179,0.006-0.354,0.01-0.531l0.002-0.089
		c0.003-0.102-0.035-0.199-0.106-0.271c-0.07-0.071-0.167-0.112-0.268-0.112h-2.621c-0.203,0-0.369,0.162-0.374,0.365L19.557,38.809
		z"/>
	<path d="M20.514,47.196c0.91,0.269,1.832,0.51,2.742,0.721c0.027,0.007,0.056,0.01,0.084,0.01c0.096,0,0.189-0.038,0.26-0.105
		c0.092-0.089,0.132-0.217,0.107-0.341c-0.121-0.618-0.233-1.252-0.333-1.905c-0.022-0.152-0.136-0.274-0.286-0.309
		c-0.893-0.205-1.794-0.44-2.677-0.698c-0.124-0.038-0.255-0.009-0.351,0.075c-0.097,0.084-0.142,0.21-0.125,0.336
		c0.093,0.658,0.198,1.302,0.317,1.927C20.277,47.044,20.379,47.156,20.514,47.196z"/>
	<path d="M25.304,23.7c-0.838,0.383-1.639,0.83-2.384,1.327c-0.15,0.1-0.207,0.294-0.136,0.459c0.06,0.14,0.196,0.227,0.344,0.227
		c0.026,0,0.056-0.003,0.083-0.01c0.643-0.146,1.303-0.286,1.991-0.41c0.133-0.023,0.242-0.117,0.287-0.244
		c0.109-0.309,0.216-0.6,0.32-0.876c0.053-0.143,0.016-0.303-0.096-0.406C25.604,23.663,25.441,23.636,25.304,23.7z"/>
	<path d="M19.793,27.701c-0.86,0.934-1.622,1.975-2.265,3.091c-0.077,0.135-0.063,0.305,0.036,0.425
		c0.073,0.087,0.18,0.136,0.288,0.136c0.042,0,0.084-0.007,0.124-0.021c0.49-0.171,1.017-0.348,1.582-0.524
		c0.129-0.04,0.226-0.146,0.254-0.276c0.178-0.812,0.38-1.621,0.617-2.475c0.047-0.167-0.027-0.343-0.179-0.428
		C20.101,27.543,19.91,27.573,19.793,27.701z"/>
	<path d="M32.088,43.341c0-0.204-0.164-0.371-0.368-0.375c-1.103-0.021-2.231-0.091-3.352-0.208c-0.11-0.01-0.224,0.027-0.303,0.105
		c-0.081,0.08-0.12,0.19-0.109,0.303c0.063,0.654,0.142,1.297,0.231,1.926c0.024,0.169,0.161,0.301,0.332,0.318
		c1.076,0.112,2.149,0.181,3.187,0.201c0.002,0,0.005,0,0.007,0c0.099,0,0.192-0.038,0.262-0.107
		c0.073-0.07,0.113-0.166,0.113-0.268V43.341z"/>
	<path d="M16.539,32.804c-0.387,0.937-0.69,1.915-0.905,2.91c-0.029,0.136,0.019,0.275,0.125,0.365
		c0.068,0.058,0.154,0.088,0.241,0.088c0.047,0,0.094-0.009,0.14-0.026c0.858-0.345,1.763-0.675,2.691-0.98
		c0.137-0.046,0.236-0.167,0.253-0.312c0.104-0.875,0.237-1.763,0.394-2.637c0.024-0.13-0.023-0.263-0.123-0.35
		c-0.1-0.087-0.237-0.111-0.363-0.072c-0.758,0.251-1.491,0.515-2.242,0.808C16.654,32.635,16.578,32.709,16.539,32.804z"/>
	<path d="M32.088,46.735c0-0.204-0.164-0.37-0.368-0.374c-0.965-0.018-1.933-0.072-2.877-0.16c-0.114-0.006-0.232,0.033-0.311,0.12
		c-0.079,0.086-0.113,0.204-0.093,0.319c0.121,0.666,0.253,1.314,0.395,1.937c0.036,0.158,0.17,0.275,0.332,0.29
		c0.852,0.076,1.706,0.122,2.54,0.139c0.002,0,0.005,0,0.007,0c0.099,0,0.192-0.038,0.262-0.107
		c0.073-0.071,0.113-0.167,0.113-0.268V46.735z"/>
	<path d="M32.088,50.129c0-0.204-0.164-0.37-0.368-0.374c-0.72-0.014-1.432-0.046-2.118-0.097c-0.119-0.007-0.237,0.041-0.316,0.135
		c-0.077,0.093-0.104,0.217-0.074,0.334c0.181,0.685,0.367,1.333,0.555,1.941c0.045,0.149,0.179,0.255,0.334,0.264
		c0.529,0.033,1.065,0.058,1.605,0.067c0.002,0,0.005,0,0.007,0c0.099,0,0.192-0.038,0.263-0.107
		c0.072-0.069,0.112-0.166,0.112-0.267V50.129z"/>
	<path d="M32.088,22.984h0.811c-0.036,0.051-0.062,0.109-0.062,0.175v1.211c0,0.167,0.134,0.302,0.301,0.306
		c0.137,0.002,0.273,0.007,0.408,0.011l0.086,0.003c0.004,0,0.007,0,0.01,0c0.1,0,0.191-0.048,0.249-0.128
		c0.06-0.084,0.073-0.191,0.037-0.286c-0.191-0.496-0.362-0.909-0.505-1.238c-0.01-0.023-0.034-0.033-0.049-0.053h0.401
		c0.178,0.426,0.37,0.904,0.579,1.469c0.051,0.14,0.181,0.235,0.329,0.244c0.619,0.037,1.227,0.086,1.822,0.146
		c0.013,0.001,0.025,0.002,0.038,0.002c0.115,0,0.225-0.053,0.297-0.146c0.079-0.102,0.1-0.238,0.053-0.36
		c-0.199-0.528-0.38-0.969-0.542-1.354h0.018c0,0-0.684-3.459-3.032-3.86V7.5c0-0.276-0.224-0.5-0.5-0.5c-0.276,0-0.5,0.224-0.5,0.5
		v11.636c-1.834,0.34-2.699,2.336-3.017,3.311c-0.699,0.128-1.392,0.284-2.059,0.496c-0.105,0.032-0.19,0.111-0.232,0.213
		c-0.163,0.393-0.343,0.845-0.537,1.364c-0.046,0.124-0.023,0.263,0.06,0.366c0.071,0.089,0.179,0.14,0.291,0.14
		c0.018,0,0.035-0.002,0.053-0.004c0.857-0.121,1.728-0.215,2.59-0.28c0.146-0.012,0.271-0.106,0.323-0.244
		c0.213-0.582,0.411-1.076,0.593-1.513h0.819c-0.143,0.337-0.296,0.711-0.468,1.159c-0.045,0.116-0.028,0.248,0.045,0.351
		c0.07,0.099,0.184,0.157,0.305,0.157c0.004,0,0.008,0,0.013,0l0.104-0.004c0.166-0.005,0.333-0.011,0.501-0.014
		c0.204-0.004,0.368-0.17,0.368-0.374V22.984z"/>
</g>
</svg>
