<?xml version="1.0" encoding="iso-8859-1"?>
<!-- Generator: Adobe Illustrator 17.0.0, SVG Export Plug-In . SVG Version: 6.00 Build 0)  -->
<!DOCTYPE svg PUBLIC "-//W3C//DTD SVG 1.1//EN" "http://www.w3.org/Graphics/SVG/1.1/DTD/svg11.dtd">
<svg version="1.1" id="Capa_1" xmlns="http://www.w3.org/2000/svg" xmlns:xlink="http://www.w3.org/1999/xlink" x="0px" y="0px"
	 width="64px" height="64px" viewBox="0 0 64 64" style="enable-background:new 0 0 64 64;" xml:space="preserve">
<path d="M10.917,40.218v-26h9v26h-3.665v13.667h6.499V10.552h-7.334h-6c-1.657,0-3,1.343-3,3v37.333c0,1.657,1.343,3,3,3h4.835
	V40.218H10.917z"/>
<path d="M51.566,40.218h-3.425v-26h9v26h-3.575v13.667h3.701c1.657,0,3-1.343,3-3V13.552c0-1.657-1.343-3-3-3h-4.625h-8.666v43.333
	h7.591V40.218z"/>
<g>
	<rect x="24.731" y="10.552" width="7.612" height="43.333"/>
	<rect x="34.343" y="10.552" width="7.612" height="43.333"/>
</g>
</svg>
