<?xml version="1.0" encoding="iso-8859-1"?>
<!-- Generator: Adobe Illustrator 17.0.0, SVG Export Plug-In . SVG Version: 6.00 Build 0)  -->
<!DOCTYPE svg PUBLIC "-//W3C//DTD SVG 1.1//EN" "http://www.w3.org/Graphics/SVG/1.1/DTD/svg11.dtd">
<svg version="1.1" id="Capa_1" xmlns="http://www.w3.org/2000/svg" xmlns:xlink="http://www.w3.org/1999/xlink" x="0px" y="0px"
	 width="64px" height="64px" viewBox="0 0 64 64" style="enable-background:new 0 0 64 64;" xml:space="preserve">
<g>
	<path d="M19.537,62.954c3.427,0.489,7.47-2.85,8.914-12.243c1.444-9.393,11.326-9.161,11.326-9.161l-0.624-2.928l-3.636,0.75
		c-7.054,1.8-5.54-5.053-5.507-5.198l17.511-17.787c1.927-1.534,3.049-0.684,3.049-0.684c0.961-4.42,8.795-11.219,8.795-11.219
		s0.654,0.11,0.122-1.707c-0.532-1.817-1.921,0.659-2.91,0.699c-0.989,0.04-1.099-1.643-1.099-1.643l-11.063,8.583
		c0.553,1.19,0.454,1.939,0.214,2.393l-0.584,0.593c-0.03,0.015-0.05,0.024-0.05,0.024l0.014,0.013L27.772,29.931
		c-8.085-3.695-3.065-5.653-3.065-5.653l8.067-2.965l-2.654-2.172c0,0-13.721,3.473-12.34,6.216
		c1.381,2.742,3.689,5.337-1.258,7.935C11.575,35.89-2.611,34.148,2.716,47.573S16.11,62.465,19.537,62.954z"/>
</g>
</svg>
