<?xml version="1.0" encoding="iso-8859-1"?>
<!-- Generator: Adobe Illustrator 17.0.0, SVG Export Plug-In . SVG Version: 6.00 Build 0)  -->
<!DOCTYPE svg PUBLIC "-//W3C//DTD SVG 1.1//EN" "http://www.w3.org/Graphics/SVG/1.1/DTD/svg11.dtd">
<svg version="1.1" id="Capa_1" xmlns="http://www.w3.org/2000/svg" xmlns:xlink="http://www.w3.org/1999/xlink" x="0px" y="0px"
	 width="64px" height="64px" viewBox="0 0 64 64" style="enable-background:new 0 0 64 64;" xml:space="preserve">
<g>
	<path d="M28.418,43.351c-3.195,1.533-5.303,4.159-5.303,7.143c0,4.73,5.298,8.565,11.833,8.565c6.535,0,11.833-3.835,11.833-8.565
		c0-2.969-2.087-5.584-5.257-7.12c-0.823-0.938,0.492-5.374,0.492-5.374c0.021-0.161,0.031-0.323,0.031-0.488
		c0-2.424-2.322-4.451-5.441-4.992h0.025V20.471c0-0.447,0.193-1.118,0.441-1.491c1.223-1.842,4.778-6.907,8.018-8.719
		c1.828-1.022-0.348-2.001-3.297-1.899v3.421h-0.81V8.415c-0.118,0.012-0.236,0.025-0.356,0.04v3.327h-0.81V8.586
		c-0.119,0.023-0.237,0.048-0.355,0.075v3.121h-0.812V8.878c-0.119,0.037-0.237,0.075-0.354,0.116v2.788h-0.812V9.316
		c-2.062,0.93-3.77,2.615-4.035,5.407h-0.021v0.236v4.091v13.442c-3.189,0.505-5.578,2.558-5.578,5.018
		c0,0.166,0.011,0.331,0.032,0.493h0.003C27.884,38.004,29.242,42.412,28.418,43.351L28.418,43.351z M34.949,46.268
		c2.334,0,4.227,1.893,4.227,4.226c0,2.335-1.893,4.227-4.227,4.227s-4.226-1.892-4.226-4.227
		C30.722,48.16,32.615,46.268,34.949,46.268z"/>
</g>
</svg>
