<?xml version="1.0" encoding="iso-8859-1"?>
<!-- Generator: Adobe Illustrator 17.0.0, SVG Export Plug-In . SVG Version: 6.00 Build 0)  -->
<!DOCTYPE svg PUBLIC "-//W3C//DTD SVG 1.1//EN" "http://www.w3.org/Graphics/SVG/1.1/DTD/svg11.dtd">
<svg version="1.1" id="Capa_1" xmlns="http://www.w3.org/2000/svg" xmlns:xlink="http://www.w3.org/1999/xlink" x="0px" y="0px"
	 width="64px" height="64px" viewBox="0 0 64 64" style="enable-background:new 0 0 64 64;" xml:space="preserve">
<g>
	<path d="M4.691,61.814c6.323,0.128,21.922-0.023,29.938-4.224c0.081-0.041,0.162-0.079,0.242-0.122
		c0.103-0.056,0.2-0.119,0.301-0.178c0.599-0.342,1.178-0.728,1.725-1.178c0.308-0.252,0.605-0.519,0.888-0.802
		c4.817-4.817,4.817-12.626,0-17.442c-1.42-1.42-3.102-2.412-4.889-2.991l14.789-15.022c2.002-0.063,4.472-1.239,6.555-3.322
		c0.169-0.169,0.328-0.341,0.485-0.515l0.001,0.002c0,0,6.545-6.822,4.173-14.801c0,0-3.707,4.253-6.764,5.411
		c-0.155,0.047-0.31,0.099-0.467,0.156c-0.012,0.003-0.024,0.009-0.036,0.012l0.001,0.002c-1.436,0.536-2.94,1.498-4.282,2.841
		c-1.956,1.957-3.113,4.254-3.299,6.186L44.023,15.8L28.897,31.165c-0.555-1.938-1.584-3.769-3.111-5.296
		c-4.817-4.817-12.626-4.817-17.442,0c-0.283,0.283-0.55,0.58-0.802,0.888c-0.45,0.546-0.836,1.126-1.178,1.725
		c-0.059,0.101-0.122,0.199-0.178,0.301c-0.043,0.08-0.081,0.162-0.122,0.242C1.862,37.04,1.711,52.64,1.839,58.962
		C1.87,60.488,3.166,61.783,4.691,61.814z"/>
</g>
</svg>
