<?xml version="1.0" encoding="iso-8859-1"?>
<!-- Generator: Adobe Illustrator 17.0.0, SVG Export Plug-In . SVG Version: 6.00 Build 0)  -->
<!DOCTYPE svg PUBLIC "-//W3C//DTD SVG 1.1//EN" "http://www.w3.org/Graphics/SVG/1.1/DTD/svg11.dtd">
<svg version="1.1" id="Capa_1" xmlns="http://www.w3.org/2000/svg" xmlns:xlink="http://www.w3.org/1999/xlink" x="0px" y="0px"
	 width="64px" height="64px" viewBox="0 0 64 64" style="enable-background:new 0 0 64 64;" xml:space="preserve">
<g>
	<path d="M58.964,2.92c-2.051-0.027-2.227-0.732-2.227-0.732c-1.842,3.556-8.347,6.68-8.347,6.68
		c1.548,1.932,0.096,3.776,0.096,3.776l-7.553,7.996l-0.208-0.208c-1.858,0.911-3.789,0.437-3.789,0.437s-21.653,6.207-28.793,9.704
		c-7.14,3.497-5.756,5.756-5.756,5.756c8.451-5.61,14.105,2.142,16.181,2.543s2.004-0.984,1.093-0.947s-3.388-1.056-1.348-1.931
		c2.04-0.874,5.574,1.931,6.739,1.639s0-0.801,0-0.801s-2.951-0.474-2.331-2.331c0.563-1.689,4.699,0.817,5.446,1.286
		c0.469,0.746,2.975,4.883,1.286,5.446c-1.858,0.619-2.331-2.331-2.331-2.331s-0.51-1.166-0.801,0
		c-0.291,1.166,2.514,4.699,1.639,6.739c-0.874,2.04-1.967-0.437-1.931-1.348s-1.348-0.984-0.947,1.093s8.153,7.73,2.543,16.181
		c0,0,2.259,1.384,5.756-5.756c3.497-7.14,9.704-28.793,9.704-28.793s-0.474-1.931,0.437-3.789l-0.099-0.099l7.352-7.783
		c1.534-1.695,4.961-1.42,4.961-1.42c3.979-9.447,8.034-9.669,7.347-10.322C62.396,2.95,61.015,2.946,58.964,2.92z"/>
</g>
</svg>
