<?xml version="1.0" encoding="iso-8859-1"?>
<!-- Generator: Adobe Illustrator 17.0.0, SVG Export Plug-In . SVG Version: 6.00 Build 0)  -->
<!DOCTYPE svg PUBLIC "-//W3C//DTD SVG 1.1//EN" "http://www.w3.org/Graphics/SVG/1.1/DTD/svg11.dtd">
<svg version="1.1" id="Capa_1" xmlns="http://www.w3.org/2000/svg" xmlns:xlink="http://www.w3.org/1999/xlink" x="0px" y="0px"
	 width="64px" height="64px" viewBox="0 0 64 64" style="enable-background:new 0 0 64 64;" xml:space="preserve">
<g>
	<path d="M49.681,16.854c1.025-0.933,2.413-1.157,3.449-0.622l0.198-0.198c0.625-1.532,1.753-3.227,3.317-4.79
		c1.564-1.564,3.259-2.692,4.79-3.317c0,0,0.302-0.302,0.675-0.675s0.147-1.202-0.504-1.853l-3.831-3.831
		c-0.651-0.651-1.477-0.88-1.845-0.512l-0.667,0.667c-0.623,1.537-1.755,3.241-3.327,4.813c-1.571,1.571-3.275,2.703-4.813,3.327
		l-0.137,0.137c0.659,1.049,0.455,2.545-0.532,3.629l-10.29,10.229c-0.445-0.029-1.161-0.388-2.119-1.872
		c-1.712-2.653-5.708-4.164-8.999,1.545s-0.561,6.653-9.934,7.742l0.002,0.003c-3.31,0.182-6.445,1.447-8.837,3.839
		c-5.674,5.674-5.028,15.521,1.444,21.993c6.472,6.472,16.319,7.118,21.993,1.444c0.102-0.102,0.198-0.209,0.296-0.314l0.002,0.004
		c0,0,0.037-0.04,0.099-0.11c0.455-0.497,0.863-1.023,1.227-1.573c1.46-2.072,3.544-5.798,3.077-9.691
		c-0.705-5.876,4.802-5.607,7.085-7.085s3.089-2.753,3.156-4.231c0,0-2.72,1.914-5.205-0.571c-1.997-1.997-1.109-5.4-0.248-7.201
		L49.681,16.854z"/>
</g>
</svg>
