<?xml version="1.0" encoding="iso-8859-1"?>
<!-- Generator: Adobe Illustrator 17.0.0, SVG Export Plug-In . SVG Version: 6.00 Build 0)  -->
<!DOCTYPE svg PUBLIC "-//W3C//DTD SVG 1.1//EN" "http://www.w3.org/Graphics/SVG/1.1/DTD/svg11.dtd">
<svg version="1.1" id="Capa_1" xmlns="http://www.w3.org/2000/svg" xmlns:xlink="http://www.w3.org/1999/xlink" x="0px" y="0px"
	 width="64px" height="64px" viewBox="0 0 64 64" style="enable-background:new 0 0 64 64;" xml:space="preserve">
<g>
	<path d="M61.365,1.502c-0.844-0.668-2.406-0.531-4.73-0.35c-2.323,0.181-2.595-0.599-2.595-0.599
		c-1.718,4.213-8.758,8.414-8.758,8.414c1.344,1.397,1.071,2.893,0.772,3.688L32.749,28.261c-0.452-0.267-1.102-0.231-1.522,0.081
		c-1.257,0.931-3.69,2.454-4.755,1.212c-2.362-3.585-0.939-7.292-0.939-7.292C5.063,26.839,5.176,46.683,5.176,46.683
		c23.852,6.699-3.064,11.453-3.064,11.453c22.205,16.243,47.965-22.02,47.965-22.02c-5.069,0.161-9.109-0.129-12.355-0.711
		c-0.483-0.16-1.339-0.748-0.622-2.903c0.174-0.524,0.001-1.188-0.45-1.506l-0.059-0.042l12.525-15.404
		c1.757-1.577,4.995-1.616,4.995-1.616C57.644,2.838,62.209,2.17,61.365,1.502z"/>
</g>
</svg>
