<?xml version="1.0" encoding="iso-8859-1"?>
<!-- Generator: Adobe Illustrator 17.0.0, SVG Export Plug-In . SVG Version: 6.00 Build 0)  -->
<!DOCTYPE svg PUBLIC "-//W3C//DTD SVG 1.1//EN" "http://www.w3.org/Graphics/SVG/1.1/DTD/svg11.dtd">
<svg version="1.1" id="Capa_1" xmlns="http://www.w3.org/2000/svg" xmlns:xlink="http://www.w3.org/1999/xlink" x="0px" y="0px"
	 width="64px" height="64px" viewBox="0 0 64 64" style="enable-background:new 0 0 64 64;" xml:space="preserve">
<g>
	<path d="M58.547,4.802c-0.325-2.003-2.176-4.011-2.176-4.011c-3.378,5.066-10.663,9.373-10.663,9.373
		c0.679,1.995-0.561,4.016-0.561,4.016L30.555,27.029l0.055-0.19c0,0-2.273,2.771-3.073-2.474l0,0
		c-0.126-1.38-0.008-2.615,0.118-3.423c0.085-0.546-0.227-0.831-0.746-0.642C-8.192,33.157,2.871,54.035,6.819,61.022
		c1.031,1.824,0.827,1.882,1.037,0.064c0.195-1.687,2.683-2.191,2.683-2.191c33.435,4.462,35.263-19.31,33.274-29.128
		c-0.416-2.053-1.544-1.505-1.702,0.583c-0.167,2.208-2.737,2.914-4.755,2.729c-0.168-0.015-0.326-0.038-0.489-0.057
		c-2.85-0.367-0.27-3.619-0.27-3.619l-0.799,0.529L48.465,17.29c0.654-0.26,2.239-0.75,3.731-0.108c0,0,4.864-6.926,10.179-9.897
		C62.375,7.285,60.518,5.283,58.547,4.802z"/>
</g>
</svg>
