<?xml version="1.0" encoding="iso-8859-1"?>
<!-- Generator: Adobe Illustrator 17.0.0, SVG Export Plug-In . SVG Version: 6.00 Build 0)  -->
<!DOCTYPE svg PUBLIC "-//W3C//DTD SVG 1.1//EN" "http://www.w3.org/Graphics/SVG/1.1/DTD/svg11.dtd">
<svg version="1.1" id="Capa_1" xmlns="http://www.w3.org/2000/svg" xmlns:xlink="http://www.w3.org/1999/xlink" x="0px" y="0px"
	 width="64px" height="64px" viewBox="0 0 64 64" style="enable-background:new 0 0 64 64;" xml:space="preserve">
<g>
	<path d="M11.124,57.588c8.201,5.636,18.111,5.941,21.513,0.407c0.1-0.162,0.188-0.317,0.28-0.474c0,0,0.002,0.002,0.002,0.002
		s0.557-0.65,1.218-2.438c0.207-0.516,0.364-0.999,0.475-1.453c0.441-1.51,0.882-3.531,1.205-6.222
		c0.944-7.869,6.177-3.423,9.915-8.656c3.738-5.233,2.475-6.259,2.475-6.259s-3.184,3.741-5.623,2.561
		c-2.068-1.001-2.381-2.908-2.141-4.999l9.629-11.675c1.444-1.757,3.887-0.726,3.887-0.726c0.187-2.134,2.559-5.146,4.549-5.797
		c1.99-0.651,5.329-4.962,3.409-3.934c-1.92,1.028-3.524-0.045-3.524-0.045s-1.221,1.317-2.306,0.377
		c-1.085-0.94,0.579-2.586,0.579-2.586c-1.366-1.896,2.553-5.23,1.045-4.769s-3.469,1.718-3.469,1.718
		c-0.383,5.923-6.918,9.444-6.918,9.444c0.984,0.991,0.638,2.071,0.178,2.803l-9.306,11.283c-1.706,0.284-6.707,0.869-6.511-2.072
		c0.236-3.541,2.4-3.895,2.4-3.895s-6.079-1.276-9.01,6.098c-2.931,7.375-10.692,5.507-12.408,6.668
		c-0.001,0-0.001,0.001-0.001,0.001c-4.227,0.761-8.327,2.572-9.826,4.776C-0.812,43.101,1.352,50.873,11.124,57.588z"/>
</g>
</svg>
