<?xml version="1.0" encoding="iso-8859-1"?>
<!-- Generator: Adobe Illustrator 17.0.0, SVG Export Plug-In . SVG Version: 6.00 Build 0)  -->
<!DOCTYPE svg PUBLIC "-//W3C//DTD SVG 1.1//EN" "http://www.w3.org/Graphics/SVG/1.1/DTD/svg11.dtd">
<svg version="1.1" id="Capa_1" xmlns="http://www.w3.org/2000/svg" xmlns:xlink="http://www.w3.org/1999/xlink" x="0px" y="0px"
	 width="64px" height="64px" viewBox="0 0 64 64" style="enable-background:new 0 0 64 64;" xml:space="preserve">
<path d="M38.128,16.224c-1.181-0.284-3.218-0.664-5.686-0.664c-2.486,0-4.535,0.385-5.711,0.67l0.32,3.686h10.522L38.128,16.224z"/>
<path d="M38.532,13.528c0.043-0.283,0.011-0.734-0.071-1.007l-1.179-3.926c-0.41-1.369-1.901-2.478-3.33-2.478h-3.278
	c-1.429,0-2.87,1.123-3.218,2.509l-0.903,3.587c-0.069,0.277-0.105,0.732-0.082,1.017l0.101,1.157c1-0.296,2.825-0.677,5.548-0.637
	c2.955,0.043,5.146,0.466,6.27,0.739L38.532,13.528z"/>
<polygon points="38.264,20.821 26.464,20.821 26.966,23.279 37.962,23.279 "/>
<path d="M33.039,36.974h-1.021c-0.423,0-0.767,0.343-0.767,0.766v2.042c0,0.423,0.344,0.766,0.767,0.766h1.021
	c0.423,0,0.766-0.343,0.766-0.766V37.74C33.805,37.317,33.462,36.974,33.039,36.974z"/>
<path d="M29.208,56.657c3.633,2.76,6.555,0,6.555,0s0.453-18.292,0.625-22.777c0.173-4.485,1.359-9.824,1.359-9.824H27.052
	c1.38,4.053,1.639,10.005,1.639,10.005L29.208,56.657z M30.459,33.543h4.097v7.935h-4.097V33.543z"/>
</svg>
