<?xml version="1.0" encoding="iso-8859-1"?>
<!-- Generator: Adobe Illustrator 17.0.0, SVG Export Plug-In . SVG Version: 6.00 Build 0)  -->
<!DOCTYPE svg PUBLIC "-//W3C//DTD SVG 1.1//EN" "http://www.w3.org/Graphics/SVG/1.1/DTD/svg11.dtd">
<svg version="1.1" id="Capa_1" xmlns="http://www.w3.org/2000/svg" xmlns:xlink="http://www.w3.org/1999/xlink" x="0px" y="0px"
	 width="64px" height="64px" viewBox="0 0 64 64" style="enable-background:new 0 0 64 64;" xml:space="preserve">
<g>
	<path d="M32.832,56.53c0.15,0,0.291,0.022,0.447,0.022v-0.046c6.781-0.35,12.516-4.621,14.975-10.59l0.003,4.876
		c0,0,0.255,0.207,0.712,0.051c0,0,0.859-0.34,1.919-0.763c1.06-0.423,2.451-1.359,2.987-2.183c0.335-0.514,0.622-1.032,0.869-1.548
		c2.185-1.03,2.185-6.475,2.185-6.475c-0.204-2.446-0.257-3.675-2.042-5.663c0.018,0.058-0.596-0.769-1.208-1.597
		c-0.546-0.74-1.508-1.568-2.336-2.036c0.061-0.45,0.156-1.273,0.214-2.306l0.021-0.362l-0.554-0.148
		c-0.06-0.892-0.153-1.672-0.289-2.377l-0.056,0.013l0.056-0.015c-0.019-0.091-0.041-0.184-0.063-0.272l-0.043-0.184
		c-0.093-0.435-0.196-0.871-0.317-1.301c-0.04-0.143-0.088-0.287-0.136-0.429l-0.073-0.216c-0.115-0.353-0.229-0.702-0.362-1.045
		c-0.073-0.186-0.15-0.37-0.229-0.551l-0.051-0.116c-0.139-0.322-0.279-0.642-0.436-0.954c-0.106-0.217-0.219-0.433-0.335-0.646
		c-0.163-0.303-0.334-0.602-0.516-0.896c-0.123-0.204-0.247-0.405-0.378-0.604c-0.196-0.294-0.405-0.584-0.614-0.868l-0.107-0.141
		c-0.096-0.131-0.191-0.26-0.292-0.386c-0.244-0.312-0.507-0.607-0.773-0.898l-0.128-0.148c-0.073-0.083-0.146-0.169-0.222-0.246
		c-0.423-0.439-0.823-0.823-1.229-1.179c-0.035-0.03-0.07-0.058-0.158-0.128c-0.397-0.34-0.793-0.652-1.181-0.932
		c-0.104-0.075-0.209-0.143-0.314-0.211l-0.161-0.106c-0.312-0.214-0.624-0.418-0.952-0.611c-0.156-0.091-0.316-0.179-0.476-0.265
		l-0.101-0.053c-0.307-0.166-0.616-0.327-0.934-0.473c-0.209-0.099-0.421-0.189-0.635-0.28c-0.316-0.136-0.639-0.259-0.964-0.375
		c-0.219-0.078-0.436-0.15-0.659-0.219c-0.335-0.105-0.68-0.193-1.027-0.279l-0.131-0.033c-0.174-0.045-0.345-0.085-0.521-0.123
		c-0.382-0.078-0.772-0.133-1.165-0.187L34.84,10c-0.118-0.021-0.236-0.038-0.354-0.051c-1.271-0.128-2.309-0.128-3.564,0.003
		c-0.134,0.012-0.262,0.032-0.393,0.053l-0.214,0.03c-0.375,0.055-0.753,0.107-1.123,0.181c-0.193,0.04-0.385,0.088-0.573,0.136
		l-0.217,0.056c-0.29,0.073-0.576,0.147-0.861,0.234c-0.294,0.091-0.584,0.193-0.876,0.3c-0.221,0.083-0.445,0.163-0.664,0.254
		c-0.345,0.144-0.688,0.297-1.027,0.461c-0.121,0.06-0.244,0.12-0.362,0.184c-5.945,3.046-9.902,9.145-10.386,15.969l-0.385,0.104
		l0.02,0.362c0.065,1.141,0.176,2.026,0.234,2.436c-0.773,0.483-1.616,1.232-2.114,1.905c-0.612,0.828-1.227,1.654-1.209,1.597
		c-1.784,1.988-1.837,3.217-2.041,5.663c0,0,0,5.444,2.185,6.475c0.247,0.516,0.534,1.034,0.869,1.548
		c0.536,0.823,1.928,1.76,2.987,2.183c1.06,0.423,1.918,0.763,1.918,0.763c0.461,0.156,0.713-0.051,0.713-0.051l0.002-4.883
		c2.46,5.971,8.199,10.247,14.98,10.597v0.046C32.539,56.553,32.681,56.53,32.832,56.53z M17.411,32.865l0.003-3.027
		c-0.201-0.159-0.692-0.169-0.889-0.166l-0.013-0.154c0.675-9.807,7.443-16.928,16.098-16.928c8.727,0,15.639,7.4,16.253,17.089
		c-0.219,0.016-0.488,0.051-0.619,0.159l0.003,3.023c-2.465-5.955-8.193-10.215-14.968-10.562v-0.046
		c-0.156,0-0.297,0.021-0.447,0.023c-0.151-0.002-0.293-0.023-0.448-0.023v0.046C25.607,22.646,19.876,26.905,17.411,32.865z
		 M41.243,33.203c0,1.608-0.855,2.911-1.911,2.911c-1.056,0-1.911-1.303-1.911-2.911c0-1.608,0.855-2.911,1.911-2.911
		C40.388,30.292,41.243,31.595,41.243,33.203z M28.869,33.203c0,1.608-0.855,2.911-1.911,2.911c-1.056,0-1.911-1.303-1.911-2.911
		c0-1.608,0.855-2.911,1.911-2.911C28.014,30.292,28.869,31.595,28.869,33.203z M23.547,42.317c0-0.276,0.224-0.5,0.5-0.5
		c0.276,0,0.5,0.224,0.5,0.5c0,4.435,4.619,7.75,8.75,7.75c4.131,0,8.75-3.315,8.75-7.75c0-0.276,0.224-0.5,0.5-0.5
		c0.276,0,0.5,0.224,0.5,0.5c0,5.008-5.147,8.75-9.75,8.75C28.694,51.067,23.547,47.325,23.547,42.317z"/>
</g>
</svg>
