<?xml version="1.0" encoding="iso-8859-1"?>
<!-- Generator: Adobe Illustrator 17.0.0, SVG Export Plug-In . SVG Version: 6.00 Build 0)  -->
<!DOCTYPE svg PUBLIC "-//W3C//DTD SVG 1.1//EN" "http://www.w3.org/Graphics/SVG/1.1/DTD/svg11.dtd">
<svg version="1.1" id="Capa_1" xmlns="http://www.w3.org/2000/svg" xmlns:xlink="http://www.w3.org/1999/xlink" x="0px" y="0px"
	 width="64px" height="64px" viewBox="0 0 64 64" style="enable-background:new 0 0 64 64;" xml:space="preserve">
<g>
	<path d="M59.442,22.517H4.558c-1.137,0-2.058,0.922-2.058,2.058v5v8.849c0,0.942,0.636,1.727,1.5,1.972
		c0.179,0.051,0.363,0.086,0.558,0.086h2.505v0.5v0.5v2.5H4.558C4.25,43.982,4,43.732,4,43.424v-1.998
		c-0.574-0.107-1.086-0.376-1.5-0.755v2.753c0,1.137,0.921,2.058,2.058,2.058h54.884c1.137,0,2.058-0.921,2.058-2.058v-2.753
		c-0.414,0.379-0.927,0.648-1.5,0.755v1.998c0,0.308-0.25,0.558-0.558,0.558h-2.505v-2.5v-0.5v-0.5h2.505
		c0.195,0,0.38-0.036,0.558-0.086c0.864-0.245,1.5-1.03,1.5-1.972v-8.849v-5C61.5,23.439,60.579,22.517,59.442,22.517z
		 M11.271,27.167v-1.532c0-0.799,0.647-1.446,1.446-1.446h38.566c0.799,0,1.446,0.648,1.446,1.446v1.199
		c0.792,0,1.521,0.257,2.12,0.684c0.533,0.38,0.96,0.895,1.228,1.5c0.201,0.454,0.318,0.954,0.318,1.483
		c0,2.025-1.642,3.667-3.667,3.667v1.199c0,0.799-0.647,1.446-1.446,1.446H12.717c-0.799,0-1.446-0.648-1.446-1.446V34.5
		c-2.025,0-3.667-1.642-3.667-3.667c0-0.664,0.19-1.279,0.499-1.816c0.375-0.653,0.938-1.18,1.625-1.5
		C10.198,27.298,10.717,27.167,11.271,27.167z M11.937,41.482v-0.5v-0.5h4.125v0.5v0.5v2.5h-4.125V41.482z M20.937,41.482v-0.5v-0.5
		h4.125v0.5v0.5v2.5h-4.125V41.482z M29.937,41.482v-0.5v-0.5h4.125v0.5v0.5v2.5h-4.125V41.482z M38.937,41.482v-0.5v-0.5h4.125v0.5
		v0.5v2.5h-4.125V41.482z M52.063,40.982v0.5v2.5h-4.125v-2.5v-0.5v-0.5h4.125V40.982z"/>
	<path d="M10.271,32.083c0.42,0,0.773-0.221,1-0.538c0.146-0.205,0.25-0.441,0.25-0.712s-0.104-0.507-0.25-0.712
		c-0.227-0.318-0.58-0.538-1-0.538c-0.69,0-1.25,0.56-1.25,1.25S9.58,32.083,10.271,32.083z"/>
	<circle cx="53.979" cy="30.5" r="1.25"/>
</g>
</svg>
