<?xml version="1.0" encoding="iso-8859-1"?>
<!-- Generator: Adobe Illustrator 17.0.0, SVG Export Plug-In . SVG Version: 6.00 Build 0)  -->
<!DOCTYPE svg PUBLIC "-//W3C//DTD SVG 1.1//EN" "http://www.w3.org/Graphics/SVG/1.1/DTD/svg11.dtd">
<svg version="1.1" id="Capa_1" xmlns="http://www.w3.org/2000/svg" xmlns:xlink="http://www.w3.org/1999/xlink" x="0px" y="0px"
	 width="64px" height="64px" viewBox="0 0 64 64" style="enable-background:new 0 0 64 64;" xml:space="preserve">
<g>
	<path d="M60.792,36.501h-2.79l-4.085-16.113c-1.064-3.17-2.408-5.325-5.378-5.325L32,19.323l-16.539-4.26
		c-2.97,0-4.25,2.07-5.378,5.325L5.998,36.501h-2.79c-1.105,0-1.706,0.846-1.343,1.889l1.494,4.296h7.799h41.683h7.799l1.494-4.296
		C62.497,37.347,61.896,36.501,60.792,36.501z M38.232,36.501v-4.167h-4.167v4.167h-4.167v-4.167h-4.167v4.167h-4.167v-4.167h-4.167
		v4.167h-4.167v-4.167H9.065v-4.167h4.167v4.167h4.167v-4.167h4.167v4.167h4.167v-4.167h4.167v4.167h4.167v-4.167h4.167v4.167h4.167
		v-4.167h4.167v4.167h-4.167v4.167H38.232z M46.602,36.501v-4.167h4.167v-4.167h4.167v4.167h-4.167v4.167H46.602z"/>
</g>
</svg>
