<?xml version="1.0" encoding="iso-8859-1"?>
<!-- Generator: Adobe Illustrator 17.0.0, SVG Export Plug-In . SVG Version: 6.00 Build 0)  -->
<!DOCTYPE svg PUBLIC "-//W3C//DTD SVG 1.1//EN" "http://www.w3.org/Graphics/SVG/1.1/DTD/svg11.dtd">
<svg version="1.1" id="Capa_1" xmlns="http://www.w3.org/2000/svg" xmlns:xlink="http://www.w3.org/1999/xlink" x="0px" y="0px"
	 width="64px" height="64px" viewBox="0 0 64 64" style="enable-background:new 0 0 64 64;" xml:space="preserve">
<g>
	<path d="M22.24,2.5c-0.382,0.678-1.911,1.201-3.823,1.308v8.908h20.667V3.811c-1.95-0.096-3.519-0.623-3.907-1.311H22.24z"/>
	<path d="M52.986,54.438c-0.182,0-0.371,0.018-0.567,0.056c-2.378,0.462-5.646,0.941-8.898,0.941
		c-5.595,0-11.144-1.418-12.034-6.778h3.064v-3.93h1.083c1.408,0,2.588-1.148,2.915-2.517c1.094-4.584,4.265-11.242,4.265-11.242
		c0.558-0.72,0.906-1.614,0.906-2.597V17.964c0-2.346-1.902-4.248-4.248-4.248h-0.389H18.417h-0.398
		c-2.346,0-4.248,1.902-4.248,4.248v10.408c0,0.984,0.349,1.879,0.91,2.599c-0.015,0,3.153,6.657,4.247,11.24
		c0.327,1.369,1.507,2.517,2.915,2.517h1.097v3.93h3.274c0.864,9.261,9.468,11.836,17.977,11.836c3.386,0,6.755-0.408,9.617-0.964
		C56.914,58.925,55.859,54.438,52.986,54.438z M39.083,23.167h0.893v3.667H38.52v-3.667H39.083z M22.578,26.833h-1.456v-1.208H18.48
		v1.208h-1.456v-3.667h1.393h0.063v0v1.596h2.642v-1.596v0h1.456v0V26.833z M29.312,26.402c0,0.238-0.193,0.431-0.431,0.431h-0.728
		h-0.27h-2.804h-1.213h-0.243v-2.076h1.456v1.213h2.804v-1.824h-4.26v-0.98v0h4.26h0.027h0.971l0,0c0.238,0,0.431,0.193,0.431,0.431
		V26.402z M30.438,23.167L30.438,23.167l0.485,0h0.971h1.348h1.456h1.348h0.971h0.054l0,0c0.238,0,0.431,0.193,0.431,0.431v3.235
		h-1.456v-2.642h-1.348v2.642h-1.456v-2.642h-1.348v2.642h-1.456V23.167z"/>
</g>
</svg>
