<?xml version="1.0" encoding="iso-8859-1"?>
<!-- Generator: Adobe Illustrator 17.0.0, SVG Export Plug-In . SVG Version: 6.00 Build 0)  -->
<!DOCTYPE svg PUBLIC "-//W3C//DTD SVG 1.1//EN" "http://www.w3.org/Graphics/SVG/1.1/DTD/svg11.dtd">
<svg version="1.1" id="Capa_1" xmlns="http://www.w3.org/2000/svg" xmlns:xlink="http://www.w3.org/1999/xlink" x="0px" y="0px"
	 width="64px" height="64px" viewBox="0 0 64 64" style="enable-background:new 0 0 64 64;" xml:space="preserve">
<g>
	<path d="M54.391,24.81h-2.483c0-9.466-7.7-17.167-17.166-17.167h-1.13c-9.466,0-17.166,7.701-17.166,17.167c0,0-1.214,0-2.71,0
		c-1.497,0-2.711,3.742-2.711,8.358c0,4.615,1.214,8.356,2.711,8.356h2.71v6.099h2.056c1.131,2.334,3.855,5.938,10.063,7.363v1.369
		h6.174c0.998,0,1.808-0.809,1.808-1.807v-0.451c0-0.999-0.81-1.808-1.808-1.808h-6.174v0.85c-4.657-1.159-6.959-3.627-8.062-5.517
		h1.364V24.81c0-6.476,5.27-11.745,11.745-11.745h1.13c6.476,0,11.744,5.269,11.744,11.745v22.813h5.422v-6.099c0,0,1.112,0,2.483,0
		c1.373,0,2.485-3.742,2.485-8.356C56.876,28.552,55.764,24.81,54.391,24.81z"/>
</g>
</svg>
