<?xml version="1.0" encoding="iso-8859-1"?>
<!-- Generator: Adobe Illustrator 17.0.0, SVG Export Plug-In . SVG Version: 6.00 Build 0)  -->
<!DOCTYPE svg PUBLIC "-//W3C//DTD SVG 1.1//EN" "http://www.w3.org/Graphics/SVG/1.1/DTD/svg11.dtd">
<svg version="1.1" id="Capa_1" xmlns="http://www.w3.org/2000/svg" xmlns:xlink="http://www.w3.org/1999/xlink" x="0px" y="0px"
	 width="64px" height="64px" viewBox="0 0 64 64" style="enable-background:new 0 0 64 64;" xml:space="preserve">
<g>
	<path d="M61.694,27.89c0-1.519-1.373-1.876-2.789-1.961C56.636,14.187,47.617,7.41,45.415,5.911
		c0.007-0.046,0.02-0.102,0.024-0.141c0.265-2.382-4.445-3.618-5.896-3.94l-0.202-0.021c-0.512,0-0.969,0.384-1.611,1.504
		c-1.39-0.191-2.819-0.3-4.009-0.3c-19.127,0-30.097,10.363-30.094,28.493c0.082,0.681,1.759,14.547,2.619,19.812
		c-0.39,0.01-0.736,0.161-0.964,0.445c-0.25,0.312-0.332,0.733-0.231,1.188l1.097,4.961l0.105,0.249
		c0.069,0.105,1.748,2.589,6.359,2.589c2.423,0,5.229-0.696,8.343-2.052l0.028,0.613l0.089,0.157
		c0.23,0.404,0.714,0.886,1.711,0.886c1.285,0,3.177-0.774,6.042-1.946c2.166-0.886,4.862-1.988,8.063-3.055
		c8.495-2.829,8.495-2.829,8.374-3.579l-0.011-1.706c1.847-0.533,2.992-0.839,3.043-0.853c0.157-0.05,3.857-1.273,4.334-6.522
		c0.422-4.643,0.606-5.183,4.726-6.086c4.59-1.006,4.46-4.81,4.366-7.587C61.707,28.63,61.694,28.25,61.694,27.89z M43.719,51.426
		c-0.706,0.267-2.541,0.918-7.304,2.504c-3.249,1.083-5.971,2.196-8.158,3.091c-2.505,1.024-4.484,1.834-5.474,1.834
		c-0.168,0-0.265-0.022-0.322-0.05l-0.034-0.759l-0.036-0.804l-0.036-0.802l-0.1-2.216l-0.023-0.502l-0.023-0.502l-0.737-16.405
		c0-5.702,4.595-10.371,10.379-10.731c0.176-0.011,0.352-0.023,0.53-0.026c0.062-0.001,0.123-0.009,0.186-0.009
		c0.113,0,0.222,0.013,0.334,0.016c5.962,0.174,10.76,4.923,10.76,10.753l0.046,12.137l0.003,0.778l0.003,0.784L43.719,51.426z
		 M7.579,57.431l-0.875-3.974l-0.127-0.575c1.428,0.36,4.221,0.906,7.216,0.679c0.349-0.027,0.663-0.105,0.958-0.207
		c0.324-0.112,0.624-0.256,0.88-0.457c0.16-0.126,0.308-0.268,0.441-0.428c1.405-1.69,1.055-4.965,0.569-9.497
		c-0.218-2.033-0.465-4.338-0.575-6.775c-0.312-6.934,2.804-11.594,9.526-14.248c4.77-1.883,5.845-2.387,7.736-5.426
		c0.737-1.185,1.772-3.636,2.867-6.229c0.384-0.909,0.835-1.978,1.287-3.007c0.51-1.161,1.018-2.264,1.431-3.033
		c0.147-0.274,0.283-0.508,0.401-0.682c0.057-0.084,0.111-0.158,0.159-0.215c2.399,0.572,4.54,1.641,4.472,2.25
		c-0.039,0.356-0.275,1.175-0.624,2.245c-0.193,0.592-0.421,1.263-0.67,1.977c-0.089,0.255-0.18,0.514-0.274,0.779
		c-0.23,0.648-0.47,1.316-0.715,1.988c-0.112,0.308-0.225,0.616-0.338,0.922c-0.255,0.691-0.508,1.367-0.751,2.01
		c-0.158,0.418-0.312,0.825-0.458,1.206l-0.284,0.74l0.003,0.001L36.867,25.3c-1.11-0.394-2.291-0.639-3.521-0.713
		c-0.171-0.01-0.342-0.022-0.514-0.025c-0.088-0.002-0.174-0.013-0.263-0.013c-0.088,0-0.172,0.011-0.259,0.013
		c-6.824,0.136-12.335,5.576-12.334,12.287l0.731,16.298l0.023,0.502l0.022,0.502l0.132,2.945c-3.139,1.429-5.921,2.155-8.271,2.155
		C9.3,59.25,7.895,57.813,7.579,57.431z M49.778,23.495c-0.372-0.634-0.763-1.209-1.166-1.758c-1.958-3.093-4.211-5.486-6.074-7.172
		c0.113-0.303,0.23-0.62,0.351-0.949c2.552,2.235,6.148,6.061,8.409,11.349C50.691,24.615,50.164,24.152,49.778,23.495z
		 M53.767,25.746c-2.48-6.939-7.169-11.685-10.143-14.157c0.095-0.267,0.19-0.534,0.284-0.8c2.905,2.351,8.156,7.455,10.421,15.021
		C54.139,25.792,53.951,25.772,53.767,25.746z M45.164,36.815c0-4.772-2.818-8.906-6.914-10.933l3.007-7.923
		c1.328,0.492,2.503,1.134,3.555,1.958c1.405,1.101,2.604,2.515,3.673,4.337c0.661,1.127,1.592,1.845,2.621,2.31
		c0.305,0.138,0.619,0.253,0.937,0.349c0.74,0.223,1.5,0.346,2.231,0.41c0.158,0.014,0.314,0.026,0.468,0.036
		c0.677,0.041,1.317,0.043,1.869,0.043c0.006,0,0.012,0,0.018,0l0.174,0l0.814-0.002c1.547,0,2.578,0.083,2.578,0.489
		c0,0.377,0.013,0.774,0.027,1.183c0.11,3.221-0.053,5.383-3.188,6.07c-4.872,1.067-5.431,2.271-5.899,7.414
		c-0.383,4.218-3.177,5.19-3.258,5.219c-0.039,0.01-1.02,0.273-2.635,0.735L45.164,36.815z M56.862,25.902l-0.234,0
		c-0.063,0-0.126-0.002-0.189-0.002c-2.445-9.033-8.796-14.8-11.841-17.131c0.091-0.276,0.177-0.541,0.258-0.795
		C47.501,9.923,54.795,16.077,56.862,25.902z"/>
	<path d="M40.266,37.66c0-4.403-3.443-7.986-7.675-7.986c-0.264,0-0.525,0.014-0.782,0.041c-0.186,0.02-0.367,0.054-0.548,0.087
		c-0.189,0.035-0.376,0.078-0.56,0.127c-3.319,0.88-5.784,4.012-5.784,7.762l0.423,10.133l0.064,1.53l0.064,1.529l0.041,0.979
		l0.08,0.15c0.142,0.268,0.497,0.717,1.282,0.717c0.823,0,1.955-0.498,3.668-1.251c1.262-0.555,2.832-1.245,4.692-1.911
		c5.208-1.864,5.208-1.864,5.087-2.561L40.266,37.66z M29.936,50.105c-1.279,0.562-2.395,1.053-2.952,1.117l-0.198-4.737
		l-0.064-1.529l-0.064-1.529l-0.241-5.767c0-2.675,1.55-4.976,3.756-5.967c0.192-0.086,0.389-0.163,0.591-0.229
		c0.186-0.061,0.375-0.112,0.568-0.154c0.407-0.089,0.828-0.137,1.26-0.137c3.405,0,6.175,2.91,6.175,6.489l0.032,8.997
		c-0.505,0.198-1.619,0.616-4.073,1.495C32.815,48.839,31.219,49.541,29.936,50.105z"/>
	<path d="M34.541,37.971c-0.199,0.07-0.421,0.009-0.555-0.154l-0.189-0.232l-0.672-0.824l-0.101,1.077l-0.277,2.959
		c-0.02,0.205-0.163,0.378-0.361,0.434c-0.045,0.014-0.091,0.02-0.137,0.02c-0.154,0-0.302-0.071-0.398-0.198l-1.352-1.784
		l-1.705,0.517l-0.574,0.174l-0.204,0.062c0.033,0.077,0.083,0.145,0.12,0.22c0.104,0.211,0.206,0.424,0.337,0.617
		c0.902,1.329,2.424,2.204,4.152,2.204c2.769,0,5.014-2.245,5.014-5.014c0-0.39-0.055-0.766-0.139-1.13L34.541,37.971z"/>
	<path d="M29.138,38.635l1.403-0.426c0.201-0.062,0.417,0.01,0.543,0.177l0.053,0.07l0.733,0.967l0.117-1.246l0.255-2.724
		c0.019-0.202,0.158-0.372,0.353-0.432c0.194-0.059,0.404,0.005,0.533,0.162l1.411,1.728l2.638-0.939
		c-0.791-1.73-2.526-2.938-4.553-2.938c-0.682,0-1.331,0.139-1.923,0.385c-0.218,0.091-0.42,0.211-0.621,0.33
		c-0.236,0.14-0.455,0.299-0.664,0.475c-1.095,0.92-1.806,2.282-1.806,3.823c0,0.349,0.037,0.69,0.105,1.019l0.275-0.084
		l0.574-0.174L29.138,38.635z"/>
	<path d="M34.556,51.827c-0.275-0.35-0.697-0.579-1.176-0.579c-0.828,0-1.498,0.67-1.501,1.497c0,0.002,0,0.003,0,0.005
		c0,0.262,0.073,0.505,0.191,0.72c0.137,0.249,0.341,0.453,0.591,0.591c0.214,0.118,0.457,0.191,0.719,0.191
		c0.62,0,1.151-0.376,1.38-0.911c0.078-0.181,0.121-0.38,0.121-0.59c0-0.081-0.012-0.159-0.024-0.237
		C34.817,52.256,34.71,52.023,34.556,51.827z"/>
</g>
</svg>
