<?xml version="1.0" encoding="iso-8859-1"?>
<!-- Generator: Adobe Illustrator 17.0.0, SVG Export Plug-In . SVG Version: 6.00 Build 0)  -->
<!DOCTYPE svg PUBLIC "-//W3C//DTD SVG 1.1//EN" "http://www.w3.org/Graphics/SVG/1.1/DTD/svg11.dtd">
<svg version="1.1" id="Capa_1" xmlns="http://www.w3.org/2000/svg" xmlns:xlink="http://www.w3.org/1999/xlink" x="0px" y="0px"
	 width="64px" height="64px" viewBox="0 0 64 64" style="enable-background:new 0 0 64 64;" xml:space="preserve">
<g>
	<path d="M16.979,32.787v18.562c0,1.106,0.894,2,2,2c1.104,0,2-0.894,2-2V32.787c0-1.104-0.896-2-2-2
		C17.873,30.787,16.979,31.682,16.979,32.787z"/>
	<path d="M10.701,53.372h4.404V31.334c0.012-0.105,0.031-0.21,0.031-0.319c0-9.507,7.674-17.241,17.105-17.241
		c9.43,0,17.104,7.734,17.104,17.241c0,0.146,0.021,0.286,0.043,0.427v21.93h4.404c3.066,0,5.553-2.573,5.553-5.746V36.134
		c0-2.618-1.695-4.823-4.01-5.517C55.123,17.987,44.848,7.774,32.242,7.774c-12.609,0-22.885,10.214-23.096,22.848
		c-2.311,0.695-4,2.898-4,5.513v11.491C5.146,50.798,7.633,53.372,10.701,53.372z"/>
	<path d="M43.516,32.787v18.562c0,1.106,0.895,2,2,2c1.104,0,2-0.894,2-2V32.787c0-1.104-0.896-2-2-2
		C44.41,30.787,43.516,31.682,43.516,32.787z"/>
</g>
</svg>
