<?xml version="1.0" encoding="iso-8859-1"?>
<!-- Generator: Adobe Illustrator 17.0.0, SVG Export Plug-In . SVG Version: 6.00 Build 0)  -->
<!DOCTYPE svg PUBLIC "-//W3C//DTD SVG 1.1//EN" "http://www.w3.org/Graphics/SVG/1.1/DTD/svg11.dtd">
<svg version="1.1" id="Capa_1" xmlns="http://www.w3.org/2000/svg" xmlns:xlink="http://www.w3.org/1999/xlink" x="0px" y="0px"
	 width="64px" height="64px" viewBox="0 0 64 64" style="enable-background:new 0 0 64 64;" xml:space="preserve">
<g>
	<path d="M31.334,58.417c7.673,0,13.916-6.243,13.916-13.917c0-6.383-4.325-11.762-10.194-13.396
		c-1.187-0.33-2.431-0.521-3.722-0.521h0c-1.291,0-2.535,0.19-3.722,0.521c-5.87,1.634-10.195,7.013-10.195,13.396
		C17.417,52.173,23.66,58.417,31.334,58.417z M31.334,38.042c3.561,0,6.457,2.897,6.457,6.458s-2.896,6.458-6.457,6.458
		s-6.458-2.897-6.458-6.458S27.773,38.042,31.334,38.042z"/>
	<path d="M31.334,50.458c3.285,0,5.957-2.673,5.957-5.958s-2.672-5.958-5.957-5.958s-5.958,2.673-5.958,5.958
		S28.049,50.458,31.334,50.458z"/>
	<path d="M31.334,61.583c9.435,0,17.083-7.648,17.083-17.083c0-5.435-2.547-10.267-6.502-13.396h0.019c0,0-3.558-3.146-3.558-7.854
		h-0.329c-0.425,0.231-0.905,0.375-1.422,0.375h-5.291h-5.042c-0.517,0-0.997-0.144-1.422-0.375h-0.578
		c0,4.708-3.558,7.854-3.558,7.854h0.019c-3.956,3.129-6.502,7.961-6.502,13.396C14.25,53.935,21.899,61.583,31.334,61.583z
		 M24.815,31.104c1.973-0.964,4.179-1.521,6.519-1.521h0c2.339,0,4.546,0.557,6.519,1.521c4.962,2.425,8.397,7.51,8.397,13.396
		c0,8.225-6.691,14.917-14.916,14.917c-8.226,0-14.917-6.691-14.917-14.917C16.417,38.614,19.852,33.529,24.815,31.104z"/>
	<path d="M38.625,2.792c0-0.276-0.224-0.5-0.5-0.5H24.792c-0.276,0-0.5,0.224-0.5,0.5v2.24h14.333V2.792z"/>
	<rect x="24.292" y="6.031" width="14.333" height="4.375"/>
	<path d="M26.292,22.625h10.333c1.105,0,2-0.895,2-2V17.47v-0.734V15.25v-3.844H24.292v3.844v1.484v0.735v3.155
		C24.292,21.73,25.187,22.625,26.292,22.625z"/>
</g>
</svg>
