<?xml version="1.0" encoding="iso-8859-1"?>
<!-- Generator: Adobe Illustrator 17.0.0, SVG Export Plug-In . SVG Version: 6.00 Build 0)  -->
<!DOCTYPE svg PUBLIC "-//W3C//DTD SVG 1.1//EN" "http://www.w3.org/Graphics/SVG/1.1/DTD/svg11.dtd">
<svg version="1.1" id="Capa_1" xmlns="http://www.w3.org/2000/svg" xmlns:xlink="http://www.w3.org/1999/xlink" x="0px" y="0px"
	 width="64px" height="64px" viewBox="0 0 64 64" style="enable-background:new 0 0 64 64;" xml:space="preserve">
<g>
	<path d="M62.618,4.691c-0.131,0.392-0.324,0.794-0.593,1.182c-0.941,1.357-2.357,2.004-3.163,1.445
		c-0.497-0.345-0.643-1.068-0.464-1.889c-0.821,0.179-1.544,0.033-1.889-0.464c-0.559-0.806,0.088-2.222,1.445-3.163
		c0.388-0.269,0.79-0.462,1.182-0.593L58.92,0.994l-3.599-0.177L53.978,2.16c0.027,1.639-0.744,3.5-2.235,4.99
		c-1.49,1.49-3.351,2.261-4.99,2.235l-0.09,0.09c1.012,1.273,0.651,3.428-0.846,5.051L33.371,27.169
		c-2.065-0.147-5.112-0.911-6.141-1.939c-1.953-1.953-0.405-4.863,3.283-6.158c1.617-0.568,3.993-1.621,6.205-2.281l-12.133-0.027
		L21.297,30.74L11.18,28.527L0.996,47.096l11.537-6.056l-0.131,0.131c0.468,0.213,0.918,0.439,1.352,0.673
		c-0.9,1.088-0.853,2.695,0.166,3.714l4.701,4.701c1.073,1.073,2.805,1.078,3.889,0.023c0.417,0.707,0.615,1.145,0.615,1.145
		l0.272-0.272l-6.313,12.027L35.653,53l-2.28-10.421l13.784-3.243l-0.026-12.089c-0.661,2.202-1.706,4.562-2.271,6.171
		c-1.295,3.688-4.205,5.235-6.158,3.283c-1.017-1.017-1.772-3.998-1.931-6.067l12.617-12.816c1.634-1.41,3.743-1.706,4.968-0.659
		c-0.086-1.68,0.69-3.621,2.233-5.164c1.619-1.619,3.674-2.389,5.409-2.208l1.164-1.164l-0.176-3.563L62.618,4.691z"/>
</g>
</svg>
