<?xml version="1.0" encoding="iso-8859-1"?>
<!-- Generator: Adobe Illustrator 16.0.4, SVG Export Plug-In . SVG Version: 6.00 Build 0)  -->
<!DOCTYPE svg PUBLIC "-//W3C//DTD SVG 1.1//EN" "http://www.w3.org/Graphics/SVG/1.1/DTD/svg11.dtd">
<svg version="1.1" id="Capa_1" xmlns="http://www.w3.org/2000/svg" xmlns:xlink="http://www.w3.org/1999/xlink" x="0px" y="0px"
	 width="64px" height="64px" viewBox="0 0 64 64" style="enable-background:new 0 0 64 64;" xml:space="preserve">
<g>
	<path d="M44.451,8.452C30.749,6.89,31.716,22.14,33.527,22.327c1.812,0.188,2.938-0.604,2.938-0.604
		c-2.083-3.417,2.082-8.839,6.166-7c3.333,1.501,2.834,8.583-7,9.75c-5.161,0.612-8.976-0.452-11.449-1.603
		c-2.328-3.383-5.198-5.421-8.13-5.421c-0.382,0-0.765,0.034-1.137,0.103c-3.036,0.554-5.38,3.214-6.602,7.493
		c-1.085,3.797-1.194,8.557-0.311,13.403c1.82,9.973,7.165,17.212,12.709,17.212c0.381,0,0.763-0.035,1.135-0.104
		c3.036-0.554,5.381-3.215,6.604-7.492c0.062-0.219,0.109-0.448,0.165-0.674c6.942-8.914,13.769-10.371,19.933-14.834
		C55.8,27.307,58.152,10.015,44.451,8.452z M24.605,46.966c-0.77,2.697-2.036,4.396-3.475,4.656
		c-3.066,0.576-7.599-5.171-9.191-13.894c-0.776-4.254-0.698-8.369,0.221-11.586c0.771-2.696,2.036-4.394,3.474-4.655
		c0.137-0.025,0.277-0.038,0.419-0.038c3.009,0,7.252,5.598,8.772,13.931C25.603,39.633,25.524,43.747,24.605,46.966z"/>
	<path d="M13.692,37.102c-0.958-5.248,0.367-9.886,2.957-10.358c2.591-0.473,5.467,3.399,6.425,8.647
		c0.958,5.248-0.367,9.885-2.957,10.357C17.526,46.221,14.65,42.35,13.692,37.102z"/>
</g>
</svg>
