<?xml version="1.0" encoding="iso-8859-1"?>
<!-- Generator: Adobe Illustrator 17.0.0, SVG Export Plug-In . SVG Version: 6.00 Build 0)  -->
<!DOCTYPE svg PUBLIC "-//W3C//DTD SVG 1.1//EN" "http://www.w3.org/Graphics/SVG/1.1/DTD/svg11.dtd">
<svg version="1.1" id="Capa_1" xmlns="http://www.w3.org/2000/svg" xmlns:xlink="http://www.w3.org/1999/xlink" x="0px" y="0px"
	 width="64px" height="64px" viewBox="0 0 64 64" style="enable-background:new 0 0 64 64;" xml:space="preserve">
<path d="M13.624,16.283c0.807,0.646,1.812,1.056,2.919,1.078l0.985-0.401l0.947-0.386l0.697-0.284c2.69,0,3.788-1.098,3.788-3.787
	V9.974c0-2.69-1.098-3.788-3.788-3.788l-0.195-0.04l-0.502-0.213l-0.861-0.365l-1.07-0.453c-1.154,0.023-2.195,0.467-3.018,1.162
	c-0.221,0.187-0.423,0.39-0.607,0.613c-0.153,0.184-0.296,0.374-0.42,0.58c-0.445,0.733-0.714,1.585-0.714,2.504v2.529
	c0,0.948,0.282,1.828,0.753,2.577c0.131,0.208,0.284,0.399,0.444,0.585C13.176,15.891,13.39,16.096,13.624,16.283z"/>
<path d="M59.1,4.09c-1.311,0-2.376,1.065-2.376,2.376V7.36v0.508v0.507l-3.972-0.689c0.299,0.703,0.465,1.476,0.465,2.287v2.529
	c0,0.84-0.181,1.637-0.5,2.36l4.007-0.695v0.508v0.507v9.782c0,0.012-0.038,1.254-1.145,3.1c-0.402,0.67-0.301,1.224-0.145,1.569
	c0.202,0.447,0.621,0.797,1.099,1.081c-2.366,5.036-6.506,8.172-9.786,12.657c-0.215,0.294-0.418,0.587-0.609,0.881
	c-2.818-1.495-5.909-2.665-9.281-3.587c-10.089-2.759-20.603-3.378-28.426-10.832c0.043-0.067,0.101-0.128,0.133-0.2
	c0.156-0.346,0.258-0.899-0.145-1.569c-1.106-1.846-1.145-3.088-1.145-3.093v-9.789v-0.507v-0.508l4.007,0.695
	c-0.32-0.723-0.5-1.52-0.5-2.36V9.974c0-0.811,0.166-1.584,0.465-2.287L7.276,8.376V7.868V7.36V6.466
	c0-1.311-1.065-2.376-2.376-2.376S2.524,5.155,2.524,6.466v18.506c0,2.628,0.318,4.518,0.947,5.617
	c0.555,0.971,1.188,1.046,1.37,1.046l0.093-0.009c0.164-0.03,1.015-0.205,1.867-0.571c5.886,5.778,13.432,8.012,21.441,9.722
	c6.108,1.305,11.828,2.752,16.829,5.338c-1.894,3.817-2.072,7.729-1.594,12.337c0.132,1.27,2.133,1.282,2,0
	c-0.468-4.513-0.055-7.995,1.534-11.247c4.026,2.436,7.519,5.76,10.269,10.586c0.638,1.12,2.366,0.113,1.727-1.009
	c-2.877-5.049-6.534-8.718-10.943-11.434c0.851-1.324,1.911-2.636,3.208-3.991c2.916-3.046,5.41-6.122,7.118-9.892
	c0.36,0.096,0.643,0.153,0.746,0.17h0.021c0.182,0,0.815-0.075,1.37-1.046c0.629-1.1,0.947-2.989,0.947-5.617V6.466
	C61.476,5.155,60.41,4.09,59.1,4.09z"/>
<path d="M45.023,16.33l0.502,0.213l0.973,0.412l0.958,0.406c1.107-0.022,2.112-0.432,2.919-1.078
	c0.234-0.187,0.448-0.392,0.643-0.619c0.16-0.186,0.313-0.376,0.444-0.585c0.471-0.749,0.753-1.629,0.753-2.577V9.974
	c0-0.919-0.269-1.77-0.714-2.504c-0.125-0.206-0.268-0.396-0.42-0.58c-0.185-0.223-0.387-0.426-0.607-0.613
	c-0.823-0.695-1.865-1.139-3.018-1.162l-1.1,0.448l-0.832,0.339l-0.697,0.284c-2.69,0-3.788,1.098-3.788,3.788v2.529
	c0,2.689,1.098,3.787,3.788,3.787L45.023,16.33z"/>
</svg>
