<?xml version="1.0" encoding="iso-8859-1"?>
<!-- Generator: Adobe Illustrator 17.0.0, SVG Export Plug-In . SVG Version: 6.00 Build 0)  -->
<!DOCTYPE svg PUBLIC "-//W3C//DTD SVG 1.1//EN" "http://www.w3.org/Graphics/SVG/1.1/DTD/svg11.dtd">
<svg version="1.1" id="Capa_1" xmlns="http://www.w3.org/2000/svg" xmlns:xlink="http://www.w3.org/1999/xlink" x="0px" y="0px"
	 width="64px" height="64px" viewBox="0 0 64 64" style="enable-background:new 0 0 64 64;" xml:space="preserve">
<g>
	<path d="M62.593,4.908c-0.111,0.331-0.273,0.67-0.5,0.997c-0.794,1.145-1.989,1.69-2.669,1.219
		c-0.419-0.291-0.543-0.901-0.391-1.594c-0.693,0.151-1.303,0.028-1.594-0.391c-0.472-0.68,0.074-1.875,1.219-2.669
		c0.327-0.227,0.667-0.39,0.997-0.5l-0.182-0.182l-3.036-0.15l-1.134,1.134c0.023,1.383-0.628,2.953-1.885,4.21
		c-1.257,1.257-2.827,1.908-4.21,1.885l-0.076,0.076c0.756,0.951,0.605,2.487-0.315,3.779l-11.892,11.73
		c-0.785,0.512-3.618,2.142-4.264-0.517c-0.752-3.093-0.307-5.071,0.529-6.13c0.836-1.059,1.198,0.92,1.198,0.92
		s2.982-8.945,8.025-10.7c0,0-1.142-1.533-5.796,0.892c0,0-2.814,4.542-7.551,6.492c0,0,0.139,5.879-3.567,8.972
		c0,0,3.427-1.198,3.622,0.112c0.195,1.31-4.319,0.808-5.127,2.341c0,0,2.786-0.669,2.062,0.947
		c-0.724,1.616-3.762-0.697-5.238,1.728c0,0,2.536-0.752,2.48,0.697c-0.056,1.449-6.158,0.251-12.093,1.226
		c0,0-1.198,3.595-2.591,2.591c-1.393-1.003,0.585-1.867,0.585-1.867s-1.393-0.056-2.564,1.17c0,0-8.122,17.485-3.65,24.883
		c0,0-1.212-4.389,1.964-9.488c3.177-5.099,3.845-5.601,4.389-3.218c0,0,1.63-4.305,6.562-4.807
		c4.908-0.499,0.712,7.112,0.671,7.186l-0.003,0.003c0,0,0.002-0.001,0.002-0.001l-0.001,0.002l0.003-0.003
		c0.074-0.041,7.685-4.237,7.186,0.671c-0.502,4.932-4.807,6.562-4.807,6.562c2.382,0.543,1.881,1.212-3.218,4.389
		c-5.099,3.177-9.488,1.964-9.488,1.964c7.398,4.472,24.883-3.65,24.883-3.65c1.226-1.17,1.17-2.564,1.17-2.564
		s-0.864,1.978-1.867,0.585c-1.003-1.393,2.591-2.591,2.591-2.591c0.975-5.935-0.223-12.037,1.226-12.093s0.697,2.48,0.697,2.48
		c2.424-1.477,0.111-4.514,1.728-5.238c1.616-0.724,0.947,2.062,0.947,2.062c1.533-0.808,1.031-5.322,2.341-5.127
		c1.31,0.195,0.111,3.622,0.111,3.622c3.093-3.706,8.972-3.567,8.972-3.567c1.951-4.737,6.492-7.551,6.492-7.551
		c2.424-4.653,0.892-5.796,0.892-5.796c-1.755,5.043-10.7,8.025-10.7,8.025s1.978,0.362,0.92,1.198
		c-1.059,0.836-3.037,1.282-6.13,0.529c-2.327-0.566-1.366-2.81-0.747-3.888l12.031-12.221c1.314-0.93,2.878-1.063,3.821-0.258
		c-0.073-1.418,0.582-3.055,1.884-4.357c1.366-1.366,3.1-2.015,4.563-1.863l0.982-0.982l-0.148-3.006L62.593,4.908z"/>
</g>
</svg>
