<?xml version="1.0" encoding="iso-8859-1"?>
<!-- Generator: Adobe Illustrator 17.0.0, SVG Export Plug-In . SVG Version: 6.00 Build 0)  -->
<!DOCTYPE svg PUBLIC "-//W3C//DTD SVG 1.1//EN" "http://www.w3.org/Graphics/SVG/1.1/DTD/svg11.dtd">
<svg version="1.1" id="Capa_1" xmlns="http://www.w3.org/2000/svg" xmlns:xlink="http://www.w3.org/1999/xlink" x="0px" y="0px"
	 width="64px" height="64px" viewBox="0 0 64 64" style="enable-background:new 0 0 64 64;" xml:space="preserve">
<path d="M20.833,61.833h22.333c2.761,0,5-2.239,5-5V7.167c0-2.761-2.239-5-5-5H20.833c-2.761,0-5,2.239-5,5v49.667
	C15.833,59.595,18.072,61.833,20.833,61.833z M34.992,57.477c-0.979,1.559-3.037,2.029-4.596,1.05
	c-1.559-0.979-2.029-3.037-1.05-4.596c0.979-1.559,0.062,0.826,1.621,1.806C32.527,56.715,35.971,55.917,34.992,57.477z
	 M18.5,10.833h27v39.583h-27V10.833z"/>
<path d="M30.842,17.209c-1.13-0.192-2.054,0.64-2.054,1.786v11.841c-0.669-0.245-1.388-0.386-2.141-0.386
	c-3.441,0-6.23,2.789-6.23,6.23c0,3.441,2.789,6.23,6.23,6.23c2.52,0,4.69-1.497,5.67-3.651c0.475-1.043,0.544-2.924,0.547-4.07
	c0.012-3.664,0.012-10.895,0.012-10.895c8.049,0,7.565,4.823,6.624,7.593c-0.369,1.085-0.15,1.266,0.625,0.422
	C49.948,21.61,36.273,18.133,30.842,17.209z"/>
</svg>
