<?xml version="1.0" encoding="iso-8859-1"?>
<!-- Generator: Adobe Illustrator 17.0.0, SVG Export Plug-In . SVG Version: 6.00 Build 0)  -->
<!DOCTYPE svg PUBLIC "-//W3C//DTD SVG 1.1//EN" "http://www.w3.org/Graphics/SVG/1.1/DTD/svg11.dtd">
<svg version="1.1" id="Capa_1" xmlns="http://www.w3.org/2000/svg" xmlns:xlink="http://www.w3.org/1999/xlink" x="0px" y="0px"
	 width="64px" height="64px" viewBox="0 0 64 64" style="enable-background:new 0 0 64 64;" xml:space="preserve">
<path d="M17.501,7.29v49.42c0,2.165,1.754,3.92,3.92,3.92H47.04c2.166,0,3.92-1.755,3.92-3.92V7.29c0-2.165-1.754-3.92-3.92-3.92
	H21.421C19.255,3.37,17.501,5.125,17.501,7.29z M47.95,15.97V52.65H20.511V15.97H47.95z"/>
<path d="M45.278,45.979v0.467l-1.349-0.773c-0.256-0.146-0.463-0.026-0.463,0.267v0.596c-0.007-0.004-0.014-0.009-0.022-0.014
	l-1.483-0.85c-0.255-0.146-0.463-0.026-0.463,0.267v1.695c0,0.295,0.208,0.414,0.463,0.268l1.483-0.85
	c0.008-0.005,0.015-0.01,0.022-0.014v0.596c0,0.295,0.207,0.414,0.463,0.268l1.349-0.773v0.467c0,0.294,0.162,0.533,0.361,0.533
	c0.199,0,0.361-0.239,0.361-0.533v-1.617c0-0.295-0.162-0.533-0.361-0.533C45.44,45.446,45.278,45.685,45.278,45.979z"/>
<path d="M23.382,45.446c-0.2,0-0.361,0.238-0.361,0.533v1.617c0,0.294,0.161,0.533,0.361,0.533c0.199,0,0.36-0.239,0.36-0.533V47.13
	l1.35,0.773c0.255,0.146,0.463,0.027,0.463-0.268V47.04c0.007,0.004,0.014,0.009,0.021,0.014l1.483,0.85
	c0.256,0.146,0.463,0.027,0.463-0.268V45.94c0-0.294-0.207-0.414-0.463-0.267l-1.483,0.85c-0.007,0.005-0.014,0.01-0.021,0.014
	V45.94c0-0.294-0.208-0.414-0.463-0.267l-1.35,0.773v-0.467C23.742,45.685,23.581,45.446,23.382,45.446z"/>
<path d="M33.435,45.539c-0.38-0.217-0.688-0.04-0.688,0.398v2.521c0,0.439,0.308,0.617,0.688,0.398l2.206-1.264
	c0.379-0.218,0.379-0.571,0-0.789L33.435,45.539z"/>
<path d="M23.02,51.95c0.413,0,0.771-0.227,0.964-0.561h22.017c0.309,0,0.559-0.25,0.559-0.559c0-0.31-0.25-0.561-0.559-0.561H23.984
	c-0.193-0.333-0.551-0.56-0.964-0.56c-0.619,0-1.12,0.502-1.12,1.12C21.9,51.448,22.401,51.95,23.02,51.95z"/>
<path d="M45.721,19.05H22.74V42.57h22.98V19.05z M37.977,25.99v5.387c0,0.034-0.004,0.068-0.01,0.101
	c-0.013,0.76-0.668,1.471-1.597,1.668c-1.05,0.223-2.05-0.297-2.232-1.16c-0.184-0.864,0.519-1.746,1.568-1.969
	c0.384-0.081,0.759-0.062,1.092,0.034v-3.335l-3.735,0.788v4.908c0,0.035-0.004,0.068-0.01,0.102
	c-0.013,0.759-0.668,1.471-1.597,1.668c-1.05,0.223-2.05-0.297-2.232-1.161c-0.184-0.864,0.519-1.745,1.568-1.968
	c0.383-0.082,0.76-0.064,1.092,0.034v-4.062c0-0.278,0.195-0.519,0.468-0.576l4.914-1.037h0.001
	c0.019-0.004,0.038-0.004,0.058-0.006c0.021-0.003,0.042-0.007,0.062-0.007c0,0,0,0,0.001,0c0.008,0,0.016,0.002,0.024,0.003
	c0.031,0.001,0.062,0.003,0.091,0.009c0.019,0.004,0.036,0.011,0.054,0.016c0.019,0.006,0.037,0.011,0.056,0.018
	c0.019,0.008,0.037,0.02,0.057,0.03c0.015,0.007,0.03,0.014,0.043,0.023c0.017,0.011,0.032,0.024,0.048,0.037
	c0.014,0.012,0.028,0.021,0.041,0.034c0.013,0.014,0.024,0.028,0.036,0.043c0.013,0.015,0.026,0.028,0.036,0.044
	c0.013,0.019,0.022,0.038,0.033,0.058c0.007,0.015,0.016,0.027,0.022,0.042c0.013,0.03,0.022,0.062,0.03,0.095
	c0.001,0.006,0.004,0.011,0.005,0.017c0,0,0,0,0,0.001c0.005,0.021,0.005,0.042,0.007,0.063c0.002,0.019,0.006,0.038,0.006,0.056
	C37.977,25.989,37.977,25.989,37.977,25.99z"/>
</svg>
