<?xml version="1.0" encoding="iso-8859-1"?>
<!-- Generator: Adobe Illustrator 17.0.0, SVG Export Plug-In . SVG Version: 6.00 Build 0)  -->
<!DOCTYPE svg PUBLIC "-//W3C//DTD SVG 1.1//EN" "http://www.w3.org/Graphics/SVG/1.1/DTD/svg11.dtd">
<svg version="1.1" id="Capa_1" xmlns="http://www.w3.org/2000/svg" xmlns:xlink="http://www.w3.org/1999/xlink" x="0px" y="0px"
	 width="64px" height="64px" viewBox="0 0 64 64" style="enable-background:new 0 0 64 64;" xml:space="preserve">
<g>
	<path d="M9.625,20.5h15.5c0.567,0,1.395-0.485,1.697-1.019l3.161-5.231H9.625c-4.418,0-8,3.582-8,8v2.647
		C3.315,22.258,6.265,20.5,9.625,20.5z"/>
	<path d="M54.375,11h-18.75c-1.105,0-2.439,0.78-2.981,1.743l-0.91,1.507l-3.629,6.007C27.564,21.22,26.23,22,25.125,22h-15.5
		c-4.418,0-8,3.582-8,8v14.75v1.75c0,4.418,3.582,8,8,8h44.75c4.418,0,8-3.582,8-8v-1.75v-22.5V19
		C62.375,14.582,58.793,11,54.375,11z M22.367,29.371c0-1.68,1.362-3.042,3.042-3.042h13.182c1.68,0,3.042,1.362,3.042,3.042v18.758
		c0,1.68-1.362,3.042-3.042,3.042H25.409c-1.68,0-3.042-1.362-3.042-3.042V29.371z"/>
	<path d="M26.121,37.028h11.758c1.06,0,1.92-0.859,1.92-1.92V29.59c0-1.06-0.859-1.92-1.92-1.92H26.121
		c-1.06,0-1.92,0.859-1.92,1.92v5.519C24.202,36.169,25.061,37.028,26.121,37.028z"/>
	<path d="M32,38.37c-3.255,0-5.894,2.639-5.894,5.894s2.639,5.894,5.894,5.894s5.894-2.639,5.894-5.894S35.255,38.37,32,38.37z
		 M32,46.657c-1.32,0-2.394-1.074-2.394-2.394S30.68,41.87,32,41.87s2.394,1.074,2.394,2.394S33.32,46.657,32,46.657z"/>
</g>
</svg>
