<?xml version="1.0" encoding="iso-8859-1"?>
<!-- Generator: Adobe Illustrator 17.0.0, SVG Export Plug-In . SVG Version: 6.00 Build 0)  -->
<!DOCTYPE svg PUBLIC "-//W3C//DTD SVG 1.1//EN" "http://www.w3.org/Graphics/SVG/1.1/DTD/svg11.dtd">
<svg version="1.1" id="Capa_1" xmlns="http://www.w3.org/2000/svg" xmlns:xlink="http://www.w3.org/1999/xlink" x="0px" y="0px"
	 width="64px" height="64px" viewBox="0 0 64 64" style="enable-background:new 0 0 64 64;" xml:space="preserve">
<path d="M48.446,54.157V9.843c0-2.997-2.428-5.426-5.426-5.426H21.009c-2.998,0-5.426,2.429-5.426,5.426v44.314
	c0,2.997,2.428,5.426,5.426,5.426H43.02C46.019,59.583,48.446,57.154,48.446,54.157z M32.015,55.518c-4.695,0-8.5-3.806-8.5-8.5
	c0-4.694,3.805-8.5,8.5-8.5c4.693,0,8.5,3.806,8.5,8.5C40.515,51.712,36.708,55.518,32.015,55.518z M23.03,34.397
	c-3,0-3.432-1.433-3.432-4.433V13.526c0-3,0.432-4.433,3.432-4.433h17.969c3.002,0,3.434,1.433,3.434,4.433v16.438
	c0,3-0.432,4.433-3.434,4.433H23.03z"/>
<circle cx="32.091" cy="46.631" r="3"/>
<path d="M37.27,45.901v0.347l-1.006-0.577c-0.219-0.126-0.398-0.022-0.398,0.231v1.459c0,0.254,0.18,0.356,0.398,0.23l1.006-0.577
	v0.347c0,0.254,0.18,0.356,0.398,0.23l1.162-0.667v0.403c0,0.253,0.139,0.458,0.311,0.458c0.172,0,0.31-0.205,0.31-0.458v-1.392
	c0-0.253-0.139-0.459-0.31-0.459c-0.172,0-0.311,0.206-0.311,0.459v0.401l-1.162-0.666C37.45,45.545,37.27,45.648,37.27,45.901z"/>
<path d="M27.765,45.671l-1.006,0.577v-0.347c0-0.253-0.18-0.357-0.398-0.231l-1.162,0.666v-0.401c0-0.253-0.139-0.459-0.31-0.459
	s-0.311,0.206-0.311,0.459v1.392c0,0.253,0.139,0.458,0.311,0.458s0.31-0.205,0.31-0.458v-0.403l1.162,0.667
	c0.219,0.126,0.398,0.023,0.398-0.23v-0.347l1.006,0.577c0.219,0.126,0.399,0.023,0.399-0.23v-1.459
	C28.163,45.648,27.983,45.545,27.765,45.671z"/>
<path d="M31.852,51.938l-1.232-0.706c-0.211-0.122-0.385-0.022-0.385,0.222v1.41c0,0.245,0.174,0.345,0.385,0.223l1.232-0.707
	C32.065,52.259,32.065,52.061,31.852,51.938z"/>
<path d="M32.577,51.044c-0.166,0-0.301,0.198-0.301,0.443v1.345c0,0.245,0.135,0.442,0.301,0.442c0.166,0,0.301-0.197,0.301-0.442
	v-1.345C32.878,51.242,32.743,51.044,32.577,51.044z"/>
<path d="M33.524,51.044c-0.166,0-0.301,0.198-0.301,0.443v1.345c0,0.245,0.135,0.442,0.301,0.442c0.166,0,0.301-0.197,0.301-0.442
	v-1.345C33.825,51.242,33.69,51.044,33.524,51.044z"/>
<path d="M29.269,42.388c0.045,0,0.082-0.015,0.107-0.045c0.027-0.03,0.041-0.075,0.041-0.136v-1.086l0.252,1.003
	c0.008,0.032,0.018,0.064,0.025,0.095c0.008,0.03,0.02,0.058,0.033,0.083c0.016,0.024,0.035,0.046,0.061,0.062
	c0.025,0.016,0.057,0.023,0.094,0.023c0.051,0,0.088-0.013,0.117-0.037c0.027-0.025,0.047-0.053,0.057-0.084
	c0.01-0.03,0.023-0.078,0.041-0.143l0.252-1.003v1.086c0,0.061,0.014,0.105,0.041,0.136c0.025,0.03,0.061,0.045,0.104,0.045
	c0.045,0,0.08-0.015,0.107-0.045c0.027-0.03,0.041-0.075,0.041-0.136v-1.244c0-0.068-0.02-0.115-0.055-0.14
	c-0.035-0.023-0.084-0.036-0.145-0.036h-0.1c-0.059,0-0.102,0.006-0.129,0.017c-0.025,0.011-0.047,0.03-0.059,0.058
	c-0.014,0.028-0.027,0.074-0.045,0.137l-0.229,0.861l-0.229-0.861c-0.016-0.062-0.031-0.108-0.043-0.137
	c-0.014-0.027-0.033-0.047-0.061-0.058c-0.025-0.011-0.07-0.017-0.129-0.017h-0.098c-0.062,0-0.109,0.013-0.146,0.036
	c-0.035,0.024-0.053,0.071-0.053,0.14v1.244c0,0.062,0.014,0.106,0.041,0.136C29.192,42.373,29.227,42.388,29.269,42.388z"/>
<path d="M31.163,42.361h0.867c0.051,0,0.088-0.013,0.113-0.035c0.025-0.023,0.037-0.054,0.037-0.091
	c0-0.038-0.012-0.069-0.037-0.093c-0.025-0.024-0.062-0.035-0.113-0.035h-0.742V41.66h0.66c0.049,0,0.086-0.012,0.109-0.034
	c0.023-0.022,0.035-0.052,0.035-0.088c0-0.035-0.012-0.063-0.035-0.086c-0.023-0.021-0.061-0.032-0.109-0.032h-0.66v-0.387h0.717
	c0.051,0,0.088-0.011,0.113-0.033c0.025-0.023,0.037-0.053,0.037-0.09c0-0.037-0.012-0.066-0.037-0.089
	c-0.025-0.022-0.062-0.034-0.113-0.034h-0.842c-0.043,0-0.082,0.007-0.109,0.02c-0.029,0.013-0.051,0.034-0.064,0.064
	c-0.014,0.029-0.022,0.066-0.022,0.111v1.184c0,0.068,0.016,0.118,0.047,0.148C31.044,42.346,31.095,42.361,31.163,42.361z"/>
<path d="M32.589,42.388c0.043,0,0.078-0.016,0.107-0.046c0.027-0.031,0.041-0.076,0.041-0.137v-0.922l0.598,0.917
	c0.017,0.025,0.035,0.049,0.053,0.073c0.016,0.025,0.035,0.045,0.055,0.062c0.02,0.019,0.041,0.031,0.064,0.039
	c0.023,0.008,0.049,0.013,0.078,0.013c0.113,0,0.17-0.069,0.17-0.207v-1.237c0-0.062-0.014-0.107-0.039-0.137
	c-0.027-0.031-0.062-0.046-0.109-0.046c-0.043,0-0.078,0.015-0.105,0.046c-0.025,0.03-0.039,0.075-0.039,0.137v0.935l-0.611-0.928
	c-0.018-0.026-0.035-0.053-0.051-0.078c-0.016-0.024-0.031-0.045-0.047-0.061c-0.016-0.016-0.033-0.028-0.055-0.037
	c-0.02-0.01-0.043-0.015-0.072-0.015c-0.037,0-0.07,0.011-0.104,0.03c-0.031,0.021-0.053,0.047-0.066,0.079
	c-0.012,0.029-0.018,0.07-0.018,0.121v1.214c0,0.059,0.014,0.105,0.041,0.136C32.507,42.372,32.542,42.388,32.589,42.388z"/>
<path d="M35.269,40.761c-0.047,0-0.086,0.016-0.115,0.048c-0.027,0.032-0.043,0.08-0.043,0.146v0.78
	c0,0.134-0.025,0.234-0.076,0.301c-0.051,0.066-0.139,0.1-0.264,0.1c-0.09,0-0.162-0.017-0.211-0.05
	c-0.051-0.032-0.086-0.078-0.105-0.137s-0.029-0.133-0.029-0.221v-0.773c0-0.065-0.014-0.113-0.043-0.145
	c-0.029-0.032-0.068-0.049-0.117-0.049c-0.047,0-0.086,0.017-0.115,0.049c-0.027,0.031-0.043,0.08-0.043,0.145v0.757
	c0,0.118,0.014,0.221,0.039,0.306c0.025,0.086,0.066,0.156,0.121,0.211c0.055,0.055,0.125,0.095,0.213,0.121
	c0.088,0.025,0.191,0.039,0.313,0.039c0.102,0,0.191-0.012,0.266-0.036c0.076-0.025,0.143-0.063,0.201-0.116
	c0.066-0.062,0.111-0.135,0.135-0.217c0.023-0.082,0.037-0.186,0.037-0.308v-0.757c0-0.065-0.016-0.113-0.045-0.146
	C35.356,40.776,35.317,40.761,35.269,40.761z"/>
</svg>
