<?xml version="1.0" encoding="iso-8859-1"?>
<!-- Generator: Adobe Illustrator 17.0.0, SVG Export Plug-In . SVG Version: 6.00 Build 0)  -->
<!DOCTYPE svg PUBLIC "-//W3C//DTD SVG 1.1//EN" "http://www.w3.org/Graphics/SVG/1.1/DTD/svg11.dtd">
<svg version="1.1" id="Capa_1" xmlns="http://www.w3.org/2000/svg" xmlns:xlink="http://www.w3.org/1999/xlink" x="0px" y="0px"
	 width="64px" height="64px" viewBox="0 0 64 64" style="enable-background:new 0 0 64 64;" xml:space="preserve">
<path d="M14.178,61.5h36.145c3.187,0,5.771-2.584,5.771-5.771V7.396c0-3.187-2.584-5.771-5.771-5.771H14.178
	c-3.187,0-5.771,2.584-5.771,5.771v48.333C8.407,58.916,10.99,61.5,14.178,61.5z M32,57.625c-7.525,0-13.625-6.1-13.625-13.625
	c0-7.525,6.1-13.625,13.625-13.625S45.625,36.475,45.625,44C45.625,51.525,39.525,57.625,32,57.625z M13.25,5.688h37.5V26h-37.5
	V5.688z"/>
<circle cx="32" cy="44" r="6.679"/>
<path d="M38.896,14.854L26.122,7.583c-0.96-0.546-1.738-0.094-1.738,1.011v14.5c0,1.105,0.778,1.557,1.738,1.011l12.774-7.271
	C39.856,16.287,39.856,15.401,38.896,14.854z"/>
</svg>
