<?xml version="1.0" encoding="iso-8859-1"?>
<!-- Generator: Adobe Illustrator 17.0.0, SVG Export Plug-In . SVG Version: 6.00 Build 0)  -->
<!DOCTYPE svg PUBLIC "-//W3C//DTD SVG 1.1//EN" "http://www.w3.org/Graphics/SVG/1.1/DTD/svg11.dtd">
<svg version="1.1" id="Capa_1" xmlns="http://www.w3.org/2000/svg" xmlns:xlink="http://www.w3.org/1999/xlink" x="0px" y="0px"
	 width="64px" height="64px" viewBox="0 0 64 64" style="enable-background:new 0 0 64 64;" xml:space="preserve">
<g>
	<path d="M39.343,17.788c0.029,0.025,0.083,0.123,0.225,0.265l6.533,6.532c0.127,0.127,0.219,0.183,0.271,0.208
		c0.02-0.054,0.045-0.158,0.045-0.338v-5.563c0-0.637-0.519-1.154-1.155-1.154h-5.563C39.497,17.736,39.392,17.768,39.343,17.788z"
		/>
	<path d="M17.86,60.461c0.305,0.985,1.213,1.706,2.298,1.706h1.925c1.071,0,1.969-0.702,2.286-1.667h15.503
		c0.317,0.965,1.215,1.667,2.286,1.667h1.925c1.095,0,2.009-0.733,2.306-1.731c2.456-0.317,4.361-2.393,4.361-4.936v-49
		c0-2.761-2.239-5-5-5h-27.5c-2.761,0-5,2.239-5,5v49C13.25,58.128,15.284,60.258,17.86,60.461z M47.417,18.891v5.563
		c0,1.001-0.536,1.356-0.995,1.356c-0.339,0-0.685-0.174-1.028-0.519L38.86,18.76c-0.627-0.628-0.552-1.129-0.45-1.373
		c0.101-0.243,0.401-0.651,1.288-0.651h5.563C46.45,16.736,47.417,17.703,47.417,18.891z M23.875,12.75V12.5V5.25V5V4.75h16.25V5
		v0.25v7.25v0.25V13h-16.25V12.75z M16.583,18.891c0-1.188,0.967-2.154,2.155-2.154h5.563c0.887,0,1.188,0.408,1.288,0.651
		c0.102,0.243,0.177,0.745-0.45,1.373l-6.533,6.532c-0.344,0.344-0.689,0.519-1.028,0.519c-0.459,0-0.995-0.355-0.995-1.356V18.891z
		 M32,22.515c9.297,0,16.833,7.537,16.833,16.833c0,9.297-7.536,16.833-16.833,16.833s-16.833-7.537-16.833-16.833
		C15.167,30.051,22.703,22.515,32,22.515z"/>
	<polygon points="39.594,5.25 24.406,5.25 28.125,7 28.125,10.75 24.406,12.5 39.594,12.5 35.875,10.75 35.875,7 	"/>
	<path d="M17.899,24.585l6.533-6.532c0.142-0.142,0.195-0.24,0.214-0.288c-0.024,0.003-0.146-0.028-0.345-0.028h-5.563
		c-0.637,0-1.155,0.518-1.155,1.154v5.563c0,0.18,0.025,0.284,0.045,0.338C17.681,24.768,17.772,24.712,17.899,24.585z"/>
	<path d="M32,54.181c8.179,0,14.833-6.654,14.833-14.833S40.179,24.515,32,24.515s-14.833,6.654-14.833,14.833
		S23.821,54.181,32,54.181z M32,25.914c7.408,0,13.435,6.026,13.435,13.434S39.408,52.782,32,52.782s-13.435-6.027-13.435-13.435
		S24.592,25.914,32,25.914z"/>
	<path d="M32,51.782c6.856,0,12.435-5.578,12.435-12.435c0-6.856-5.578-12.434-12.435-12.434s-12.435,5.578-12.435,12.434
		C19.565,46.204,25.144,51.782,32,51.782z M32,33.997c2.95,0,5.351,2.4,5.351,5.351c0,2.951-2.4,5.351-5.351,5.351
		s-5.351-2.4-5.351-5.351C26.649,36.397,29.05,33.997,32,33.997z"/>
	<path d="M32,42.699c1.848,0,3.351-1.503,3.351-3.351S33.848,35.997,32,35.997s-3.351,1.503-3.351,3.351S30.152,42.699,32,42.699z"
		/>
</g>
</svg>
