<?xml version="1.0" encoding="iso-8859-1"?>
<!-- Generator: Adobe Illustrator 17.0.0, SVG Export Plug-In . SVG Version: 6.00 Build 0)  -->
<!DOCTYPE svg PUBLIC "-//W3C//DTD SVG 1.1//EN" "http://www.w3.org/Graphics/SVG/1.1/DTD/svg11.dtd">
<svg version="1.1" id="Capa_1" xmlns="http://www.w3.org/2000/svg" xmlns:xlink="http://www.w3.org/1999/xlink" x="0px" y="0px"
	 width="64px" height="64px" viewBox="0 0 64 64" style="enable-background:new 0 0 64 64;" xml:space="preserve">
<g>
	<path d="M9.625,20.25h15.5c0.567,0,1.395-0.485,1.697-1.019L29.982,14H9.625c-4.418,0-8,3.582-8,8v2.647
		C3.315,22.008,6.265,20.25,9.625,20.25z"/>
	<path d="M54.375,10.75h-18.75c-1.105,0-2.439,0.78-2.981,1.743L31.734,14l-3.629,6.007c-0.542,0.963-1.876,1.743-2.981,1.743h-15.5
		c-4.418,0-8,3.582-8,8V44.5v1.75c0,4.418,3.582,8,8,8h44.75c4.418,0,8-3.582,8-8V44.5V22v-3.25
		C62.375,14.332,58.793,10.75,54.375,10.75z M26.009,25.92c2.324,0,4.429,0.916,5.991,2.399c1.562-1.483,3.667-2.399,5.991-2.399
		c4.809,0,8.708,3.899,8.708,8.708c0,0.283-0.015,0.564-0.043,0.844c-0.048,0.498-0.145,0.98-0.273,1.449
		c-0.021,0.08-0.038,0.16-0.062,0.239c-0.019,0.061-0.04,0.121-0.06,0.182C43.837,45.108,32,51.181,32,51.181
		s-11.837-6.073-14.262-13.837c-0.02-0.061-0.042-0.12-0.06-0.182c-0.023-0.079-0.04-0.16-0.062-0.239
		c-0.128-0.47-0.225-0.952-0.273-1.449c-0.028-0.28-0.043-0.561-0.043-0.844C17.301,29.819,21.2,25.92,26.009,25.92z"/>
	<path d="M30.007,46.585c1.574,0,2.929-0.935,3.541-2.28c0.297-0.651,0.339-1.826,0.342-2.542c0.008-2.288,0.008-6.805,0.008-6.805
		c5.028,0,4.725,3.013,4.137,4.742c-0.23,0.678-0.094,0.791,0.391,0.264c6.135-6.682-2.406-8.854-5.799-9.431
		c-0.706-0.12-1.283,0.4-1.283,1.115v7.396c-0.418-0.153-0.867-0.241-1.338-0.241c-2.149,0-3.891,1.742-3.891,3.891
		C26.116,44.843,27.858,46.585,30.007,46.585z"/>
</g>
</svg>
