<?xml version="1.0" encoding="iso-8859-1"?>
<!-- Generator: Adobe Illustrator 17.0.0, SVG Export Plug-In . SVG Version: 6.00 Build 0)  -->
<!DOCTYPE svg PUBLIC "-//W3C//DTD SVG 1.1//EN" "http://www.w3.org/Graphics/SVG/1.1/DTD/svg11.dtd">
<svg version="1.1" id="Capa_1" xmlns="http://www.w3.org/2000/svg" xmlns:xlink="http://www.w3.org/1999/xlink" x="0px" y="0px"
	 width="64px" height="64px" viewBox="0 0 64 64" style="enable-background:new 0 0 64 64;" xml:space="preserve">
<g>
	<path d="M17.156,56.501c1.351,0.487,2.841-0.213,3.326-1.564l5.428-13.972l-0.991,9.068l14.161-0.002l-0.99-9.068l5.426,13.974
		c0.488,1.352,1.977,2.052,3.329,1.564c1.349-0.488,2.051-1.975,1.565-3.326l-8.64-23.596c-0.077-0.22-0.193-0.414-0.324-0.596
		c-0.003-0.006-0.007-0.009-0.01-0.016c-0.051-0.069-0.098-0.144-0.154-0.208h-0.026c-0.276-0.311-0.616-0.533-1.003-0.632
		l0.011-0.059H38.11h-0.307h-0.149H26.349h-0.151h-0.306h-0.152l0.01,0.059c-0.388,0.099-0.728,0.321-1.005,0.632h-0.027
		c-0.055,0.065-0.102,0.14-0.151,0.208c-0.004,0.005-0.007,0.01-0.011,0.016c-0.129,0.182-0.245,0.376-0.323,0.596l-8.64,23.596
		C15.105,54.525,15.807,56.015,17.156,56.501z"/>
	<path d="M23.871,17.282c-0.237,0.321-0.476,0.642-0.469,0.619c-0.692,0.771-0.713,1.248-0.792,2.197c0,0,0,2.112,0.848,2.512
		c0.096,0.2,0.207,0.401,0.337,0.601c0.208,0.319,0.748,0.683,1.159,0.847c0.411,0.164,0.744,0.296,0.744,0.296
		c0.179,0.061,0.276-0.02,0.276-0.02l0.001-1.894c0.954,2.316,3.181,3.976,5.812,4.111v0.018c0.061,0,0.115-0.009,0.174-0.009
		s0.113,0.009,0.174,0.009v-0.018c2.631-0.136,4.855-1.793,5.81-4.108l0.001,1.892c0,0,0.099,0.08,0.276,0.02
		c0,0,0.333-0.132,0.744-0.296c0.411-0.164,0.951-0.527,1.159-0.847c0.13-0.199,0.241-0.4,0.337-0.601
		c0.848-0.399,0.848-2.512,0.848-2.512c-0.079-0.949-0.1-1.426-0.792-2.197c0.007,0.022-0.231-0.298-0.469-0.619
		c-0.212-0.287-0.585-0.608-0.906-0.79c0.023-0.175,0.061-0.494,0.083-0.895l0.008-0.141l-0.215-0.058
		c-0.023-0.346-0.06-0.648-0.112-0.922l-0.022,0.005l0.022-0.006c-0.007-0.035-0.016-0.071-0.025-0.105L38.865,14.3
		c-0.036-0.169-0.076-0.338-0.123-0.505c-0.016-0.056-0.034-0.111-0.053-0.166l-0.028-0.084c-0.045-0.137-0.089-0.272-0.141-0.405
		c-0.028-0.072-0.059-0.143-0.089-0.214l-0.02-0.045c-0.054-0.125-0.108-0.249-0.169-0.37c-0.041-0.084-0.085-0.168-0.13-0.251
		c-0.063-0.117-0.13-0.233-0.2-0.348c-0.048-0.079-0.096-0.157-0.146-0.234c-0.076-0.114-0.157-0.227-0.238-0.337l-0.042-0.055
		c-0.037-0.051-0.074-0.101-0.113-0.149c-0.095-0.121-0.196-0.235-0.3-0.349l-0.05-0.058c-0.028-0.032-0.057-0.066-0.086-0.096
		c-0.164-0.17-0.319-0.319-0.477-0.457c-0.014-0.012-0.027-0.022-0.062-0.05c-0.154-0.132-0.308-0.253-0.458-0.361
		c-0.04-0.029-0.081-0.056-0.122-0.082l-0.062-0.041c-0.121-0.083-0.242-0.162-0.369-0.237c-0.061-0.035-0.123-0.069-0.185-0.103
		l-0.039-0.021c-0.119-0.064-0.239-0.127-0.362-0.184c-0.081-0.038-0.163-0.073-0.246-0.108c-0.123-0.053-0.248-0.101-0.374-0.146
		c-0.085-0.03-0.169-0.059-0.256-0.085c-0.13-0.041-0.264-0.075-0.398-0.108L33.477,8.64c-0.067-0.017-0.134-0.033-0.202-0.048
		c-0.148-0.03-0.3-0.052-0.452-0.072L32.74,8.508c-0.046-0.008-0.092-0.015-0.138-0.019c-0.493-0.05-0.895-0.05-1.383,0.001
		c-0.052,0.005-0.101,0.013-0.152,0.021l-0.083,0.012c-0.146,0.022-0.292,0.042-0.436,0.07c-0.075,0.016-0.149,0.034-0.223,0.053
		l-0.084,0.022c-0.112,0.028-0.224,0.057-0.334,0.091c-0.114,0.035-0.227,0.075-0.34,0.116c-0.086,0.032-0.173,0.063-0.258,0.099
		c-0.134,0.056-0.267,0.115-0.398,0.179c-0.047,0.023-0.095,0.047-0.141,0.071c-2.307,1.182-3.842,3.548-4.029,6.195l-0.149,0.04
		l0.008,0.141c0.025,0.442,0.068,0.786,0.091,0.945C24.392,16.73,24.064,17.021,23.871,17.282z M31.875,9.513
		c3.386,0,6.067,2.871,6.306,6.63c-0.085,0.006-0.189,0.02-0.24,0.062l0.001,1.173c-0.956-2.311-3.179-3.963-5.807-4.098v-0.018
		c-0.061,0-0.115,0.008-0.174,0.009c-0.059-0.001-0.113-0.009-0.174-0.009v0.018c-2.629,0.135-4.852,1.787-5.809,4.1l0.001-1.175
		c-0.078-0.062-0.269-0.065-0.345-0.064l-0.005-0.06C25.892,12.275,28.518,9.513,31.875,9.513z"/>
</g>
</svg>
