<?xml version="1.0" encoding="iso-8859-1"?>
<!-- Generator: Adobe Illustrator 17.0.0, SVG Export Plug-In . SVG Version: 6.00 Build 0)  -->
<!DOCTYPE svg PUBLIC "-//W3C//DTD SVG 1.1//EN" "http://www.w3.org/Graphics/SVG/1.1/DTD/svg11.dtd">
<svg version="1.1" id="Capa_1" xmlns="http://www.w3.org/2000/svg" xmlns:xlink="http://www.w3.org/1999/xlink" x="0px" y="0px"
	 width="64px" height="64px" viewBox="0 0 64 64" style="enable-background:new 0 0 64 64;" xml:space="preserve">
<path d="M51.922,42.565c-0.358,0.696-0.897,1.259-1.604,1.589c-2.038,0.952-4.663-0.361-5.864-2.932
	c-1.201-2.571-0.523-5.427,1.515-6.379c0.937-0.438,1.998-0.392,2.988,0.031c-1.683-6.598-8.07-7.727-10.607-7.914l7.022,30.645
	C52.568,53.91,53.014,47.574,51.922,42.565z"/>
<path d="M32.721,5.856l0.688-0.156c0.269-0.062,0.438-0.329,0.377-0.599c-0.061-0.269-0.326-0.438-0.599-0.377L32.497,4.88
	l-0.128-0.557l0.808-0.184c0.269-0.062,0.438-0.329,0.377-0.599c-0.061-0.269-0.325-0.436-0.599-0.377l-0.81,0.184l-0.37-1.612
	c-0.126-0.548-0.672-0.891-1.22-0.765c-0.548,0.126-0.89,0.671-0.765,1.219l0.369,1.608L29.54,3.939
	c-0.269,0.062-0.438,0.329-0.377,0.599c0.053,0.232,0.259,0.389,0.487,0.389c0.037,0,0.074-0.004,0.111-0.012l0.623-0.141
	l0.128,0.557l-0.741,0.168c-0.269,0.062-0.438,0.329-0.377,0.599c0.053,0.232,0.259,0.389,0.487,0.389
	c0.037,0,0.074-0.004,0.111-0.012l0.743-0.168l3.244,14.158l-7.306,4.199l-3.101-1.934c2.094,0.332,4.434-0.579,5.983-2.551
	c2.165-2.758,1.958-6.536-0.463-8.437c-2.421-1.901-6.14-1.206-8.306,1.552c-1.634,2.081-1.916,4.742-0.916,6.74
	c-1.86,1.912-6.501,7.353-7.881,15.257c-0.095,0.541-0.167,1.1-0.22,1.673l-0.086,0.104c0.022,0.018,0.047,0.038,0.07,0.058
	c-0.83,9.552,3.599,22.986,3.8,23.589l3.863-1.287c-0.042-0.124-3.466-10.52-3.689-18.91c2.225,1.958,4.604,4.159,5.645,5.459
	c1.126,1.408,1.454,7.302,1.111,11.957l4.061,0.3c0.139-1.881,0.698-11.438-1.991-14.801c-1.719-2.148-5.983-5.878-8.45-7.974
	c0.704-3.518,2.176-6.471,3.613-8.68l0.873,2.959c0.156,0.53,0.658,1.204,1.121,1.505l7.007,4.566
	c-0.153,1.025-0.111,3.357-0.005,3.989c0.496-0.271,1.043-0.424,1.619-0.424c2.249,0,4.072,2.3,4.072,5.138
	c0,2.838-1.823,5.138-4.072,5.138c-0.222,0-0.438-0.028-0.651-0.071c1.469,4.479,4.836,8.73,12.298,8.86L34.934,27.7
	c-1.586,0.89-4.146,2.691-5.473,5.579l-6.348-4.232l-1.273-4.312l3.929,2.45c0.469,0.292,1.237,0.306,1.716,0.031l7.105-4.083
	l8.73,38.1c0.108,0.472,0.811,1.823,1.275,1.823c0.075,0,0.152-0.009,0.229-0.026c0.548-0.126,0.606-1.704,0.481-2.251L32.721,5.856
	z"/>
</svg>
