<?xml version="1.0" encoding="iso-8859-1"?>
<!-- Generator: Adobe Illustrator 17.0.0, SVG Export Plug-In . SVG Version: 6.00 Build 0)  -->
<!DOCTYPE svg PUBLIC "-//W3C//DTD SVG 1.1//EN" "http://www.w3.org/Graphics/SVG/1.1/DTD/svg11.dtd">
<svg version="1.1" id="Capa_1" xmlns="http://www.w3.org/2000/svg" xmlns:xlink="http://www.w3.org/1999/xlink" x="0px" y="0px"
	 width="64px" height="64px" viewBox="0 0 64 64" style="enable-background:new 0 0 64 64;" xml:space="preserve">
<g>
	<path d="M8.616,24.08c0.905-0.049,1.767,0.602,2.546,0.954c2.505,1.131,4.815-0.039,6.189-2.274c1.38-2.244,2.973-5.16,5.913-5.478
		c2.738-0.296,4.859,2.023,7.181,2.84c-0.012-0.049-0.021-0.097-0.034-0.146c-2.233-8.671-8.577-14.733-14.892-14.733
		c-0.808,0-1.615,0.099-2.413,0.305C6.111,7.349,2.455,16.644,4.883,26.36C5.849,25.15,7.02,24.166,8.616,24.08z"/>
	<path d="M26.344,21.03c-4.279-2.585-6.052,3.423-8.456,5.802c-1.426,1.412-4.077,1.935-5.996,1.546
		c-0.992-0.201-1.836-0.55-2.734-1.008c-1.269-0.647-2.38,1.247-3.112,2.517c2.313,5.597,6.399,9.657,10.805,10.945
		c1.611,1.006,4.398,4.971,4.361,9.056c-0.053,5.883,3.133,11.895,6.113,11.895c0.086,0,0.172-0.005,0.258-0.015l0.01,0.038
		c0.047-0.012,0.087-0.039,0.133-0.054c0.047-0.009,0.095-0.004,0.142-0.016l-0.01-0.038c1.659-0.673,2.332-3.35,2.024-6.507
		c-0.887,0.505-1.771,0.794-2.601,0.794c-0.147,0-0.292-0.009-0.434-0.026l-0.148,0.251l-0.861-0.508
		c-0.041-0.024-0.08-0.05-0.118-0.079c-0.043-0.019-0.085-0.041-0.127-0.065l-0.841-0.542l0.129-0.218
		c-0.464-0.643-0.734-1.488-0.789-2.49c-0.123-2.249,0.828-5.098,2.417-7.686c-0.465-3.216,0.445-6.261,1.127-7.227
		c0.122-0.149,0.235-0.306,0.351-0.462c0.067-0.08,0.114-0.132,0.114-0.132l-0.027,0.009c1.563-2.15,2.588-4.937,2.963-8.046
		c-0.347-1.707-0.439-3.532-0.264-5.411C29.282,23.024,28.039,22.054,26.344,21.03z"/>
	<path d="M33.337,32.269c0.428,1.851-0.405,6.625-3.32,9.488c-0.942,0.925-1.765,1.973-2.464,3.061
		c-0.132,0.205-0.263,0.41-0.385,0.617c-0.123,0.208-0.239,0.418-0.352,0.628c-1.912,3.561-2.384,7.27-0.695,8.6l-0.02,0.034
		c0.042,0.025,0.089,0.034,0.132,0.055c0.04,0.027,0.07,0.064,0.112,0.089l0.02-0.034c0.285,0.121,0.592,0.178,0.915,0.178
		c0.755,0,1.599-0.321,2.458-0.88c0.15-0.098,0.3-0.199,0.451-0.311c0.145-0.108,0.289-0.228,0.434-0.349
		c2.131-1.774,4.212-4.884,5.161-8.283c1.306-4.679,6.007-7.424,7.611-7.699c0.191-0.019,0.383-0.05,0.575-0.078
		c0.104-0.009,0.174-0.013,0.174-0.013L44.12,37.36c4.068-0.642,8.309-3.268,11.58-7.386c-0.955-1.329-1.146-2.961-1.649-4.996
		c-1.198-4.853-6.7-1.859-10.082-1.876c-2.007-0.01-4.251-1.515-5.334-3.147c-0.559-0.843-0.909-1.687-1.22-2.645
		c-0.44-1.355-2.565-0.801-3.98-0.42c-0.483,1.162-0.864,2.33-1.146,3.489c-0.16,0.66-0.294,1.318-0.39,1.969
		c-0.055,0.375-0.097,0.747-0.131,1.117c-0.168,1.841-0.069,3.611,0.28,5.244C32.325,29.993,32.749,31.195,33.337,32.269z"/>
	<path d="M39.36,14.599c0.674,0.605,0.824,1.675,1.126,2.475c0.971,2.571,3.432,3.377,5.984,2.769
		c2.563-0.611,5.751-1.546,8.054,0.308c2.146,1.727,2.006,4.867,3.069,7.085c0.026-0.043,0.054-0.084,0.079-0.127
		c5.135-8.697,4.224-18.743-2.034-22.439c-1.571-0.927-3.33-1.367-5.164-1.367c-5.429,0-11.517,3.85-15.369,10.269
		C36.645,13.399,38.17,13.531,39.36,14.599z"/>
</g>
</svg>
