<?xml version="1.0" encoding="iso-8859-1"?>
<!-- Generator: Adobe Illustrator 17.0.0, SVG Export Plug-In . SVG Version: 6.00 Build 0)  -->
<!DOCTYPE svg PUBLIC "-//W3C//DTD SVG 1.1//EN" "http://www.w3.org/Graphics/SVG/1.1/DTD/svg11.dtd">
<svg version="1.1" id="Capa_1" xmlns="http://www.w3.org/2000/svg" xmlns:xlink="http://www.w3.org/1999/xlink" x="0px" y="0px"
	 width="64px" height="64px" viewBox="0 0 64 64" style="enable-background:new 0 0 64 64;" xml:space="preserve">
<g>
	<path d="M54.23,8.345c1.228-1.239,1.219-3.239-0.02-4.467c-1.238-1.225-3.238-1.219-4.467,0.021L48.502,5.15l4.583,4.351
		L54.23,8.345z"/>
	<polygon points="44.499,9.19 49.081,13.54 51.813,10.783 47.231,6.433 	"/>
	<path d="M7.498,58.311l1.194,1.178c1.238,1.221,2.854,1.829,4.469,1.829c1.645,0,3.29-0.631,4.534-1.893l11.779-11.947
		c0.524-0.532,0.518-1.39-0.014-1.915c-0.532-0.525-1.389-0.519-1.914,0.013L15.767,57.525c-0.687,0.696-1.602,1.083-2.58,1.089
		c-0.946,0.007-1.898-0.367-2.594-1.054l-1.194-1.176c-1.437-1.417-1.453-3.738-0.036-5.175l7.389-7.496
		c1.777,1.318,4.288,1.178,5.887-0.442l16.162-16.394l-1.509-1.488c0.081-0.067,0.167-0.123,0.243-0.2L47.81,14.823l-4.583-4.351
		L33.048,20.743c-0.08,0.08-0.139,0.171-0.208,0.257L31.3,19.482L15.138,35.875c-1.614,1.636-1.703,4.183-0.318,5.942l-7.385,7.491
		C4.971,51.808,4.999,55.846,7.498,58.311z"/>
</g>
</svg>
