<?xml version="1.0" encoding="iso-8859-1"?>
<!-- Generator: Adobe Illustrator 17.0.0, SVG Export Plug-In . SVG Version: 6.00 Build 0)  -->
<!DOCTYPE svg PUBLIC "-//W3C//DTD SVG 1.1//EN" "http://www.w3.org/Graphics/SVG/1.1/DTD/svg11.dtd">
<svg version="1.1" id="Capa_1" xmlns="http://www.w3.org/2000/svg" xmlns:xlink="http://www.w3.org/1999/xlink" x="0px" y="0px"
	 width="64px" height="64px" viewBox="0 0 64 64" style="enable-background:new 0 0 64 64;" xml:space="preserve">
<path d="M52.5,23.412c-1.933,0-3.5,1.567-3.5,3.5c0,0.456,0,0.9-0.001,1.338H48h-3.029h-8.986v-3H45v-5h-9.016v-3H45V15
	c0-0.942-0.096-1.86-0.273-2.75h-8.742v-3h7.771C41.56,4.389,36.68,1,31,1S20.44,4.389,18.245,9.25h7.739v3h-8.711
	C17.096,13.14,17,14.058,17,15v2.25h8.984v3H17v5h8.984v3h-8.955H13.75h-0.749C13,27.812,13,27.368,13,26.912
	c0-1.933-1.567-3.5-3.5-3.5S6,24.979,6,26.912c0,11.14,0.017,23.686,21.5,24.896v3.812h-9.475c-1.933,0-3.5,1.567-3.5,3.5
	s1.567,3.5,3.5,3.5H31h12.975c1.933,0,3.5-1.567,3.5-3.5s-1.567-3.5-3.5-3.5H34.5v-3.812C55.983,50.598,56,38.052,56,26.912
	C56,24.979,54.433,23.412,52.5,23.412z M31,44.912c-14.483,0-17.311-3.898-17.864-11.662h5.028
	c2.157,4.952,7.089,8.417,12.835,8.417s10.678-3.465,12.835-8.417h5.028C48.311,41.014,45.483,44.912,31,44.912z"/>
</svg>
