<?xml version="1.0" encoding="iso-8859-1"?>
<!-- Generator: Adobe Illustrator 17.0.0, SVG Export Plug-In . SVG Version: 6.00 Build 0)  -->
<!DOCTYPE svg PUBLIC "-//W3C//DTD SVG 1.1//EN" "http://www.w3.org/Graphics/SVG/1.1/DTD/svg11.dtd">
<svg version="1.1" id="Capa_1" xmlns="http://www.w3.org/2000/svg" xmlns:xlink="http://www.w3.org/1999/xlink" x="0px" y="0px"
	 width="64px" height="64px" viewBox="0 0 64 64" style="enable-background:new 0 0 64 64;" xml:space="preserve">
<path d="M51.32,28.168c-1.104,0-2,0.896-2,2c0,9-7.321,16.321-16.32,16.321s-16.32-7.321-16.32-16.321c0-1.104-0.896-2-2-2
	s-2,0.896-2,2c0,10.53,8.051,19.212,18.32,20.22v6.732H20.025c-1.104,0-2,0.896-2,2s0.896,2,2,2H33h12.975c1.104,0,2-0.896,2-2
	s-0.896-2-2-2H35v-6.732c10.269-1.008,18.32-9.69,18.32-20.22C53.32,29.063,52.425,28.168,51.32,28.168z"/>
<path d="M19.932,31.313c0,4.26,3.465,7.726,7.725,7.726h10.688c4.26,0,7.725-3.466,7.725-7.726v-8.68H19.932V31.313z M23.932,26.634
	h18.137v4.68c0,2.055-1.671,3.726-3.725,3.726H27.656c-2.054,0-3.725-1.671-3.725-3.726V26.634z"/>
<path d="M46.068,9.924c0-4.26-3.465-7.726-7.725-7.726H27.656c-4.26,0-7.725,3.466-7.725,7.726v8.68h26.137V9.924z M42.068,14.604
	H23.932v-4.68c0-2.055,1.671-3.726,3.725-3.726h10.688c2.054,0,3.725,1.671,3.725,3.726V14.604z"/>
</svg>
