<?xml version="1.0" encoding="iso-8859-1"?>
<!-- Generator: Adobe Illustrator 17.0.0, SVG Export Plug-In . SVG Version: 6.00 Build 0)  -->
<!DOCTYPE svg PUBLIC "-//W3C//DTD SVG 1.1//EN" "http://www.w3.org/Graphics/SVG/1.1/DTD/svg11.dtd">
<svg version="1.1" id="Capa_1" xmlns="http://www.w3.org/2000/svg" xmlns:xlink="http://www.w3.org/1999/xlink" x="0px" y="0px"
	 width="64px" height="64px" viewBox="0 0 64 64" style="enable-background:new 0 0 64 64;" xml:space="preserve">
<g>
	<path d="M14.246,6.435c-2.211,0-4.003,1.664-4.003,3.717s1.792,3.717,4.003,3.717l5.566,0.24c-0.029-0.202-0.062-0.402-0.062-0.612
		v-2.973v-1h1h12.823h1v1v2.973c0,0.434-0.083,0.845-0.202,1.24l4.426,0.191c-0.643-1.539-0.648-3.452-0.648-4.776
		s0.006-3.237,0.648-4.776L14.246,6.435z"/>
	<path d="M30.6,17.804c-0.125,0.011-0.244,0.038-0.372,0.038h-6.133c-0.127,0-0.247-0.027-0.372-0.038V62H30.6V17.804z"/>
	<path d="M20.75,13.497c0,0.224,0.024,0.443,0.066,0.655c0.281,1.413,1.455,2.49,2.907,2.652c0.124,0.014,0.244,0.037,0.372,0.037
		h6.133c0.127,0,0.248-0.024,0.372-0.037c1.26-0.141,2.304-0.969,2.743-2.112c0.143-0.372,0.23-0.773,0.23-1.196v-2.973H20.75
		V13.497z"/>
	<path d="M42.772,3.833c-1.439,0-2.313,0.563-2.842,1.493c-0.659,1.159-0.782,2.889-0.782,4.825s0.122,3.666,0.782,4.825
		c0.529,0.93,1.403,1.493,2.842,1.493c3.233,0,5.854-2.829,5.854-6.318S46.005,3.833,42.772,3.833z"/>
</g>
</svg>
