<?xml version="1.0" encoding="iso-8859-1"?>
<!-- Generator: Adobe Illustrator 17.0.0, SVG Export Plug-In . SVG Version: 6.00 Build 0)  -->
<!DOCTYPE svg PUBLIC "-//W3C//DTD SVG 1.1//EN" "http://www.w3.org/Graphics/SVG/1.1/DTD/svg11.dtd">
<svg version="1.1" id="Capa_1" xmlns="http://www.w3.org/2000/svg" xmlns:xlink="http://www.w3.org/1999/xlink" x="0px" y="0px"
	 width="64px" height="64px" viewBox="0 0 64 64" style="enable-background:new 0 0 64 64;" xml:space="preserve">
<path d="M60.161,52.63l-7.466,7.466c2.231,1.745,5.34,1.715,7.261-0.205C61.876,57.97,61.905,54.861,60.161,52.63z"/>
<path d="M18.397,33.999c0.838,0,1.654-0.086,2.454-0.218c-0.18,0.442-0.09,0.967,0.268,1.326l1.788,1.788
	c0.478,0.477,1.252,0.477,1.729,0l0.104-0.104l0.353-0.353l0.354-0.354l24.922,24.922l1.567-1.567l7.566-7.566l1.567-1.567
	L36.148,25.384l0.354-0.354l0.354-0.354l0.18-0.18c0.478-0.478,0.478-1.252,0-1.729l-1.788-1.788c-0.478-0.477-1.252-0.477-1.729,0
	l-0.18,0.18l-0.179,0.179c0.016-0.104,0.034-0.207,0.047-0.311c0.086-0.65,0.147-1.309,0.147-1.983
	c0-8.259-6.696-14.955-14.955-14.955c-8.259,0-14.955,6.696-14.955,14.955C3.442,27.303,10.138,33.999,18.397,33.999z"/>
</svg>
