<?xml version="1.0" encoding="iso-8859-1"?>
<!-- Generator: Adobe Illustrator 17.0.0, SVG Export Plug-In . SVG Version: 6.00 Build 0)  -->
<!DOCTYPE svg PUBLIC "-//W3C//DTD SVG 1.1//EN" "http://www.w3.org/Graphics/SVG/1.1/DTD/svg11.dtd">
<svg version="1.1" id="Capa_1" xmlns="http://www.w3.org/2000/svg" xmlns:xlink="http://www.w3.org/1999/xlink" x="0px" y="0px"
	 width="64px" height="64px" viewBox="0 0 64 64" style="enable-background:new 0 0 64 64;" xml:space="preserve">
<g>
	<path d="M8.071,60.334c7.78-3.086,9.198-8.78,9.033-16.628c-0.126-6.004-1.313-11.988-1.893-17.957
		c-0.238-2.449-0.326-4.911-0.282-7.369c0.075-4.16,2.737-4.199,5.78-3.979c1.531,2.522,4.669,4.256,8.302,4.256h13.684v-2.737h4.61
		V5.945h-4.61V3.208H29.012c-3.342,0-6.264,1.469-7.903,3.667c-9.114-0.61-13.612,4.181-13.776,13.277
		c-0.101,5.602,0.957,11.273,1.636,16.814c0.577,4.706,2.741,13.832-2.908,16.073C1.582,54.816,3.532,62.135,8.071,60.334z"/>
	<path d="M52.728,14.693c0.659-1.043,0.471-0.158,1.882,0.443c1.412,0.601,5.196-3.717,5.196-3.717v-0.05v-0.849v-0.05
		c0,0-3.785-4.318-5.196-3.717c-1.412,0.601-1.224,1.486-1.882,0.443c-0.659-1.043-2.165-1.229-2.165-1.229V5.945h-1.257v9.976
		h1.257C50.563,15.921,52.069,15.736,52.728,14.693z"/>
</g>
</svg>
