<?xml version="1.0" encoding="iso-8859-1"?>
<!-- Generator: Adobe Illustrator 17.0.0, SVG Export Plug-In . SVG Version: 6.00 Build 0)  -->
<!DOCTYPE svg PUBLIC "-//W3C//DTD SVG 1.1//EN" "http://www.w3.org/Graphics/SVG/1.1/DTD/svg11.dtd">
<svg version="1.1" id="Capa_1" xmlns="http://www.w3.org/2000/svg" xmlns:xlink="http://www.w3.org/1999/xlink" x="0px" y="0px"
	 width="64px" height="64px" viewBox="0 0 64 64" style="enable-background:new 0 0 64 64;" xml:space="preserve">
<path d="M14.787,57.809C15.112,57.362,15.823,57,16.375,57h32.5c0.552,0,1.263,0.362,1.588,0.809l1.195,1.644h7.873V8.044
	c0-1.931-1.565-3.496-3.496-3.496H14.411l-8.692,9.36v45.545h7.873L14.787,57.809z M50.5,9.719c0-0.552,0.448-1,1-1h3.333
	c0.552,0,1,0.448,1,1v9.5c0,0.552-0.448,1-1,1H51.5c-0.552,0-1-0.448-1-1V9.719z M42.5,9.719c0-0.552,0.448-1,1-1h3.333
	c0.552,0,1,0.448,1,1v9.5c0,0.552-0.448,1-1,1H43.5c-0.552,0-1-0.448-1-1V9.719z M34.5,9.719c0-0.552,0.448-1,1-1h3.333
	c0.552,0,1,0.448,1,1v9.5c0,0.552-0.448,1-1,1H35.5c-0.552,0-1-0.448-1-1V9.719z M26.5,9.719c0-0.552,0.448-1,1-1h3.333
	c0.552,0,1,0.448,1,1v9.5c0,0.552-0.448,1-1,1H27.5c-0.552,0-1-0.448-1-1V9.719z M18.5,9.719c0-0.552,0.448-1,1-1h3.333
	c0.552,0,1,0.448,1,1v9.5c0,0.552-0.448,1-1,1H19.5c-0.552,0-1-0.448-1-1V9.719z M10.5,24.219v-9.5c0-0.552,0.448-1,1-1h3.333
	c0.552,0,1,0.448,1,1v9.5c0,0.552-0.448,1-1,1H11.5C10.948,25.219,10.5,24.771,10.5,24.219z"/>
</svg>
