<?xml version="1.0" encoding="iso-8859-1"?>
<!-- Generator: Adobe Illustrator 17.0.0, SVG Export Plug-In . SVG Version: 6.00 Build 0)  -->
<!DOCTYPE svg PUBLIC "-//W3C//DTD SVG 1.1//EN" "http://www.w3.org/Graphics/SVG/1.1/DTD/svg11.dtd">
<svg version="1.1" id="Capa_1" xmlns="http://www.w3.org/2000/svg" xmlns:xlink="http://www.w3.org/1999/xlink" x="0px" y="0px"
	 width="64px" height="64px" viewBox="0 0 64 64" style="enable-background:new 0 0 64 64;" xml:space="preserve">
<path d="M42.952,8.992c0,2.82,2.123,5.106,4.744,5.106c2.62,0,4.745,0,4.745,0L42.952,3.886V8.992z"/>
<path d="M9.88,10.074v43.632c0,3.419,2.771,6.189,6.188,6.189h30.184c3.418,0,6.188-2.771,6.188-6.189v-38.37h-5.377
	c-2.969,0-5.376-2.563-5.376-5.726c0-3.161,0-5.725,0-5.725H16.069C12.651,3.886,9.88,6.657,9.88,10.074z M28.27,51.859
	c0,0.32-0.26,0.58-0.58,0.58h-1.342c-0.32,0-0.58-0.26-0.58-0.58v-2.567c0-0.32-0.142-0.362-0.316-0.095l-1.104,1.702
	c-0.173,0.269-0.324,0.487-0.337,0.487c-0.011,0-0.161-0.219-0.337-0.487l-1.101-1.702c-0.177-0.268-0.317-0.226-0.317,0.095v2.567
	c0,0.32-0.261,0.58-0.581,0.58h-1.287c-0.323,0-0.582-0.26-0.582-0.58V45.5c0-0.32,0.259-0.581,0.582-0.581h1.459
	c0.32,0,0.715,0.222,0.883,0.496l1.006,1.652c0.167,0.273,0.439,0.273,0.607,0l1.006-1.652c0.166-0.274,0.562-0.496,0.882-0.496
	h1.46c0.32,0,0.58,0.261,0.58,0.581V51.859z M35.63,48.813c-0.165,0.348-0.398,0.64-0.698,0.876
	c-0.301,0.236-0.661,0.413-1.082,0.531c-0.417,0.118-0.88,0.179-1.388,0.179c0,0-0.185,0-0.411,0c-0.225,0-0.406,0.259-0.406,0.579
	v0.881c0,0.32-0.261,0.58-0.581,0.58H29.71c-0.32,0-0.579-0.26-0.579-0.58V45.5c0-0.32,0.259-0.581,0.579-0.581h2.806
	c0.5,0,0.957,0.056,1.368,0.166c0.411,0.111,0.764,0.278,1.059,0.501c0.292,0.223,0.522,0.5,0.688,0.838
	c0.163,0.337,0.245,0.727,0.245,1.171C35.875,48.066,35.793,48.467,35.63,48.813z M42.269,51.156
	c-0.165,0.312-0.388,0.574-0.672,0.789c-0.284,0.215-0.61,0.378-0.983,0.489c-0.373,0.111-0.767,0.167-1.183,0.167
	c-0.781,0-1.45-0.118-2.009-0.355c-0.377-0.159-0.721-0.362-1.032-0.609c-0.249-0.199-0.247-0.576-0.024-0.806l0.685-0.704
	c0.222-0.23,0.572-0.249,0.809-0.078c0.15,0.106,0.302,0.195,0.454,0.269c0.295,0.14,0.599,0.21,0.913,0.21
	c0.279,0,0.492-0.056,0.64-0.167c0.146-0.111,0.22-0.256,0.22-0.435c0-0.208-0.08-0.354-0.242-0.462
	c-0.16-0.108-0.408-0.162-0.745-0.162c0,0-0.238,0-0.531,0c-0.295,0-0.606-0.249-0.698-0.557v-0.004
	c-0.095-0.308,0.036-0.717,0.286-0.917l0.746-0.59c0.251-0.198,0.194-0.36-0.126-0.36h-1.633c-0.32,0-0.579-0.26-0.579-0.58V45.5
	c0-0.32,0.259-0.581,0.579-0.581h4.621c0.319,0,0.578,0.261,0.578,0.581v0.569c0,0.319-0.206,0.735-0.462,0.929l-0.76,0.57
	c-0.256,0.192-0.211,0.408,0.083,0.539c0.318,0.141,0.587,0.322,0.806,0.545c0.338,0.34,0.507,0.809,0.507,1.402
	C42.517,50.483,42.435,50.844,42.269,51.156z M23.846,31.949c1.005-0.213,1.99-0.165,2.86,0.092V21.406
	c0-0.729,0.51-1.359,1.223-1.51l12.865-2.715c0,0,0.001,0,0.004,0c0.047-0.012,0.099-0.012,0.15-0.017
	c0.055-0.006,0.109-0.017,0.162-0.017h0.003c0.021,0,0.043,0.005,0.064,0.008c0.08,0.002,0.16,0.007,0.237,0.022
	c0.049,0.011,0.095,0.028,0.141,0.042c0.048,0.015,0.099,0.024,0.145,0.045c0.054,0.021,0.101,0.051,0.15,0.078
	c0.037,0.02,0.077,0.037,0.113,0.061c0.044,0.031,0.082,0.065,0.123,0.1c0.036,0.029,0.074,0.056,0.106,0.09
	c0.036,0.033,0.066,0.074,0.097,0.113c0.033,0.037,0.068,0.072,0.096,0.113c0.032,0.049,0.058,0.101,0.086,0.152
	c0.018,0.036,0.041,0.07,0.058,0.109c0.034,0.078,0.059,0.162,0.079,0.246c0.003,0.015,0.011,0.029,0.016,0.045v0.001
	c0.01,0.054,0.012,0.111,0.017,0.167c0.005,0.049,0.015,0.1,0.015,0.147v0.003v14.102c0,0.089-0.01,0.178-0.024,0.267
	c-0.035,1.988-1.75,3.85-4.18,4.366c-2.749,0.582-5.364-0.777-5.846-3.038c-0.48-2.263,1.358-4.569,4.106-5.154
	c1.004-0.212,1.988-0.164,2.858,0.091v-8.73l-9.778,2.062v12.851c0,0.09-0.01,0.179-0.025,0.267
	c-0.034,1.988-1.751,3.85-4.181,4.365c-2.747,0.583-5.364-0.775-5.844-3.037C19.26,34.84,21.1,32.533,23.846,31.949z"/>
<path d="M32.331,46.928c0,0-0.153,0-0.343,0c-0.191,0-0.344,0.261-0.344,0.581v0.516c0,0.32,0.15,0.58,0.336,0.58h0.34
	c0.323,0,0.584-0.07,0.78-0.209c0.195-0.141,0.295-0.346,0.295-0.618c0-0.294-0.092-0.499-0.278-0.64
	C32.929,46.998,32.667,46.928,32.331,46.928z"/>
</svg>
