<?xml version="1.0" encoding="iso-8859-1"?>
<!-- Generator: Adobe Illustrator 17.0.0, SVG Export Plug-In . SVG Version: 6.00 Build 0)  -->
<!DOCTYPE svg PUBLIC "-//W3C//DTD SVG 1.1//EN" "http://www.w3.org/Graphics/SVG/1.1/DTD/svg11.dtd">
<svg version="1.1" id="Capa_1" xmlns="http://www.w3.org/2000/svg" xmlns:xlink="http://www.w3.org/1999/xlink" x="0px" y="0px"
	 width="64px" height="64px" viewBox="0 0 64 64" style="enable-background:new 0 0 64 64;" xml:space="preserve">
<path d="M29.749,21.105c-0.137-0.004-0.274-0.02-0.411-0.02c-3.585,0-7.17,1.368-9.906,4.103c-2.84,2.84-4.192,6.595-4.083,10.316
	l-6.446,6.446C4.79,46.065,4.494,52.44,8.244,56.189c3.75,3.75,10.124,3.454,14.238-0.66l6.446-6.446
	c0.137,0.004,0.274,0.02,0.411,0.02c3.585,0,7.17-1.368,9.906-4.103c2.84-2.84,4.192-6.595,4.083-10.316L53.662,24.35L40.083,10.771
	L29.749,21.105z M35.709,41.464c-1.701,1.701-3.964,2.639-6.37,2.639s-4.669-0.937-6.37-2.639c-3.512-3.512-3.512-9.228,0-12.74
	c1.702-1.701,3.964-2.639,6.37-2.639s4.669,0.937,6.37,2.639C39.221,32.237,39.221,37.952,35.709,41.464z"/>
<path d="M61.044,15.418L49.014,3.39l-7.162,7.163L53.882,22.58L61.044,15.418z M47.267,9.594l1.827-1.827l2.64,2.64l-1.827,1.827
	L47.267,9.594z M53.56,12.233l2.64,2.64L54.374,16.7l-2.64-2.64L53.56,12.233z"/>
</svg>
