<?xml version="1.0" encoding="iso-8859-1"?>
<!-- Generator: Adobe Illustrator 17.0.0, SVG Export Plug-In . SVG Version: 6.00 Build 0)  -->
<!DOCTYPE svg PUBLIC "-//W3C//DTD SVG 1.1//EN" "http://www.w3.org/Graphics/SVG/1.1/DTD/svg11.dtd">
<svg version="1.1" id="Capa_1" xmlns="http://www.w3.org/2000/svg" xmlns:xlink="http://www.w3.org/1999/xlink" x="0px" y="0px"
	 width="64px" height="64px" viewBox="0 0 64 64" style="enable-background:new 0 0 64 64;" xml:space="preserve">
<path d="M49.667,23.272c-0.362,0.005-3.598,0.144-6.145,3.086l-14.9-7.133c0.1-3.63-1.937-5.855-2.18-6.105
	c-0.961-0.993-2.561-1.035-3.552-0.075c-0.991,0.961-1.034,2.525-0.073,3.517c0.039,0.044,0.965,1.109,0.792,2.846
	c-0.224,2.245-2.134,4.785-5.526,7.345c-4.089,3.087-6.205,6.699-6.287,10.736c-0.143,6.957,5.947,12.164,6.643,12.734
	c2.618,2.15,5.377,3.162,6.089,3.4c1.37,0.59,3.362,0.938,5.585,0.938c3.666,0,7.96-0.945,11.137-3.309
	c2.655-1.976,5.623-5.735,4.687-12.43c-0.588-4.209-0.143-7.356,1.287-9.101c1.107-1.35,2.514-1.448,2.523-1.451
	c1.381-0.022,2.481-1.159,2.46-2.539C52.185,24.352,51.013,23.252,49.667,23.272z M21.097,30.745
	c3.619-2.733,5.935-5.573,6.944-8.471l1.288,0.617L17.307,40.423c-0.333-0.912-0.532-1.867-0.513-2.831
	C16.845,35.165,18.292,32.861,21.097,30.745z M18.313,42.491l12.842-18.726l1.675,0.802L20.97,45.788
	C20.132,44.991,19.129,43.839,18.313,42.491z M22.551,47.06l12.087-21.628l1.321,0.632L25.487,48.645
	C24.815,48.372,23.718,47.862,22.551,47.06z M27.391,49.297l10.372-22.369l1.866,0.893L31.645,49.47
	C29.976,49.618,28.44,49.521,27.391,49.297z M40.985,39.515c0.485,3.476-0.404,6.003-2.721,7.726
	c-1.249,0.93-2.791,1.521-4.355,1.874l7.532-20.426l0.472,0.226C40.695,31.639,40.38,35.187,40.985,39.515z"/>
</svg>
