<?xml version="1.0" encoding="iso-8859-1"?>
<!-- Generator: Adobe Illustrator 17.0.0, SVG Export Plug-In . SVG Version: 6.00 Build 0)  -->
<!DOCTYPE svg PUBLIC "-//W3C//DTD SVG 1.1//EN" "http://www.w3.org/Graphics/SVG/1.1/DTD/svg11.dtd">
<svg version="1.1" id="Capa_1" xmlns="http://www.w3.org/2000/svg" xmlns:xlink="http://www.w3.org/1999/xlink" x="0px" y="0px"
	 width="64px" height="64px" viewBox="0 0 64 64" style="enable-background:new 0 0 64 64;" xml:space="preserve">
<g>
	<path d="M9.625,20.5h15.5c0.567,0,1.395-0.485,1.697-1.019l3.161-5.231H9.625c-4.418,0-8,3.582-8,8v2.647
		C3.315,22.258,6.265,20.5,9.625,20.5z"/>
	<path d="M54.375,11h-18.75c-1.105,0-2.439,0.78-2.981,1.743l-0.91,1.507l-3.629,6.007C27.564,21.22,26.23,22,25.125,22h-15.5
		c-4.418,0-8,3.582-8,8v14.75v1.75c0,4.418,3.582,8,8,8h44.75c4.418,0,8-3.582,8-8v-1.75v-22.5V19
		C62.375,14.582,58.793,11,54.375,11z M38.53,33.988c-0.553,0-1-0.448-1-1s0.447-1,1-1c2.188,0,3.837,2.767,3.837,6.437
		c0,3.669-1.649,6.437-3.837,6.437c-0.553,0-1-0.447-1-1s0.447-1,1-1c0.749,0,1.837-1.729,1.837-4.437
		C40.367,35.716,39.279,33.988,38.53,33.988z M39.301,49.204c-0.553,0-1-0.447-1-1s0.447-1,1-1c3.5,0,6.348-3.938,6.348-8.779
		s-2.848-8.78-6.348-8.78c-0.553,0-1-0.448-1-1s0.447-1,1-1c4.603,0,8.348,4.836,8.348,10.78
		C47.648,44.368,43.903,49.204,39.301,49.204z M15.375,34.424c0-1.105,0.895-2,2-2h5l10.211-5.106
		c0.988-0.494,1.789,0.001,1.789,1.106v20c0,1.105-0.801,1.6-1.789,1.106l-10.211-5.106h-5c-1.105,0-2-0.895-2-2V34.424z"/>
</g>
</svg>
