<?xml version="1.0" encoding="iso-8859-1"?>
<!-- Generator: Adobe Illustrator 17.0.0, SVG Export Plug-In . SVG Version: 6.00 Build 0)  -->
<!DOCTYPE svg PUBLIC "-//W3C//DTD SVG 1.1//EN" "http://www.w3.org/Graphics/SVG/1.1/DTD/svg11.dtd">
<svg version="1.1" id="Capa_1" xmlns="http://www.w3.org/2000/svg" xmlns:xlink="http://www.w3.org/1999/xlink" x="0px" y="0px"
	 width="64px" height="64px" viewBox="0 0 64 64" style="enable-background:new 0 0 64 64;" xml:space="preserve">
<g>
	<path d="M13.6,52.842c0.058,0.054,0.118,0.1,0.184,0.14c0.435,0.262,1.008,0.195,1.37-0.188l2.741-2.924
		c0.345,0.262,0.575,0.391,0.575,0.391l4.675-4.831c1.067,0.374,2.075,0.285,2.592-0.348c0.774-0.949,0.154-2.736-1.383-3.99
		c-1.538-1.257-3.412-1.504-4.186-0.556c-0.492,0.603-0.418,1.545,0.094,2.474l-4.328,4.604c0,0,0.092,0.268,0.406,0.703
		l-2.787,2.974C13.136,51.731,13.156,52.428,13.6,52.842z"/>
	<path d="M27.06,46.069l3.779-4.603c-1.84-4.047-6.185-5.73-7.795-6.229l-4.102,4.655c-0.655,0.927-0.745,2.392-0.249,3.779
		l0.728-0.775c-0.022-0.068-0.057-0.136-0.076-0.204c-0.29-1.029-0.112-1.994,0.487-2.648c0.887-0.964,2.462-1.036,4.012-0.181
		c0.416,0.229,0.811,0.515,1.176,0.85c1.762,1.62,2.248,3.864,1.104,5.112c-0.626,0.681-1.595,0.907-2.653,0.689l-0.679,0.701
		C24.555,47.623,26.273,47.183,27.06,46.069z"/>
	<path d="M37.242,33.667c-1.68-4.67-6.628-6.491-8.191-6.957c-0.589,0.414-1.75,1.312-3.065,2.792
		c-1.617,1.821-2.872,4.038-3.192,4.622c0.989,0.248,6.341,1.793,8.739,6.498L37.242,33.667z"/>
	<path d="M51.552,12.255c0.702-0.44,0.914-1.365,0.475-2.068c-0.438-0.701-1.364-0.916-2.068-0.475
		c-1.954,1.225-7.916,8.205-10.507,11.293c-1.922-0.771-3.654-0.237-3.654-0.237l-4.882,5.54c2.202,0.905,5.504,2.818,7.056,6.473
		l5.09-6.2c0,0,0.236-1.954-1.206-3.77C45.304,18.709,50.251,13.069,51.552,12.255z"/>
</g>
</svg>
