<?xml version="1.0" encoding="iso-8859-1"?>
<!-- Generator: Adobe Illustrator 17.0.0, SVG Export Plug-In . SVG Version: 6.00 Build 0)  -->
<!DOCTYPE svg PUBLIC "-//W3C//DTD SVG 1.1//EN" "http://www.w3.org/Graphics/SVG/1.1/DTD/svg11.dtd">
<svg version="1.1" id="Capa_1" xmlns="http://www.w3.org/2000/svg" xmlns:xlink="http://www.w3.org/1999/xlink" x="0px" y="0px"
	 width="64px" height="64px" viewBox="0 0 64 64" style="enable-background:new 0 0 64 64;" xml:space="preserve">
<path d="M21.134,48.108c4.938,1.155,9.877-1.911,11.031-6.848c0.029-0.127,0.055-0.254,0.078-0.381
	c0.037-0.212,0.364-1.65,0.732-3.213c0.691-2.934,1.76-7.496,2.447-10.431c0.365-1.562,1.896-1.984,1.766-0.383
	c-0.145,1.765-0.9,4.415-0.398,8.235c0.917,6.992,13.378,4.112,11.423,3.654c-1.956-0.458-3.571-4.469-3.226-8.464
	c0.346-3.995,3.21-12.46-3.773-14.095c-2.473-0.579-4.202-0.688-5.404-0.588c-1.6,0.132-2.919,2.314-3.285,3.877l-2.377,10.159
	c-0.365,1.563-1.435,2.064-2.599,1.44c-0.688-0.369-1.434-0.655-2.231-0.842c-4.938-1.155-9.876,1.911-11.032,6.848
	C13.131,42.014,16.196,46.953,21.134,48.108z"/>
</svg>
