<?xml version="1.0" encoding="iso-8859-1"?>
<!-- Generator: Adobe Illustrator 17.0.0, SVG Export Plug-In . SVG Version: 6.00 Build 0)  -->
<!DOCTYPE svg PUBLIC "-//W3C//DTD SVG 1.1//EN" "http://www.w3.org/Graphics/SVG/1.1/DTD/svg11.dtd">
<svg version="1.1" id="Capa_1" xmlns="http://www.w3.org/2000/svg" xmlns:xlink="http://www.w3.org/1999/xlink" x="0px" y="0px"
	 width="64px" height="64px" viewBox="0 0 64 64" style="enable-background:new 0 0 64 64;" xml:space="preserve">
<g>
	<path d="M7.293,49.319c1.277,3.962,6.664,5.771,12.029,4.04c5.117-1.649,8.361-5.921,7.543-9.75
		c0.014-0.219-0.014-0.445-0.099-0.664L18.348,21.25c1.334,0.047,3.658,0.432,6.965,2.071c5.5,2.73,7.888,6.76,7.888,6.76
		c1.56-4.55-3.64-9.749-7.278-11.439c-2.541-1.18-7.676-3.661-10.547-5.053l-1.603-4.134c-0.313-0.803-1.216-1.203-2.02-0.89
		c-0.803,0.312-1.201,1.216-0.89,2.019l10.938,28.188c-2.094-0.594-4.598-0.566-7.103,0.242C9.332,40.744,6.016,45.358,7.293,49.319
		z"/>
	<path d="M19.35,37.294l-2.748-7.081l-1.044,0.189c-1.13,0.206-2.052,1.303-2.058,2.452l-0.023,4.557
		c-0.001,0.262,0.045,0.533,0.123,0.803c0.197-0.072,0.398-0.143,0.6-0.207C15.901,37.458,17.651,37.216,19.35,37.294z"/>
	<path d="M43.19,9.631c-2.032,0-3.69,1.683-4.964,4.386l-6.686,7.393c2.544,2.722,4.263,6.31,3.116,9.654l-1.096,3.195l-1.722-2.906
		c-0.016-0.026-1.567-2.547-4.938-4.814l-1.951,2.156l-2.096,0.382l5.348,13.782c0.136,0.349,0.205,0.715,0.208,1.092
		c0.183,0.983,0.151,1.976-0.052,2.948l10.908,5.425c1.097,1.601,2.406,2.54,3.924,2.54c5.291,0,8.059-11.377,8.059-22.616
		C51.248,21.008,48.481,9.631,43.19,9.631z M43.19,52.265c-1.738,0-4.092-4.758-5.039-12.663c0.061,0.003,0.117,0.012,0.177,0.012
		c2.686,0,4.862-2.716,4.862-6.066c0-3.35-2.177-6.066-4.862-6.066c-0.144,0-0.285,0.012-0.425,0.027
		c0.692-9.458,3.365-15.278,5.287-15.278c2.227,0,5.459,7.798,5.459,20.017C48.649,44.467,45.416,52.265,43.19,52.265z"/>
</g>
</svg>
