<?xml version="1.0" encoding="iso-8859-1"?>
<!-- Generator: Adobe Illustrator 17.0.0, SVG Export Plug-In . SVG Version: 6.00 Build 0)  -->
<!DOCTYPE svg PUBLIC "-//W3C//DTD SVG 1.1//EN" "http://www.w3.org/Graphics/SVG/1.1/DTD/svg11.dtd">
<svg version="1.1" id="Capa_1" xmlns="http://www.w3.org/2000/svg" xmlns:xlink="http://www.w3.org/1999/xlink" x="0px" y="0px"
	 width="64px" height="64px" viewBox="0 0 64 64" style="enable-background:new 0 0 64 64;" xml:space="preserve">
<g>
	<path d="M7.392,54.068c0.151,0.184,0.371,0.281,0.592,0.281c0.17,0,0.34-0.057,0.481-0.171l3.575-2.908l0.999,1.18l7.55-6.401
		c1.714,1.515,3.312,2.287,3.889,1.758L36.359,36.04l3.093-5.438L49.9,19.835c-0.374-1.05-0.839-1.838-1.327-2.433l7.922-6.395
		c0.328-0.264,0.379-0.745,0.113-1.073c-0.265-0.328-0.745-0.38-1.072-0.113l-8.094,6.534c-1.128-0.773-2.111-0.758-2.111-0.758
		L34.455,25.746l-5.053,2.384L16.914,39.15l0.009,0.011c-0.097,0.026-0.193,0.055-0.262,0.119c-0.501,0.458-0.085,1.775,0.922,3.32
		l-7.502,6.361l0.971,1.146l-3.55,2.889C7.176,53.261,7.125,53.742,7.392,54.068z"/>
</g>
</svg>
