<?xml version="1.0" encoding="iso-8859-1"?>
<!-- Generator: Adobe Illustrator 17.0.0, SVG Export Plug-In . SVG Version: 6.00 Build 0)  -->
<!DOCTYPE svg PUBLIC "-//W3C//DTD SVG 1.1//EN" "http://www.w3.org/Graphics/SVG/1.1/DTD/svg11.dtd">
<svg version="1.1" id="Capa_1" xmlns="http://www.w3.org/2000/svg" xmlns:xlink="http://www.w3.org/1999/xlink" x="0px" y="0px"
	 width="64px" height="64px" viewBox="0 0 64 64" style="enable-background:new 0 0 64 64;" xml:space="preserve">
<g>
	<path d="M30.815,6c-14.359,0-26,11.641-26,26s11.641,26,26,26c14.359,0,26-11.641,26-26S45.175,6,30.815,6z M21.765,31.722
		l6.898-12.027c1.188-2.072,3.113-2.072,4.301,0l6.897,12.027c1.19,2.072,0.215,3.753-2.173,3.753h-13.75
		C21.55,35.475,20.577,33.794,21.765,31.722z M37.373,43.266H24.257c-2.389,0-4.324-1.31-4.324-2.93c0-1.619,1.936-2.93,4.324-2.93
		h13.116c2.387,0,4.325,1.311,4.325,2.93C41.698,41.955,39.76,43.266,37.373,43.266z"/>
</g>
</svg>
