<?xml version="1.0" encoding="iso-8859-1"?>
<!-- Generator: Adobe Illustrator 17.0.0, SVG Export Plug-In . SVG Version: 6.00 Build 0)  -->
<!DOCTYPE svg PUBLIC "-//W3C//DTD SVG 1.1//EN" "http://www.w3.org/Graphics/SVG/1.1/DTD/svg11.dtd">
<svg version="1.1" id="Capa_1" xmlns="http://www.w3.org/2000/svg" xmlns:xlink="http://www.w3.org/1999/xlink" x="0px" y="0px"
	 width="64px" height="64px" viewBox="0 0 64 64" style="enable-background:new 0 0 64 64;" xml:space="preserve">
<g>
	<path d="M32,10.621c-0.256,0-0.51,0.012-0.765,0.019c-0.723,0.673-1.748,2.19-2.737,5.003C29.647,15.552,30.814,15.5,32,15.5
		s2.353,0.052,3.502,0.143c-0.989-2.813-2.014-4.329-2.737-5.003C32.51,10.633,32.256,10.621,32,10.621z"/>
	<path d="M15.583,30.955c-0.101,1.177-0.158,2.373-0.158,3.586c0,1.677,0.104,3.321,0.295,4.923c2.204,0.437,4.757,0.807,7.66,1.062
		c-0.096-1.642-0.148-3.332-0.148-5.062c0-1.919,0.062-3.793,0.179-5.603C20.433,30.122,17.827,30.505,15.583,30.955z"/>
	<path d="M15.892,28.346c2.359-0.434,4.955-0.774,7.722-1.005c0.309-3.205,0.797-6.161,1.426-8.757
		c-2.538,0.433-4.931,1.096-7.117,1.953C17.005,22.931,16.312,25.562,15.892,28.346z"/>
	<path d="M48.28,39.465c0.19-1.602,0.295-3.246,0.295-4.923c0-1.214-0.057-2.41-0.158-3.586c-2.244-0.45-4.85-0.833-7.827-1.093
		c0.117,1.81,0.179,3.683,0.179,5.603c0,1.73-0.052,3.42-0.148,5.062C43.523,40.272,46.076,39.901,48.28,39.465z"/>
	<path d="M23.565,43.046c-2.662-0.223-5.162-0.549-7.447-0.96c0.538,2.89,1.374,5.591,2.447,8.008
		c1.971,0.726,4.098,1.298,6.342,1.689C24.308,49.176,23.85,46.227,23.565,43.046z"/>
	<path d="M7.08,35.542c0,0.412,0.011,0.82,0.031,1.227c1.326,0.687,3.346,1.439,6.022,2.112c-0.135-1.416-0.208-2.865-0.208-4.339
		c0-1.014,0.033-2.016,0.098-3.004c-2.59,0.659-4.554,1.389-5.861,2.06C7.113,34.24,7.08,34.887,7.08,35.542z"/>
	<path d="M25.933,29.675c-0.129,1.88-0.201,3.814-0.201,5.79c0,1.785,0.054,3.541,0.16,5.25c1.904,0.113,3.939,0.177,6.108,0.177
		s4.204-0.064,6.109-0.177c0.106-1.708,0.16-3.465,0.16-5.25c0-1.976-0.072-3.91-0.201-5.79C36.174,29.563,34.154,29.5,32,29.5
		S27.826,29.563,25.933,29.675z"/>
	<path d="M32,18c-1.458,0-2.888,0.077-4.284,0.22c-0.708,2.648-1.237,5.677-1.569,8.944C28.038,27.057,29.995,27,32,27
		s3.962,0.057,5.854,0.163c-0.332-3.267-0.861-6.296-1.569-8.944C34.888,18.077,33.458,18,32,18z"/>
	<path d="M37.913,43.224c-1.91,0.109-3.887,0.166-5.913,0.166s-4.003-0.057-5.913-0.166c0.306,3.247,0.808,6.267,1.482,8.93
		c1.443,0.153,2.921,0.236,4.431,0.236s2.988-0.083,4.431-0.236C37.105,49.492,37.607,46.471,37.913,43.224z"/>
	<path d="M49.261,21.999c0.66,2.164,1.155,4.471,1.459,6.885c2.201,0.51,4.129,1.108,5.719,1.775
		c-0.288-1.451-0.706-2.853-1.234-4.201C53.631,24.764,51.617,23.256,49.261,21.999z"/>
	<path d="M46.376,15.192c0.621,1.099,1.189,2.269,1.7,3.502c1.427,0.623,2.768,1.325,4.009,2.099
		C50.496,18.633,48.566,16.742,46.376,15.192z"/>
	<path d="M7.561,30.659c1.59-0.667,3.518-1.265,5.719-1.775c0.304-2.413,0.798-4.721,1.459-6.885
		c-2.357,1.256-4.37,2.764-5.944,4.458C8.267,27.805,7.849,29.208,7.561,30.659z"/>
	<path d="M25.765,15.946c0.617-1.975,1.326-3.657,2.106-4.978c-1.813,0.303-3.56,0.801-5.218,1.472
		c-1.242,1.412-2.367,3.087-3.339,4.976C21.346,16.767,23.508,16.271,25.765,15.946z"/>
	<path d="M7.427,39.674c0.217,1.302,0.536,2.568,0.947,3.793c1.735,2.008,4.084,3.771,6.88,5.189
		c-0.783-2.211-1.385-4.597-1.782-7.106C11.128,41.016,9.088,40.383,7.427,39.674z"/>
	<path d="M55.626,43.467c0.411-1.225,0.73-2.492,0.947-3.794c-1.661,0.709-3.701,1.343-6.046,1.877
		c-0.397,2.51-0.999,4.895-1.782,7.106C51.542,47.238,53.89,45.476,55.626,43.467z"/>
	<path d="M43.81,53.239c-1.722,0.505-3.53,0.901-5.405,1.179c-0.682,2.31-1.487,4.249-2.382,5.716
		c0.557-0.091,1.107-0.202,1.651-0.329C39.999,58.378,42.092,56.107,43.81,53.239z"/>
	<path d="M38.96,18.584c0.629,2.596,1.117,5.552,1.426,8.757c2.768,0.23,5.363,0.571,7.722,1.005
		c-0.421-2.784-1.113-5.415-2.031-7.809C43.891,19.68,41.498,19.017,38.96,18.584z"/>
	<path d="M26.326,59.805c0.544,0.127,1.094,0.238,1.651,0.329c-0.895-1.467-1.7-3.406-2.382-5.716
		c-1.875-0.278-3.683-0.675-5.405-1.179C21.908,56.107,24.001,58.378,26.326,59.805z"/>
	<path d="M52.94,49.045c-1.67,1.129-3.542,2.124-5.579,2.957c-0.947,1.983-2.049,3.777-3.282,5.336
		C47.672,55.344,50.716,52.486,52.94,49.045z"/>
	<path d="M56.92,35.542c0-0.655-0.033-1.302-0.083-1.944c-1.307-0.671-3.271-1.401-5.861-2.06c0.065,0.988,0.098,1.99,0.098,3.004
		c0,1.475-0.072,2.923-0.208,4.339c2.676-0.674,4.696-1.425,6.022-2.112C56.909,36.362,56.92,35.953,56.92,35.542z"/>
	<path d="M28.312,54.732c1.131,3.426,2.338,5.106,3.106,5.715c0.194,0.004,0.387,0.015,0.583,0.015s0.388-0.01,0.583-0.015
		c0.767-0.609,1.975-2.29,3.106-5.715c-1.209,0.101-2.438,0.159-3.688,0.159S29.521,54.833,28.312,54.732z"/>
	<path d="M19.921,57.339c-1.232-1.559-2.335-3.353-3.282-5.336c-2.036-0.834-3.908-1.828-5.579-2.957
		C13.284,52.486,16.328,55.344,19.921,57.339z"/>
	<path d="M47.882,42.085c-2.285,0.412-4.785,0.737-7.447,0.96c-0.285,3.182-0.743,6.131-1.342,8.737
		c2.244-0.391,4.37-0.963,6.342-1.689C46.508,47.677,47.343,44.975,47.882,42.085z"/>
	<path d="M11.915,20.794c1.241-0.774,2.582-1.476,4.009-2.099c0.511-1.233,1.079-2.403,1.7-3.502
		C15.434,16.742,13.504,18.633,11.915,20.794z"/>
	<path d="M38.235,15.946c2.257,0.325,4.419,0.821,6.451,1.47c-0.972-1.889-2.097-3.564-3.339-4.976
		c-1.658-0.672-3.405-1.17-5.218-1.472C36.909,12.289,37.618,13.971,38.235,15.946z"/>
	<polygon points="30,5.245 30,7.797 30,8.433 30,9.25 34,9.25 34,8.433 34,7.797 34,5.245 34,1 30,1 	"/>
</g>
</svg>
