<?xml version="1.0" encoding="iso-8859-1"?>
<!-- Generator: Adobe Illustrator 17.0.0, SVG Export Plug-In . SVG Version: 6.00 Build 0)  -->
<!DOCTYPE svg PUBLIC "-//W3C//DTD SVG 1.1//EN" "http://www.w3.org/Graphics/SVG/1.1/DTD/svg11.dtd">
<svg version="1.1" id="Capa_1" xmlns="http://www.w3.org/2000/svg" xmlns:xlink="http://www.w3.org/1999/xlink" x="0px" y="0px"
	 width="64px" height="64px" viewBox="0 0 64 64" style="enable-background:new 0 0 64 64;" xml:space="preserve">
<path d="M27.432,8.983l1.836-2.125c-4.459-2.256-9.147-3.966-13.812-4.964c-1.652-0.353-2.542,2.148-0.875,2.505
	C19.022,5.348,23.338,6.928,27.432,8.983z"/>
<path d="M60.67,51.405c-0.186-10.144-5.889-21.509-12.327-29.43l-1.752,2.027c2.283,2.857,4.199,5.987,5.849,9.278
	c2.657,5.302,5.473,11.946,5.583,17.947C58.054,52.924,60.701,53.116,60.67,51.405z"/>
<path d="M38.575,24.979l1.759-2.036c-3.088-3.152-6.645-6.008-10.49-8.451l-1.834,2.123c3.756,2.384,7.26,5.158,10.41,8.207
	C38.474,24.873,38.522,24.927,38.575,24.979z"/>
<path d="M9.83,9.007c4.635,0.991,9.137,2.663,13.389,4.852l1.831-2.119c-4.617-2.392-9.493-4.201-14.345-5.238
	C9.052,6.149,8.163,8.65,9.83,9.007z"/>
<path d="M52.245,49.251c0.599,2.217,0.988,4.441,1.027,6.584c0.031,1.697,2.678,1.889,2.647,0.178
	c-0.183-9.949-5.672-21.07-11.957-28.967l-1.751,2.027c1.48,1.906,2.798,3.931,3.99,6.038c0.964,0.003,1.879,0.437,2.511,1.193
	c2.733,3.265,5.671,7.966,4.15,11.824C52.702,48.531,52.487,48.899,52.245,49.251z"/>
<path d="M38.164,33.756c-0.078,0.095-0.159,0.188-0.242,0.28l-0.718,0.828c1.206,1.632,2.303,3.343,3.308,5.114l1.877-2.204
	c-1.086-1.741-2.235-3.4-3.422-4.947L38.2,33.714L38.164,33.756z"/>
<path d="M45.452,46.73c0.026-0.315-0.132-0.72-0.449-1.174c-0.33,0.387-0.698,0.818-1.077,1.263c0.176,0.398,0.349,0.8,0.519,1.206
	C45.045,47.584,45.419,47.119,45.452,46.73z"/>
<path d="M4.182,13.945c1.845,0.395,3.667,0.904,5.463,1.503c0.997-0.757,2.193-1.299,3.492-1.586
	c-2.669-1.021-5.378-1.845-8.08-2.423C3.404,11.087,2.514,13.589,4.182,13.945z"/>
<path d="M46.091,52.47c0.883,2.778,1.482,5.606,1.532,8.304c0.031,1.697,2.678,1.889,2.647,0.177
	c-0.055-2.99-0.602-6.086-1.493-9.17C47.984,52.079,47.088,52.309,46.091,52.47z"/>
<path d="M23.252,22.121c1.258,0.829,2.484,1.704,3.678,2.616c0.902-0.538,1.938-0.931,3.063-1.136
	c-1.566-1.274-3.213-2.471-4.915-3.594L23.252,22.121z"/>
<path d="M31.273,34.773c0.193,0,0.388-0.007,0.585-0.021c1.604-0.117,3.019-0.704,4.047-1.561c0.291-0.243,0.556-0.504,0.779-0.787
	l0.002,0.002l1.015-1.174l3.225-3.733l1.744-2.018l2.618-3.03l1.691-1.957l0.057-0.066l3.592-4.157L31.851,7.184l-0.127-0.11
	l-0.638,0.738l-1.835,2.124l-2.399,2.776l-1.828,2.116l-2.891,3.346l-1.084,1.255c-0.426-2.201-2.855-3.802-5.766-3.802
	c-0.193,0-0.388,0.007-0.584,0.021c-0.955,0.07-1.843,0.309-2.625,0.668c-1.963,0.902-3.241,2.586-3.107,4.422
	c0.176,2.416,2.73,4.226,5.825,4.226c0.193,0,0.388-0.007,0.585-0.021c1.743-0.127,3.268-0.807,4.31-1.788l0.017,0.015l0.173-0.2
	c0.141-0.146,0.273-0.296,0.392-0.454l1.278-1.479l1.827-2.114l2.909-3.367l1.837-2.126l1.257-1.455l9.977,4.828l6.296,3.047
	l-1.328,1.537l-2.609,3.019l-1.74,2.014l-2.441,2.825c-0.402-2.1-2.633-3.638-5.362-3.782c-0.136-0.007-0.267-0.028-0.405-0.028
	c-0.193,0-0.388,0.007-0.584,0.021c-0.922,0.067-1.78,0.292-2.542,0.631c-2.01,0.893-3.326,2.598-3.19,4.459
	C25.624,32.964,28.178,34.773,31.273,34.773z"/>
<path d="M48.139,38.798c-0.343-0.457-0.673-0.868-0.96-1.211c-0.268-0.32-0.627-0.477-0.989-0.477c-0.375,0-0.752,0.169-1.032,0.498
	l-1.681,1.974l-1.939,2.277l-2.082,2.445c-0.26-0.461-0.599-0.887-1.025-1.249c-0.871-0.742-1.937-1.104-2.998-1.104
	c-1.309,0-2.61,0.552-3.525,1.627c-1.657,1.946-1.423,4.866,0.523,6.523c0.87,0.741,1.936,1.104,2.996,1.104
	c0.676,0,1.349-0.147,1.969-0.438c0.771-0.361,1.716-1.392,2.27-2.038c0.901-1.051,2.242-2.623,3.345-3.916
	c1.066-1.25,1.909-2.24,1.909-2.24c0.127,0.109,0.229,0.212,0.346,0.318c2.051,1.874,2.428,3.411,2.054,4.613
	c-0.337,1.082-1.266,1.891-2.113,2.428c-0.066,0.042-0.133,0.086-0.197,0.124c-0.606,0.362-0.685,0.566-0.212,0.566
	c0.097,0,0.218-0.009,0.362-0.026c0.098-0.012,0.185-0.029,0.28-0.042c1.089-0.152,1.997-0.382,2.746-0.675
	c2.154-0.845,3-2.212,3.08-3.762C51.391,43.671,49.63,40.781,48.139,38.798z"/>
</svg>
