<?xml version="1.0" encoding="iso-8859-1"?>
<!-- Generator: Adobe Illustrator 16.0.4, SVG Export Plug-In . SVG Version: 6.00 Build 0)  -->
<!DOCTYPE svg PUBLIC "-//W3C//DTD SVG 1.1//EN" "http://www.w3.org/Graphics/SVG/1.1/DTD/svg11.dtd">
<svg version="1.1" id="Capa_1" xmlns="http://www.w3.org/2000/svg" xmlns:xlink="http://www.w3.org/1999/xlink" x="0px" y="0px"
	 width="64px" height="64px" viewBox="0 0 64 64" style="enable-background:new 0 0 64 64;" xml:space="preserve">
<path d="M33.062,1.917C16.612,1.917,3.229,15.3,3.229,31.75s13.383,29.833,29.833,29.833c16.449,0,29.832-13.383,29.832-29.833
	S49.514,1.917,33.062,1.917z M33.062,58.583c-14.796,0-26.833-12.038-26.833-26.833S18.267,4.917,33.062,4.917
	c14.795,0,26.832,12.038,26.832,26.833S47.857,58.583,33.062,58.583z M43.341,31.75c0-5.668-4.61-10.279-10.278-10.279
	c-5.667,0-10.277,4.611-10.277,10.279s4.611,10.279,10.277,10.279C38.729,42.029,43.341,37.418,43.341,31.75z M33.062,39.029
	c-4.015,0-7.278-3.266-7.278-7.279c0-4.014,3.265-7.279,7.278-7.279s7.277,3.265,7.277,7.279
	C40.34,35.764,37.076,39.029,33.062,39.029z M33.062,26.494c-2.898,0-5.257,2.358-5.257,5.256c0,2.898,2.358,5.256,5.257,5.256
	c2.897,0,5.256-2.357,5.256-5.256C38.318,28.852,35.961,26.494,33.062,26.494z M33.062,34.006c-1.245,0-2.257-1.012-2.257-2.256
	s1.013-2.256,2.257-2.256c1.244,0,2.256,1.012,2.256,2.256S34.307,34.006,33.062,34.006z M40.312,42.285l6.5,9.656
	c0,0-3.988,4.554-9.994,5.008l-2.006-12.797C34.812,44.152,38.812,44.166,40.312,42.285z M24.784,22.216l-6.5-10.656
	c0,0,4.529-4.008,9.994-4.008l2.006,11.795C30.284,19.347,26.437,19.528,24.784,22.216z M32.281,19.635L30.49,7.042l1.98-0.281
	l1.791,12.593L32.281,19.635z"/>
</svg>
