<?xml version="1.0" encoding="iso-8859-1"?>
<!-- Generator: Adobe Illustrator 17.0.0, SVG Export Plug-In . SVG Version: 6.00 Build 0)  -->
<!DOCTYPE svg PUBLIC "-//W3C//DTD SVG 1.1//EN" "http://www.w3.org/Graphics/SVG/1.1/DTD/svg11.dtd">
<svg version="1.1" id="Capa_1" xmlns="http://www.w3.org/2000/svg" xmlns:xlink="http://www.w3.org/1999/xlink" x="0px" y="0px"
	 width="64px" height="64px" viewBox="0 0 64 64" style="enable-background:new 0 0 64 64;" xml:space="preserve">
<g>
	<path d="M57.911,4.87c0,0-0.286-2.804-3.617-3.756c0,0-3.812,6.703-8.422,10.182c0,0,1.516,1.671-0.398,3.507l0.006,0.006
		l-8.232,8.362l-0.039-0.317c-0.269-0.403-0.579-0.786-0.934-1.141c-2.916-2.916-7.644-2.916-10.56,0
		c-1.431,1.432-2.156,3.3-2.182,5.176l-0.003-0.003c0,0-0.938,2.964-3.774,3.123c-0.021,0.001-0.031,0.007-0.051,0.008
		C14.74,29.239,9.486,30.745,5.66,34.571c-6.358,6.358-4.409,14.718,1.949,21.076c6.358,6.358,14.718,8.307,21.076,1.949
		c3.158-3.158,4.744-7.291,4.765-11.43l0.002,0.002c0,0,0-0.02-0.001-0.029c0-0.047-0.001-0.094-0.001-0.14
		c-0.005-0.927,0.128-5.675,3.322-5.872c3.539-0.219,5.52-2.849,5.52-2.849s2.671-2.959-1.155-2.382
		c-3.826,0.577-3.345-4.814-3.345-4.814l-0.007,0.002c0.086-0.188,0.163-0.379,0.232-0.572l-0.022-0.182l11.209-11.385
		c0.472-0.347,1.721-1.08,3.282-0.476c0,0,6.31-7.108,9.759-9.13C62.245,8.338,59.427,4.305,57.911,4.87z"/>
</g>
</svg>
