<?xml version="1.0" encoding="iso-8859-1"?>
<!-- Generator: Adobe Illustrator 17.0.0, SVG Export Plug-In . SVG Version: 6.00 Build 0)  -->
<!DOCTYPE svg PUBLIC "-//W3C//DTD SVG 1.1//EN" "http://www.w3.org/Graphics/SVG/1.1/DTD/svg11.dtd">
<svg version="1.1" id="Capa_1" xmlns="http://www.w3.org/2000/svg" xmlns:xlink="http://www.w3.org/1999/xlink" x="0px" y="0px"
	 width="64px" height="64px" viewBox="0 0 64 64" style="enable-background:new 0 0 64 64;" xml:space="preserve">
<path d="M31.976,13.057c0,0-0.448-1.194-1-2.667c-0.552-1.473-3.239-2.666-6-2.666h-9.5c-2.761,0-5.448,1.193-6,2.666l-1,2.667
	H31.976z"/>
<path d="M8.476,41.556c0,2.762,2.239,5,5,5h36.677c2.761,0,5-2.238,5-5V20.057c0-2.761-2.239-5-5-5H8.476V41.556z M24.611,33.324
	c0.78-0.165,1.546-0.128,2.223,0.07v-8.271c0-0.566,0.398-1.057,0.952-1.174l10.004-2.11l0.002-0.001
	c0.037-0.008,0.078-0.008,0.117-0.012c0.043-0.004,0.085-0.013,0.127-0.013c0,0,0,0,0.002,0c0.018,0,0.033,0.004,0.05,0.005
	c0.062,0.002,0.124,0.006,0.185,0.019c0.038,0.008,0.072,0.021,0.109,0.032c0.037,0.012,0.076,0.02,0.113,0.035
	c0.04,0.017,0.077,0.039,0.115,0.06c0.029,0.016,0.06,0.029,0.088,0.048c0.035,0.022,0.064,0.051,0.097,0.077
	c0.028,0.023,0.058,0.043,0.083,0.068c0.028,0.027,0.051,0.059,0.076,0.089c0.024,0.029,0.051,0.056,0.073,0.089
	c0.025,0.037,0.045,0.078,0.065,0.117c0.016,0.029,0.033,0.056,0.047,0.086c0.026,0.061,0.045,0.126,0.061,0.191
	c0.003,0.012,0.008,0.023,0.012,0.035v0.001c0.008,0.042,0.01,0.087,0.014,0.13c0.004,0.038,0.012,0.076,0.012,0.114
	c0,0.001,0,0.001,0,0.002v10.966c0,0.07-0.008,0.14-0.021,0.208c-0.026,1.546-1.36,2.993-3.25,3.395
	c-2.136,0.454-4.171-0.604-4.545-2.362c-0.374-1.76,1.056-3.553,3.193-4.007c0.78-0.165,1.546-0.128,2.223,0.07v-6.79l-7.604,1.604
	v9.993c0,0.07-0.008,0.139-0.02,0.207c-0.027,1.546-1.361,2.994-3.25,3.396c-2.137,0.454-4.172-0.604-4.546-2.362
	C21.044,35.571,22.474,33.778,24.611,33.324z"/>
</svg>
