<?xml version="1.0" encoding="iso-8859-1"?>
<!-- Generator: Adobe Illustrator 17.0.0, SVG Export Plug-In . SVG Version: 6.00 Build 0)  -->
<!DOCTYPE svg PUBLIC "-//W3C//DTD SVG 1.1//EN" "http://www.w3.org/Graphics/SVG/1.1/DTD/svg11.dtd">
<svg version="1.1" id="Capa_1" xmlns="http://www.w3.org/2000/svg" xmlns:xlink="http://www.w3.org/1999/xlink" x="0px" y="0px"
	 width="64px" height="64px" viewBox="0 0 64 64" style="enable-background:new 0 0 64 64;" xml:space="preserve">
<g>
	<polygon points="12.943,15.141 12.193,15.141 12.193,17.525 10.965,17.525 10.965,19.291 12.193,19.291 12.193,22.072 
		12.943,22.072 12.943,19.291 14.172,19.291 14.172,17.525 12.943,17.525 	"/>
	<path d="M12.118,57.437h38.769c2.762,0,5-2.239,5-5V13.231c0-2.761-2.238-5-5-5H12.118c-2.762,0-5,2.239-5,5v39.206
		C7.118,55.198,9.356,57.437,12.118,57.437z M49.303,54.646c-1.908,0-3.457-1.548-3.457-3.457c0-1.909,1.549-3.457,3.457-3.457
		c1.91,0,3.457,1.548,3.457,3.457C52.76,53.098,51.213,54.646,49.303,54.646z M50.053,11.148c1.52,0,2.752,1.232,2.752,2.751
		c0,1.52-1.232,2.751-2.752,2.751c-1.52,0-2.75-1.231-2.75-2.751C47.303,12.379,48.533,11.148,50.053,11.148z M52.549,32.833
		c0,8.938-7.245,16.185-16.184,16.185c-8.938,0-16.184-7.246-16.184-16.185c0-8.938,7.245-16.184,16.184-16.184
		C45.304,16.65,52.549,23.896,52.549,32.833z M20.666,18.371l1.817-2.227l-0.872-0.711l1.097-1.343l-1.268-1.057l0.641-0.767
		l1.259,1.05l0.984-1.206l3.1,2.529l-2.713,3.324l-0.872-0.712l-1.817,2.228l-0.32-0.261l-3.274,4.025l0.034,19.1
		c3.024,0.25,5.402,2.78,5.402,5.87c0,3.256-2.64,5.895-5.895,5.895s-5.894-2.639-5.894-5.895c0-3.084,2.37-5.611,5.387-5.869
		l-0.034-19.455l3.5-4.303L20.666,18.371z M10.22,11.148h4.772v14.917H10.22V11.148z"/>
	<circle cx="36.365" cy="32.833" r="1.561"/>
	<path d="M23.117,32.833h1c0-1.972,0.48-3.932,1.387-5.667c2.122-4.06,6.284-6.582,10.861-6.582v-1
		c-4.95,0-9.452,2.728-11.748,7.118C23.636,28.581,23.117,30.701,23.117,32.833z"/>
	<circle cx="17.999" cy="48.274" r="2.167"/>
</g>
</svg>
