<?xml version="1.0" encoding="iso-8859-1"?>
<!-- Generator: Adobe Illustrator 17.0.0, SVG Export Plug-In . SVG Version: 6.00 Build 0)  -->
<!DOCTYPE svg PUBLIC "-//W3C//DTD SVG 1.1//EN" "http://www.w3.org/Graphics/SVG/1.1/DTD/svg11.dtd">
<svg version="1.1" id="Capa_1" xmlns="http://www.w3.org/2000/svg" xmlns:xlink="http://www.w3.org/1999/xlink" x="0px" y="0px"
	 width="64px" height="64px" viewBox="0 0 64 64" style="enable-background:new 0 0 64 64;" xml:space="preserve">
<g>
	<path d="M38.602,22.667C53.347,28.222,60.258,9.575,60.883,7.785c-0.338,0.74-2.889,3.809-21.448-0.952
		c-22.641-5.807-20.994,6.961-20.994,6.961v11.539v11.462C14.979,35.592,10.39,36.85,6.95,40.29
		c-4.417,4.417-5.257,10.739-1.875,14.12c3.381,3.381,9.703,2.542,14.12-1.875c2.296-2.296,3.615-5.105,3.888-7.75h0.036v-0.425
		c0.025-0.415,0.028-0.825,0-1.227V21.644C26.25,20.369,31.183,19.872,38.602,22.667z"/>
	<path d="M60.883,7.785c0.042-0.092,0.052-0.151,0.052-0.151S60.915,7.695,60.883,7.785z"/>
	<path d="M43.803,25.912c-9.792,0-17.757,7.966-17.757,17.758c0,9.791,7.966,17.757,17.757,17.757S61.56,53.461,61.56,43.67
		C61.56,33.878,53.594,25.912,43.803,25.912z M43.803,57.427c-7.586,0-13.757-6.171-13.757-13.757s6.171-13.758,13.757-13.758
		S57.56,36.084,57.56,43.67S51.389,57.427,43.803,57.427z"/>
	<path d="M39.803,35.12c-1.381,0-2.5,1.119-2.5,2.5v12.1c0,1.381,1.119,2.5,2.5,2.5s2.5-1.119,2.5-2.5v-12.1
		C42.303,36.239,41.184,35.12,39.803,35.12z"/>
	<path d="M47.803,35.12c-1.381,0-2.5,1.119-2.5,2.5v12.1c0,1.381,1.119,2.5,2.5,2.5s2.5-1.119,2.5-2.5v-12.1
		C50.303,36.239,49.184,35.12,47.803,35.12z"/>
</g>
</svg>
