<?xml version="1.0" encoding="iso-8859-1"?>
<!-- Generator: Adobe Illustrator 17.0.0, SVG Export Plug-In . SVG Version: 6.00 Build 0)  -->
<!DOCTYPE svg PUBLIC "-//W3C//DTD SVG 1.1//EN" "http://www.w3.org/Graphics/SVG/1.1/DTD/svg11.dtd">
<svg version="1.1" id="Capa_1" xmlns="http://www.w3.org/2000/svg" xmlns:xlink="http://www.w3.org/1999/xlink" x="0px" y="0px"
	 width="64px" height="64px" viewBox="0 0 64 64" style="enable-background:new 0 0 64 64;" xml:space="preserve">
<g>
	<path d="M52.44,5.522c-0.443-0.775-1.315-0.893-1.947-0.261l-5.781,5.782l0.499,0.673l-14.91,16.982
		c-5.698,0.305-13.186,4.525-19.446,11.527c-0.725,0.81-1.41,1.632-2.055,2.464c-0.549,0.704-0.246,1.313,0.641,1.422
		c3.696,0.447,7.08,1.951,9.7,4.567c3.174,3.169,4.719,7.461,4.729,12.075c0.002,0.893,0.514,1.172,1.195,0.594
		c1.541-1.306,3.055-2.771,4.501-4.391c8.439-9.438,11.617-20.532,7.566-25.617l11.765-14.657l0.546,0.737l3.576-8.286
		c0.354-0.82,0.281-2.113-0.163-2.887L52.44,5.522z M28.556,48.511l-11.612-8.722l1.281-1.707l11.613,8.723L28.556,48.511z
		 M32.384,28.774l13.812-15.731l0.39,0.526L33.442,28.983C33.101,28.893,32.747,28.825,32.384,28.774z M35.973,30.203
		c-0.295-0.226-0.609-0.424-0.938-0.599L47.574,14.9l0.327,0.44L35.973,30.203z"/>
</g>
</svg>
