<?xml version="1.0" encoding="iso-8859-1"?>
<!-- Generator: Adobe Illustrator 17.0.0, SVG Export Plug-In . SVG Version: 6.00 Build 0)  -->
<!DOCTYPE svg PUBLIC "-//W3C//DTD SVG 1.1//EN" "http://www.w3.org/Graphics/SVG/1.1/DTD/svg11.dtd">
<svg version="1.1" id="Capa_1" xmlns="http://www.w3.org/2000/svg" xmlns:xlink="http://www.w3.org/1999/xlink" x="0px" y="0px"
	 width="64px" height="64px" viewBox="0 0 64 64" style="enable-background:new 0 0 64 64;" xml:space="preserve">
<g>
	<path d="M9.625,20.5h15.5c0.567,0,1.395-0.485,1.697-1.019l3.161-5.231H9.625c-4.418,0-8,3.582-8,8v2.647
		C3.315,22.258,6.265,20.5,9.625,20.5z"/>
	<path d="M54.375,11h-18.75c-1.105,0-2.439,0.78-2.981,1.743l-0.91,1.507l-3.629,6.007C27.564,21.22,26.23,22,25.125,22h-15.5
		c-4.418,0-8,3.582-8,8v14.75v1.75c0,4.418,3.582,8,8,8h44.75c4.418,0,8-3.582,8-8v-1.75v-22.5V19
		C62.375,14.582,58.793,11,54.375,11z M32,25.816c7.005,0,12.684,5.679,12.684,12.684c0,7.005-5.679,12.684-12.684,12.684
		S19.316,45.505,19.316,38.5C19.316,31.495,24.995,25.816,32,25.816z"/>
	<path d="M32,50.852c6.822,0,12.352-5.53,12.352-12.352c0-6.822-5.53-12.352-12.352-12.352c-6.822,0-12.352,5.53-12.352,12.352
		C19.648,45.322,25.178,50.852,32,50.852z M32,28.148c5.708,0,10.352,4.644,10.352,10.352c0,5.708-4.644,10.352-10.352,10.352
		c-5.708,0-10.352-4.644-10.352-10.352C21.648,32.792,26.292,28.148,32,28.148z"/>
	<path d="M32,46.199c4.252,0,7.699-3.447,7.699-7.699c0-3.669-2.568-6.732-6.004-7.505v2.168h-3.39v-2.168
		c-3.435,0.773-6.004,3.837-6.004,7.505C24.301,42.752,27.748,46.199,32,46.199z M35.438,38.1h0.338
		c0.162-0.425,0.567-0.729,1.048-0.729c0.482,0,0.886,0.304,1.048,0.729h0.337c0.221,0,0.4,0.18,0.4,0.4s-0.18,0.4-0.4,0.4h-0.337
		c-0.162,0.425-0.567,0.729-1.048,0.729c-0.482,0-0.886-0.304-1.048-0.729h-0.338c-0.221,0-0.4-0.18-0.4-0.4
		S35.218,38.1,35.438,38.1z M34.148,40.648c0.156-0.156,0.41-0.156,0.566,0l0.239,0.239c0.415-0.185,0.916-0.114,1.257,0.226
		c0.341,0.341,0.411,0.842,0.226,1.257l0.239,0.239c0.156,0.156,0.156,0.41,0,0.566c-0.078,0.078-0.181,0.117-0.283,0.117
		s-0.205-0.039-0.283-0.117l-0.239-0.239c-0.415,0.185-0.916,0.115-1.256-0.226s-0.411-0.842-0.226-1.257l-0.239-0.239
		C33.992,41.059,33.992,40.805,34.148,40.648z M31.6,42.276v-0.338c0-0.221,0.18-0.4,0.4-0.4s0.4,0.18,0.4,0.4v0.338
		c0.425,0.162,0.729,0.567,0.729,1.048c0,0.482-0.304,0.886-0.729,1.048v0.337c0,0.221-0.18,0.4-0.4,0.4s-0.4-0.18-0.4-0.4v-0.337
		c-0.425-0.162-0.729-0.567-0.729-1.048C30.871,42.843,31.175,42.439,31.6,42.276z M29.285,40.648c0.156-0.156,0.41-0.156,0.566,0
		s0.156,0.41,0,0.566l-0.239,0.239c0.185,0.415,0.114,0.916-0.226,1.257s-0.842,0.411-1.256,0.226l-0.239,0.239
		c-0.078,0.078-0.181,0.117-0.283,0.117s-0.205-0.039-0.283-0.117c-0.156-0.156-0.156-0.41,0-0.566l0.239-0.239
		c-0.185-0.415-0.115-0.916,0.226-1.257c0.341-0.34,0.842-0.411,1.257-0.226L29.285,40.648z M25.79,38.1h0.337
		c0.162-0.425,0.567-0.729,1.048-0.729c0.482,0,0.886,0.304,1.048,0.729h0.338c0.221,0,0.4,0.18,0.4,0.4s-0.18,0.4-0.4,0.4h-0.338
		c-0.162,0.425-0.567,0.729-1.048,0.729c-0.482,0-0.886-0.304-1.048-0.729H25.79c-0.221,0-0.4-0.18-0.4-0.4S25.569,38.1,25.79,38.1z
		"/>
</g>
</svg>
