<?xml version="1.0" encoding="iso-8859-1"?>
<!-- Generator: Adobe Illustrator 17.0.0, SVG Export Plug-In . SVG Version: 6.00 Build 0)  -->
<!DOCTYPE svg PUBLIC "-//W3C//DTD SVG 1.1//EN" "http://www.w3.org/Graphics/SVG/1.1/DTD/svg11.dtd">
<svg version="1.1" id="Capa_1" xmlns="http://www.w3.org/2000/svg" xmlns:xlink="http://www.w3.org/1999/xlink" x="0px" y="0px"
	 width="64px" height="64px" viewBox="0 0 64 64" style="enable-background:new 0 0 64 64;" xml:space="preserve">
<path d="M60.174,34.044c-0.475-2.274-1.231-4.311-2.427-4.644c-2.89-0.803-11.16-4.638-11.16-4.638v0.009
	c-3.12-7.092-8.745-9.455-15.49-10.135c2.577,1.578,4.663,3.621,5.567,6.261c1.408,4.113-0.259,8.792-4.954,13.906
	c-0.667,0.727-1.425,1.4-2.441,1.4c-0.691,0-1.343-0.334-1.743-0.894c-0.67-0.936-0.43-2.044-0.07-3.102
	c0.596-1.755,1.063-4.187-0.099-5.81c-0.885-1.235-2.739-1.998-5.414-2.242c-0.001,3.278-0.005,9.648-0.017,13.393
	c-0.008,2.269-0.183,4.043-0.534,5.377h18.017c0-0.677,0.085-1.332,0.231-1.964c0.78-3.369,3.514-5.981,6.947-6.584
	c0.491-0.086,0.993-0.14,1.509-0.14c0.274,0,0.545,0.016,0.812,0.041c3.756,0.349,6.812,3.088,7.644,6.682
	c0.146,0.632,0.231,1.288,0.231,1.964h0.185c1.618,0,3.042-0.777,3.963-1.964h0.027c0,0,0-0.011-0.001-0.032
	C61.602,40.082,62,39.038,62,37.893C62,36.339,61.281,34.967,60.174,34.044z"/>
<path d="M49.082,36.318c-0.323-0.048-0.65-0.081-0.986-0.081c-0.519,0-1.023,0.065-1.509,0.178
	c-2.323,0.539-4.188,2.286-4.883,4.545c-0.191,0.621-0.295,1.281-0.295,1.964c0,3.688,3,6.688,6.688,6.688s6.688-3,6.688-6.688
	c0-0.683-0.104-1.343-0.295-1.964C53.741,38.534,51.646,36.699,49.082,36.318z M48.096,46.578c-2.018,0-3.654-1.636-3.654-3.654
	c0-0.725,0.217-1.396,0.581-1.964c0.378-0.591,0.92-1.062,1.564-1.356c0.461-0.21,0.969-0.334,1.509-0.334
	c0.395,0,0.768,0.079,1.124,0.195c0.81,0.264,1.497,0.791,1.948,1.495c0.364,0.568,0.581,1.24,0.581,1.964
	C51.75,44.942,50.114,46.578,48.096,46.578z"/>
<path d="M29.348,32.85c-0.303,0.89-0.326,1.352-0.08,1.352c0.18,0,0.504-0.246,0.968-0.752c9.716-10.582,3.241-16.185-4.189-19.057
	c-3.237-1.251-6.654-1.986-8.994-2.384c-0.156-0.026-0.309-0.039-0.458-0.039c-1.389,0-2.458,1.106-2.458,2.575v6.494v10.32
	c-0.43-0.158-0.877-0.28-1.334-0.372c-0.552-0.111-1.121-0.176-1.707-0.176c-4.886,0-8.846,3.961-8.846,8.846
	s3.961,8.846,8.846,8.846c3.579,0,6.659-2.126,8.051-5.184c0.674-1.481,0.772-4.152,0.777-5.779
	c0.003-0.953,0.006-2.077,0.008-3.276c0.009-5.345,0.009-12.196,0.009-12.196C31.372,22.069,30.685,28.918,29.348,32.85z"/>
</svg>
