<?xml version="1.0" encoding="iso-8859-1"?>
<!-- Generator: Adobe Illustrator 17.0.0, SVG Export Plug-In . SVG Version: 6.00 Build 0)  -->
<!DOCTYPE svg PUBLIC "-//W3C//DTD SVG 1.1//EN" "http://www.w3.org/Graphics/SVG/1.1/DTD/svg11.dtd">
<svg version="1.1" id="Capa_1" xmlns="http://www.w3.org/2000/svg" xmlns:xlink="http://www.w3.org/1999/xlink" x="0px" y="0px"
	 width="64px" height="64px" viewBox="0 0 64 64" style="enable-background:new 0 0 64 64;" xml:space="preserve">
<path d="M34.096,6.108c-13.863,0-25.142,11.278-25.142,25.142s11.278,25.142,25.142,25.142S59.237,45.113,59.237,31.25
	S47.959,6.108,34.096,6.108z M11.229,34.817c-0.181-1.163-0.275-2.355-0.275-3.567c0-12.761,10.381-23.142,23.142-23.142
	c1.031,0,2.045,0.075,3.041,0.206l-1.759,2.594c-0.426-0.026-0.85-0.064-1.282-0.064c-11.252,0-20.406,9.154-20.406,20.406
	c0,0.562,0.039,1.115,0.084,1.666L11.229,34.817z M14.737,32.195c-0.016-0.315-0.048-0.626-0.048-0.945
	c0-10.7,8.706-19.406,19.406-19.406c0.212,0,0.417,0.025,0.627,0.032l-2.276,3.357c-7.597,0.776-13.644,6.858-14.373,14.469
	L14.737,32.195z M31.683,16.361l-4.357,6.427l-8.122,6.07C20.229,22.455,25.282,17.396,31.683,16.361z M34.096,39.749
	c-4.693,0-8.499-3.806-8.499-8.499s3.806-8.499,8.499-8.499s8.499,3.806,8.499,8.499S38.789,39.749,34.096,39.749z"/>
<path d="M38.504,31.25c0,2.431-1.978,4.408-4.408,4.408c-0.553,0-1,0.447-1,1s0.447,1,1,1c3.533,0,6.408-2.875,6.408-6.408
	c0-0.553-0.447-1-1-1S38.504,30.697,38.504,31.25z"/>
</svg>
