<?xml version="1.0" encoding="iso-8859-1"?>
<!-- Generator: Adobe Illustrator 17.0.0, SVG Export Plug-In . SVG Version: 6.00 Build 0)  -->
<!DOCTYPE svg PUBLIC "-//W3C//DTD SVG 1.1//EN" "http://www.w3.org/Graphics/SVG/1.1/DTD/svg11.dtd">
<svg version="1.1" id="Capa_1" xmlns="http://www.w3.org/2000/svg" xmlns:xlink="http://www.w3.org/1999/xlink" x="0px" y="0px"
	 width="64px" height="64px" viewBox="0 0 64 64" style="enable-background:new 0 0 64 64;" xml:space="preserve">
<path d="M32.132,2.623C15.908,2.623,2.755,15.776,2.755,32c0,16.224,13.152,29.377,29.377,29.377
	c16.224,0,29.377-13.152,29.377-29.377C61.509,15.776,48.356,2.623,32.132,2.623z M32.132,44.21c-6.743,0-12.21-5.467-12.21-12.21
	s5.467-12.21,12.21-12.21c6.743,0,12.21,5.467,12.21,12.21S38.875,44.21,32.132,44.21z M49.509,33.5c-0.829,0-1.5-0.672-1.5-1.5
	c0-8.755-7.123-15.877-15.877-15.877c-0.829,0-1.5-0.672-1.5-1.5s0.671-1.5,1.5-1.5c10.409,0,18.877,8.468,18.877,18.877
	C51.009,32.828,50.337,33.5,49.509,33.5z M56.175,33.5c-0.829,0-1.5-0.672-1.5-1.5c0-12.431-10.113-22.543-22.543-22.543
	c-0.829,0-1.5-0.672-1.5-1.5s0.671-1.5,1.5-1.5c14.084,0,25.543,11.459,25.543,25.543C57.675,32.828,57.004,33.5,56.175,33.5z"/>
<path d="M32.132,27.79c-2.321,0-4.21,1.889-4.21,4.21s1.889,4.21,4.21,4.21c2.321,0,4.21-1.889,4.21-4.21S34.453,27.79,32.132,27.79
	z"/>
</svg>
