<?xml version="1.0" encoding="iso-8859-1"?>
<!-- Generator: Adobe Illustrator 17.0.0, SVG Export Plug-In . SVG Version: 6.00 Build 0)  -->
<!DOCTYPE svg PUBLIC "-//W3C//DTD SVG 1.1//EN" "http://www.w3.org/Graphics/SVG/1.1/DTD/svg11.dtd">
<svg version="1.1" id="Capa_1" xmlns="http://www.w3.org/2000/svg" xmlns:xlink="http://www.w3.org/1999/xlink" x="0px" y="0px"
	 width="64px" height="64px" viewBox="0 0 64 64" style="enable-background:new 0 0 64 64;" xml:space="preserve">
<path d="M30.134,2.24c-14.989,0-27.139,12.15-27.139,27.139s12.149,27.139,27.139,27.139c14.988,0,27.139-12.15,27.139-27.139
	S45.122,2.24,30.134,2.24z M26.81,5.607l0.392,8.295c-2.848,0.535-5.426,1.838-7.511,3.686l-6.777-4.926
	C16.547,8.92,21.389,6.357,26.81,5.607z M30.134,42.512c-7.241,0-13.132-5.891-13.132-13.133c0-7.24,5.891-13.131,13.132-13.131
	c7.241,0,13.132,5.891,13.132,13.131C43.266,36.621,37.375,42.512,30.134,42.512z"/>
<path d="M30.134,19.75c-5.31,0-9.63,4.32-9.63,9.629s4.32,9.631,9.63,9.631s9.63-4.322,9.63-9.631S35.443,19.75,30.134,19.75z
	 M30.134,34.193c-2.659,0-4.815-2.156-4.815-4.815s2.156-4.814,4.815-4.814c2.659,0,4.815,2.156,4.815,4.814
	S32.793,34.193,30.134,34.193z"/>
</svg>
