<?xml version="1.0" encoding="iso-8859-1"?>
<!-- Generator: Adobe Illustrator 17.0.0, SVG Export Plug-In . SVG Version: 6.00 Build 0)  -->
<!DOCTYPE svg PUBLIC "-//W3C//DTD SVG 1.1//EN" "http://www.w3.org/Graphics/SVG/1.1/DTD/svg11.dtd">
<svg version="1.1" id="Capa_1" xmlns="http://www.w3.org/2000/svg" xmlns:xlink="http://www.w3.org/1999/xlink" x="0px" y="0px"
	 width="64px" height="64px" viewBox="0 0 64 64" style="enable-background:new 0 0 64 64;" xml:space="preserve">
<g>
	<path d="M13.222,44.491l6.944-1.729l-4.347-17.46L8.875,27.03c-2.099,0.522-3.376,2.648-2.854,4.746l2.455,9.859
		C8.998,43.734,11.123,45.013,13.222,44.491z"/>
	<path d="M34.995,12.795c-0.522-2.098-2.188-2.559-3.718-1.032L18.339,24.675l4.347,17.46l17.68,5.913
		c2.051,0.685,3.291-0.46,2.768-2.559L34.995,12.795z"/>
	<path d="M44.076,30.416l13.646-3.396c1.34-0.333,2.156-1.689,1.822-3.029c-0.333-1.34-1.685-2.158-3.029-1.822l-13.646,3.397
		c-1.34,0.333-2.155,1.689-1.822,3.029c0.283,1.138,1.303,1.897,2.424,1.897C43.669,30.491,43.873,30.467,44.076,30.416z"/>
	<path d="M41.725,22.286c0.672,0,1.34-0.269,1.833-0.799l9.195-9.903c0.939-1.012,0.881-2.594-0.131-3.533
		c-1.011-0.94-2.593-0.881-3.533,0.131l-9.195,9.903c-0.939,1.012-0.881,2.594,0.131,3.533
		C40.506,22.065,41.117,22.286,41.725,22.286z"/>
	<path d="M59.299,37.878l-12.766-4.435c-1.303-0.454-2.729,0.236-3.182,1.541c-0.453,1.304,0.236,2.729,1.541,3.182l12.765,4.436
		c0.272,0.095,0.549,0.14,0.821,0.14c1.034,0,2.002-0.647,2.361-1.681C61.293,39.756,60.604,38.331,59.299,37.878z"/>
</g>
</svg>
