<?xml version="1.0" encoding="iso-8859-1"?>
<!-- Generator: Adobe Illustrator 17.0.0, SVG Export Plug-In . SVG Version: 6.00 Build 0)  -->
<!DOCTYPE svg PUBLIC "-//W3C//DTD SVG 1.1//EN" "http://www.w3.org/Graphics/SVG/1.1/DTD/svg11.dtd">
<svg version="1.1" id="Capa_1" xmlns="http://www.w3.org/2000/svg" xmlns:xlink="http://www.w3.org/1999/xlink" x="0px" y="0px"
	 width="64px" height="64px" viewBox="0 0 64 64" style="enable-background:new 0 0 64 64;" xml:space="preserve">
<g>
	<path d="M32,5.167C17.204,5.167,5.167,17.204,5.167,32S17.204,58.833,32,58.833S58.833,46.796,58.833,32S46.796,5.167,32,5.167z
		 M38.625,8.691l-3.719,15.99c0,0-2.472-1.38-5.812,0l-2.85-15.99C31.112,6.433,38.625,8.691,38.625,8.691z M35.256,32
		c0,1.796-1.461,3.257-3.256,3.257S28.744,33.796,28.744,32s1.461-3.257,3.256-3.257S35.256,30.204,35.256,32z M23.238,9.055
		l4.769,16.052l-1.917,0.57L21.321,9.625L23.238,9.055z M27.891,54.88c-1.406,0.228-2.572-0.811-2.572-0.811l3.739-13.934
		L27.891,54.88z M32.941,55.277l-1.672-15.496c3.391,0.501,5.262-1.354,5.262-1.354l7.618,13.965
		C44.149,52.392,37.948,56.236,32.941,55.277z"/>
</g>
</svg>
