<?xml version="1.0" encoding="iso-8859-1"?>
<!-- Generator: Adobe Illustrator 17.0.0, SVG Export Plug-In . SVG Version: 6.00 Build 0)  -->
<!DOCTYPE svg PUBLIC "-//W3C//DTD SVG 1.1//EN" "http://www.w3.org/Graphics/SVG/1.1/DTD/svg11.dtd">
<svg version="1.1" id="Capa_1" xmlns="http://www.w3.org/2000/svg" xmlns:xlink="http://www.w3.org/1999/xlink" x="0px" y="0px"
	 width="64px" height="64px" viewBox="0 0 64 64" style="enable-background:new 0 0 64 64;" xml:space="preserve">
<path d="M16.352,59.242h31.181c1.014,0,1.817-0.82,1.797-1.834L48.305,7.519c-0.021-1.013-0.859-1.834-1.872-1.834H17.454
	c-1.013,0-1.852,0.821-1.872,1.834l-1.025,49.889C14.536,58.422,15.34,59.242,16.352,59.242z M31.943,53.062
	c-6.759,0-12.238-5.479-12.238-12.237c0-6.759,5.479-12.238,12.238-12.238c6.759,0,12.238,5.479,12.238,12.238
	C44.182,47.583,38.702,53.062,31.943,53.062z M46.076,22.504v4c0,1.104-0.573,1.312-1.28,0.464l-4.106-4.928
	c-0.707-0.849-0.385-1.536,0.72-1.536h2.667C45.181,20.504,46.076,21.399,46.076,22.504z M24.376,10.837h14.806c2.762,0,5,1.343,5,3
	s-2.238,3-5,3H24.376c-2.762,0-5-1.343-5-3S21.614,10.837,24.376,10.837z M18.41,22.504c0-1.104,0.896-2,2-2h2.667
	c1.104,0,1.427,0.688,0.72,1.536l-4.107,4.928c-0.707,0.849-1.28,0.641-1.28-0.464V22.504z"/>
<circle cx="31.943" cy="40.67" r="5.333"/>
</svg>
