<?xml version="1.0" encoding="iso-8859-1"?>
<!-- Generator: Adobe Illustrator 17.0.0, SVG Export Plug-In . SVG Version: 6.00 Build 0)  -->
<!DOCTYPE svg PUBLIC "-//W3C//DTD SVG 1.1//EN" "http://www.w3.org/Graphics/SVG/1.1/DTD/svg11.dtd">
<svg version="1.1" id="Capa_1" xmlns="http://www.w3.org/2000/svg" xmlns:xlink="http://www.w3.org/1999/xlink" x="0px" y="0px"
	 width="64px" height="64px" viewBox="0 0 64 64" style="enable-background:new 0 0 64 64;" xml:space="preserve">
<path d="M10.067,52.857v6.393h6.393v-1.734c10.876-0.622,19.61-4.456,25.982-11.443C56.003,31.203,53.998,7.608,53.906,6.611
	c-0.082-0.889-0.742-1.615-1.619-1.781c-0.881-0.165-1.757,0.268-2.159,1.064c-1.361,2.698-6.156,10.401-10.193,10.4
	c-1.396,0-2.765-1.069-4.068-3.179c-4.78-7.738-11.491-9.363-16.279-9.363c-1.144,0-2.198,0.095-3.129,0.229V2h-6.393v6.393
	c0,0.846,0.335,1.61,0.872,2.182v40.099C10.402,51.246,10.067,52.01,10.067,52.857z M47.038,30.054V16.876
	c1.081-1.011,2.067-2.146,2.93-3.271C49.766,17.986,49.07,24.016,47.038,30.054z M46.038,17.752v14.965
	c-0.971,2.385-2.166,4.733-3.649,6.941V19.862C43.676,19.422,44.901,18.675,46.038,17.752z M41.389,20.144v20.906
	c-0.602,0.803-1.229,1.591-1.916,2.343c-0.555,0.607-1.137,1.18-1.734,1.733V19.931c0.707,0.237,1.439,0.363,2.197,0.363
	C40.427,20.295,40.911,20.242,41.389,20.144z M36.739,19.508v26.506c-1.147,0.971-2.362,1.852-3.65,2.637V16.142
	C34.198,17.701,35.416,18.828,36.739,19.508z M32.089,14.643v34.595c-1.162,0.648-2.381,1.219-3.649,1.724v-40.32
	C29.8,11.69,31.016,13.028,32.089,14.643z M27.439,51.349c-1.172,0.422-2.392,0.78-3.65,1.085V8.312
	c1.303,0.364,2.52,0.909,3.65,1.632V51.349z M22.79,8.07v44.596c-1.181,0.252-2.397,0.456-3.65,0.608V7.77
	c0.152-0.004,0.294-0.017,0.45-0.017C20.705,7.753,21.77,7.862,22.79,8.07z M18.14,7.818v45.558c-0.553,0.054-1.113,0.1-1.68,0.135
	v-0.655c0-0.846-0.335-1.61-0.872-2.182V10.576c0.537-0.572,0.872-1.336,0.872-2.182V8.038C16.966,7.948,17.524,7.87,18.14,7.818z"
	/>
</svg>
