<?xml version="1.0" encoding="iso-8859-1"?>
<!-- Generator: Adobe Illustrator 17.0.0, SVG Export Plug-In . SVG Version: 6.00 Build 0)  -->
<!DOCTYPE svg PUBLIC "-//W3C//DTD SVG 1.1//EN" "http://www.w3.org/Graphics/SVG/1.1/DTD/svg11.dtd">
<svg version="1.1" id="Capa_1" xmlns="http://www.w3.org/2000/svg" xmlns:xlink="http://www.w3.org/1999/xlink" x="0px" y="0px"
	 width="64px" height="64px" viewBox="0 0 64 64" style="enable-background:new 0 0 64 64;" xml:space="preserve">
<path d="M29.345,16.91c-7.279,1.546-12.604,6.792-13.524,12.66l-5.728,0.629c-1.791,0.197-3.083,1.808-2.886,3.598
	c0.184,1.669,1.596,2.904,3.237,2.904c0.119,0,0.24-0.006,0.36-0.02l5.886-0.646c2.681,5.983,10.333,9.34,18.336,7.641
	c6.629-1.407,11.628-5.885,13.167-11.104l6.089-0.669c1.791-0.196,3.083-1.808,2.886-3.597c-0.197-1.79-1.813-3.079-3.598-2.885
	l-5.352,0.588C46.199,19.125,37.978,15.076,29.345,16.91z M30.208,20.979c3.752-0.797,7.564,1.818,9.144,6.004l-15.038,1.653
	C24.627,24.836,26.896,21.682,30.208,20.979z M34.162,39.605c-3.296,0.701-6.638-1.238-8.473-4.56l14.129-1.553
	C39.093,36.578,37.014,39,34.162,39.605z"/>
</svg>
