<?xml version="1.0" encoding="iso-8859-1"?>
<!-- Generator: Adobe Illustrator 17.0.0, SVG Export Plug-In . SVG Version: 6.00 Build 0)  -->
<!DOCTYPE svg PUBLIC "-//W3C//DTD SVG 1.1//EN" "http://www.w3.org/Graphics/SVG/1.1/DTD/svg11.dtd">
<svg version="1.1" id="Capa_1" xmlns="http://www.w3.org/2000/svg" xmlns:xlink="http://www.w3.org/1999/xlink" x="0px" y="0px"
	 width="64px" height="64px" viewBox="0 0 64 64" style="enable-background:new 0 0 64 64;" xml:space="preserve">
<g>
	<polygon points="13.777,37.814 10.442,37.814 10.442,11.814 19.442,11.814 19.442,37.814 15.777,37.814 15.777,51.481 
		22.276,51.481 22.276,8.148 14.942,8.148 5.942,8.148 5.942,51.481 13.777,51.481 	"/>
	<polygon points="31.867,51.481 31.867,37.814 28.442,37.814 28.442,11.814 37.442,11.814 37.442,37.814 33.867,37.814 
		33.867,51.481 40.568,51.481 40.568,8.148 32.942,8.148 24.276,8.148 24.276,51.481 	"/>
	<path d="M50.942,8.148h-0.15h-8.224v43.333h8.224h0.15h8.85V8.148H50.942z M55.292,37.814h-3.335V50.98h-2V37.814h-3.665v-26h9
		V37.814z"/>
</g>
</svg>
