<?xml version="1.0" encoding="iso-8859-1"?>
<!-- Generator: Adobe Illustrator 17.0.0, SVG Export Plug-In . SVG Version: 6.00 Build 0)  -->
<!DOCTYPE svg PUBLIC "-//W3C//DTD SVG 1.1//EN" "http://www.w3.org/Graphics/SVG/1.1/DTD/svg11.dtd">
<svg version="1.1" id="Capa_1" xmlns="http://www.w3.org/2000/svg" xmlns:xlink="http://www.w3.org/1999/xlink" x="0px" y="0px"
	 width="64px" height="64px" viewBox="0 0 64 64" style="enable-background:new 0 0 64 64;" xml:space="preserve">
<g>
	<path d="M9.625,20.5h15.5c0.567,0,1.395-0.485,1.697-1.019l3.161-5.231H9.625c-4.418,0-8,3.582-8,8v2.647
		C3.315,22.258,6.265,20.5,9.625,20.5z"/>
	<path d="M54.375,11h-18.75c-1.105,0-2.439,0.78-2.981,1.743l-0.91,1.507l-3.629,6.007C27.564,21.22,26.23,22,25.125,22h-15.5
		c-4.418,0-8,3.582-8,8v14.75v1.75c0,4.418,3.582,8,8,8h44.75c4.418,0,8-3.582,8-8v-1.75v-22.5V19
		C62.375,14.582,58.793,11,54.375,11z M51.521,39.863l-6.533,6.533c-0.833,0.833-2.182,0.833-3.015,0l-6.533-6.533
		c-0.833-0.833-0.553-1.508,0.624-1.508h3.152V31.96c0-1.177,0.955-2.132,2.132-2.132h4.264c1.177,0,2.132,0.954,2.132,2.132v6.396
		h3.152C52.074,38.356,52.353,39.031,51.521,39.863z M13.634,42.143c0.986-0.971,2.257-1.529,3.487-1.529
		c0.283,0,0.561,0.03,0.825,0.09v-5.377v-2.421c0-1.029,0-1.783,0.756-1.84c0.145-0.033,0.523-0.13,0.953-0.243l10.581-2.793
		c0.151-0.04,0.304-0.06,0.455-0.06c0.889,0,1.559,0.693,1.559,1.611v2.283v0.111c0,0,0,6.146-0.002,8.652l0.001,0.244
		c0.003,0.648,0.008,1.454-0.15,2.041c-0.234,0.868-0.722,1.687-1.413,2.367c-0.993,0.978-2.272,1.539-3.509,1.539
		c-0.925,0-1.765-0.326-2.366-0.918c-1.19-1.172-1.247-3.18-0.138-4.882c0.378-0.579,1.132-1.323,1.718-1.692
		c0.803-0.507,1.68-0.774,2.538-0.774c0.284,0,0.563,0.03,0.828,0.09v-5.388c0-0.001,0-0.003,0-0.004l-0.005,0.001l-8.902,2.35
		c-0.205,0.054-0.413,0.325-0.413,0.537v7.567c0,0,0,0.133-0.003,0.265c-0.004,0.211-0.07,0.898-0.327,1.54
		c-0.266,0.668-0.692,1.302-1.232,1.833c-0.993,0.978-2.272,1.539-3.509,1.539c-0.925,0-1.765-0.326-2.366-0.918
		c-0.604-0.595-0.937-1.429-0.937-2.347C12.066,44.39,12.638,43.124,13.634,42.143z"/>
</g>
</svg>
