<?xml version="1.0" encoding="iso-8859-1"?>
<!-- Generator: Adobe Illustrator 17.0.0, SVG Export Plug-In . SVG Version: 6.00 Build 0)  -->
<!DOCTYPE svg PUBLIC "-//W3C//DTD SVG 1.1//EN" "http://www.w3.org/Graphics/SVG/1.1/DTD/svg11.dtd">
<svg version="1.1" id="Capa_1" xmlns="http://www.w3.org/2000/svg" xmlns:xlink="http://www.w3.org/1999/xlink" x="0px" y="0px"
	 width="64px" height="64px" viewBox="0 0 64 64" style="enable-background:new 0 0 64 64;" xml:space="preserve">
<g>
	<path d="M56.208,11.208H7.792c-2.157,0-3.905,1.749-3.905,3.905v10.932c0,2.156,1.748,3.905,3.905,3.905h0.976v4.1H7.792
		c-2.157,0-3.905,1.748-3.905,3.904v10.934c0,2.156,1.748,3.904,3.905,3.904h48.416c2.157,0,3.905-1.748,3.905-3.904V37.954
		c0-2.156-1.748-3.904-3.905-3.904h-0.129v-4.1h0.129c2.157,0,3.905-1.749,3.905-3.905V15.113
		C60.113,12.957,58.365,11.208,56.208,11.208z M20.222,17.195h22.646V21.1H20.222V17.195z M41.11,26.176
		c0,0.934-0.759,1.691-1.692,1.691c-0.935,0-1.691-0.758-1.691-1.691s0.756-1.691,1.691-1.691
		C40.352,24.484,41.11,25.242,41.11,26.176z M33.561,26.176c0,0.934-0.756,1.691-1.691,1.691c-0.933,0-1.692-0.758-1.692-1.691
		s0.759-1.691,1.692-1.691C32.806,24.484,33.561,25.242,33.561,26.176z M26.795,26.176c0,0.934-0.758,1.691-1.692,1.691
		c-0.934,0-1.691-0.758-1.691-1.691s0.758-1.691,1.691-1.691C26.037,24.484,26.795,25.242,26.795,26.176z M9.158,48.821
		c-0.934,0-1.692-0.757-1.692-1.69c0-0.936,0.759-1.692,1.692-1.692c0.935,0,1.691,0.757,1.691,1.692
		C10.85,48.064,10.093,48.821,9.158,48.821z M10.851,23.962c-1.87,0-3.385-1.515-3.385-3.383s1.515-3.384,3.385-3.384
		c1.869,0,3.384,1.516,3.384,3.384S12.72,23.962,10.851,23.962z M15.925,48.821c-0.933,0-1.69-0.757-1.69-1.69
		c0-0.936,0.758-1.692,1.69-1.692c0.936,0,1.692,0.757,1.692,1.692C17.617,48.064,16.86,48.821,15.925,48.821z M32,47.131
		c-2.731,0-4.945-2.215-4.945-4.946c0-2.73,2.214-4.945,4.945-4.945c2.731,0,4.946,2.215,4.946,4.945
		C36.946,44.916,34.731,47.131,32,47.131z M46.839,34.05h-28.83v-4.1h28.83V34.05z M50.937,44.137c-1.868,0-3.383-1.515-3.383-3.383
		c0-1.869,1.515-3.385,3.383-3.385c1.87,0,3.384,1.516,3.384,3.385C54.321,42.622,52.808,44.137,50.937,44.137z M51.978,23.962
		c-1.87,0-3.385-1.515-3.385-3.383s1.515-3.384,3.385-3.384c1.869,0,3.384,1.516,3.384,3.384S53.848,23.962,51.978,23.962z"/>
</g>
</svg>
