<?xml version="1.0" encoding="iso-8859-1"?>
<!-- Generator: Adobe Illustrator 17.0.0, SVG Export Plug-In . SVG Version: 6.00 Build 0)  -->
<!DOCTYPE svg PUBLIC "-//W3C//DTD SVG 1.1//EN" "http://www.w3.org/Graphics/SVG/1.1/DTD/svg11.dtd">
<svg version="1.1" id="Capa_1" xmlns="http://www.w3.org/2000/svg" xmlns:xlink="http://www.w3.org/1999/xlink" x="0px" y="0px"
	 width="64px" height="64px" viewBox="0 0 64 64" style="enable-background:new 0 0 64 64;" xml:space="preserve">
<g>
	<path d="M9.625,20.25h15.5c0.567,0,1.395-0.485,1.697-1.019L29.982,14H9.625c-4.418,0-8,3.582-8,8v2.647
		C3.315,22.008,6.265,20.25,9.625,20.25z"/>
	<path d="M54.375,10.75h-18.75c-1.105,0-2.439,0.78-2.981,1.743L31.734,14l-3.629,6.007c-0.542,0.963-1.876,1.743-2.981,1.743h-15.5
		c-4.418,0-8,3.582-8,8V44.5v1.75c0,4.418,3.582,8,8,8h44.75c4.418,0,8-3.582,8-8V44.5V22v-3.25
		C62.375,14.332,58.793,10.75,54.375,10.75z M21.79,42.01c0.079-0.091,0.15-0.187,0.238-0.273c0.831-0.818,1.867-1.244,2.803-1.244
		c0.583,0,1.126,0.165,1.557,0.503v-3.533v-1.735v-1.068v-3.294v-0.027h0.101l0.857-0.226l4.527-1.195l6.689-1.766v3.066v0.121
		v0.106v1.725v4.505v1.953v1.108h-0.004c0.043,0.961-0.392,2.049-1.266,2.911c-0.071,0.07-0.151,0.121-0.225,0.185
		c-0.795,0.692-1.737,1.07-2.599,1.07c-0.665,0-1.278-0.215-1.729-0.659c-0.373-0.367-0.575-0.847-0.637-1.371
		c-0.121-1.009,0.305-2.19,1.242-3.113c0.407-0.401,0.864-0.705,1.334-0.913c0.489-0.217,0.992-0.331,1.469-0.331
		c0.584,0,1.129,0.166,1.561,0.506v-1.515v-4.501v-1.332l-2.85,0.753l-7.613,2.01V35.8v1.758v4.699v0.399
		c0.001,0.009-0.001,0.019,0,0.028v0.479h-0.018c-0.028,0.273-0.105,0.551-0.204,0.828c-0.204,0.574-0.546,1.142-1.045,1.634
		c-0.835,0.823-1.882,1.255-2.824,1.255c-0.665,0-1.278-0.215-1.729-0.659c-0.641-0.632-0.8-1.587-0.541-2.551
		C21.035,43.096,21.342,42.525,21.79,42.01z M29.244,36.005c1.731,0.2,3.44,0.497,5.137,0.829c-0.874,0.297-1.707,0.789-2.411,1.474
		c-0.879-0.165-1.791-0.325-2.726-0.471V36.005z M29.171,43.695c0.047-0.169,0.073-0.348,0.073-0.532v-0.479
		c0-0.003,0-0.005,0-0.008c0-0.007,0-0.013,0-0.02h0v-0.194c0.277,0.032,0.553,0.066,0.828,0.102
		c0.004,0.697,0.17,1.351,0.456,1.941c-0.493-0.085-0.993-0.167-1.5-0.244C29.079,44.073,29.139,43.887,29.171,43.695z
		 M40.562,38.054c4.326,0.779,8.66,1.201,13.184,0.07c1.155-0.289,1.644,1.491,0.49,1.779c-4.654,1.164-9.143,0.844-13.674,0.083
		V38.054z M37.651,45.908c0.369-0.24,0.721-0.518,1.044-0.836c0.249-0.245,0.469-0.509,0.672-0.781
		c4.725,0.912,9.439,1.527,14.379,0.292c1.155-0.289,1.644,1.491,0.49,1.779C48.588,47.774,43.184,47.003,37.651,45.908z
		 M54.237,33.446c-4.654,1.164-9.143,0.844-13.674,0.083v-1.932c4.326,0.779,8.66,1.201,13.184,0.071
		C54.901,31.378,55.39,33.158,54.237,33.446z M9.517,32.519c4.496-3.565,11.24-3.7,16.954-3.244l-0.277,0.073
		c-0.842,0.081-1.523,0.687-1.733,1.484c-5.011-0.339-10.092,0.18-13.639,2.992C9.9,34.555,8.585,33.258,9.517,32.519z
		 M9.517,38.977c3.96-3.14,9.663-3.616,14.871-3.374v1.681c-4.987-0.329-10.037,0.199-13.566,2.998
		C9.9,41.013,8.585,39.716,9.517,38.977z M9.517,45.435c2.698-2.139,6.206-3.037,9.814-3.32c-0.266,0.549-0.444,1.124-0.524,1.705
		c-2.995,0.324-5.788,1.176-7.986,2.919C9.9,47.471,8.585,46.174,9.517,45.435z"/>
</g>
</svg>
