<?xml version="1.0" encoding="iso-8859-1"?>
<!-- Generator: Adobe Illustrator 17.0.0, SVG Export Plug-In . SVG Version: 6.00 Build 0)  -->
<!DOCTYPE svg PUBLIC "-//W3C//DTD SVG 1.1//EN" "http://www.w3.org/Graphics/SVG/1.1/DTD/svg11.dtd">
<svg version="1.1" id="Capa_1" xmlns="http://www.w3.org/2000/svg" xmlns:xlink="http://www.w3.org/1999/xlink" x="0px" y="0px"
	 width="64px" height="64px" viewBox="0 0 64 64" style="enable-background:new 0 0 64 64;" xml:space="preserve">
<g>
	<path d="M9.625,20.25h15.5c0.567,0,1.395-0.485,1.697-1.019L29.982,14H9.625c-4.418,0-8,3.582-8,8v2.647
		C3.315,22.008,6.265,20.25,9.625,20.25z"/>
	<path d="M54.375,10.75h-18.75c-1.105,0-2.439,0.78-2.981,1.743L31.734,14l-3.629,6.007c-0.542,0.963-1.876,1.743-2.981,1.743h-15.5
		c-4.418,0-8,3.582-8,8V44.5v1.75c0,4.418,3.582,8,8,8h44.75c4.418,0,8-3.582,8-8V44.5V22v-3.25
		C62.375,14.332,58.793,10.75,54.375,10.75z M32.132,24.748c6.766,0,12.252,5.485,12.252,12.252c0,6.766-5.485,12.252-12.252,12.252
		c-6.766,0-12.252-5.485-12.252-12.252C19.88,30.234,25.365,24.748,32.132,24.748z"/>
	<circle cx="32.132" cy="37" r="2.009"/>
	<path d="M32.132,41.452c2.454,0,4.451-1.997,4.451-4.452s-1.997-4.452-4.451-4.452c-2.455,0-4.452,1.997-4.452,4.452
		S29.677,41.452,32.132,41.452z M32.132,33.548c1.903,0,3.451,1.548,3.451,3.452s-1.548,3.452-3.451,3.452S28.68,38.903,28.68,37
		S30.229,33.548,32.132,33.548z"/>
</g>
</svg>
