<?xml version="1.0" encoding="iso-8859-1"?>
<!-- Generator: Adobe Illustrator 17.0.0, SVG Export Plug-In . SVG Version: 6.00 Build 0)  -->
<!DOCTYPE svg PUBLIC "-//W3C//DTD SVG 1.1//EN" "http://www.w3.org/Graphics/SVG/1.1/DTD/svg11.dtd">
<svg version="1.1" id="Capa_1" xmlns="http://www.w3.org/2000/svg" xmlns:xlink="http://www.w3.org/1999/xlink" x="0px" y="0px"
	 width="64px" height="64px" viewBox="0 0 64 64" style="enable-background:new 0 0 64 64;" xml:space="preserve">
<path d="M12.789,12.158v41.904c0,2.762,2.238,5,5,5h26.353c2.761,0,5-2.238,5-5V12.158c0-0.553-0.189-1.406-0.419-1.908
	l-1.004-2.172C46.933,6.378,44.057,5,41.296,5H20.973c-2.761,0-5.713,1.378-6.593,3.078c-0.443,0.857-0.844,1.633-1.133,2.191
	C12.995,10.76,12.789,11.606,12.789,12.158z M19.498,54.814c-0.772,0-1.397-0.625-1.397-1.396s0.625-1.396,1.397-1.396
	c0.771,0,1.397,0.625,1.397,1.396S20.269,54.814,19.498,54.814z M18.355,33.41c0-0.771,0.627-1.396,1.398-1.396
	c0.771,0,1.396,0.625,1.396,1.396c0,0.771-0.626,1.396-1.396,1.396C18.982,34.807,18.355,34.182,18.355,33.41z M42.431,54.814
	c-0.771,0-1.396-0.625-1.396-1.396s0.626-1.396,1.396-1.396c0.771,0,1.396,0.625,1.396,1.396S43.203,54.814,42.431,54.814z
	 M42.686,34.807c-0.771,0-1.396-0.625-1.396-1.396c0-0.771,0.626-1.396,1.396-1.396c0.772,0,1.397,0.625,1.397,1.396
	C44.083,34.182,43.458,34.807,42.686,34.807z M42.176,19.014c1.337,0,2.421,1.084,2.421,2.421c0,1.337-1.084,2.421-2.421,2.421
	s-2.421-1.084-2.421-2.421C39.755,20.098,40.839,19.014,42.176,19.014z M30.964,32.393c6.192,0,11.212,5.02,11.212,11.211
	s-5.02,11.211-11.212,11.211c-6.192,0-11.211-5.02-11.211-11.211S24.772,32.393,30.964,32.393z M20.305,19.014
	c1.337,0,2.421,1.084,2.421,2.421c0,1.337-1.084,2.421-2.421,2.421c-1.337,0-2.42-1.084-2.42-2.421
	C17.885,20.098,18.968,19.014,20.305,19.014z"/>
<circle cx="30.964" cy="43.604" r="3.439"/>
</svg>
