<?xml version="1.0" encoding="iso-8859-1"?>
<!-- Generator: Adobe Illustrator 17.0.0, SVG Export Plug-In . SVG Version: 6.00 Build 0)  -->
<!DOCTYPE svg PUBLIC "-//W3C//DTD SVG 1.1//EN" "http://www.w3.org/Graphics/SVG/1.1/DTD/svg11.dtd">
<svg version="1.1" id="Capa_1" xmlns="http://www.w3.org/2000/svg" xmlns:xlink="http://www.w3.org/1999/xlink" x="0px" y="0px"
	 width="64px" height="64px" viewBox="0 0 64 64" style="enable-background:new 0 0 64 64;" xml:space="preserve">
<path d="M32.174,57.891c14.359,0,26-11.641,26-26c0-14.359-11.641-26-26-26c-14.359,0-26,11.641-26,26
	C6.174,46.25,17.814,57.891,32.174,57.891z M24.748,35.178c1.02-0.215,2.019-0.166,2.902,0.092v-6.053c0-0.002,0-0.002,0-0.004
	v-4.74c0-0.741,0.519-1.381,1.243-1.533l13.063-2.757c0,0,0.002,0,0.002-0.001c0.05-0.01,0.102-0.01,0.154-0.016
	c0.055-0.006,0.109-0.017,0.164-0.018h0.002c0.022,0,0.043,0.006,0.064,0.008c0.082,0.003,0.164,0.008,0.244,0.023
	c0.047,0.01,0.09,0.027,0.137,0.041c0.051,0.016,0.104,0.027,0.152,0.047c0.051,0.022,0.098,0.051,0.144,0.076
	c0.041,0.022,0.084,0.041,0.123,0.066c0.042,0.028,0.079,0.062,0.118,0.095c0.039,0.032,0.079,0.06,0.116,0.096
	c0.033,0.033,0.061,0.072,0.092,0.108c0.035,0.041,0.071,0.078,0.102,0.123c0.031,0.047,0.056,0.098,0.082,0.146
	c0.021,0.041,0.047,0.077,0.064,0.119c0.034,0.078,0.059,0.162,0.078,0.248c0.004,0.016,0.012,0.03,0.016,0.047v0.002
	c0.012,0.055,0.014,0.112,0.018,0.169c0.006,0.05,0.016,0.101,0.016,0.149l0.001,0.002v4.625c0,0.002,0,0.002,0,0.004v9.691
	c0,0.09-0.011,0.182-0.026,0.271c-0.035,2.018-1.777,3.908-4.244,4.432c-2.79,0.594-5.447-0.789-5.936-3.086
	c-0.487-2.295,1.38-4.639,4.17-5.23c1.019-0.217,2.02-0.168,2.902,0.092v-4.211v-3.207v-1.448l-9.93,2.095v1.512v3.207v8.33
	c0,0.092-0.01,0.182-0.025,0.271c-0.035,2.018-1.777,3.908-4.244,4.432c-2.79,0.594-5.447-0.789-5.936-3.084
	C20.09,38.113,21.957,35.771,24.748,35.178z"/>
</svg>
