<?xml version="1.0" encoding="iso-8859-1"?>
<!-- Generator: Adobe Illustrator 17.0.0, SVG Export Plug-In . SVG Version: 6.00 Build 0)  -->
<!DOCTYPE svg PUBLIC "-//W3C//DTD SVG 1.1//EN" "http://www.w3.org/Graphics/SVG/1.1/DTD/svg11.dtd">
<svg version="1.1" id="Capa_1" xmlns="http://www.w3.org/2000/svg" xmlns:xlink="http://www.w3.org/1999/xlink" x="0px" y="0px"
	 width="64px" height="64px" viewBox="0 0 64 64" style="enable-background:new 0 0 64 64;" xml:space="preserve">
<path d="M45.105,2.333H30.472c1.13,1.066,1.862,2.889,1.862,5v49.333c0,2.111-0.731,3.934-1.862,5h14.633
	c1.783,0,3.228-2.239,3.228-5v-5.788c7.323-1.632,9.815-7.727,10.052-14.807c0.163-4.881-1.452-9.262-2.938-13.551
	c1.722-3.867,3.701-7.721,4.052-11.855c0.164-1.929-2.837-1.913-3,0c-0.245,2.883-1.154,5.57-2.244,8.204
	c-1.302-4.419-1.884-8.862,0.373-13.781c0.801-1.745-1.784-3.271-2.59-1.514c-3.328,7.252-1.83,11.178,0.578,18.51
	c0.034,0.103,0.068,0.212,0.103,0.317c-0.635,1.434-1.259,2.87-1.795,4.334c-1.533,4.191,0.234,11.121-2.591,14.662V7.333
	C48.333,4.572,46.888,2.333,45.105,2.333z M52.773,32.651c-0.052-2.148,0.419-4.224,1.123-6.271c2.13,8.047,3.294,18.8-5.563,21.409
	v-2.506C52.893,42.76,52.894,37.64,52.773,32.651z"/>
<path d="M17.667,46.5c-1.217,0-2.244,1.717-2.244,3.75S16.45,54,17.667,54s2.244-1.717,2.244-3.75S18.884,46.5,17.667,46.5z"/>
<path d="M29.167,2.633c-0.334-0.181-0.688-0.299-1.062-0.299H7.228C5.445,2.333,4,4.572,4,7.333v49.333c0,2.761,1.445,5,3.228,5
	h20.877c0.374,0,0.728-0.118,1.062-0.299c1.258-0.683,2.167-2.519,2.167-4.701V7.333C31.333,5.151,30.425,3.315,29.167,2.633z
	 M17.667,55c-1.819,0-3.244-2.086-3.244-4.75s1.425-4.75,3.244-4.75s3.244,2.086,3.244,4.75S19.486,55,17.667,55z M17.667,40.167
	c-6.181,0-11.192-7.76-11.192-17.333S11.486,5.5,17.667,5.5c3.9,0,7.33,3.093,9.333,7.777c1.172,2.74,1.858,6.023,1.858,9.556
	S28.172,29.649,27,32.389C24.996,37.074,21.566,40.167,17.667,40.167z"/>
<path d="M17.667,8.552c-5.093,0-9.221,6.394-9.221,14.281s4.128,14.281,9.221,14.281c5.092,0,9.221-6.394,9.221-14.281
	S22.759,8.552,17.667,8.552z M17.667,29.781c-2.477,0-4.486-3.111-4.486-6.948s2.008-6.948,4.486-6.948s4.486,3.111,4.486,6.948
	S20.144,29.781,17.667,29.781z"/>
</svg>
