<?xml version="1.0" encoding="iso-8859-1"?>
<!-- Generator: Adobe Illustrator 17.0.0, SVG Export Plug-In . SVG Version: 6.00 Build 0)  -->
<!DOCTYPE svg PUBLIC "-//W3C//DTD SVG 1.1//EN" "http://www.w3.org/Graphics/SVG/1.1/DTD/svg11.dtd">
<svg version="1.1" id="Capa_1" xmlns="http://www.w3.org/2000/svg" xmlns:xlink="http://www.w3.org/1999/xlink" x="0px" y="0px"
	 width="64px" height="64px" viewBox="0 0 64 64" style="enable-background:new 0 0 64 64;" xml:space="preserve">
<path d="M30.878,21.9c-5.645,0-10.236,4.592-10.236,10.236c0,5.646,4.592,10.238,10.236,10.238c5.645,0,10.236-4.592,10.236-10.238
	C41.114,26.492,36.522,21.9,30.878,21.9z M30.878,39.904c-4.289,0-7.767-3.477-7.767-7.768c0-4.289,3.478-7.766,7.767-7.766
	c4.289,0,7.767,3.477,7.767,7.766C38.644,36.428,35.167,39.904,30.878,39.904z"/>
<path d="M30.878,5.471c-14.728,0-26.666,11.94-26.666,26.666c0,14.729,11.938,26.666,26.666,26.666
	c14.728,0,26.666-11.938,26.666-26.666C57.544,17.41,45.605,5.471,30.878,5.471z M30.878,44.326
	c-6.721,0-12.188-5.469-12.188-12.189s5.468-12.188,12.188-12.188s12.188,5.467,12.188,12.188S37.599,44.326,30.878,44.326z"/>
<path d="M35.478,31.152h-2.22l1.569-1.57c0.386-0.385,0.386-1.01,0-1.395c-0.385-0.385-1.008-0.385-1.394,0l-1.57,1.57v-2.223
	c0-0.545-0.443-0.984-0.986-0.984c-0.543,0-0.986,0.439-0.986,0.984v2.223l-1.57-1.57c-0.386-0.385-1.009-0.385-1.394,0
	c-0.386,0.385-0.386,1.01,0,1.395l1.569,1.57h-2.22c-0.546,0-0.987,0.44-0.987,0.984s0.441,0.986,0.987,0.986h2.22l-1.569,1.57
	c-0.386,0.385-0.386,1.01,0,1.394c0.191,0.193,0.444,0.289,0.697,0.289c0.252,0,0.504-0.096,0.696-0.289l1.57-1.57v2.221
	c0,0.545,0.443,0.986,0.986,0.986c0.543,0,0.986-0.441,0.986-0.986v-2.221l1.57,1.57c0.192,0.193,0.444,0.289,0.696,0.289
	c0.253,0,0.506-0.096,0.697-0.289c0.386-0.385,0.386-1.01,0-1.394l-1.569-1.57h2.22c0.546,0,0.987-0.441,0.987-0.986
	S36.024,31.152,35.478,31.152z"/>
</svg>
