<?xml version="1.0" encoding="iso-8859-1"?>
<!-- Generator: Adobe Illustrator 17.0.0, SVG Export Plug-In . SVG Version: 6.00 Build 0)  -->
<!DOCTYPE svg PUBLIC "-//W3C//DTD SVG 1.1//EN" "http://www.w3.org/Graphics/SVG/1.1/DTD/svg11.dtd">
<svg version="1.1" id="Capa_1" xmlns="http://www.w3.org/2000/svg" xmlns:xlink="http://www.w3.org/1999/xlink" x="0px" y="0px"
	 width="64px" height="64px" viewBox="0 0 64 64" style="enable-background:new 0 0 64 64;" xml:space="preserve">
<path d="M29.375,50.832c-0.069-0.121-0.183-0.121-0.252,0l-0.404,0.705c-0.069,0.123-0.013,0.221,0.128,0.221h0.805
	c0.141,0,0.197-0.098,0.128-0.221L29.375,50.832z"/>
<path d="M28.847,54.068c-0.141,0-0.197,0.098-0.128,0.219l0.404,0.705c0.069,0.121,0.183,0.121,0.252,0l0.404-0.705
	c0.069-0.121,0.013-0.219-0.128-0.219H28.847z"/>
<path d="M32.489,52.436c-0.121-0.07-0.221-0.014-0.221,0.127v0.805c0,0.141,0.1,0.197,0.221,0.127l0.705-0.404
	c0.121-0.068,0.121-0.182,0-0.252L32.489,52.436z"/>
<path d="M26.009,52.436l-0.705,0.402c-0.121,0.07-0.121,0.184,0,0.252l0.705,0.404c0.121,0.07,0.221,0.014,0.221-0.127v-0.805
	C26.229,52.422,26.13,52.365,26.009,52.436z"/>
<path d="M56.616,27.938c-0.451,0.262-0.768,0.697-0.926,1.271c-2.852,2.014-0.053,7.82,0.059,8.045
	c0.02,0.047,0.486,1.162,0.833,1.848c0.395,1.66,0.365,2.986-0.089,3.941c-0.422,0.889-1.243,1.451-2.51,1.719
	c-1.25,0.262-2.248,0.074-3.092-0.59c-1.123-0.885-1.777-3.463-2.154-4.856c0.697,0.086,1.35-0.098,1.863-0.523
	c2.047-1.697,1.373-7.053,1.119-8.645c-0.01-0.072-0.018-0.154-0.027-0.244c0.209-1.516,1.485-2.184,2.196-2.44
	c0.473,0.215,0.958,0.26,1.408,0.131c1.399-0.408,2.021-2.359,1.415-4.441c-0.596-2.051-2.201-3.387-3.579-2.985
	c-0.5,0.146-0.913,0.493-1.204,1.011c-1.572,0.611-2.32,2.492-2.17,5.457c-0.529,1.752-0.285,3.625-0.254,3.844
	c0.463,2.918,0.304,6.059-0.332,6.586l-0.097,0.031c-0.052,0-0.146-0.012-0.29-0.062c-0.057-0.021-0.355-0.178-0.604-1.256
	c-0.004-0.146-0.038-0.291-0.103-0.428c-0.692-3.733-0.119-12.399,1.437-21.65l0.011-0.112c0.109-2.896-0.989-8.459-5.937-8.789
	c-1.809-0.119-3.306,0.342-4.452,1.361c-1.301,1.158-1.793,2.733-1.977,3.709c-0.573,0.352-0.931,0.976-0.931,1.66v3.541H19.854
	c-2.576,0-4.664,2.088-4.664,4.664v34.818c0,2.576,2.088,4.664,4.664,4.664h18.79c2.575,0,4.663-2.088,4.663-4.664V19.736
	c0-2.056-1.338-3.78-3.184-4.402v-3.803c0-0.582-0.264-1.126-0.707-1.492c0.152-0.641,0.488-1.563,1.216-2.209
	c0.683-0.606,1.638-0.873,2.81-0.795c3.883,0.259,3.862,5.808,3.854,6.369c-0.04,0.242-0.992,6.003-1.466,11.799
	c-0.407,4.98-0.366,8.508,0.114,10.697c0.025,0.658,0.344,7.494,3.559,10.029c0.998,0.787,2.162,1.186,3.46,1.186
	c0.476,0,0.974-0.055,1.483-0.162c1.969-0.414,3.339-1.408,4.072-2.951c1.236-2.607,0.215-6.021-0.579-7.965
	c0.351-0.586,0.852-0.986,1.167-1.199c0.513,0.096,0.992,0.023,1.396-0.211c1.261-0.732,1.395-2.775,0.307-4.65
	C59.751,28.154,57.843,27.225,56.616,27.938z M30.071,55.738h-1.644c-2.574,0-4.662-1.266-4.662-2.826
	c0-1.561,2.088-2.824,4.662-2.824h1.644c2.575,0,4.663,1.264,4.663,2.824C34.734,54.473,32.646,55.738,30.071,55.738z
	 M39.835,42.172c0,2.576-2.089,4.664-4.664,4.664H23.328c-2.576,0-4.663-2.088-4.663-4.664V24.598c0-2.576,2.088-4.664,4.663-4.664
	h11.843c2.575,0,4.664,2.088,4.664,4.664V42.172z"/>
</svg>
