<?xml version="1.0" encoding="iso-8859-1"?>
<!-- Generator: Adobe Illustrator 17.0.0, SVG Export Plug-In . SVG Version: 6.00 Build 0)  -->
<!DOCTYPE svg PUBLIC "-//W3C//DTD SVG 1.1//EN" "http://www.w3.org/Graphics/SVG/1.1/DTD/svg11.dtd">
<svg version="1.1" id="Capa_1" xmlns="http://www.w3.org/2000/svg" xmlns:xlink="http://www.w3.org/1999/xlink" x="0px" y="0px"
	 width="64px" height="64px" viewBox="0 0 64 64" style="enable-background:new 0 0 64 64;" xml:space="preserve">
<path d="M45.804,11.644c-6.38,0-11.739,4.312-13.36,10.177c-1.619-5.864-6.98-10.177-13.359-10.177
	c-7.662,0-13.873,6.212-13.873,13.873c0,1.604,0.286,3.14,0.787,4.573c0.006,0.021,2.445,9.681,22.586,26.711
	c2.107,1.782,5.578,1.741,7.637-0.099c5.457-4.877,15.461-14.384,20.677-22.881c1.737-2.316,2.779-5.186,2.779-8.305
	C59.677,17.855,53.465,11.644,45.804,11.644z M41.148,31.199v0.003v8.167c0,0.076-0.01,0.152-0.023,0.228
	c-0.029,1.701-1.496,3.294-3.576,3.736c-2.351,0.499-4.59-0.665-5.001-2.601c-0.411-1.935,1.163-3.909,3.514-4.408
	c0.858-0.182,1.701-0.141,2.446,0.077v-3.548v-2.702V28.93l-8.368,1.766v1.274v2.702v7.019c0,0.077-0.009,0.153-0.021,0.229
	c-0.03,1.7-1.497,3.294-3.576,3.735c-2.351,0.499-4.591-0.665-5.001-2.6c-0.412-1.936,1.162-3.909,3.513-4.408
	c0.858-0.183,1.701-0.142,2.446,0.077v-5.102c0,0,0-0.001,0-0.003v-3.995c0-0.624,0.437-1.162,1.047-1.292l11.008-2.323
	c0.002,0,0.002,0,0.002,0c0.043-0.008,0.087-0.008,0.131-0.014c0.046-0.004,0.093-0.014,0.138-0.014c0,0,0.001,0,0.003,0
	c0.018,0,0.035,0.004,0.054,0.006c0.069,0.002,0.138,0.006,0.205,0.019c0.04,0.009,0.076,0.024,0.114,0.035
	c0.045,0.013,0.088,0.022,0.13,0.039c0.043,0.018,0.081,0.042,0.122,0.064c0.033,0.019,0.07,0.034,0.103,0.056
	c0.036,0.024,0.067,0.053,0.101,0.079c0.033,0.027,0.066,0.051,0.098,0.082c0.028,0.027,0.051,0.06,0.078,0.091
	c0.028,0.034,0.06,0.066,0.085,0.103c0.026,0.04,0.046,0.083,0.069,0.125c0.018,0.033,0.039,0.064,0.054,0.1
	c0.028,0.066,0.05,0.137,0.067,0.209c0.002,0.014,0.009,0.025,0.012,0.039c0,0,0,0.001,0,0.002c0.01,0.046,0.012,0.095,0.016,0.142
	c0.004,0.042,0.012,0.084,0.013,0.127l0.001,0.001V31.199z"/>
</svg>
