<?xml version="1.0" encoding="iso-8859-1"?>
<!-- Generator: Adobe Illustrator 17.0.0, SVG Export Plug-In . SVG Version: 6.00 Build 0)  -->
<!DOCTYPE svg PUBLIC "-//W3C//DTD SVG 1.1//EN" "http://www.w3.org/Graphics/SVG/1.1/DTD/svg11.dtd">
<svg version="1.1" id="Capa_1" xmlns="http://www.w3.org/2000/svg" xmlns:xlink="http://www.w3.org/1999/xlink" x="0px" y="0px"
	 width="64px" height="64px" viewBox="0 0 64 64" style="enable-background:new 0 0 64 64;" xml:space="preserve">
<path d="M28.646,10.355h-2.791c-1.168,0.246-2.002,1.471-2.002,2.663v7.631c0,0.003,0,0.004,0,0.006v17.742
	c-1.422-0.416-3.031-0.496-4.672-0.147c-4.49,0.954-7.494,4.724-6.709,8.419c0.783,3.697,5.06,5.92,9.551,4.967
	c3.973-0.844,6.774-3.887,6.83-7.135c0.025-0.145,0.043-0.289,0.043-0.436V31.973h17.715v6.424
	c-1.424-0.416-3.031-0.496-4.672-0.147c-4.492,0.954-7.496,4.724-6.711,8.419c0.785,3.697,5.063,5.92,9.553,4.967
	c3.971-0.844,6.773-3.887,6.83-7.135c0.025-0.145,0.041-0.289,0.041-0.436v-5.668v-15.74v-2.001c0-0.002,0-0.003,0-0.006v-7.631
	c0-1.192-0.834-2.417-2-2.663h-3.041v0.001L28.646,10.355L28.646,10.355z M28.896,17.496v-2.099h17.715v2.099v0.439H28.896V17.496z
	 M28.896,23.096h17.715v2.727H28.896V23.096z"/>
</svg>
