<?xml version="1.0" encoding="iso-8859-1"?>
<!-- Generator: Adobe Illustrator 17.0.0, SVG Export Plug-In . SVG Version: 6.00 Build 0)  -->
<!DOCTYPE svg PUBLIC "-//W3C//DTD SVG 1.1//EN" "http://www.w3.org/Graphics/SVG/1.1/DTD/svg11.dtd">
<svg version="1.1" id="Capa_1" xmlns="http://www.w3.org/2000/svg" xmlns:xlink="http://www.w3.org/1999/xlink" x="0px" y="0px"
	 width="64px" height="64px" viewBox="0 0 64 64" style="enable-background:new 0 0 64 64;" xml:space="preserve">
<path d="M7.667,17h48.666c1.105,0,2-0.895,2-2c0-1.104-0.895-2-2-2H7.667c-1.104,0-2,0.896-2,2C5.667,16.105,6.563,17,7.667,17z"/>
<path d="M7.667,34h18.219v1.822c-1-0.293-2.131-0.348-3.281-0.104c-3.156,0.67-5.268,3.318-4.717,5.916
	c0.553,2.597,3.557,4.158,6.713,3.488c2.789-0.592,4.76-2.73,4.799-5.013c0.018-0.101,0.029-0.204,0.029-0.306V34h5.025
	c-1.404,1.173-2.148,2.854-1.795,4.518c0.551,2.597,3.557,4.158,6.713,3.488c2.789-0.592,4.76-2.731,4.799-5.012
	c0.018-0.101,0.029-0.204,0.029-0.307V34h12.133c1.105,0,2-0.895,2-2c0-1.104-0.895-2-2-2H44.2v-9.505c0-0.001,0-0.003,0-0.003
	c0-0.057-0.012-0.113-0.018-0.17c-0.006-0.063-0.008-0.129-0.021-0.191c0-0.001,0-0.001,0-0.002
	c-0.004-0.018-0.012-0.033-0.016-0.051c-0.023-0.098-0.051-0.193-0.09-0.283c-0.02-0.045-0.047-0.082-0.068-0.125
	c-0.031-0.06-0.06-0.12-0.098-0.175c-0.033-0.048-0.072-0.088-0.109-0.131c-0.035-0.044-0.07-0.091-0.109-0.131
	c-0.039-0.038-0.082-0.067-0.125-0.103c-0.047-0.037-0.092-0.079-0.141-0.113c-0.041-0.026-0.088-0.047-0.131-0.07
	c-0.057-0.031-0.111-0.065-0.17-0.089c-0.055-0.023-0.111-0.036-0.168-0.052c-0.053-0.017-0.105-0.037-0.16-0.049
	c-0.09-0.018-0.182-0.023-0.273-0.027c-0.025-0.001-0.049-0.008-0.074-0.008c-0.002,0-0.002,0.001-0.004,0.001
	c-0.06,0-0.123,0.013-0.185,0.019c-0.059,0.006-0.117,0.008-0.174,0.018c0,0.001-0.002,0.001-0.002,0.001l-14.771,3.117
	c-0.82,0.172-1.406,0.896-1.406,1.732V30H7.667c-1.104,0-2,0.896-2,2C5.667,33.105,6.563,34,7.667,34z M29.429,25.049l11.229-2.369
	V30H29.429V25.049z"/>
<path d="M7.667,51h48.666c1.105,0,2-0.895,2-2c0-1.104-0.895-2-2-2H7.667c-1.104,0-2,0.896-2,2C5.667,50.105,6.563,51,7.667,51z"/>
</svg>
