<?xml version="1.0" encoding="iso-8859-1"?>
<!-- Generator: Adobe Illustrator 17.0.0, SVG Export Plug-In . SVG Version: 6.00 Build 0)  -->
<!DOCTYPE svg PUBLIC "-//W3C//DTD SVG 1.1//EN" "http://www.w3.org/Graphics/SVG/1.1/DTD/svg11.dtd">
<svg version="1.1" id="Capa_1" xmlns="http://www.w3.org/2000/svg" xmlns:xlink="http://www.w3.org/1999/xlink" x="0px" y="0px"
	 width="64px" height="64px" viewBox="0 0 64 64" style="enable-background:new 0 0 64 64;" xml:space="preserve">
<g>
	<path d="M37.602,22.667C52.347,28.222,59.258,9.575,59.883,7.785c-0.338,0.74-2.889,3.809-21.448-0.952
		c-22.641-5.807-20.994,6.961-20.994,6.961v11.539v11.462C13.979,35.592,9.39,36.85,5.95,40.29
		c-4.417,4.417-5.257,10.739-1.875,14.12c3.381,3.381,9.703,2.542,14.12-1.875c2.296-2.296,3.615-5.105,3.888-7.75h0.036v-0.425
		c0.025-0.415,0.028-0.825,0-1.227V21.644C25.25,20.369,30.183,19.872,37.602,22.667z"/>
	<path d="M59.883,7.785c0.042-0.092,0.052-0.151,0.052-0.151S59.915,7.695,59.883,7.785z"/>
	<path d="M42.803,25.912c-9.791,0-17.757,7.966-17.757,17.758c0,9.791,7.966,17.757,17.757,17.757
		c9.792,0,17.758-7.966,17.758-17.757C60.561,33.878,52.595,25.912,42.803,25.912z M42.803,57.427
		c-7.586,0-13.757-6.171-13.757-13.757s6.171-13.758,13.757-13.758s13.758,6.172,13.758,13.758S50.389,57.427,42.803,57.427z"/>
	<path d="M48.188,36.143H37.418c-1.182,0-2.141,0.959-2.141,2.141v10.771c0,1.182,0.959,2.141,2.141,2.141h10.771
		c1.182,0,2.141-0.959,2.141-2.141V38.284C50.329,37.102,49.371,36.143,48.188,36.143z"/>
</g>
</svg>
