<?xml version="1.0" encoding="iso-8859-1"?>
<!-- Generator: Adobe Illustrator 17.0.0, SVG Export Plug-In . SVG Version: 6.00 Build 0)  -->
<!DOCTYPE svg PUBLIC "-//W3C//DTD SVG 1.1//EN" "http://www.w3.org/Graphics/SVG/1.1/DTD/svg11.dtd">
<svg version="1.1" id="Capa_1" xmlns="http://www.w3.org/2000/svg" xmlns:xlink="http://www.w3.org/1999/xlink" x="0px" y="0px"
	 width="64px" height="64px" viewBox="0 0 64 64" style="enable-background:new 0 0 64 64;" xml:space="preserve">
<g>
	<path d="M55.305,14.537c1.569-1.596,1.548-4.162-0.047-5.728c-1.593-1.566-4.161-1.55-5.728,0.047l-1.54,1.567l5.728,5.728
		L55.305,14.537z"/>
	<path d="M38.317,20.265l-7.571,7.7l-2.555-2.598L16.395,36.962c-1.062,1.047-1.078,2.756-0.031,3.819l0.511,0.522l-6.018,5.915
		c-1.062,1.047-1.482,2.342-0.939,2.896l0.986,1.004L7.532,54.43l1.894,1.925l3.37-3.312c0,0,0.44,0.448,0.983,1.002
		c0.546,0.554,1.849,0.155,2.911-0.892l6.021-5.915c0,0,0.538,0.548,1.205,1.224c0.665,0.678,2.065,0.379,3.127-0.667L38.839,36.2
		l-2.416-2.458l7.621-7.75L38.317,20.265z"/>
	<polygon points="40.207,18.337 45.935,24.065 51.824,18.076 46.096,12.348 	"/>
</g>
</svg>
