<?xml version="1.0" encoding="iso-8859-1"?>
<!-- Generator: Adobe Illustrator 17.0.0, SVG Export Plug-In . SVG Version: 6.00 Build 0)  -->
<!DOCTYPE svg PUBLIC "-//W3C//DTD SVG 1.1//EN" "http://www.w3.org/Graphics/SVG/1.1/DTD/svg11.dtd">
<svg version="1.1" id="Capa_1" xmlns="http://www.w3.org/2000/svg" xmlns:xlink="http://www.w3.org/1999/xlink" x="0px" y="0px"
	 width="64px" height="64px" viewBox="0 0 64 64" style="enable-background:new 0 0 64 64;" xml:space="preserve">
<g>
	<path d="M14.41,27.121V51.82h1.591V27.121c4.093-0.4,7.292-3.849,7.292-8.047c0-4.467-3.621-8.087-8.088-8.087
		c-4.466,0-8.087,3.621-8.087,8.087C7.118,23.272,10.317,26.721,14.41,27.121z M15.205,15.627c1.904,0,3.448,1.543,3.448,3.447
		c0,1.904-1.544,3.447-3.448,3.447c-1.903,0-3.447-1.543-3.447-3.447C11.758,17.17,13.302,15.627,15.205,15.627z"/>
	<path d="M52.713,53.013V26.631h0.994V23.25c0,0,0.223,0,0.497,0c0.274,0,0.497-0.712,0.497-1.591v-5.071
		c0-0.878-0.712-1.591-1.591-1.591h-3.579v0.746h-2.408c-0.261-2.774-0.725-4.226-0.725-4.226H44.46v15.76h2.237
		c0,0,0.341-1.691,0.509-4.524h2.325v0.497v3.382h1.591v26.382H52.713z"/>
	<path d="M29.2,13.754c-1.137,0.667-1.942,2.452-1.942,3.769v4.077c0,1.318,0.819,3.088,1.979,3.716
		c1.99,1.079,5.274,2.191,8.86,0.659v-2.913l1.441,3.316c1.491,1.441,4.375,0.944,4.375,0.944v-15.76
		c-3.615-0.147-4.349,1.304-4.373,1.354l-1.443,2.14V12.95C38.097,12.95,34.086,10.886,29.2,13.754z"/>
</g>
</svg>
