<?xml version="1.0" encoding="iso-8859-1"?>
<!-- Generator: Adobe Illustrator 17.0.0, SVG Export Plug-In . SVG Version: 6.00 Build 0)  -->
<!DOCTYPE svg PUBLIC "-//W3C//DTD SVG 1.1//EN" "http://www.w3.org/Graphics/SVG/1.1/DTD/svg11.dtd">
<svg version="1.1" id="Capa_1" xmlns="http://www.w3.org/2000/svg" xmlns:xlink="http://www.w3.org/1999/xlink" x="0px" y="0px"
	 width="64px" height="64px" viewBox="0 0 64 64" style="enable-background:new 0 0 64 64;" xml:space="preserve">
<path d="M36.688,1.825H23.27c-2.635,0-4.771,2.136-4.771,4.77v10.735h22.96V6.596C41.459,3.961,39.323,1.825,36.688,1.825z
	 M22.375,15.244c-0.769,0-1.392-0.623-1.392-1.392c0-0.769,0.623-1.392,1.392-1.392c0.769,0,1.392,0.623,1.392,1.392
	C23.767,14.621,23.144,15.244,22.375,15.244z M22.375,11.666c-0.769,0-1.392-0.623-1.392-1.392c0-0.768,0.623-1.392,1.392-1.392
	c0.769,0,1.392,0.623,1.392,1.392C23.767,11.043,23.144,11.666,22.375,11.666z M22.375,7.69c-0.769,0-1.392-0.623-1.392-1.392
	c0-0.768,0.623-1.392,1.392-1.392c0.769,0,1.392,0.623,1.392,1.392C23.767,7.067,23.144,7.69,22.375,7.69z M27.047,15.244
	c-0.768,0-1.392-0.623-1.392-1.392c0-0.769,0.624-1.392,1.392-1.392c0.769,0,1.392,0.623,1.392,1.392
	C28.438,14.621,27.815,15.244,27.047,15.244z M27.047,11.666c-0.768,0-1.392-0.623-1.392-1.392c0-0.768,0.624-1.392,1.392-1.392
	c0.769,0,1.392,0.623,1.392,1.392C28.438,11.043,27.815,11.666,27.047,11.666z M27.047,7.69c-0.768,0-1.392-0.623-1.392-1.392
	c0-0.768,0.624-1.392,1.392-1.392c0.769,0,1.392,0.623,1.392,1.392C28.438,7.067,27.815,7.69,27.047,7.69z M31.719,15.244
	c-0.769,0-1.392-0.623-1.392-1.392c0-0.769,0.623-1.392,1.392-1.392c0.769,0,1.392,0.623,1.392,1.392
	C33.11,14.621,32.487,15.244,31.719,15.244z M31.719,11.666c-0.769,0-1.392-0.623-1.392-1.392c0-0.768,0.623-1.392,1.392-1.392
	c0.769,0,1.392,0.623,1.392,1.392C33.11,11.043,32.487,11.666,31.719,11.666z M31.719,7.69c-0.769,0-1.392-0.623-1.392-1.392
	c0-0.768,0.623-1.392,1.392-1.392c0.769,0,1.392,0.623,1.392,1.392C33.11,7.067,32.487,7.69,31.719,7.69z M36.39,15.244
	c-0.767,0-1.391-0.623-1.391-1.392c0-0.769,0.623-1.392,1.391-1.392c0.77,0,1.393,0.623,1.393,1.392
	C37.782,14.621,37.159,15.244,36.39,15.244z M36.39,11.666c-0.767,0-1.391-0.623-1.391-1.392c0-0.768,0.623-1.392,1.391-1.392
	c0.77,0,1.393,0.623,1.393,1.392C37.782,11.043,37.159,11.666,36.39,11.666z M36.39,7.69c-0.767,0-1.391-0.623-1.391-1.392
	c0-0.768,0.623-1.392,1.391-1.392c0.77,0,1.393,0.623,1.393,1.392C37.782,7.067,37.159,7.69,36.39,7.69z"/>
<path d="M42.253,58.896L31.42,47.71V22.102h10.039c1.317,0,2.386-0.667,2.386-1.491v-1.49H16.263c0,0,0,0.667,0,1.49
	c0,0.824,1.068,1.491,2.386,1.491h10.386V47.7L18.439,58.341l-0.698-0.7c0,0-0.331,0.33-0.739,0.737
	c-0.408,0.406-0.174,1.304,0.523,2.004l0.421,0.423c0.697,0.7,1.594,0.938,2.002,0.53l0.739-0.736l-0.565-0.567l8.912-8.95v5.113
	h-0.894c0,0,0,0.467,0,1.044c0,0.576,0.801,1.043,1.789,1.043h0.597c0.988,0,1.789-0.467,1.789-1.043v-1.044H31.42v-5.056
	l9.149,9.448l-0.65,0.652c0,0,0.332,0.329,0.74,0.736c0.408,0.407,1.305,0.17,2.002-0.53l0.421-0.423
	c0.697-0.7,0.932-1.598,0.523-2.004l-0.739-0.737L42.253,58.896z"/>
</svg>
