<?xml version="1.0" encoding="iso-8859-1"?>
<!-- Generator: Adobe Illustrator 17.0.0, SVG Export Plug-In . SVG Version: 6.00 Build 0)  -->
<!DOCTYPE svg PUBLIC "-//W3C//DTD SVG 1.1//EN" "http://www.w3.org/Graphics/SVG/1.1/DTD/svg11.dtd">
<svg version="1.1" id="Capa_1" xmlns="http://www.w3.org/2000/svg" xmlns:xlink="http://www.w3.org/1999/xlink" x="0px" y="0px"
	 width="64px" height="64px" viewBox="0 0 64 64" style="enable-background:new 0 0 64 64;" xml:space="preserve">
<g>
	<path d="M7.203,40.082h3.45l20.081,12.779c2.33,1.482,4.219,0.445,4.219-2.316V37.457c3.193-1.67,5.375-5.009,5.375-8.861
		s-2.182-7.191-5.375-8.861V7.529c0-2.761-1.92-3.848-4.287-2.428L10.653,17.109h-3.45c-2.762,0-5,2.238-5,5v12.973
		C2.203,37.844,4.441,40.082,7.203,40.082z"/>
	<path d="M43.654,30.396c-0.154,2.11-0.761,4.104-1.804,5.927c-0.686,1.198-0.27,2.726,0.928,3.411
		c0.392,0.224,0.818,0.33,1.239,0.33c0.868,0,1.71-0.451,2.172-1.259c1.417-2.477,2.242-5.184,2.45-8.045
		c0.323-4.413-0.913-8.823-3.481-12.418c-0.802-1.124-2.364-1.383-3.487-0.581c-1.124,0.803-1.384,2.363-0.581,3.487
		C42.981,23.895,43.892,27.144,43.654,30.396z"/>
	<path d="M57.027,31.358c0.63-8.625-3.113-16.896-10.014-22.125c-1.101-0.836-2.668-0.617-3.502,0.482
		c-0.834,1.101-0.618,2.669,0.483,3.502c5.545,4.202,8.554,10.848,8.047,17.775c-0.381,5.212-2.711,10.025-6.56,13.554
		c-1.018,0.933-1.087,2.515-0.153,3.532c0.493,0.538,1.167,0.81,1.843,0.81c0.603,0,1.209-0.217,1.689-0.657
		C53.652,43.839,56.553,37.847,57.027,31.358z"/>
</g>
</svg>
