<?xml version="1.0" encoding="iso-8859-1"?>
<!-- Generator: Adobe Illustrator 17.0.0, SVG Export Plug-In . SVG Version: 6.00 Build 0)  -->
<!DOCTYPE svg PUBLIC "-//W3C//DTD SVG 1.1//EN" "http://www.w3.org/Graphics/SVG/1.1/DTD/svg11.dtd">
<svg version="1.1" id="Capa_1" xmlns="http://www.w3.org/2000/svg" xmlns:xlink="http://www.w3.org/1999/xlink" x="0px" y="0px"
	 width="64px" height="64px" viewBox="0 0 64 64" style="enable-background:new 0 0 64 64;" xml:space="preserve">
<path d="M51.688,12.537c-0.021-0.085-0.044-0.169-0.079-0.249c-0.018-0.041-0.043-0.078-0.065-0.117
	c-0.026-0.05-0.05-0.102-0.082-0.148c-0.03-0.044-0.067-0.083-0.101-0.123c-0.031-0.036-0.059-0.075-0.093-0.108
	c-0.036-0.035-0.077-0.064-0.116-0.096c-0.039-0.031-0.076-0.066-0.119-0.095c-0.039-0.025-0.082-0.044-0.122-0.065
	c-0.048-0.027-0.094-0.056-0.145-0.076c-0.049-0.021-0.102-0.033-0.153-0.048c-0.046-0.014-0.089-0.031-0.137-0.04
	c-0.08-0.017-0.162-0.021-0.243-0.025c-0.022-0.001-0.042-0.006-0.065-0.006c-0.001,0-0.001,0-0.002,0
	c-0.054,0-0.109,0.01-0.164,0.016c-0.052,0.006-0.104,0.007-0.154,0.018c0,0-0.002,0-0.002,0l-13.063,2.757
	c-0.724,0.153-1.243,0.792-1.243,1.532v4.742c0,0,0,0.002,0,0.004v6.051c-0.884-0.258-1.884-0.307-2.903-0.09
	c-2.79,0.592-4.657,2.935-4.169,5.232c0.487,2.295,3.145,3.678,5.935,3.084c2.467-0.523,4.209-2.414,4.244-4.432
	c0.016-0.09,0.026-0.18,0.026-0.271v-8.331v-3.205v-1.512l9.929-2.096v1.449v3.205v4.211c-0.883-0.258-1.884-0.307-2.902-0.092
	c-2.79,0.594-4.657,2.936-4.17,5.231c0.488,2.297,3.145,3.68,5.935,3.086c2.467-0.523,4.209-2.414,4.244-4.433
	c0.016-0.09,0.026-0.18,0.026-0.272v-9.691c0,0,0-0.002,0-0.004v-4.623c0-0.002,0-0.002,0-0.003c0-0.05-0.01-0.1-0.016-0.149
	c-0.005-0.057-0.006-0.115-0.018-0.17c0,0,0,0,0-0.002C51.699,12.567,51.692,12.554,51.688,12.537z"/>
<path d="M47.494,18.063c-0.253-0.642-1.145-1.182-2.382-1.501l-5.547,1.171v2.88h7.929V18.063z"/>
<path d="M10.454,13.171v2.781c0,0-0.64,0-1.429,0c-0.789,0-1.428,0.897-1.428,2v26.188c0,2.762,0.794,2.907,1.773,0.325
	l9.049-23.853h16.013v-4.361h-9.7c0,0,0-1.313,0-2.931c0-1.619-2.239-2.932-5-2.932h-4.278
	C12.692,10.39,10.454,11.635,10.454,13.171z"/>
<path d="M43.254,22.423h-2.502v2.131C41.383,23.695,42.238,22.96,43.254,22.423z"/>
<path d="M55.746,27.121c0.771-2.118-0.092-3.883-1.932-4.466v4.571c0,0.151-0.011,0.303-0.031,0.453
	c-0.128,2.916-2.553,5.512-5.823,6.207c-0.566,0.12-1.141,0.182-1.71,0.182c-2.379,0-4.459-1.039-5.653-2.688
	c-0.546,2.517-2.788,4.644-5.701,5.262c-0.564,0.12-1.14,0.182-1.709,0.182c-3.284,0-5.997-1.978-6.598-4.808
	c-0.357-1.681,0.097-3.474,1.248-4.916c1.076-1.35,2.661-2.305,4.462-2.688c0.437-0.092,0.878-0.148,1.319-0.17v-1.82h-14.27
	L12.04,42.524c-0.943,2.596,0.53,4.699,3.292,4.699h28.104c2.761,0,5.765-2.104,6.709-4.699L55.746,27.121z"/>
</svg>
