<?xml version="1.0" encoding="iso-8859-1"?>
<!-- Generator: Adobe Illustrator 17.0.0, SVG Export Plug-In . SVG Version: 6.00 Build 0)  -->
<!DOCTYPE svg PUBLIC "-//W3C//DTD SVG 1.1//EN" "http://www.w3.org/Graphics/SVG/1.1/DTD/svg11.dtd">
<svg version="1.1" id="Capa_1" xmlns="http://www.w3.org/2000/svg" xmlns:xlink="http://www.w3.org/1999/xlink" x="0px" y="0px"
	 width="64px" height="64px" viewBox="0 0 64 64" style="enable-background:new 0 0 64 64;" xml:space="preserve">
<g>
	<path d="M9.625,20.5h15.5c0.567,0,1.395-0.485,1.697-1.019l3.161-5.231H9.625c-4.418,0-8,3.582-8,8v2.647
		C3.315,22.258,6.265,20.5,9.625,20.5z"/>
	<path d="M54.375,11h-18.75c-1.105,0-2.439,0.78-2.981,1.743l-0.91,1.507l-3.629,6.007C27.564,21.22,26.23,22,25.125,22h-15.5
		c-4.418,0-8,3.582-8,8v14.75v1.75c0,4.418,3.582,8,8,8h44.75c4.418,0,8-3.582,8-8v-1.75v-22.5V19
		C62.375,14.582,58.793,11,54.375,11z M32.61,24.541c7.078,0,12.836,5.758,12.836,12.836c0,7.078-5.758,12.836-12.836,12.836
		s-12.836-5.758-12.836-12.836C19.774,30.299,25.532,24.541,32.61,24.541z"/>
	<path d="M32.61,49.213c6.537,0,11.836-5.299,11.836-11.836c0-6.537-5.299-11.836-11.836-11.836S20.774,30.84,20.774,37.377
		C20.774,43.914,26.073,49.213,32.61,49.213z M32.609,27.189c5.617,0,10.188,4.57,10.188,10.188c0,0.276-0.224,0.5-0.5,0.5
		s-0.5-0.224-0.5-0.5c0-5.066-4.122-9.188-9.188-9.188c-0.276,0-0.5-0.224-0.5-0.5S32.333,27.189,32.609,27.189z M32.609,29.876
		c4.136,0,7.501,3.365,7.501,7.501c0,0.276-0.224,0.5-0.5,0.5s-0.5-0.224-0.5-0.5c0-3.585-2.917-6.501-6.501-6.501
		c-0.276,0-0.5-0.224-0.5-0.5S32.333,29.876,32.609,29.876z M32.61,32.653c2.609,0,4.724,2.115,4.724,4.724
		c0,2.609-2.115,4.723-4.724,4.723s-4.724-2.115-4.724-4.723C27.886,34.768,30.001,32.653,32.61,32.653z M25.626,37.11
		c0.276,0,0.5,0.224,0.5,0.5c0,3.585,2.917,6.501,6.501,6.501c0.276,0,0.5,0.224,0.5,0.5s-0.224,0.5-0.5,0.5
		c-4.136,0-7.501-3.365-7.501-7.501C25.126,37.334,25.35,37.11,25.626,37.11z M22.94,37.11c0.276,0,0.5,0.224,0.5,0.5
		c0,5.066,4.121,9.188,9.187,9.188c0.276,0,0.5,0.224,0.5,0.5s-0.224,0.5-0.5,0.5c-5.617,0-10.187-4.57-10.187-10.188
		C22.44,37.334,22.664,37.11,22.94,37.11z"/>
	<circle cx="32.61" cy="37.377" r="1.723"/>
</g>
</svg>
