<?xml version="1.0" encoding="iso-8859-1"?>
<!-- Generator: Adobe Illustrator 16.0.4, SVG Export Plug-In . SVG Version: 6.00 Build 0)  -->
<!DOCTYPE svg PUBLIC "-//W3C//DTD SVG 1.1//EN" "http://www.w3.org/Graphics/SVG/1.1/DTD/svg11.dtd">
<svg version="1.1" id="Capa_1" xmlns="http://www.w3.org/2000/svg" xmlns:xlink="http://www.w3.org/1999/xlink" x="0px" y="0px"
	 width="64px" height="64px" viewBox="0 0 64 64" style="enable-background:new 0 0 64 64;" xml:space="preserve">
<path d="M39.346,21.496c0.469,1.284-0.688,3.832-0.688,3.832l-6.776,15.504l-1.28-0.568l-6.106,8.892c0,0-0.769-0.302-1.551-0.589
	l-3.569,8.338l-0.825-0.271l3.599-8.426c-0.645-0.332-1.33-0.743-1.33-0.743l3.306-10.08l-1.025-0.455l5.096-12.522
	c0,0,0,0,1.355-3.036c1.355-3.036,2.331-3.036,2.331-3.036s0.011,0.003,0.012,0.003l-0.39,0.846l1.029,1.618
	c0.914,0.729,2.655,1.6,3.827,1.847c1.173,0.246,2.418,0.073,2.418,0.073L39.346,21.496z M41.853,5.452
	c0.43,0.181,0.837,0.189,0.909,0.017c0.072-0.172-0.217-0.458-0.646-0.64c-0.43-0.182-0.836-0.189-0.908-0.017
	C41.134,4.984,41.424,5.271,41.853,5.452z M42.775,5.775c-0.077,0.043-0.18,0.077-0.334,0.077c-0.203,0-0.447-0.056-0.688-0.158
	c-0.376-0.157-0.666-0.394-0.756-0.617c-0.012-0.026-0.008-0.047-0.014-0.07L39.88,5.571L38.555,8.71
	c0.238,0.233,0.658,0.545,1.43,0.91c0.783,0.372,1.352,0.469,1.754,0.469l1.339-3.17L42.775,5.775z M38.198,9.552L37.4,11.443
	c0.227,0.237,0.66,0.573,1.49,0.965c0.729,0.347,1.272,0.455,1.672,0.469l0.815-1.934c-0.478-0.051-1.062-0.203-1.767-0.538
	C38.979,10.104,38.527,9.817,38.198,9.552z M38.516,13.193c-0.673-0.319-1.143-0.625-1.474-0.903l-1.55,3.676
	c-0.459,0-0.883,0-1.219,0c-0.418,0-0.898,0.308-1.073,0.688l-1.172,2.54l1.217,1.391c0.798,0.637,2.274,1.328,3.299,1.544
	c1.024,0.215,2.082,0.152,2.082,0.152l1.188-2.575c0.174-0.379,0.097-0.945-0.176-1.263l-0.812-0.95
	c-0.044-0.053-0.1-0.102-0.15-0.152l1.527-3.618C39.741,13.663,39.184,13.509,38.516,13.193z"/>
</svg>
