<?xml version="1.0" encoding="iso-8859-1"?>
<!-- Generator: Adobe Illustrator 17.0.0, SVG Export Plug-In . SVG Version: 6.00 Build 0)  -->
<!DOCTYPE svg PUBLIC "-//W3C//DTD SVG 1.1//EN" "http://www.w3.org/Graphics/SVG/1.1/DTD/svg11.dtd">
<svg version="1.1" id="Capa_1" xmlns="http://www.w3.org/2000/svg" xmlns:xlink="http://www.w3.org/1999/xlink" x="0px" y="0px"
	 width="64px" height="64px" viewBox="0 0 64 64" style="enable-background:new 0 0 64 64;" xml:space="preserve">
<g>
	<path d="M8.25,59.098h47.5c1.657,0,3-1.343,3-3v-47.5c0-1.657-1.343-3-3-3H8.25c-1.657,0-3,1.343-3,3v47.5
		C5.25,57.755,6.593,59.098,8.25,59.098z M54.223,55.571h-8.93l8.93-8.93V55.571z M54.223,9.348v8.93l-8.93-8.93H54.223z
		 M54.5,32.348c0,12.426-10.074,22.5-22.5,22.5c-12.426,0-22.5-10.074-22.5-22.5s10.074-22.5,22.5-22.5
		C44.426,9.848,54.5,19.921,54.5,32.348z M9,9.348h8.93L9,18.278V9.348z M9,46.641l8.93,8.93H9V46.641z"/>
	<polygon points="10,49.055 10,54.571 15.516,54.571 	"/>
	<polygon points="10,10.348 10,15.864 15.516,10.348 	"/>
	<polygon points="53.223,15.864 53.223,10.348 47.707,10.348 	"/>
	<polygon points="53.223,54.571 53.223,49.055 47.707,54.571 	"/>
	<path d="M32,52.848c11.304,0,20.5-9.196,20.5-20.5c0-11.304-9.196-20.5-20.5-20.5c-11.304,0-20.5,9.196-20.5,20.5
		C11.5,43.652,20.696,52.848,32,52.848z M32,13.446c10.423,0,18.902,8.479,18.902,18.902c0,10.423-8.479,18.902-18.902,18.902
		s-18.902-8.479-18.902-18.902C13.098,21.925,21.577,13.446,32,13.446z"/>
	<path d="M32,50.25c9.871,0,17.902-8.031,17.902-17.902c0-9.871-8.031-17.902-17.902-17.902s-17.902,8.031-17.902,17.902
		C14.098,42.219,22.129,50.25,32,50.25z M32,25.532c3.758,0,6.815,3.058,6.815,6.815c0,3.758-3.058,6.816-6.815,6.816
		s-6.815-3.058-6.815-6.816C25.185,28.59,28.242,25.532,32,25.532z"/>
	<path d="M32,37.164c2.655,0,4.815-2.161,4.815-4.816s-2.16-4.815-4.815-4.815s-4.815,2.16-4.815,4.815S29.345,37.164,32,37.164z"/>
</g>
</svg>
