<?xml version="1.0" encoding="iso-8859-1"?>
<!-- Generator: Adobe Illustrator 17.0.0, SVG Export Plug-In . SVG Version: 6.00 Build 0)  -->
<!DOCTYPE svg PUBLIC "-//W3C//DTD SVG 1.1//EN" "http://www.w3.org/Graphics/SVG/1.1/DTD/svg11.dtd">
<svg version="1.1" id="Capa_1" xmlns="http://www.w3.org/2000/svg" xmlns:xlink="http://www.w3.org/1999/xlink" x="0px" y="0px"
	 width="64px" height="64px" viewBox="0 0 64 64" style="enable-background:new 0 0 64 64;" xml:space="preserve">
<g>
	<path d="M38.118,58.238c2.941-0.566,4.984-2.802,4.562-4.993c-0.421-2.19-3.148-3.507-6.089-2.941
		c-2.942,0.566-4.985,2.802-4.563,4.993C32.45,57.487,35.176,58.804,38.118,58.238z M36.982,52.333
		c1.436-0.276,2.768,0.367,2.973,1.437c0.206,1.07-0.791,2.161-2.228,2.438c-1.436,0.276-2.767-0.367-2.974-1.437
		C34.548,53.701,35.546,52.61,36.982,52.333z"/>
	<path d="M41.945,51.007l-1.727-5.156c0,0-2.624-3.704-7.104-1.924c-3.709,1.474-3.237,5.964-3.237,5.964l1.683,4.213
		c-0.002-2.084,1.996-4.077,4.801-4.616C38.649,49.048,40.809,49.7,41.945,51.007z"/>
	<path d="M21.945,25.469c0.225,0.542,0.468,1.135,0.714,1.746c1.018-1.376,3.46-3.744,8.202-3.783l-1.095-1.708
		C24.889,21.708,22.632,24.418,21.945,25.469z"/>
	<path d="M34.194,28.634l-2.682-4.186c-5.503-0.21-7.848,2.976-8.402,3.895c0.486,1.234,0.946,2.454,1.253,3.388
		c-2.622,10.088,2.103,17.417,3.156,18.69c1.058,1.277,2.163,0.529,2.163,0.529s-2.116-5.964,3.752-7.889
		c5.868-1.924,8.081,3.945,8.081,3.945s1.565-0.867,1.022-2.599c-0.542-1.731-0.396-9.619-8.334-15.777L34.194,28.634z"/>
	<path d="M19.072,5.684c-0.267,0.175-0.34,0.533-0.165,0.799c2.959,4.493,4.089,10.325,4.461,12.851
		c-1.018,0.551-1.951,1.615-2.513,3.547c0,0,0.256,0.593,0.634,1.494c1.032-1.343,3.339-3.463,7.644-3.641l-0.847-1.321
		c0,0-1.874-0.902-3.805-0.482c-0.412-2.733-1.588-8.494-4.61-13.083C19.695,5.581,19.337,5.51,19.072,5.684z"/>
</g>
</svg>
