<?xml version="1.0" encoding="iso-8859-1"?>
<!-- Generator: Adobe Illustrator 17.0.0, SVG Export Plug-In . SVG Version: 6.00 Build 0)  -->
<!DOCTYPE svg PUBLIC "-//W3C//DTD SVG 1.1//EN" "http://www.w3.org/Graphics/SVG/1.1/DTD/svg11.dtd">
<svg version="1.1" id="Capa_1" xmlns="http://www.w3.org/2000/svg" xmlns:xlink="http://www.w3.org/1999/xlink" x="0px" y="0px"
	 width="64px" height="64px" viewBox="0 0 64 64" style="enable-background:new 0 0 64 64;" xml:space="preserve">
<path d="M3.5,50.912H61c0.552,0,1-0.448,1-1V11.75c0-0.552-0.448-1-1-1H3.5c-0.552,0-1,0.448-1,1v38.162
	C2.5,50.465,2.948,50.912,3.5,50.912z M50.667,15h6v6h-6V15z M50.667,24h6v6h-6V24z M49.484,40.333c0-2.402,1.947-4.349,4.349-4.349
	c0.269,0,0.53,0.032,0.786,0.079l0.962-1.684c0.343-0.6,1.105-0.808,1.706-0.465c0.6,0.343,0.808,1.106,0.465,1.706l-0.906,1.586
	c0.821,0.791,1.337,1.897,1.337,3.127c0,2.402-1.947,4.349-4.349,4.349c-0.404,0-0.788-0.073-1.159-0.176l-0.922,1.614
	c-0.231,0.404-0.653,0.63-1.086,0.63c-0.21,0-0.423-0.053-0.619-0.165c-0.6-0.343-0.808-1.106-0.465-1.706l0.978-1.712
	C49.898,42.405,49.484,41.422,49.484,40.333z M37.417,17h2.417h2.417c2.021,0,3.667,1.645,3.667,3.667
	c0,2.022-1.645,3.667-3.667,3.667h-1.417v20.349c0,0.552-0.448,1-1,1s-1-0.448-1-1V24.333h-1.417c-2.021,0-3.667-1.645-3.667-3.667
	C33.75,18.645,35.395,17,37.417,17z M22.417,34h1.417V18c0-0.552,0.448-1,1-1s1,0.448,1,1v16h1.417c2.021,0,3.667,1.645,3.667,3.667
	c0,2.022-1.645,3.667-3.667,3.667h-1.417v3.349c0,0.552-0.448,1-1,1s-1-0.448-1-1v-3.349h-1.417c-2.021,0-3.667-1.645-3.667-3.667
	C18.75,35.645,20.395,34,22.417,34z M8.417,21h1.417v-3c0-0.552,0.448-1,1-1s1,0.448,1,1v3h1.417c2.021,0,3.667,1.645,3.667,3.667
	c0,2.022-1.645,3.667-3.667,3.667h-1.417v16.349c0,0.552-0.448,1-1,1s-1-0.448-1-1V28.333H8.417c-2.021,0-3.667-1.645-3.667-3.667
	C4.75,22.645,6.395,21,8.417,21z"/>
<path d="M8.417,26.333h1.417h2h1.417c0.919,0,1.667-0.748,1.667-1.667S14.169,23,13.25,23h-1.417h-2H8.417
	c-0.919,0-1.667,0.748-1.667,1.667S7.498,26.333,8.417,26.333z"/>
<path d="M22.417,39.333h1.417h2h1.417c0.919,0,1.667-0.748,1.667-1.667S28.169,36,27.25,36h-1.417h-2h-1.417
	c-0.919,0-1.667,0.748-1.667,1.667S21.498,39.333,22.417,39.333z"/>
<path d="M37.417,22.333h1.417h2h1.417c0.919,0,1.667-0.748,1.667-1.667S43.169,19,42.25,19h-1.417h-2h-1.417
	c-0.919,0-1.667,0.748-1.667,1.667S36.498,22.333,37.417,22.333z"/>
</svg>
