<?xml version="1.0" encoding="iso-8859-1"?>
<!-- Generator: Adobe Illustrator 17.0.0, SVG Export Plug-In . SVG Version: 6.00 Build 0)  -->
<!DOCTYPE svg PUBLIC "-//W3C//DTD SVG 1.1//EN" "http://www.w3.org/Graphics/SVG/1.1/DTD/svg11.dtd">
<svg version="1.1" id="Capa_1" xmlns="http://www.w3.org/2000/svg" xmlns:xlink="http://www.w3.org/1999/xlink" x="0px" y="0px"
	 width="64px" height="64px" viewBox="0 0 64 64" style="enable-background:new 0 0 64 64;" xml:space="preserve">
<path d="M20.53,51.796c4.554,0.111,8.569-1.475,10.761-3.924c0.779-0.872,1.283-1.902,1.38-2.106
	c0.058-0.121,0.106-0.249,0.147-0.381l5.754-18.958c0.34-1.119,1.272-1.343,2.035-0.456c0.59,0.687,1.223,1.466,1.867,2.332
	c2.652,3.563,2.866,8.25,1.452,12.03c-1.416,3.779-4.091,4.846-3.232,6.043c0.86,1.199,4.232-1.781,6.426-5.324
	c2.193-3.544,2.438-9.472,0.459-14.324c-1.979-4.853-4.862-7.973-5.412-10.505c-0.034-0.162-0.069-0.321-0.104-0.476
	c-0.058-0.262-0.034-0.71,0.054-0.998l0.159-0.523c0.431-1.42-0.369-2.92-1.791-3.351c-1.419-0.431-2.919,0.371-3.35,1.79
	L30.159,35.65c-0.34,1.119-1.386,1.463-2.438,0.955c-1.931-0.933-4.261-1.506-6.781-1.567c-6.801-0.167-12.405,3.45-12.518,8.079
	C8.309,47.744,13.729,51.631,20.53,51.796z"/>
</svg>
