<?xml version="1.0" encoding="iso-8859-1"?>
<!-- Generator: Adobe Illustrator 17.0.0, SVG Export Plug-In . SVG Version: 6.00 Build 0)  -->
<!DOCTYPE svg PUBLIC "-//W3C//DTD SVG 1.1//EN" "http://www.w3.org/Graphics/SVG/1.1/DTD/svg11.dtd">
<svg version="1.1" id="Capa_1" xmlns="http://www.w3.org/2000/svg" xmlns:xlink="http://www.w3.org/1999/xlink" x="0px" y="0px"
	 width="64px" height="64px" viewBox="0 0 64 64" style="enable-background:new 0 0 64 64;" xml:space="preserve">
<path d="M17.151,19.514v23.695c0,3.213,2.129,5.816,4.755,5.816c2.626,0,4.756-2.603,4.756-5.816V19.514
	c0-3.211-2.13-5.816-4.756-5.816C19.28,13.697,17.151,16.303,17.151,19.514z"/>
<path d="M44.1,13.697c-2.626,0-4.755,2.605-4.755,5.816v23.695c0,3.213,2.129,5.816,4.755,5.816c2.626,0,4.756-2.603,4.756-5.816
	V19.514C48.855,16.303,46.726,13.697,44.1,13.697z"/>
</svg>
