<?xml version="1.0" encoding="iso-8859-1"?>
<!-- Generator: Adobe Illustrator 17.0.0, SVG Export Plug-In . SVG Version: 6.00 Build 0)  -->
<!DOCTYPE svg PUBLIC "-//W3C//DTD SVG 1.1//EN" "http://www.w3.org/Graphics/SVG/1.1/DTD/svg11.dtd">
<svg version="1.1" id="Capa_1" xmlns="http://www.w3.org/2000/svg" xmlns:xlink="http://www.w3.org/1999/xlink" x="0px" y="0px"
	 width="64px" height="64px" viewBox="0 0 64 64" style="enable-background:new 0 0 64 64;" xml:space="preserve">
<g>
	<path d="M9.625,20.5h15.5c0.567,0,1.395-0.485,1.697-1.019l3.161-5.231H9.625c-4.418,0-8,3.582-8,8v2.647
		C3.315,22.258,6.265,20.5,9.625,20.5z"/>
	<path d="M54.375,11h-18.75c-1.105,0-2.439,0.78-2.981,1.743l-0.91,1.507l-3.629,6.007C27.564,21.22,26.23,22,25.125,22h-15.5
		c-4.418,0-8,3.582-8,8v14.75v1.75c0,4.418,3.582,8,8,8h44.75c4.418,0,8-3.582,8-8v-1.75v-22.5V19
		C62.375,14.582,58.793,11,54.375,11z M32.345,25.416c7.973,0,14.458,6.485,14.458,14.457c0,0.783-0.603,1.419-1.369,1.487v6.976
		c0,1.141-0.925,2.067-2.067,2.067h-3.1c-1.141,0-2.067-0.925-2.067-2.067V37.973c0-1.141,0.925-2.067,2.067-2.067h2.813
		c-1.619-4.365-5.813-7.49-10.735-7.49s-9.116,3.125-10.735,7.49h2.468c1.141,0,2.067,0.925,2.067,2.067v10.363
		c0,1.141-0.925,2.067-2.067,2.067h-3.1c-1.141,0-2.067-0.925-2.067-2.067v-7.047c-0.593-0.2-1.024-0.755-1.024-1.415
		C17.887,31.901,24.372,25.416,32.345,25.416z"/>
</g>
</svg>
