<?xml version="1.0" encoding="iso-8859-1"?>
<!-- Generator: Adobe Illustrator 17.0.0, SVG Export Plug-In . SVG Version: 6.00 Build 0)  -->
<!DOCTYPE svg PUBLIC "-//W3C//DTD SVG 1.1//EN" "http://www.w3.org/Graphics/SVG/1.1/DTD/svg11.dtd">
<svg version="1.1" id="Capa_1" xmlns="http://www.w3.org/2000/svg" xmlns:xlink="http://www.w3.org/1999/xlink" x="0px" y="0px"
	 width="64px" height="64px" viewBox="0 0 64 64" style="enable-background:new 0 0 64 64;" xml:space="preserve">
<g>
	<path d="M59.625,33.789H4.375L3.036,43.833c-0.365,2.737,1.578,4.956,4.339,4.956h49.25c2.761,0,4.704-2.219,4.339-4.956
		L59.625,33.789z M18.937,46.414c-5.522,0-10-2.381-10-5.316c0-2.935,4.478-5.316,10-5.316c5.523,0,10,2.381,10,5.316
		C28.937,44.033,24.46,46.414,18.937,46.414z M45.062,46.414c-5.522,0-10-2.381-10-5.316c0-2.935,4.478-5.316,10-5.316
		c5.523,0,10,2.381,10,5.316C55.062,44.033,50.585,46.414,45.062,46.414z"/>
	<ellipse cx="18.808" cy="41.217" rx="2.875" ry="1"/>
	<ellipse cx="45.14" cy="41.289" rx="2.875" ry="1"/>
	<path d="M14.614,24.68c0-0.228-0.114-0.342-0.343-0.342h-1.028h-0.021c-0.229,0-0.342,0.114-0.342,0.342v1.029
		c0,0.229,0.113,0.343,0.342,0.343h1.029h0.019c0.229,0,0.343-0.114,0.343-0.343V24.68z"/>
	<path d="M13.223,23.994h1.029c0.227,0,0.342-0.113,0.342-0.342v-1.029c0-0.228-0.114-0.342-0.342-0.342h-1.029
		c-0.229,0-0.342,0.113-0.342,0.342v1.029C12.881,23.881,12.994,23.994,13.223,23.994z"/>
	<path d="M14.614,26.717c0-0.228-0.114-0.342-0.343-0.342h-1.028h-0.021c-0.229,0-0.342,0.114-0.342,0.342v1.029
		c0,0.229,0.113,0.344,0.342,0.344h1.029h0.019c0.229,0,0.343-0.115,0.343-0.344V26.717z"/>
	<path d="M12.558,28.775c0-0.229-0.114-0.344-0.343-0.344h-1.029c-0.228,0-0.342,0.114-0.342,0.344v1.028
		c0,0.228,0.113,0.343,0.342,0.343h1.008h0.021c0.229,0,0.343-0.115,0.343-0.343V28.775z"/>
	<path d="M6.406,28.775c0-0.229-0.115-0.344-0.344-0.344H5.035c-0.229,0-0.344,0.114-0.344,0.344v1.028
		c0,0.228,0.114,0.343,0.344,0.343h1.027c0.229,0,0.344-0.115,0.344-0.343V28.775z"/>
	<path d="M6.406,24.68c0-0.228-0.115-0.342-0.344-0.342H5.035c-0.229,0-0.344,0.114-0.344,0.342v1.029
		c0,0.229,0.114,0.343,0.344,0.343h1.027c0.229,0,0.344-0.114,0.344-0.343V24.68z"/>
	<path d="M6.406,26.717c0-0.228-0.115-0.342-0.344-0.342H5.035c-0.229,0-0.344,0.114-0.344,0.342v1.029
		c0,0.229,0.114,0.344,0.344,0.344h1.027c0.229,0,0.344-0.115,0.344-0.344V26.717z"/>
	<path d="M6.062,30.489H5.035c-0.229,0-0.344,0.114-0.344,0.343v1.028c0,0.229,0.114,0.343,0.344,0.343h1.027
		c0.229,0,0.344-0.113,0.344-0.343v-1.028C6.406,30.604,6.291,30.489,6.062,30.489z"/>
	<path d="M8.443,24.68c0-0.228-0.114-0.342-0.344-0.342H7.092c-0.229,0-0.344,0.114-0.344,0.342v1.029
		c0,0.229,0.114,0.343,0.344,0.343H8.1c0.23,0,0.344-0.114,0.344-0.343V24.68z"/>
	<path d="M8.1,30.489H7.092c-0.229,0-0.344,0.114-0.344,0.343v1.028c0,0.229,0.114,0.343,0.344,0.343H8.1
		c0.23,0,0.344-0.113,0.344-0.343v-1.028C8.443,30.604,8.329,30.489,8.1,30.489z"/>
	<path d="M8.443,26.717c0-0.228-0.114-0.342-0.344-0.342H7.092c-0.229,0-0.344,0.114-0.344,0.342v1.029
		c0,0.229,0.114,0.344,0.344,0.344H8.1c0.23,0,0.344-0.115,0.344-0.344V26.717z"/>
	<path d="M8.443,28.775c0-0.229-0.114-0.344-0.344-0.344H7.092c-0.229,0-0.344,0.114-0.344,0.344v1.028
		c0,0.228,0.114,0.343,0.344,0.343H8.1c0.23,0,0.344-0.115,0.344-0.343V28.775z"/>
	<path d="M12.558,24.68c0-0.228-0.114-0.342-0.343-0.342h-1.029c-0.228,0-0.342,0.114-0.342,0.342v1.029
		c0,0.229,0.113,0.343,0.342,0.343h1.008h0.021c0.229,0,0.343-0.114,0.343-0.343V24.68z"/>
	<path d="M12.558,26.717c0-0.228-0.114-0.342-0.343-0.342h-1.029c-0.228,0-0.342,0.114-0.342,0.342v1.029
		c0,0.229,0.113,0.344,0.342,0.344h1.008h0.021c0.229,0,0.343-0.115,0.343-0.344V26.717z"/>
	<path d="M6.406,22.623c0-0.228-0.115-0.342-0.344-0.342H5.035c-0.229,0-0.344,0.113-0.344,0.342v1.029
		c0,0.229,0.114,0.342,0.344,0.342h1.027c0.229,0,0.344-0.113,0.344-0.342V22.623z"/>
	<path d="M12.558,22.623c0-0.228-0.114-0.342-0.343-0.342h-1.029c-0.228,0-0.342,0.113-0.342,0.342v1.029
		c0,0.229,0.113,0.342,0.342,0.342h1.008h0.021c0.229,0,0.343-0.113,0.343-0.342V22.623z"/>
	<path d="M9.129,22.281c-0.23,0-0.344,0.113-0.344,0.342v1.029c0,0.229,0.114,0.342,0.344,0.342h1.028
		c0.229,0,0.343-0.113,0.343-0.342v-1.029c0-0.228-0.114-0.342-0.343-0.342H9.129z"/>
	<path d="M12.215,30.489h-1.029c-0.228,0-0.342,0.114-0.342,0.343v1.028c0,0.229,0.113,0.343,0.342,0.343h1.008h0.021
		c0.229,0,0.343-0.113,0.343-0.343v-1.028C12.558,30.604,12.443,30.489,12.215,30.489z"/>
	<path d="M15.28,22.281c-0.229,0-0.343,0.113-0.343,0.342v1.029c0,0.229,0.114,0.342,0.343,0.342h1.028
		c0.229,0,0.343-0.113,0.343-0.342v-1.029c0-0.228-0.114-0.342-0.343-0.342H15.28z"/>
	<path d="M20.746,26.717c0-0.228-0.114-0.342-0.343-0.342h-1.028c-0.23,0-0.344,0.114-0.344,0.342v1.029
		c0,0.229,0.114,0.344,0.344,0.344h1.028c0.229,0,0.343-0.115,0.343-0.344V26.717z"/>
	<path d="M20.746,24.68c0-0.228-0.114-0.342-0.343-0.342h-1.028c-0.23,0-0.344,0.114-0.344,0.342v1.029
		c0,0.229,0.114,0.343,0.344,0.343h1.028c0.229,0,0.343-0.114,0.343-0.343V24.68z"/>
	<path d="M18.689,28.775c0-0.229-0.115-0.344-0.344-0.344h-1.008c-0.229,0-0.344,0.114-0.344,0.344v1.028
		c0,0.228,0.114,0.343,0.344,0.343h1.008c0.229,0,0.344-0.115,0.344-0.343V28.775z"/>
	<path d="M18.346,30.489h-1.008c-0.229,0-0.344,0.114-0.344,0.343v1.028c0,0.229,0.114,0.343,0.344,0.343h1.008
		c0.229,0,0.344-0.113,0.344-0.343v-1.028C18.689,30.604,18.574,30.489,18.346,30.489z"/>
	<path d="M20.746,28.775c0-0.229-0.114-0.344-0.343-0.344h-1.028c-0.23,0-0.344,0.114-0.344,0.344v1.028
		c0,0.228,0.114,0.343,0.344,0.343h1.028c0.229,0,0.343-0.115,0.343-0.343V28.775z"/>
	<path d="M20.403,30.489h-1.028c-0.23,0-0.344,0.114-0.344,0.343v1.028c0,0.229,0.114,0.343,0.344,0.343h1.028
		c0.229,0,0.343-0.113,0.343-0.343v-1.028C20.746,30.604,20.632,30.489,20.403,30.489z"/>
	<path d="M8.443,22.623c0-0.228-0.114-0.342-0.344-0.342H7.092c-0.229,0-0.344,0.113-0.344,0.342v1.029
		c0,0.229,0.114,0.342,0.344,0.342H8.1c0.23,0,0.344-0.113,0.344-0.342V22.623z"/>
	<path d="M14.614,28.775c0-0.229-0.114-0.344-0.343-0.344h-1.028h-0.021c-0.229,0-0.342,0.114-0.342,0.344v1.028
		c0,0.228,0.113,0.343,0.342,0.343h1.029h0.019c0.229,0,0.343-0.115,0.343-0.343V28.775z"/>
	<path d="M14.271,30.489h-1.028h-0.021c-0.229,0-0.342,0.114-0.342,0.343v1.028c0,0.229,0.113,0.343,0.342,0.343h1.029h0.019
		c0.229,0,0.343-0.113,0.343-0.343v-1.028C14.614,30.604,14.5,30.489,14.271,30.489z"/>
	<path d="M18.689,26.717c0-0.228-0.115-0.342-0.344-0.342h-1.008c-0.229,0-0.344,0.114-0.344,0.342v1.029
		c0,0.229,0.114,0.344,0.344,0.344h1.008c0.229,0,0.344-0.115,0.344-0.344V26.717z"/>
	<path d="M18.689,24.68c0-0.228-0.115-0.342-0.344-0.342h-1.008c-0.229,0-0.344,0.114-0.344,0.342v1.029
		c0,0.229,0.114,0.343,0.344,0.343h1.008c0.229,0,0.344-0.114,0.344-0.343V24.68z"/>
	<path d="M18.689,22.623c0-0.228-0.115-0.342-0.344-0.342h-1.008c-0.229,0-0.344,0.113-0.344,0.342v1.029
		c0,0.229,0.114,0.342,0.344,0.342h1.008c0.229,0,0.344-0.113,0.344-0.342V22.623z"/>
	<path d="M30.567,30.489h-1.028c-0.229,0-0.343,0.114-0.343,0.343v1.028c0,0.229,0.113,0.343,0.343,0.343h1.028
		c0.229,0,0.344-0.113,0.344-0.343v-1.028C30.911,30.604,30.797,30.489,30.567,30.489z"/>
	<path d="M30.911,22.623c0-0.228-0.114-0.342-0.344-0.342h-1.028c-0.229,0-0.343,0.113-0.343,0.342v1.029
		c0,0.229,0.113,0.342,0.343,0.342h1.028c0.229,0,0.344-0.113,0.344-0.342V22.623z"/>
	<path d="M30.911,28.775c0-0.229-0.114-0.344-0.344-0.344h-1.028c-0.229,0-0.343,0.114-0.343,0.344v1.028
		c0,0.228,0.113,0.343,0.343,0.343h1.028c0.229,0,0.344-0.115,0.344-0.343V28.775z"/>
	<path d="M30.911,24.68c0-0.228-0.114-0.342-0.344-0.342h-1.028c-0.229,0-0.343,0.114-0.343,0.342v1.029
		c0,0.229,0.113,0.343,0.343,0.343h1.028c0.229,0,0.344-0.114,0.344-0.343V24.68z"/>
	<path d="M30.911,26.717c0-0.228-0.114-0.342-0.344-0.342h-1.028c-0.229,0-0.343,0.114-0.343,0.342v1.029
		c0,0.229,0.113,0.344,0.343,0.344h1.028c0.229,0,0.344-0.115,0.344-0.344V26.717z"/>
	<path d="M32.968,26.717c0-0.228-0.114-0.342-0.343-0.342h-1.028c-0.228,0-0.343,0.114-0.343,0.342v1.029
		c0,0.229,0.114,0.344,0.343,0.344h1.028c0.228,0,0.343-0.115,0.343-0.344V26.717z"/>
	<path d="M32.968,22.623c0-0.228-0.114-0.342-0.343-0.342h-1.028c-0.228,0-0.343,0.113-0.343,0.342v1.029
		c0,0.229,0.114,0.342,0.343,0.342h1.028c0.228,0,0.343-0.113,0.343-0.342V22.623z"/>
	<path d="M32.625,28.432h-1.028c-0.228,0-0.343,0.114-0.343,0.344v1.028c0,0.228,0.114,0.343,0.343,0.343h1.028
		c0.228,0,0.343-0.115,0.343-0.343v-1.028C32.968,28.546,32.853,28.432,32.625,28.432z"/>
	<path d="M32.968,24.68c0-0.228-0.114-0.342-0.343-0.342h-1.028c-0.228,0-0.343,0.114-0.343,0.342v1.029
		c0,0.229,0.114,0.343,0.343,0.343h1.028c0.228,0,0.343-0.114,0.343-0.343V24.68z"/>
	<path d="M26.797,28.775c0-0.229-0.115-0.344-0.344-0.344h-1.008c-0.229,0-0.344,0.114-0.344,0.344v1.028
		c0,0.228,0.114,0.343,0.344,0.343h1.008c0.229,0,0.344-0.115,0.344-0.343V28.775z"/>
	<path d="M27.482,30.489c-0.229,0-0.344,0.114-0.344,0.343v1.028c0,0.229,0.114,0.343,0.344,0.343h1.028
		c0.229,0,0.343-0.113,0.343-0.343v-1.028c0-0.229-0.114-0.343-0.343-0.343H27.482z"/>
	<path d="M26.797,22.623c0-0.228-0.115-0.342-0.344-0.342h-1.008c-0.229,0-0.344,0.113-0.344,0.342v1.029
		c0,0.229,0.114,0.342,0.344,0.342h1.008c0.229,0,0.344-0.113,0.344-0.342V22.623z"/>
	<path d="M24.759,26.717c0-0.228-0.114-0.342-0.343-0.342h-1.028c-0.228,0-0.343,0.114-0.343,0.342v1.029
		c0,0.229,0.114,0.344,0.343,0.344h1.028c0.228,0,0.343-0.115,0.343-0.344V26.717z"/>
	<path d="M24.759,24.68c0-0.228-0.114-0.342-0.343-0.342h-1.028c-0.228,0-0.343,0.114-0.343,0.342v1.029
		c0,0.229,0.114,0.343,0.343,0.343h1.028c0.228,0,0.343-0.114,0.343-0.343V24.68z"/>
	<path d="M24.416,28.432h-1.028c-0.228,0-0.343,0.114-0.343,0.344v1.028c0,0.228,0.114,0.343,0.343,0.343h1.028
		c0.228,0,0.343-0.115,0.343-0.343v-1.028C24.759,28.546,24.644,28.432,24.416,28.432z"/>
	<path d="M26.797,24.68c0-0.228-0.115-0.342-0.344-0.342h-1.008c-0.229,0-0.344,0.114-0.344,0.342v1.029
		c0,0.229,0.114,0.343,0.344,0.343h1.008c0.229,0,0.344-0.114,0.344-0.343V24.68z"/>
	<path d="M26.453,30.489h-1.008c-0.229,0-0.344,0.114-0.344,0.343v1.028c0,0.229,0.114,0.343,0.344,0.343h1.008
		c0.229,0,0.344-0.113,0.344-0.343v-1.028C26.797,30.604,26.682,30.489,26.453,30.489z"/>
	<path d="M26.797,26.717c0-0.228-0.115-0.342-0.344-0.342h-1.008c-0.229,0-0.344,0.114-0.344,0.342v1.029
		c0,0.229,0.114,0.344,0.344,0.344h1.008c0.229,0,0.344-0.115,0.344-0.344V26.717z"/>
	<path d="M24.759,22.623c0-0.228-0.114-0.342-0.343-0.342h-1.028c-0.228,0-0.343,0.113-0.343,0.342v1.029
		c0,0.229,0.114,0.342,0.343,0.342h1.028c0.228,0,0.343-0.113,0.343-0.342V22.623z"/>
	<path d="M40.996,28.775c0-0.229-0.115-0.344-0.343-0.344h-1.029c-0.229,0-0.343,0.114-0.343,0.344v1.028
		c0,0.228,0.114,0.343,0.343,0.343h1.029c0.228,0,0.343-0.115,0.343-0.343V28.775z"/>
	<path d="M36.901,24.68c0-0.228-0.114-0.342-0.343-0.342H35.53c-0.229,0-0.343,0.114-0.343,0.342v1.029
		c0,0.229,0.114,0.343,0.343,0.343h1.028c0.228,0,0.343-0.114,0.343-0.343V24.68z"/>
	<path d="M37.587,32.203h1.009c0.229,0,0.343-0.113,0.343-0.343v-1.028c0-0.229-0.114-0.343-0.343-0.343h-1.009
		c-0.229,0-0.343,0.114-0.343,0.343v1.028C37.244,32.09,37.358,32.203,37.587,32.203z"/>
	<path d="M43.054,26.717c0-0.228-0.114-0.342-0.344-0.342h-1.028c-0.229,0-0.343,0.114-0.343,0.342v1.029
		c0,0.229,0.113,0.344,0.343,0.344h1.028c0.229,0,0.344-0.115,0.344-0.344V26.717z"/>
	<path d="M42.71,28.432h-1.028c-0.229,0-0.343,0.114-0.343,0.344v1.028c0,0.228,0.113,0.343,0.343,0.343h1.028
		c0.229,0,0.344-0.115,0.344-0.343v-1.028C43.054,28.546,42.939,28.432,42.71,28.432z"/>
	<path d="M43.054,22.623c0-0.228-0.114-0.342-0.344-0.342h-1.028c-0.229,0-0.343,0.113-0.343,0.342v1.029
		c0,0.229,0.113,0.342,0.343,0.342h1.028c0.229,0,0.344-0.113,0.344-0.342V22.623z"/>
	<path d="M40.996,26.717c0-0.228-0.115-0.342-0.343-0.342h-1.029c-0.229,0-0.343,0.114-0.343,0.342v1.029
		c0,0.229,0.114,0.344,0.343,0.344h1.029c0.228,0,0.343-0.115,0.343-0.344V26.717z"/>
	<path d="M36.559,30.489H35.53c-0.229,0-0.343,0.114-0.343,0.343v1.028c0,0.229,0.114,0.343,0.343,0.343h1.028
		c0.228,0,0.343-0.113,0.343-0.343v-1.028C36.901,30.604,36.787,30.489,36.559,30.489z"/>
	<path d="M40.996,22.623c0-0.228-0.115-0.342-0.343-0.342h-1.029c-0.229,0-0.343,0.113-0.343,0.342v1.029
		c0,0.229,0.114,0.342,0.343,0.342h1.029c0.228,0,0.343-0.113,0.343-0.342V22.623z"/>
	<path d="M40.653,30.489h-1.029c-0.229,0-0.343,0.114-0.343,0.343v1.028c0,0.229,0.114,0.343,0.343,0.343h1.029
		c0.228,0,0.343-0.113,0.343-0.343v-1.028C40.996,30.604,40.881,30.489,40.653,30.489z"/>
	<path d="M36.901,26.717c0-0.228-0.114-0.342-0.343-0.342H35.53c-0.229,0-0.343,0.114-0.343,0.342v1.029
		c0,0.229,0.114,0.344,0.343,0.344h1.028c0.228,0,0.343-0.115,0.343-0.344V26.717z"/>
	<path d="M38.938,24.68c0-0.228-0.114-0.342-0.343-0.342h-1.009c-0.229,0-0.343,0.114-0.343,0.342v1.029
		c0,0.229,0.114,0.343,0.343,0.343h1.009c0.229,0,0.343-0.114,0.343-0.343V24.68z"/>
	<path d="M38.938,22.623c0-0.228-0.114-0.342-0.343-0.342h-1.009c-0.229,0-0.343,0.113-0.343,0.342v1.029
		c0,0.229,0.114,0.342,0.343,0.342h1.009c0.229,0,0.343-0.113,0.343-0.342V22.623z"/>
	<path d="M38.938,26.717c0-0.228-0.114-0.342-0.343-0.342h-1.009c-0.229,0-0.343,0.114-0.343,0.342v1.029
		c0,0.229,0.114,0.344,0.343,0.344h1.009c0.229,0,0.343-0.115,0.343-0.344V26.717z"/>
	<path d="M49.043,28.775c0-0.229-0.114-0.344-0.344-0.344h-1.008c-0.229,0-0.344,0.114-0.344,0.344v1.028
		c0,0.228,0.115,0.343,0.344,0.343h1.008c0.229,0,0.344-0.115,0.344-0.343V28.775z"/>
	<path d="M48.699,30.489h-1.008c-0.229,0-0.344,0.114-0.344,0.343v1.028c0,0.229,0.115,0.343,0.344,0.343h1.008
		c0.229,0,0.344-0.113,0.344-0.343v-1.028C49.043,30.604,48.929,30.489,48.699,30.489z"/>
	<path d="M49.043,26.717c0-0.228-0.114-0.342-0.344-0.342h-1.008c-0.229,0-0.344,0.114-0.344,0.342v1.029
		c0,0.229,0.115,0.344,0.344,0.344h1.008c0.229,0,0.344-0.115,0.344-0.344V26.717z"/>
	<path d="M47.006,26.717c0-0.228-0.114-0.342-0.344-0.342h-1.027c-0.229,0-0.344,0.114-0.344,0.342v1.029
		c0,0.229,0.115,0.344,0.344,0.344h1.027c0.229,0,0.344-0.115,0.344-0.344V26.717z"/>
	<path d="M47.006,18.529c0-0.229-0.114-0.344-0.344-0.344h-1.027c-0.229,0-0.344,0.114-0.344,0.344v1.008
		c0,0.229,0.115,0.344,0.344,0.344h1.027c0.229,0,0.344-0.114,0.344-0.344V18.529z"/>
	<path d="M49.043,22.623c0-0.228-0.114-0.342-0.344-0.342h-1.008c-0.229,0-0.344,0.113-0.344,0.342v1.029
		c0,0.229,0.115,0.342,0.344,0.342h1.008c0.229,0,0.344-0.113,0.344-0.342V22.623z"/>
	<path d="M49.043,16.472c0-0.229-0.114-0.343-0.344-0.343h-1.008c-0.229,0-0.344,0.114-0.344,0.343V17.5
		c0,0.229,0.115,0.344,0.344,0.344h1.008c0.229,0,0.344-0.115,0.344-0.344V16.472z"/>
	<path d="M49.043,24.68c0-0.228-0.114-0.342-0.344-0.342h-1.008c-0.229,0-0.344,0.114-0.344,0.342v1.029
		c0,0.229,0.115,0.343,0.344,0.343h1.008c0.229,0,0.344-0.114,0.344-0.343V24.68z"/>
	<path d="M47.006,28.775c0-0.229-0.114-0.344-0.344-0.344h-1.027c-0.229,0-0.344,0.114-0.344,0.344v1.028
		c0,0.228,0.115,0.343,0.344,0.343h1.027c0.229,0,0.344-0.115,0.344-0.343V28.775z"/>
	<path d="M47.006,22.623c0-0.228-0.114-0.342-0.344-0.342h-1.027c-0.229,0-0.344,0.113-0.344,0.342v1.029
		c0,0.229,0.115,0.342,0.344,0.342h1.027c0.229,0,0.344-0.113,0.344-0.342V22.623z"/>
	<path d="M47.006,24.68c0-0.228-0.114-0.342-0.344-0.342h-1.027c-0.229,0-0.344,0.114-0.344,0.342v1.029
		c0,0.229,0.115,0.343,0.344,0.343h1.027c0.229,0,0.344-0.114,0.344-0.343V24.68z"/>
	<path d="M45.635,32.203h1.027c0.229,0,0.344-0.113,0.344-0.343v-1.028c0-0.229-0.114-0.343-0.344-0.343h-1.027
		c-0.229,0-0.344,0.114-0.344,0.343v1.028C45.291,32.09,45.406,32.203,45.635,32.203z"/>
	<path d="M49.043,18.529c0-0.229-0.114-0.344-0.344-0.344h-1.008c-0.229,0-0.344,0.114-0.344,0.344v1.008
		c0,0.229,0.115,0.344,0.344,0.344h1.008c0.229,0,0.344-0.114,0.344-0.344V18.529z"/>
	<path d="M47.006,16.472c0-0.229-0.114-0.343-0.344-0.343h-1.027c-0.229,0-0.344,0.114-0.344,0.343V17.5
		c0,0.229,0.115,0.344,0.344,0.344h1.027c0.229,0,0.344-0.115,0.344-0.344V16.472z"/>
	<path d="M55.194,24.68c0-0.228-0.115-0.342-0.344-0.342h-1.008c-0.229,0-0.344,0.114-0.344,0.342v1.029
		c0,0.229,0.114,0.343,0.344,0.343h1.008c0.229,0,0.344-0.114,0.344-0.343V24.68z"/>
	<path d="M57.251,22.623c0-0.228-0.114-0.342-0.343-0.342H55.88c-0.229,0-0.344,0.113-0.344,0.342v1.029
		c0,0.229,0.114,0.342,0.344,0.342h1.028c0.229,0,0.343-0.113,0.343-0.342V22.623z"/>
	<path d="M55.194,22.623c0-0.228-0.115-0.342-0.344-0.342h-1.008c-0.229,0-0.344,0.113-0.344,0.342v1.029
		c0,0.229,0.114,0.342,0.344,0.342h1.008c0.229,0,0.344-0.113,0.344-0.342V22.623z"/>
	<path d="M53.843,32.203h1.008c0.229,0,0.344-0.113,0.344-0.343v-1.028c0-0.229-0.115-0.343-0.344-0.343h-1.008
		c-0.229,0-0.344,0.114-0.344,0.343v1.028C53.499,32.09,53.613,32.203,53.843,32.203z"/>
	<path d="M53.156,24.68c0-0.228-0.114-0.342-0.343-0.342h-1.028c-0.229,0-0.343,0.114-0.343,0.342v1.029
		c0,0.229,0.114,0.343,0.343,0.343h1.028c0.229,0,0.343-0.114,0.343-0.343V24.68z"/>
	<path d="M59.309,22.623c0-0.228-0.114-0.342-0.344-0.342h-1.028c-0.229,0-0.343,0.113-0.343,0.342v1.029
		c0,0.229,0.113,0.342,0.343,0.342h1.028c0.229,0,0.344-0.113,0.344-0.342V22.623z"/>
	<path d="M58.965,30.489h-1.028c-0.229,0-0.343,0.114-0.343,0.343v1.028c0,0.229,0.113,0.343,0.343,0.343h1.028
		c0.229,0,0.344-0.113,0.344-0.343v-1.028C59.309,30.604,59.194,30.489,58.965,30.489z"/>
	<path d="M52.813,28.432h-1.028c-0.229,0-0.343,0.114-0.343,0.344v1.028c0,0.228,0.114,0.343,0.343,0.343h1.028
		c0.229,0,0.343-0.115,0.343-0.343v-1.028C53.156,28.546,53.042,28.432,52.813,28.432z"/>
	<path d="M56.908,30.489H55.88c-0.229,0-0.344,0.114-0.344,0.343v1.028c0,0.229,0.114,0.343,0.344,0.343h1.028
		c0.229,0,0.343-0.113,0.343-0.343v-1.028C57.251,30.604,57.137,30.489,56.908,30.489z"/>
	<path d="M53.156,26.717c0-0.228-0.114-0.342-0.343-0.342h-1.028c-0.229,0-0.343,0.114-0.343,0.342v1.029
		c0,0.229,0.114,0.344,0.343,0.344h1.028c0.229,0,0.343-0.115,0.343-0.344V26.717z"/>
	<path d="M55.194,28.775c0-0.229-0.115-0.344-0.344-0.344h-1.008c-0.229,0-0.344,0.114-0.344,0.344v1.028
		c0,0.228,0.114,0.343,0.344,0.343h1.008c0.229,0,0.344-0.115,0.344-0.343V28.775z"/>
	<path d="M55.194,26.717c0-0.228-0.115-0.342-0.344-0.342h-1.008c-0.229,0-0.344,0.114-0.344,0.342v1.029
		c0,0.229,0.114,0.344,0.344,0.344h1.008c0.229,0,0.344-0.115,0.344-0.344V26.717z"/>
</g>
</svg>
