<?xml version="1.0" encoding="iso-8859-1"?>
<!-- Generator: Adobe Illustrator 17.0.0, SVG Export Plug-In . SVG Version: 6.00 Build 0)  -->
<!DOCTYPE svg PUBLIC "-//W3C//DTD SVG 1.1//EN" "http://www.w3.org/Graphics/SVG/1.1/DTD/svg11.dtd">
<svg version="1.1" id="Capa_1" xmlns="http://www.w3.org/2000/svg" xmlns:xlink="http://www.w3.org/1999/xlink" x="0px" y="0px"
	 width="64px" height="64px" viewBox="0 0 64 64" style="enable-background:new 0 0 64 64;" xml:space="preserve">
<g>
	<path d="M27.15,2.03c-13.921,0-25.206,11.285-25.206,25.206S13.229,52.442,27.15,52.442c0.213,0,0.423-0.011,0.635-0.016
		l-1.811-2.054c-0.064-0.102-1.526-2.521,1.701-5.198c2.291-1.901,5.572-0.209,7.342,0.984V34.139
		c-1.92,2.186-4.728,3.573-7.867,3.573c-5.786,0-10.477-4.691-10.477-10.477s4.691-10.477,10.477-10.477
		c5.43,0,9.894,4.131,10.423,9.422c0.403-0.144,0.831-0.237,1.283-0.237c0.884,0,1.689,0.313,2.339,0.817v-1.39
		c0-2.117,1.722-3.839,3.839-3.839c1.999,0,3.626,1.54,3.804,3.494c0.656-0.521,1.474-0.846,2.374-0.846
		c0.337,0,0.658,0.057,0.97,0.139C50.736,11.772,40.084,2.03,27.15,2.03z M27.15,13.326c-7.67,0-13.91,6.24-13.91,13.91
		c0,0.552-0.448,1-1,1s-1-0.448-1-1c0-8.773,7.137-15.91,15.91-15.91c0.552,0,1,0.448,1,1S27.702,13.326,27.15,13.326z M27.15,7.605
		c-10.824,0-19.63,8.806-19.63,19.63c0,0.552-0.448,1-1,1s-1-0.448-1-1c0-11.927,9.703-21.63,21.63-21.63c0.552,0,1,0.448,1,1
		S27.702,7.605,27.15,7.605z"/>
	<path d="M23.673,27.236c0,1.917,1.56,3.477,3.477,3.477s3.477-1.56,3.477-3.477s-1.56-3.477-3.477-3.477
		S23.673,25.319,23.673,27.236z"/>
	<path d="M53.552,33.313v-5.295c0-0.886-0.5-1.648-1.228-2.046c-0.332-0.181-0.707-0.294-1.111-0.294
		c-1.29,0-2.339,1.049-2.339,2.339v11.617h-0.75h-0.75V28.018V25.37c0-1.29-1.049-2.339-2.339-2.339s-2.339,1.049-2.339,2.339v4.413
		v9.851v0h-1.5v-9.852c0-1.29-1.049-2.339-2.339-2.339c-0.464,0-0.895,0.14-1.259,0.374c-0.648,0.416-1.081,1.14-1.081,1.966v2.125
		v17.383l-1.24-1.067c-0.044-0.038-4.444-3.72-6.645-1.896c-2.022,1.677-1.523,2.974-1.408,3.208l2.453,2.779l6.427,7.279H59.73
		V33.313c0-1.29-1.049-2.339-2.339-2.339s-2.339,1.049-2.339,2.339v6.321h-1.5v0V33.313z"/>
</g>
</svg>
