<?xml version="1.0" encoding="iso-8859-1"?>
<!-- Generator: Adobe Illustrator 17.0.0, SVG Export Plug-In . SVG Version: 6.00 Build 0)  -->
<!DOCTYPE svg PUBLIC "-//W3C//DTD SVG 1.1//EN" "http://www.w3.org/Graphics/SVG/1.1/DTD/svg11.dtd">
<svg version="1.1" id="Capa_1" xmlns="http://www.w3.org/2000/svg" xmlns:xlink="http://www.w3.org/1999/xlink" x="0px" y="0px"
	 width="64px" height="64px" viewBox="0 0 64 64" style="enable-background:new 0 0 64 64;" xml:space="preserve">
<path d="M9.064,26.626V39.84c0,4.055,3.287,7.341,7.341,7.341h7.676L45.22,61.064c2.141,1.182,5.056-1.11,6.482-4.009L14.253,19.607
	C11.249,20.527,9.064,23.32,9.064,26.626z"/>
<path d="M52.561,11.51c0-4.055-3.671-9.666-7.341-7.341L25.842,18.051L52.561,44.77V11.51z"/>
<path d="M15.8,19.315l36.426,36.425l3.56,3.56c0.653,0.654,1.51,0.981,2.367,0.981c0.857,0,1.714-0.327,2.367-0.981
	c1.308-1.307,1.308-3.427,0-4.734l-7.958-7.958l-27.79-27.79L12.652,6.7c-0.653-0.654-1.51-0.981-2.367-0.981S8.572,6.046,7.918,6.7
	c-1.308,1.307-1.308,3.427,0,4.734L15.8,19.315z"/>
</svg>
