<?xml version="1.0" encoding="iso-8859-1"?>
<!-- Generator: Adobe Illustrator 17.0.0, SVG Export Plug-In . SVG Version: 6.00 Build 0)  -->
<!DOCTYPE svg PUBLIC "-//W3C//DTD SVG 1.1//EN" "http://www.w3.org/Graphics/SVG/1.1/DTD/svg11.dtd">
<svg version="1.1" id="Capa_1" xmlns="http://www.w3.org/2000/svg" xmlns:xlink="http://www.w3.org/1999/xlink" x="0px" y="0px"
	 width="64px" height="64px" viewBox="0 0 64 64" style="enable-background:new 0 0 64 64;" xml:space="preserve">
<g>
	<circle cx="47.872" cy="26.877" r="0.824"/>
	<circle cx="26.688" cy="9.073" r="0.742"/>
	<polygon points="25.921,12.165 28.352,36.975 25.138,39.942 30.646,36.617 26.498,12.165 	"/>
	<path d="M22.702,52.712c9.621,0,17.42-1.452,17.42-3.243c0-1.791-7.799-3.243-17.42-3.243c-9.62,0-17.419,1.452-17.419,3.243
		C5.283,51.26,13.082,52.712,22.702,52.712z M22.702,48.365c3.275,0,5.931,0.494,5.931,1.104c0,0.61-2.655,1.104-5.931,1.104
		c-3.276,0-5.931-0.495-5.931-1.104C16.771,48.859,19.426,48.365,22.702,48.365z"/>
	<ellipse cx="22.702" cy="49.401" rx="1.421" ry="0.309"/>
	<path d="M26.688,11.426c1.297,0,2.352-1.056,2.352-2.353c0-1.298-1.055-2.354-2.352-2.354c-1.298,0-2.354,1.056-2.354,2.354
		C24.334,10.371,25.39,11.426,26.688,11.426z M26.688,7.47c0.884,0,1.602,0.719,1.602,1.604c0,0.884-0.719,1.603-1.602,1.603
		c-0.884,0-1.604-0.719-1.604-1.603C25.084,8.189,25.804,7.47,26.688,7.47z"/>
	<path d="M23.008,44.764l1.367-5.215l3.164-2.643l-2.164-25.403c-0.863-0.467-1.449-1.38-1.449-2.43l-7.103,27.613l4.818,3.286
		L23.008,44.764z"/>
	<path d="M45.519,26.877c0,1.297,1.056,2.353,2.354,2.353c1.297,0,2.353-1.056,2.353-2.353c0-1.298-1.055-2.354-2.353-2.354
		C46.575,24.524,45.519,25.58,45.519,26.877z M47.873,25.274c0.884,0,1.603,0.719,1.603,1.604c0,0.884-0.719,1.603-1.603,1.603
		c-0.884,0-1.604-0.719-1.604-1.603C46.269,25.993,46.988,25.274,47.873,25.274z"/>
	<path d="M28.189,11.34l-0.297,1.502c0,0,8.048,4.26,17.176,13.856c0.09-1.397,1.194-2.511,2.586-2.62
		c-1.572-1.756-11.604-12.834-18.576-17.23l-0.138,0.7c0.295,0.435,0.468,0.96,0.468,1.526C29.408,10.02,28.923,10.853,28.189,11.34
		z"/>
	<path d="M47.901,29.696c0.314,4.17,0.163,8.299,0.051,10.29c-1.389,1.128-2.278,2.849-2.278,4.778c0,3.399,2.755,6.154,6.155,6.154
		c3.398,0,6.154-2.755,6.154-6.154c0-2.856-1.948-5.25-4.585-5.945c-0.425-5.365-2.16-9.448-2.889-10.962
		C50.112,28.921,49.099,29.684,47.901,29.696z M51.829,43.116c0.91,0,1.648,0.738,1.648,1.648c0,0.91-0.738,1.648-1.648,1.648
		c-0.911,0-1.649-0.738-1.649-1.648C50.18,43.854,50.918,43.116,51.829,43.116z"/>
</g>
</svg>
