<?xml version="1.0" encoding="iso-8859-1"?>
<!-- Generator: Adobe Illustrator 17.0.0, SVG Export Plug-In . SVG Version: 6.00 Build 0)  -->
<!DOCTYPE svg PUBLIC "-//W3C//DTD SVG 1.1//EN" "http://www.w3.org/Graphics/SVG/1.1/DTD/svg11.dtd">
<svg version="1.1" id="Capa_1" xmlns="http://www.w3.org/2000/svg" xmlns:xlink="http://www.w3.org/1999/xlink" x="0px" y="0px"
	 width="64px" height="64px" viewBox="0 0 64 64" style="enable-background:new 0 0 64 64;" xml:space="preserve">
<path d="M61.167,12H3.833C2.729,12,2,12.918,2,14.022v39.956C2,55.082,2.729,56,3.833,56h57.333C62.271,56,63,55.082,63,53.978
	V14.022C63,12.918,62.271,12,61.167,12z M4,14h57v40H4V14z"/>
<path d="M23.92,15.622c-10.327,0-18.698,8.372-18.698,18.698s8.372,18.698,18.698,18.698s18.698-8.372,18.698-18.698
	S34.247,15.622,23.92,15.622z M23.92,52.019c-9.759,0-17.698-7.94-17.698-17.698c0-9.759,7.939-17.698,17.698-17.698
	c9.759,0,17.698,7.939,17.698,17.698C41.618,44.079,33.679,52.019,23.92,52.019z"/>
<path d="M23.695,27.048c-4.016,0-7.272,3.256-7.272,7.272c0,4.016,3.256,7.272,7.272,7.272s7.272-3.256,7.272-7.272
	C30.968,30.304,27.712,27.048,23.695,27.048z M23.359,35.667c-0.781,0-1.414-0.633-1.414-1.414c0-0.781,0.633-1.414,1.414-1.414
	c0.781,0,1.414,0.633,1.414,1.414C24.773,35.034,24.139,35.667,23.359,35.667z"/>
<path d="M56.106,23.524c0-2.194-1.779-3.973-3.973-3.973c-2.194,0-3.973,1.779-3.973,3.973c0,1.223,0.564,2.303,1.433,3.031
	c-0.009-0.889-0.015-1.793,0-2.733c0.03-1.838,1.38-2.799,2.698-2.799c0.713,0,1.4,0.283,1.886,0.777
	c0.361,0.367,0.788,1.022,0.771,2.062c-0.014,0.845-0.013,1.665-0.009,2.473C55.661,25.616,56.106,24.622,56.106,23.524z"/>
<path d="M42.546,49.09c-0.044,0.062-0.094,0.127-0.136,0.188c-0.967,1.394,0.13,2.756,1.337,2.756c0.395,0,0.799-0.152,1.149-0.489
	c0.15-1.24,0.018-2.038-0.394-2.378C44.148,48.875,43.493,48.85,42.546,49.09z"/>
<path d="M53.948,27.463c-0.001-0.139-0.001-0.282-0.002-0.422c-0.008-1.037-0.013-2.093,0.005-3.195
	c0.019-1.212-0.816-1.823-1.657-1.823c-0.836,0-1.679,0.602-1.699,1.815c-0.019,1.155-0.008,2.263,0.006,3.35
	c0.002,0.131,0.003,0.261,0.005,0.391c0.002,0.132,0.003,0.261,0.005,0.393c0.046,3.206,0.086,6.253-0.491,9.687
	c-0.541,3.217-4.284,7.201-6.71,10.284c0.734-0.044,1.304,0.102,1.73,0.453c0.464,0.382,0.725,0.961,0.796,1.777
	c2.706-3.648,6.914-8.438,7.526-12.401c0.544-3.517,0.518-6.614,0.489-9.892C53.95,27.741,53.949,27.604,53.948,27.463z"/>
<rect x="5" y="51" width="7" height="1"/>
<rect x="56" y="51" width="3" height="1"/>
<path d="M9.689,42.67c0,0,1.481,3.906,6.734,6.33l2.963-7.003l-3.232-2.963L9.689,42.67z"/>
<path d="M25.918,25.683l2-7.142c0,0-3.809-1.714-9.237,0.286l2.857,7.047L25.918,25.683z"/>
</svg>
