<?xml version="1.0" encoding="iso-8859-1"?>
<!-- Generator: Adobe Illustrator 17.0.0, SVG Export Plug-In . SVG Version: 6.00 Build 0)  -->
<!DOCTYPE svg PUBLIC "-//W3C//DTD SVG 1.1//EN" "http://www.w3.org/Graphics/SVG/1.1/DTD/svg11.dtd">
<svg version="1.1" id="Capa_1" xmlns="http://www.w3.org/2000/svg" xmlns:xlink="http://www.w3.org/1999/xlink" x="0px" y="0px"
	 width="64px" height="64px" viewBox="0 0 64 64" style="enable-background:new 0 0 64 64;" xml:space="preserve">
<g>
	<path d="M33.147,6c-14.359,0-26,11.641-26,26s11.641,26,26,26c14.359,0,26-11.641,26-26S47.507,6,33.147,6z M28.696,41.617
		c0,2.257-1.495,4.084-3.339,4.084c-1.844,0-3.339-1.827-3.339-4.084V24.982c0-2.255,1.495-4.084,3.339-4.084
		c1.844,0,3.339,1.829,3.339,4.084V41.617z M44.277,41.617c0,2.257-1.496,4.084-3.339,4.084c-1.843,0-3.338-1.827-3.338-4.084
		V24.982c0-2.255,1.495-4.084,3.338-4.084c1.844,0,3.339,1.829,3.339,4.084V41.617z"/>
</g>
</svg>
