<?xml version="1.0" encoding="iso-8859-1"?>
<!-- Generator: Adobe Illustrator 17.0.0, SVG Export Plug-In . SVG Version: 6.00 Build 0)  -->
<!DOCTYPE svg PUBLIC "-//W3C//DTD SVG 1.1//EN" "http://www.w3.org/Graphics/SVG/1.1/DTD/svg11.dtd">
<svg version="1.1" id="Capa_1" xmlns="http://www.w3.org/2000/svg" xmlns:xlink="http://www.w3.org/1999/xlink" x="0px" y="0px"
	 width="64px" height="64px" viewBox="0 0 64 64" style="enable-background:new 0 0 64 64;" xml:space="preserve">
<g>
	<path d="M33.814,6c-14.359,0-26,11.641-26,26s11.641,26,26,26c14.359,0,26-11.641,26-26S48.174,6,33.814,6z M31.509,33.986
		l-9.424,5.404c-1.623,0.93-2.939,0.168-2.939-1.704V26.914c0-1.872,1.316-2.635,2.939-1.703l9.424,5.404
		C33.132,31.546,33.132,33.055,31.509,33.986z M38.248,37.438c0,1.871-1.027,3.388-2.295,3.388c-1.268,0-2.296-1.517-2.296-3.388
		V27.162c0-1.871,1.028-3.389,2.296-3.389c1.268,0,2.295,1.518,2.295,3.389V37.438z M47.773,37.438c0,1.871-1.028,3.388-2.296,3.388
		c-1.268,0-2.296-1.517-2.296-3.388V27.162c0-1.871,1.028-3.389,2.296-3.389c1.268,0,2.296,1.518,2.296,3.389V37.438z"/>
</g>
</svg>
