<?xml version="1.0" encoding="iso-8859-1"?>
<!-- Generator: Adobe Illustrator 17.0.0, SVG Export Plug-In . SVG Version: 6.00 Build 0)  -->
<!DOCTYPE svg PUBLIC "-//W3C//DTD SVG 1.1//EN" "http://www.w3.org/Graphics/SVG/1.1/DTD/svg11.dtd">
<svg version="1.1" id="Capa_1" xmlns="http://www.w3.org/2000/svg" xmlns:xlink="http://www.w3.org/1999/xlink" x="0px" y="0px"
	 width="64px" height="64px" viewBox="0 0 64 64" style="enable-background:new 0 0 64 64;" xml:space="preserve">
<path d="M13.095,61.851h41.867c0.255,0,0.462-0.207,0.462-0.462V2.611c0-0.255-0.207-0.462-0.462-0.462H18.291
	c-0.255,0-0.461,0.207-0.459,0.462l0.11,19.285c0.001,0.255-0.15,0.601-0.338,0.773l-4.63,4.227
	c-0.188,0.172-0.341,0.518-0.341,0.773v4.888c0,0.255,0.206,0.48,0.46,0.503l1.797-0.019c0.254,0.022,0.445,0.423,0.449,0.678
	l0.058,3.881c0.004,0.255-0.142,0.605-0.327,0.781l-2.104,2.017c-0.184,0.176-0.333,0.526-0.333,0.781v20.208
	C12.633,61.644,12.84,61.851,13.095,61.851z M46.083,5.833c0-0.552,0.448-1,1-1h3.333c0.552,0,1,0.448,1,1v15.5c0,0.552-0.448,1-1,1
	h-3.333c-0.552,0-1-0.448-1-1V5.833z M38.083,5.833c0-0.552,0.448-1,1-1h3.333c0.552,0,1,0.448,1,1v15.5c0,0.552-0.448,1-1,1h-3.333
	c-0.552,0-1-0.448-1-1V5.833z M30.083,5.833c0-0.552,0.448-1,1-1h3.333c0.552,0,1,0.448,1,1v15.5c0,0.552-0.448,1-1,1h-3.333
	c-0.552,0-1-0.448-1-1V5.833z M22.083,5.833c0-0.552,0.448-1,1-1h3.333c0.552,0,1,0.448,1,1v15.5c0,0.552-0.448,1-1,1h-3.333
	c-0.552,0-1-0.448-1-1V5.833z"/>
</svg>
