<?xml version="1.0" encoding="iso-8859-1"?>
<!-- Generator: Adobe Illustrator 17.0.0, SVG Export Plug-In . SVG Version: 6.00 Build 0)  -->
<!DOCTYPE svg PUBLIC "-//W3C//DTD SVG 1.1//EN" "http://www.w3.org/Graphics/SVG/1.1/DTD/svg11.dtd">
<svg version="1.1" id="Capa_1" xmlns="http://www.w3.org/2000/svg" xmlns:xlink="http://www.w3.org/1999/xlink" x="0px" y="0px"
	 width="64px" height="64px" viewBox="0 0 64 64" style="enable-background:new 0 0 64 64;" xml:space="preserve">
<path d="M55.066,45.942V20.194c0.505,0.086,0.778,0.14,0.778,0.14V8.344H11.772v18.601c1.1-1.045,2.319-1.959,3.63-2.764v15.402
	l2.334-0.777v10.343c-4.261,1.88-6.651,3.65-6.905,3.845l1.882,2.478c0.159-0.121,16.345-12.055,42.476-6.331l0.666-3.038
	C55.589,46.043,55.331,45.997,55.066,45.942z M54.288,45.786c-1.82-0.358-3.593-0.641-5.313-0.848V34.03h1.652V19.566
	c1.518,0.178,2.767,0.358,3.661,0.501V45.786z M44.763,34.03V19.055c0.611,0.035,1.205,0.075,1.781,0.119V34.03h1.652v10.814
	c-1.832-0.2-3.602-0.314-5.314-0.364V34.03H44.763z M26.55,35.792V20.063c0.604-0.121,1.208-0.232,1.815-0.332v15.38l1.556-0.519
	v10.846c-1.904,0.35-3.678,0.772-5.314,1.238V36.44L26.55,35.792z M30.698,34.333l2.334-0.777V19.159c1-0.085,1.996-0.148,2.98-0.19
	v25.677c-1.867,0.148-3.639,0.374-5.315,0.658V34.333z M18.515,38.546l1.555-0.518V21.905c0.596-0.229,1.201-0.441,1.814-0.639
	v16.08l1.944-0.647v10.209c-1.987,0.599-3.763,1.251-5.313,1.905V38.546z M36.79,44.588V18.94c1.326-0.042,2.627-0.051,3.889-0.033
	V34.03h1.426v10.431C40.261,44.429,38.487,44.475,36.79,44.588z"/>
</svg>
