<?xml version="1.0" encoding="iso-8859-1"?>
<!-- Generator: Adobe Illustrator 17.0.0, SVG Export Plug-In . SVG Version: 6.00 Build 0)  -->
<!DOCTYPE svg PUBLIC "-//W3C//DTD SVG 1.1//EN" "http://www.w3.org/Graphics/SVG/1.1/DTD/svg11.dtd">
<svg version="1.1" id="Capa_1" xmlns="http://www.w3.org/2000/svg" xmlns:xlink="http://www.w3.org/1999/xlink" x="0px" y="0px"
	 width="64px" height="64px" viewBox="0 0 64 64" style="enable-background:new 0 0 64 64;" xml:space="preserve">
<g>
	<path d="M38.167,22.667C52.912,28.222,59.823,9.575,60.448,7.785C60.11,8.525,57.559,11.594,39,6.833
		c-22.641-5.807-20.994,6.961-20.994,6.961v11.539v11.462c-3.462-1.203-8.051,0.055-11.491,3.495
		C2.098,44.707,1.258,51.029,4.64,54.41c3.381,3.381,9.703,2.542,14.12-1.875c2.296-2.296,3.615-5.105,3.888-7.75h0.036v-0.425
		c0.025-0.415,0.028-0.825,0-1.227V21.644C25.815,20.369,30.748,19.872,38.167,22.667z"/>
	<path d="M60.448,7.785C60.49,7.693,60.5,7.634,60.5,7.634S60.479,7.695,60.448,7.785z"/>
	<path d="M39.293,34.942c-1.014-0.577-1.836-0.099-1.836,1.068v15.32c0,1.167,0.822,1.645,1.836,1.068l13.496-7.682
		c1.014-0.577,1.014-1.513,0-2.091L39.293,34.942z"/>
	<path d="M43.368,25.912c-9.792,0-17.757,7.966-17.757,17.758c0,9.791,7.966,17.757,17.757,17.757s17.757-7.966,17.757-17.757
		C61.125,33.878,53.159,25.912,43.368,25.912z M43.368,57.427c-7.586,0-13.757-6.171-13.757-13.757s6.171-13.758,13.757-13.758
		s13.757,6.172,13.757,13.758S50.954,57.427,43.368,57.427z"/>
</g>
</svg>
