<?xml version="1.0" encoding="iso-8859-1"?>
<!-- Generator: Adobe Illustrator 17.0.0, SVG Export Plug-In . SVG Version: 6.00 Build 0)  -->
<!DOCTYPE svg PUBLIC "-//W3C//DTD SVG 1.1//EN" "http://www.w3.org/Graphics/SVG/1.1/DTD/svg11.dtd">
<svg version="1.1" id="Capa_1" xmlns="http://www.w3.org/2000/svg" xmlns:xlink="http://www.w3.org/1999/xlink" x="0px" y="0px"
	 width="64px" height="64px" viewBox="0 0 64 64" style="enable-background:new 0 0 64 64;" xml:space="preserve">
<path d="M47.304,46.781c2.176,0,3.941-2.604,3.941-5.816V23.326c0-3.211-1.766-5.816-3.941-5.816c-2.178,0-3.941,2.605-3.941,5.816
	v4.866l-14.326-8.215c-2.726-1.565-4.941-0.34-5.035,2.725l9.158,5.252c1.807,1.035,2.844,2.564,2.844,4.193
	c0,1.631-1.037,3.158-2.844,4.195l-9.158,5.25c0.094,3.062,2.309,4.289,5.035,2.725l14.326-8.214v4.862
	C43.362,44.178,45.126,46.781,47.304,46.781z"/>
<path d="M30.817,29.254L14.64,19.977c-2.785-1.598-5.045-0.289-5.045,2.924v18.494c0,3.211,2.26,4.52,5.045,2.922l16.178-9.275
	C33.602,33.443,33.602,30.852,30.817,29.254z"/>
</svg>
