<?xml version="1.0" encoding="iso-8859-1"?>
<!-- Generator: Adobe Illustrator 17.0.0, SVG Export Plug-In . SVG Version: 6.00 Build 0)  -->
<!DOCTYPE svg PUBLIC "-//W3C//DTD SVG 1.1//EN" "http://www.w3.org/Graphics/SVG/1.1/DTD/svg11.dtd">
<svg version="1.1" id="Capa_1" xmlns="http://www.w3.org/2000/svg" xmlns:xlink="http://www.w3.org/1999/xlink" x="0px" y="0px"
	 width="64px" height="64px" viewBox="0 0 64 64" style="enable-background:new 0 0 64 64;" xml:space="preserve">
<path d="M42.158,16.699l10.753,3.864l0.338-0.941c1.928-5.364-0.868-11.296-6.231-13.223L35.449,2.242
	c-1.129-0.406-2.305-0.612-3.495-0.612c-4.348,0-8.257,2.75-9.728,6.843l-0.338,0.941l11.514,4.137
	c0.289,0.104,0.439,0.423,0.336,0.711c-0.102,0.281-0.423,0.439-0.711,0.336l-11.515-4.138l-1.834,5.104l11.514,4.137
	c0.289,0.104,0.439,0.423,0.336,0.711c-0.102,0.281-0.425,0.439-0.711,0.336l-11.514-4.138l-1.834,5.104l11.514,4.137
	c0.289,0.104,0.439,0.423,0.336,0.712c-0.101,0.281-0.423,0.44-0.711,0.335l-11.515-4.138l-1.833,5.104l11.513,4.137
	c0.14,0.05,0.252,0.152,0.316,0.287c0.063,0.134,0.07,0.285,0.02,0.425c-0.101,0.28-0.425,0.438-0.711,0.335l-11.54-4.147
	l-0.306,1.005c-1.471,4.832,0.766,9.922,5.137,12.175v8.311l0.027,0.01l-0.027,11.449h7.15l0.119-8.742l0.032,0.012l8.23-5.752
	c0.257,0.019,0.514,0.033,0.772,0.033c4.183,0,7.926-2.498,9.536-6.365l0.404-0.97l-10.778-3.874
	c-0.14-0.05-0.251-0.151-0.315-0.286c-0.063-0.135-0.07-0.286-0.021-0.426c0.1-0.28,0.425-0.439,0.711-0.335l10.753,3.864
	l1.834-5.104l-10.753-3.864c-0.14-0.05-0.251-0.152-0.314-0.286c-0.063-0.134-0.071-0.286-0.021-0.426
	c0.101-0.28,0.425-0.439,0.711-0.335l10.753,3.864l1.834-5.104l-10.753-3.864c-0.288-0.104-0.438-0.423-0.335-0.712
	c0.101-0.28,0.424-0.438,0.711-0.335l10.752,3.864l1.834-5.104l-10.752-3.864c-0.14-0.05-0.251-0.151-0.315-0.286
	c-0.063-0.135-0.07-0.286-0.021-0.425C41.547,16.754,41.871,16.596,42.158,16.699z M49.495,24.155l-8.87-3.188
	c-1.295-0.464-2.807,0.252-3.27,1.542c-0.477,1.327,0.215,2.793,1.541,3.27l8.871,3.188l-0.481,1.339l-8.871-3.188
	c-1.295-0.468-2.806,0.251-3.269,1.541c-0.231,0.643-0.198,1.337,0.093,1.955c0.292,0.618,0.806,1.085,1.448,1.315l8.871,3.188
	l-0.481,1.339l-8.871-3.188c-1.295-0.468-2.807,0.252-3.27,1.541c-0.231,0.643-0.198,1.336,0.093,1.954s0.806,1.085,1.448,1.315
	l8.738,3.141c-1.472,2.573-4.206,4.186-7.224,4.186c-0.957,0-1.903-0.166-2.812-0.493l-11.569-4.157
	c-3.845-1.382-6.065-5.306-5.39-9.236l9.5,3.414c1.298,0.468,2.807-0.253,3.27-1.541c0.231-0.643,0.198-1.337-0.093-1.955
	s-0.805-1.085-1.448-1.316l-9.632-3.461l0.481-1.339l9.632,3.461c1.299,0.469,2.808-0.253,3.27-1.541
	c0.477-1.326-0.215-2.793-1.541-3.27l-9.632-3.461l0.481-1.339l9.632,3.461c1.298,0.469,2.807-0.252,3.27-1.541
	c0.477-1.326-0.214-2.793-1.541-3.27l-9.632-3.461l0.481-1.339l9.631,3.461c1.299,0.467,2.807-0.25,3.271-1.541
	c0.477-1.326-0.215-2.793-1.541-3.27l-9.575-3.441c1.4-2.787,4.281-4.599,7.451-4.599c0.958,0,1.907,0.166,2.818,0.494l11.569,4.157
	c2.096,0.753,3.772,2.277,4.722,4.292c0.806,1.709,1.005,3.599,0.587,5.412l-8.815-3.167c-1.296-0.467-2.806,0.251-3.27,1.541
	c-0.231,0.643-0.198,1.336,0.093,1.954s0.806,1.085,1.448,1.315l8.87,3.188L49.495,24.155z M26.926,50.727l-5.239-1.823v-5.277
	l10.834,3.189L26.926,50.727z M24.966,52.368l-0.102,7.486h-3.172l0.02-8.702l0-0.121l3.256,1.133L24.966,52.368z"/>
</svg>
