<?xml version="1.0" encoding="iso-8859-1"?>
<!-- Generator: Adobe Illustrator 17.0.0, SVG Export Plug-In . SVG Version: 6.00 Build 0)  -->
<!DOCTYPE svg PUBLIC "-//W3C//DTD SVG 1.1//EN" "http://www.w3.org/Graphics/SVG/1.1/DTD/svg11.dtd">
<svg version="1.1" id="Capa_1" xmlns="http://www.w3.org/2000/svg" xmlns:xlink="http://www.w3.org/1999/xlink" x="0px" y="0px"
	 width="64px" height="64px" viewBox="0 0 64 64" style="enable-background:new 0 0 64 64;" xml:space="preserve">
<path d="M51.407,40.712V15.159v-5.49V7.075l-27.483,9.901v1.551v6.662V43.92c-0.849-0.378-1.797-0.596-2.804-0.596
	c-3.553,0-6.435,2.644-6.435,5.906c0,3.261,2.882,5.905,6.435,5.905c3.431,0,6.226-2.463,6.419-5.565h0.019V23.863l20.216-7.377
	v18.576c-0.85-0.378-1.798-0.596-2.805-0.596c-3.552,0-6.434,2.644-6.434,5.906c0,3.261,2.882,5.905,6.434,5.905
	c3.432,0,6.227-2.463,6.42-5.565H51.407z"/>
</svg>
