<?xml version="1.0" encoding="iso-8859-1"?>
<!-- Generator: Adobe Illustrator 17.0.0, SVG Export Plug-In . SVG Version: 6.00 Build 0)  -->
<!DOCTYPE svg PUBLIC "-//W3C//DTD SVG 1.1//EN" "http://www.w3.org/Graphics/SVG/1.1/DTD/svg11.dtd">
<svg version="1.1" id="Capa_1" xmlns="http://www.w3.org/2000/svg" xmlns:xlink="http://www.w3.org/1999/xlink" x="0px" y="0px"
	 width="64px" height="64px" viewBox="0 0 64 64" style="enable-background:new 0 0 64 64;" xml:space="preserve">
<g>
	<rect x="2.361" y="33.124" width="12.667" height="2.77"/>
	<rect x="15.546" y="33.124" width="2.39" height="2.77"/>
	<rect x="18.295" y="33.124" width="2.39" height="2.77"/>
	<rect x="21.043" y="33.124" width="2.39" height="2.77"/>
	<polygon points="26.54,33.124 23.791,33.124 23.791,35.894 26.54,35.894 27.884,35.894 28.93,35.894 28.93,33.124 27.884,33.124 	
		"/>
	<rect x="29.288" y="33.124" width="2.39" height="2.77"/>
	<rect x="32.037" y="33.124" width="2.39" height="2.77"/>
	<rect x="34.785" y="33.124" width="2.39" height="2.77"/>
	<polygon points="40.282,33.124 37.533,33.124 37.533,35.894 40.282,35.894 41.148,35.894 42.672,35.894 42.672,33.124 
		41.148,33.124 	"/>
	<rect x="45.779" y="33.124" width="2.39" height="2.77"/>
	<rect x="48.527" y="33.124" width="2.39" height="2.77"/>
	<polygon points="55.935,33.124 54.77,33.124 54.024,33.124 51.275,33.124 51.275,35.894 54.024,35.894 54.77,35.894 55.935,35.894 
		56.414,35.894 59.162,35.894 59.162,33.124 56.414,33.124 	"/>
	<path d="M42.13,40.177l-0.41,0.378v0.399h2.343v-0.286c0.117,0.237,0.358,0.401,0.641,0.401c0.396,0,0.717-0.321,0.717-0.717V17.41
		c0-0.396-0.32-0.717-0.717-0.717s-0.717,0.321-0.717,0.717v21.055c-0.009-0.556-0.38-1.03-1.138-1.03
		c-0.437,0-0.815,0.155-1.065,0.356l0.192,0.464c0.176-0.133,0.432-0.288,0.74-0.288c0.452,0,0.617,0.271,0.617,0.581
		C43.328,39.006,42.944,39.421,42.13,40.177z M43.986,38.502v1.851c0,0.02,0.004,0.039,0.006,0.059h-1.347v-0.011l0.299-0.261
		C43.545,39.587,43.977,39.101,43.986,38.502z"/>
	<path d="M3.916,30.498h1.135l0.324,1.017h0.709l-1.166-3.588H4.081l-1.15,3.588h0.677L3.916,30.498z M4.3,29.118
		c0.059-0.213,0.117-0.463,0.17-0.671H4.48c0.054,0.208,0.112,0.453,0.182,0.671l0.282,0.884H4.023L4.3,29.118z"/>
	<path d="M8.751,29.363c-0.139,0.42-0.262,0.862-0.357,1.251H8.377c-0.09-0.399-0.201-0.826-0.329-1.246l-0.469-1.443H6.716
		l-0.239,3.588h0.612l0.08-1.443c0.026-0.49,0.048-1.06,0.064-1.528h0.011c0.095,0.447,0.224,0.937,0.361,1.394l0.48,1.534h0.501
		l0.526-1.555c0.159-0.453,0.309-0.938,0.426-1.373h0.017c-0.006,0.484,0.02,1.043,0.042,1.507l0.069,1.464h0.639l-0.207-3.588
		H9.245L8.751,29.363z"/>
	<polygon points="4.599,39.427 5.918,39.427 5.918,38.894 4.599,38.894 4.599,37.903 6.019,37.903 6.019,37.366 3.943,37.366 
		3.943,40.955 4.599,40.955 	"/>
	<path d="M8.751,38.804c-0.139,0.42-0.262,0.862-0.357,1.251H8.378c-0.091-0.399-0.202-0.825-0.33-1.246l-0.469-1.443H6.717
		l-0.239,3.589H7.09l0.079-1.443c0.027-0.49,0.048-1.06,0.064-1.528h0.011c0.096,0.447,0.224,0.937,0.361,1.395l0.48,1.533h0.501
		l0.527-1.555c0.158-0.453,0.309-0.937,0.425-1.373h0.017c-0.006,0.484,0.021,1.043,0.042,1.506l0.07,1.464h0.639l-0.208-3.589
		H9.246L8.751,38.804z"/>
	<path d="M14.753,30.715c-0.315,0-0.613-0.101-0.762-0.181l-0.133,0.496c0.181,0.101,0.516,0.202,0.921,0.202
		c0.846,0,1.394-0.538,1.394-1.198c0-0.421-0.191-0.714-0.453-0.879c-0.229-0.154-0.537-0.224-0.841-0.224
		c-0.101,0-0.17,0.005-0.245,0.016l0.102-0.692h1.331v-0.543h-1.795l-0.224,1.747c0.134-0.016,0.277-0.032,0.475-0.032
		c0.688,0,0.979,0.261,0.979,0.66C15.503,30.497,15.135,30.715,14.753,30.715z"/>
	<path d="M17.935,27.654c-0.808,0-1.267,0.719-1.267,1.8c0.005,1.054,0.431,1.778,1.224,1.778c0.831,0,1.268-0.698,1.268-1.816
		C19.16,28.399,18.771,27.654,17.935,27.654z M17.914,30.731c-0.357,0-0.586-0.436-0.586-1.283c0-0.862,0.245-1.294,0.592-1.294
		c0.394,0,0.58,0.474,0.58,1.278C18.5,30.263,18.303,30.731,17.914,30.731z"/>
	<path d="M14.56,39.719c0,0.485,0.421,0.954,1.23,0.954c0.74,0,1.263-0.416,1.263-1.033c0-0.431-0.282-0.729-0.66-0.874V38.75
		c0.378-0.187,0.532-0.49,0.532-0.783c0-0.426-0.336-0.873-1.086-0.873c-0.655,0-1.156,0.383-1.156,0.948
		c0,0.303,0.165,0.591,0.528,0.767v0.016C14.811,39,14.56,39.293,14.56,39.719z M15.807,37.547c0.352,0,0.495,0.25,0.495,0.49
		c0,0.261-0.192,0.453-0.432,0.522c-0.329-0.09-0.564-0.261-0.564-0.543C15.306,37.765,15.477,37.547,15.807,37.547z M15.742,39.042
		c0.389,0.107,0.644,0.298,0.644,0.65c0,0.298-0.229,0.517-0.575,0.517c-0.367,0-0.591-0.266-0.58-0.564
		C15.231,39.362,15.418,39.133,15.742,39.042z"/>
	<path d="M17.414,39.719c0,0.485,0.42,0.954,1.229,0.954c0.74,0,1.262-0.416,1.262-1.033c0-0.431-0.281-0.729-0.66-0.874V38.75
		c0.379-0.187,0.533-0.49,0.533-0.783c0-0.426-0.336-0.873-1.087-0.873c-0.654,0-1.155,0.383-1.155,0.948
		c0,0.303,0.165,0.591,0.527,0.767v0.016C17.664,39,17.414,39.293,17.414,39.719z M18.66,37.547c0.351,0,0.494,0.25,0.494,0.49
		c0,0.261-0.191,0.453-0.431,0.522c-0.33-0.09-0.564-0.261-0.564-0.543C18.159,37.765,18.33,37.547,18.66,37.547z M18.596,39.042
		c0.389,0.107,0.645,0.298,0.645,0.65c0,0.298-0.229,0.517-0.575,0.517c-0.367,0-0.591-0.266-0.58-0.564
		C18.085,39.362,18.27,39.133,18.596,39.042z"/>
	<path d="M35.174,28.538c0.128-0.016,0.234-0.021,0.33-0.016v-0.517C35.424,28,35.317,28,35.174,28.021
		c-0.495,0.038-0.915,0.208-1.229,0.511c-0.362,0.34-0.603,0.878-0.603,1.544c0,0.857,0.464,1.496,1.305,1.496
		c0.734,0,1.219-0.575,1.219-1.235c0-0.703-0.463-1.128-1.059-1.128c-0.347,0-0.607,0.138-0.777,0.335h-0.016
		C34.099,29.065,34.444,28.624,35.174,28.538z M34.035,30.045c0.1-0.208,0.318-0.357,0.564-0.357c0.382,0,0.601,0.282,0.601,0.687
		c0,0.415-0.219,0.708-0.554,0.708c-0.432,0-0.644-0.373-0.654-0.831C33.992,30.162,34.008,30.098,34.035,30.045z"/>
	<path d="M37.474,27.995c-0.81,0-1.267,0.719-1.267,1.8c0.004,1.054,0.431,1.778,1.224,1.778c0.831,0,1.267-0.697,1.267-1.816
		C38.697,28.74,38.31,27.995,37.474,27.995z M37.452,31.072c-0.357,0-0.586-0.437-0.586-1.283c0-0.862,0.245-1.294,0.592-1.294
		c0.394,0,0.579,0.474,0.579,1.278C38.037,30.604,37.841,31.072,37.452,31.072z"/>
	<path d="M27.651,38.67c0,0.639,0.446,1.07,1.049,1.07c0.33,0,0.579-0.112,0.756-0.304h0.011c-0.065,0.33-0.219,0.591-0.447,0.772
		c-0.192,0.154-0.442,0.245-0.703,0.266c-0.154,0.016-0.255,0.021-0.362,0.011v0.522c0.102,0.005,0.245,0.005,0.395-0.011
		c0.468-0.032,0.884-0.197,1.182-0.474c0.362-0.347,0.601-0.874,0.601-1.614c0-0.846-0.426-1.475-1.235-1.475
		C28.162,37.435,27.651,38.005,27.651,38.67z M29.467,38.787c0,0.091-0.017,0.144-0.037,0.192c-0.102,0.16-0.293,0.287-0.56,0.287
		c-0.362,0-0.569-0.277-0.569-0.633c0-0.421,0.234-0.714,0.564-0.714C29.291,37.919,29.467,38.319,29.467,38.787z"/>
	<path d="M30.498,39.235c0.006,1.054,0.432,1.778,1.226,1.778c0.83,0,1.267-0.698,1.267-1.816c0-1.017-0.389-1.762-1.225-1.762
		C30.957,37.435,30.498,38.154,30.498,39.235z M32.33,39.213c0,0.83-0.196,1.299-0.585,1.299c-0.357,0-0.586-0.437-0.586-1.283
		c0-0.863,0.245-1.294,0.591-1.294C32.144,37.936,32.33,38.41,32.33,39.213z"/>
	<path d="M39.489,40.475c-0.154,0.016-0.256,0.021-0.362,0.011v0.522c0.101,0.005,0.245,0.005,0.394-0.011
		c0.468-0.032,0.884-0.197,1.182-0.474c0.362-0.347,0.602-0.874,0.602-1.614c0-0.846-0.426-1.475-1.234-1.475
		c-0.735,0-1.246,0.57-1.246,1.235c0,0.639,0.447,1.07,1.049,1.07c0.33,0,0.58-0.112,0.756-0.304h0.01
		c-0.063,0.33-0.218,0.591-0.446,0.772C40,40.363,39.751,40.454,39.489,40.475z M40.602,38.979c-0.101,0.16-0.293,0.287-0.559,0.287
		c-0.362,0-0.569-0.277-0.569-0.633c0-0.421,0.234-0.714,0.564-0.714c0.426,0,0.601,0.399,0.601,0.868
		C40.639,38.878,40.624,38.931,40.602,38.979z"/>
	<polygon points="54.57,31.514 55.257,31.514 56.722,28.474 56.722,28.054 54.394,28.054 54.394,28.597 56.029,28.597 
		56.029,28.607 	"/>
	<path d="M58.414,27.995c-0.81,0-1.268,0.719-1.268,1.8c0.006,1.054,0.431,1.778,1.225,1.778c0.831,0,1.268-0.697,1.268-1.816
		C59.639,28.74,59.25,27.995,58.414,27.995z M58.393,31.072c-0.356,0-0.586-0.437-0.586-1.283c0-0.862,0.245-1.294,0.591-1.294
		c0.395,0,0.581,0.474,0.581,1.278C58.978,30.604,58.781,31.072,58.393,31.072z"/>
	<path d="M53.584,38.91c0-0.846-0.425-1.475-1.234-1.475c-0.735,0-1.246,0.57-1.246,1.235c0,0.639,0.447,1.07,1.049,1.07
		c0.33,0,0.58-0.112,0.756-0.304h0.011c-0.064,0.33-0.219,0.591-0.447,0.772c-0.191,0.154-0.441,0.245-0.703,0.266
		c-0.154,0.016-0.256,0.021-0.361,0.011v0.522c0.101,0.005,0.245,0.005,0.394-0.011c0.469-0.032,0.884-0.197,1.183-0.474
		C53.345,40.177,53.584,39.65,53.584,38.91z M52.882,38.979c-0.102,0.16-0.293,0.287-0.56,0.287c-0.361,0-0.569-0.277-0.569-0.633
		c0-0.421,0.234-0.714,0.564-0.714c0.426,0,0.601,0.399,0.601,0.868C52.919,38.878,52.903,38.931,52.882,38.979z"/>
	<path d="M55.287,37.494l-1.416,2.156v0.426h1.57v0.878h0.618v-0.878h0.447v-0.496H56.06v-2.087H55.287z M55.441,38.639v0.942H54.5
		v-0.01l0.639-0.948c0.106-0.192,0.197-0.367,0.303-0.586h0.021C55.453,38.245,55.441,38.441,55.441,38.639z"/>
</g>
</svg>
