<?xml version="1.0" encoding="iso-8859-1"?>
<!-- Generator: Adobe Illustrator 17.0.0, SVG Export Plug-In . SVG Version: 6.00 Build 0)  -->
<!DOCTYPE svg PUBLIC "-//W3C//DTD SVG 1.1//EN" "http://www.w3.org/Graphics/SVG/1.1/DTD/svg11.dtd">
<svg version="1.1" id="Capa_1" xmlns="http://www.w3.org/2000/svg" xmlns:xlink="http://www.w3.org/1999/xlink" x="0px" y="0px"
	 width="64px" height="64px" viewBox="0 0 64 64" style="enable-background:new 0 0 64 64;" xml:space="preserve">
<g>
	<path d="M11.687,29.249h22.156c0.276,0,0.5-0.224,0.5-0.5c0-0.276-0.224-0.5-0.5-0.5H11.687c-0.276,0-0.5,0.224-0.5,0.5
		C11.187,29.025,11.411,29.249,11.687,29.249z"/>
	<path d="M52.5,56.747c3.866,0,7-3.134,7-7v-24.36c0-3.866,0-7.012-2.73-7h-4.73c0-1.583-1.31-2.866-2.926-2.866
		c-0.523,0-1.007,0.146-1.432,0.381L18.295,5.134c0.004-0.034,0.02-0.063,0.02-0.099c0-0.48-0.389-0.868-0.868-0.868
		s-0.868,0.389-0.868,0.868c0,0.479,0.389,0.868,0.868,0.868c0.289,0,0.533-0.151,0.691-0.369l28.465,11.401
		c-0.258,0.427-0.416,0.919-0.416,1.451H11.963c-3.866,0-7,3.134-7,7v24.36c0,3.866,3.134,7,7,7H52.5z M15.223,52.338
		c0,0.552-0.448,1-1,1c-0.552,0-1-0.448-1-1V41.646c0-0.552,0.448-1,1-1c0.552,0,1,0.448,1,1V52.338z M17.758,52.338
		c0,0.552-0.448,1-1,1s-1-0.448-1-1V41.646c0-0.552,0.448-1,1-1s1,0.448,1,1V52.338z M20.293,52.338c0,0.552-0.448,1-1,1
		c-0.552,0-1-0.448-1-1V41.646c0-0.552,0.448-1,1-1c0.552,0,1,0.448,1,1V52.338z M22.828,52.338c0,0.552-0.448,1-1,1
		c-0.552,0-1-0.448-1-1V41.646c0-0.552,0.448-1,1-1c0.552,0,1,0.448,1,1V52.338z M25.364,52.338c0,0.552-0.448,1-1,1
		c-0.552,0-1-0.448-1-1V41.646c0-0.552,0.448-1,1-1c0.552,0,1,0.448,1,1V52.338z M27.899,52.338c0,0.552-0.448,1-1,1
		c-0.552,0-1-0.448-1-1V41.646c0-0.552,0.448-1,1-1c0.552,0,1,0.448,1,1V52.338z M30.434,52.338c0,0.552-0.448,1-1,1
		c-0.552,0-1-0.448-1-1V41.646c0-0.552,0.448-1,1-1c0.552,0,1,0.448,1,1V52.338z M32.97,52.338c0,0.552-0.448,1-1,1
		c-0.552,0-1-0.448-1-1V41.646c0-0.552,0.448-1,1-1c0.552,0,1,0.448,1,1V52.338z M35.505,52.338c0,0.552-0.448,1-1,1
		c-0.552,0-1-0.448-1-1V41.646c0-0.552,0.448-1,1-1c0.552,0,1,0.448,1,1V52.338z M44.756,50.133c-1.887,0-3.417-1.529-3.417-3.417
		c0-1.887,1.529-3.417,3.417-3.417c1.888,0,3.417,1.53,3.417,3.417C48.174,48.604,46.644,50.133,44.756,50.133z M41.253,38.965
		l1.271-0.923v1.847L41.253,38.965z M55.738,37.505v2.921H42.872v-2.921H55.738z M44.206,30.953c0-2.8,2.27-5.07,5.07-5.07
		c2.8,0,5.07,2.27,5.07,5.07c0,2.801-2.27,5.07-5.07,5.07C46.476,36.023,44.206,33.754,44.206,30.953z M54.346,50.133
		c-1.887,0-3.417-1.529-3.417-3.417c0-1.887,1.53-3.417,3.417-3.417c1.888,0,3.417,1.53,3.417,3.417
		C57.763,48.604,56.234,50.133,54.346,50.133z M56.135,39.889v-1.847l1.271,0.923L56.135,39.889z M57.856,30.93
		c-0.012,0.268-0.233,0.477-0.499,0.477c-0.008,0-0.016,0-0.023,0l-1.619-0.074c-0.276-0.013-0.489-0.247-0.476-0.523
		c0.013-0.276,0.251-0.491,0.522-0.476l1.619,0.074C57.655,30.42,57.869,30.654,57.856,30.93z M56.834,28.412
		c0.268-0.059,0.536,0.11,0.596,0.38c0.06,0.27-0.11,0.536-0.38,0.596l-1.364,0.302c-0.036,0.008-0.073,0.012-0.108,0.012
		c-0.229,0-0.436-0.159-0.488-0.392c-0.06-0.269,0.11-0.536,0.38-0.596L56.834,28.412z M56.521,26.571
		c0.16,0.225,0.107,0.537-0.118,0.697l-1.281,0.91c-0.088,0.062-0.189,0.092-0.289,0.092c-0.157,0-0.31-0.073-0.408-0.21
		c-0.16-0.225-0.107-0.537,0.118-0.697l1.281-0.91C56.049,26.292,56.361,26.347,56.521,26.571z M55.199,24.904
		c0.188,0.203,0.176,0.519-0.027,0.706l-1.075,0.996c-0.096,0.089-0.218,0.133-0.34,0.133c-0.134,0-0.268-0.054-0.367-0.16
		c-0.188-0.203-0.176-0.519,0.027-0.707l1.075-0.996C54.694,24.689,55.01,24.701,55.199,24.904z M52.902,23.737
		c0.173-0.214,0.489-0.249,0.703-0.076c0.215,0.173,0.249,0.488,0.076,0.703l-0.984,1.224c-0.099,0.122-0.244,0.187-0.39,0.187
		c-0.11,0-0.221-0.036-0.313-0.11c-0.215-0.173-0.249-0.488-0.076-0.703L52.902,23.737z M50.383,24.467l0.615-1.445
		c0.108-0.254,0.403-0.373,0.656-0.264c0.254,0.108,0.373,0.401,0.264,0.656l-0.615,1.445c-0.081,0.19-0.266,0.304-0.46,0.304
		c-0.065,0-0.132-0.013-0.196-0.04C50.394,25.015,50.275,24.721,50.383,24.467z M48.776,22.768c0-0.276,0.224-0.5,0.5-0.5
		c0.276,0,0.5,0.224,0.5,0.5v1.571c0,0.276-0.224,0.5-0.5,0.5c-0.276,0-0.5-0.224-0.5-0.5V22.768z M46.956,22.757
		c0.253-0.108,0.548,0.01,0.656,0.264l0.614,1.445c0.108,0.254-0.01,0.548-0.264,0.656c-0.064,0.027-0.13,0.04-0.196,0.04
		c-0.194,0-0.379-0.114-0.46-0.304l-0.614-1.445C46.584,23.159,46.703,22.865,46.956,22.757z M45.004,23.661
		c0.215-0.174,0.529-0.138,0.703,0.076l0.985,1.224c0.173,0.215,0.139,0.53-0.076,0.703c-0.092,0.074-0.203,0.11-0.313,0.11
		c-0.146,0-0.291-0.064-0.39-0.187l-0.985-1.224C44.755,24.149,44.789,23.834,45.004,23.661z M43.411,24.904
		c0.187-0.204,0.504-0.215,0.707-0.027l1.075,0.996c0.203,0.188,0.214,0.504,0.027,0.707c-0.099,0.106-0.232,0.16-0.367,0.16
		c-0.121,0-0.244-0.044-0.34-0.133l-1.075-0.996C43.235,25.423,43.224,25.107,43.411,24.904z M42.089,26.571
		c0.16-0.224,0.472-0.279,0.697-0.118l1.281,0.91c0.225,0.16,0.278,0.472,0.118,0.697c-0.098,0.137-0.251,0.21-0.408,0.21
		c-0.1,0-0.201-0.03-0.289-0.092l-1.281-0.91C41.982,27.108,41.929,26.796,42.089,26.571z M41.18,28.792
		c0.06-0.27,0.328-0.438,0.596-0.38l1.364,0.302c0.27,0.06,0.44,0.327,0.38,0.596c-0.052,0.233-0.258,0.392-0.488,0.392
		c-0.036,0-0.072-0.004-0.108-0.012l-1.364-0.302C41.29,29.329,41.12,29.062,41.18,28.792z M41.23,30.408l1.619-0.074
		c0.281-0.018,0.51,0.201,0.522,0.476c0.013,0.276-0.201,0.51-0.477,0.523l-1.619,0.074c-0.008,0-0.016,0-0.024,0
		c-0.266,0-0.487-0.209-0.499-0.477C40.741,30.654,40.954,30.42,41.23,30.408z M9.593,24.693c0-1.657,1.343-3,3-3h20.125
		c1.657,0,3,1.343,3,3v8.11c0,1.657-1.343,3-3,3H12.593c-1.657,0-3-1.343-3-3V24.693z M7.109,39.331c0-0.276,0.224-0.5,0.5-0.5
		H37.04c0.276,0,0.5,0.224,0.5,0.5c0,0.276-0.224,0.5-0.5,0.5H7.609C7.332,39.831,7.109,39.607,7.109,39.331z M10.687,52.338V41.646
		c0-0.552,0.448-1,1-1s1,0.448,1,1v10.692c0,0.552-0.448,1-1,1S10.687,52.89,10.687,52.338z"/>
</g>
</svg>
