<?xml version="1.0" encoding="iso-8859-1"?>
<!-- Generator: Adobe Illustrator 17.0.0, SVG Export Plug-In . SVG Version: 6.00 Build 0)  -->
<!DOCTYPE svg PUBLIC "-//W3C//DTD SVG 1.1//EN" "http://www.w3.org/Graphics/SVG/1.1/DTD/svg11.dtd">
<svg version="1.1" id="Capa_1" xmlns="http://www.w3.org/2000/svg" xmlns:xlink="http://www.w3.org/1999/xlink" x="0px" y="0px"
	 width="64px" height="64px" viewBox="0 0 64 64" style="enable-background:new 0 0 64 64;" xml:space="preserve">
<g>
	<path d="M17.659,14.511c2.503,2.155,3.918,5.081,4.093,8.462c0.201,3.891-1.172,6.773-2.823,8.808
		c3.128-1.953,5.211-5.42,5.211-9.378c0-6.104-4.948-11.053-11.053-11.053c-0.468,0-0.925,0.038-1.377,0.095
		C13.802,12.017,15.89,12.989,17.659,14.511z"/>
	<path d="M13.493,33.439c1.546-0.815,6.336-3.872,6.001-10.351c-0.144-2.789-1.258-5.098-3.31-6.864
		c-2.605-2.243-6.058-3.101-8.952-3.185c-3.119,1.954-5.198,5.412-5.198,9.363c0,6.104,4.949,11.053,11.053,11.053
		C13.224,33.456,13.358,33.444,13.493,33.439z"/>
</g>
<g>
	<path d="M19.881,42.665c1.533-0.517,2.364-1.275,2.806-1.859c-1.58-3.202-3.323-6.542-4.299-8.393
		c-0.652,0.712-1.324,1.301-1.944,1.775c0.025,2.309,0.163,5.553,0.633,8.731C17.894,42.995,18.928,42.985,19.881,42.665z"/>
	<path d="M25.396,46.644c-0.488-1.19-1.198-2.728-1.993-4.373c-0.641,0.654-1.6,1.336-3.042,1.821
		c-0.834,0.281-1.697,0.375-2.475,0.375c-0.19,0-0.375-0.006-0.554-0.015c0.287,1.537,0.662,3.02,1.156,4.327
		c2.512,6.657,5.526,10.551,7.787,9.797C28.537,57.822,27.406,51.542,25.396,46.644z"/>
</g>
<g>
	<path d="M48.55,15.035c1.371,3.005,1.431,6.255,0.174,9.398c-1.446,3.618-3.9,5.66-6.251,6.817
		c3.658-0.464,7.002-2.741,8.659-6.335c2.556-5.543,0.135-12.109-5.409-14.666c-0.425-0.196-0.856-0.353-1.291-0.491
		C46.092,11.155,47.581,12.912,48.55,15.035z"/>
	<path d="M36.841,30.479c1.745-0.093,7.375-0.863,9.784-6.886c1.037-2.593,0.992-5.156-0.132-7.62
		c-1.427-3.127-4.202-5.352-6.796-6.641c-3.65,0.469-6.987,2.738-8.641,6.326c-2.556,5.543-0.134,12.11,5.409,14.666
		C36.59,30.381,36.716,30.427,36.841,30.479z"/>
</g>
<g>
	<path d="M38.779,41.532c1.608,0.173,2.681-0.168,3.326-0.513c-0.094-3.57-0.278-7.332-0.389-9.422
		c-0.891,0.373-1.747,0.626-2.509,0.798c-0.944,2.107-2.177,5.11-3.081,8.194C36.837,41,37.779,41.424,38.779,41.532z"/>
	<path d="M42.122,47.455c0.055-1.286,0.054-2.979,0.021-4.805c-0.855,0.326-2.012,0.544-3.525,0.38
		c-0.875-0.094-1.697-0.371-2.404-0.696c-0.173-0.08-0.338-0.163-0.497-0.246c-0.383,1.516-0.663,3.019-0.762,4.413
		c-0.506,7.097,0.601,11.896,2.969,12.158C40.292,58.921,41.895,52.745,42.122,47.455z"/>
</g>
</svg>
