<?xml version="1.0" encoding="iso-8859-1"?>
<!-- Generator: Adobe Illustrator 17.0.0, SVG Export Plug-In . SVG Version: 6.00 Build 0)  -->
<!DOCTYPE svg PUBLIC "-//W3C//DTD SVG 1.1//EN" "http://www.w3.org/Graphics/SVG/1.1/DTD/svg11.dtd">
<svg version="1.1" id="Capa_1" xmlns="http://www.w3.org/2000/svg" xmlns:xlink="http://www.w3.org/1999/xlink" x="0px" y="0px"
	 width="64px" height="64px" viewBox="0 0 64 64" style="enable-background:new 0 0 64 64;" xml:space="preserve">
<path d="M48.497,26.029c-2.362,0-4.276,1.914-4.276,4.276v3.932v17.508c0,2.362,1.914,4.276,4.276,4.276h6.414
	c2.362,0,4.276-1.914,4.276-4.276V36.71c1.251-0.137,2.228-1.185,2.228-2.473c0-16.161-13.147-29.309-29.309-29.309
	S2.798,18.076,2.798,34.237c0,1.031,0.624,1.915,1.515,2.297v15.211c0,2.362,1.914,4.276,4.276,4.276h6.414
	c2.362,0,4.276-1.914,4.276-4.276V34.238v-3.932c0-2.362-1.914-4.276-4.276-4.276H9.227c3.374-9.376,12.355-16.101,22.879-16.101
	c10.527,0,19.509,6.728,22.882,16.108c-0.026,0-0.05-0.008-0.077-0.008H48.497z"/>
</svg>
