<?xml version="1.0" encoding="iso-8859-1"?>
<!-- Generator: Adobe Illustrator 17.0.0, SVG Export Plug-In . SVG Version: 6.00 Build 0)  -->
<!DOCTYPE svg PUBLIC "-//W3C//DTD SVG 1.1//EN" "http://www.w3.org/Graphics/SVG/1.1/DTD/svg11.dtd">
<svg version="1.1" id="Capa_1" xmlns="http://www.w3.org/2000/svg" xmlns:xlink="http://www.w3.org/1999/xlink" x="0px" y="0px"
	 width="64px" height="64px" viewBox="0 0 64 64" style="enable-background:new 0 0 64 64;" xml:space="preserve">
<path d="M24.381,14.714h18.228V6.356c-1.11,0.418-3.585,0.749-9.114,0.749s-8.004-0.331-9.114-0.749V14.714z"/>
<ellipse cx="33.495" cy="5.452" rx="9.114" ry="0.904"/>
<path d="M30.53,51.894h0.685c0.125,0,0.227-0.069,0.227-0.153c0-0.085-0.102-0.153-0.227-0.153H30.53
	c-0.125,0-0.225,0.068-0.225,0.153C30.306,51.824,30.405,51.894,30.53,51.894z"/>
<path d="M34.046,54.928h-0.204l0.34-0.592c0.063-0.112,0.011-0.203-0.118-0.203h-0.177l0.295-0.514
	c0.063-0.111,0.011-0.203-0.118-0.203H33.32c-0.13,0-0.182,0.092-0.118,0.203l0.295,0.514H33.32c-0.13,0-0.182,0.091-0.118,0.203
	l0.341,0.592h-0.206c-0.129,0-0.233,0.07-0.233,0.158c0,0.088,0.105,0.158,0.233,0.158h0.709c0.129,0,0.234-0.07,0.234-0.158
	C34.28,54.998,34.175,54.928,34.046,54.928z"/>
<path d="M31.216,52.376c0.125,0,0.227-0.068,0.227-0.153c0-0.085-0.102-0.153-0.227-0.153H30.53c-0.125,0-0.225,0.068-0.225,0.153
	c0,0.085,0.1,0.153,0.225,0.153H31.216z"/>
<path d="M30.761,51.37c0.062,0.108,0.163,0.108,0.226,0l0.359-0.628c0.062-0.107,0.012-0.196-0.112-0.196h-0.719
	c-0.125,0-0.176,0.089-0.114,0.196L30.761,51.37z"/>
<path d="M33.337,47.979h0.206l-0.341,0.592c-0.063,0.112-0.012,0.203,0.118,0.203h0.177l-0.295,0.513
	c-0.063,0.112-0.012,0.203,0.118,0.203h0.743c0.129,0,0.182-0.091,0.118-0.203l-0.295-0.513h0.177c0.129,0,0.182-0.091,0.118-0.203
	l-0.34-0.592h0.204c0.129,0,0.234-0.071,0.234-0.158c0-0.088-0.105-0.158-0.234-0.158h-0.709c-0.129,0-0.233,0.07-0.233,0.158
	C33.103,47.907,33.208,47.979,33.337,47.979z"/>
<path d="M24.381,56.168c0,1.657,1.343,3,3,3h12.229c1.657,0,3-1.343,3-3V15.633H24.381V56.168z M29.328,20.545h8.334v23.007h-8.334
	V20.545z M33.495,47.12c2.393,0,4.333,1.94,4.333,4.333c0,2.393-1.94,4.333-4.333,4.333c-2.393,0-4.333-1.94-4.333-4.333
	C29.162,49.06,31.102,47.12,33.495,47.12z"/>
<path d="M36.562,51.506c0.012,0.013,0.026,0.018,0.046,0.018c0.019,0,0.033-0.006,0.045-0.018c0.012-0.013,0.018-0.032,0.018-0.058
	v-0.43c0-0.021-0.004-0.041-0.011-0.056c-0.006-0.015-0.018-0.025-0.032-0.032c-0.015-0.007-0.034-0.011-0.057-0.011h-0.604
	c-0.035,0-0.061,0.008-0.075,0.024c-0.017,0.015-0.024,0.041-0.024,0.075v0.442c0,0.026,0.007,0.045,0.018,0.058
	c0.013,0.013,0.028,0.02,0.047,0.02c0.02,0,0.035-0.007,0.047-0.02c0.013-0.013,0.019-0.031,0.019-0.058v-0.378h0.228v0.336
	c0,0.025,0.006,0.044,0.018,0.056c0.012,0.013,0.026,0.019,0.045,0.019c0.018,0,0.032-0.006,0.044-0.019
	c0.011-0.012,0.017-0.03,0.017-0.056v-0.336h0.196v0.365C36.545,51.474,36.551,51.493,36.562,51.506z"/>
<path d="M35.878,50.625c-0.016,0.013-0.023,0.03-0.023,0.053c0,0.022,0.008,0.041,0.023,0.055c0.016,0.014,0.038,0.021,0.069,0.021
	h0.634c0.035,0,0.058-0.01,0.071-0.027c0.012-0.019,0.019-0.043,0.019-0.074v-0.051c0-0.029-0.003-0.052-0.009-0.065
	c-0.005-0.013-0.016-0.023-0.029-0.03c-0.015-0.007-0.038-0.014-0.069-0.023l-0.439-0.116l0.439-0.117
	c0.031-0.008,0.055-0.016,0.069-0.021c0.014-0.007,0.024-0.017,0.029-0.031c0.006-0.013,0.009-0.035,0.009-0.065v-0.05
	c0-0.032-0.007-0.056-0.019-0.074c-0.013-0.019-0.036-0.027-0.071-0.027h-0.634c-0.031,0-0.055,0.007-0.069,0.021
	c-0.016,0.015-0.023,0.032-0.023,0.053c0,0.023,0.008,0.042,0.023,0.055c0.016,0.015,0.038,0.021,0.069,0.021h0.554l-0.512,0.129
	c-0.017,0.004-0.033,0.009-0.048,0.013c-0.016,0.004-0.03,0.01-0.043,0.017c-0.013,0.008-0.023,0.018-0.031,0.031
	c-0.009,0.013-0.013,0.028-0.013,0.048c0,0.025,0.007,0.044,0.02,0.06c0.013,0.014,0.026,0.023,0.043,0.028
	c0.015,0.005,0.039,0.013,0.072,0.021l0.512,0.128h-0.554C35.916,50.604,35.894,50.61,35.878,50.625z"/>
<path d="M35.933,53.106c0.032,0.034,0.068,0.058,0.11,0.069s0.095,0.019,0.157,0.019h0.386c0.033,0,0.058-0.008,0.074-0.022
	c0.017-0.016,0.024-0.035,0.024-0.061c0-0.023-0.008-0.043-0.024-0.059c-0.017-0.014-0.041-0.021-0.074-0.021h-0.398
	c-0.067,0-0.119-0.013-0.153-0.039c-0.033-0.025-0.051-0.07-0.051-0.135c0-0.045,0.009-0.082,0.025-0.107
	c0.017-0.025,0.04-0.043,0.07-0.054c0.029-0.01,0.067-0.015,0.112-0.015h0.395c0.032,0,0.058-0.007,0.073-0.021
	c0.017-0.016,0.025-0.035,0.025-0.061c0-0.023-0.009-0.043-0.025-0.059c-0.016-0.014-0.041-0.021-0.073-0.021H36.2
	c-0.061,0-0.113,0.007-0.156,0.02c-0.044,0.014-0.079,0.034-0.107,0.062c-0.028,0.028-0.048,0.064-0.061,0.109
	c-0.013,0.044-0.021,0.097-0.021,0.159c0,0.052,0.006,0.098,0.019,0.135C35.886,53.043,35.905,53.077,35.933,53.106z"/>
<path d="M35.913,52.153c-0.013,0.008-0.023,0.018-0.032,0.027c-0.009,0.01-0.016,0.021-0.02,0.033
	c-0.004,0.012-0.007,0.024-0.007,0.04c0,0.058,0.036,0.086,0.106,0.086h0.631c0.031,0,0.055-0.007,0.07-0.02
	c0.016-0.014,0.024-0.032,0.024-0.056c0-0.022-0.008-0.04-0.024-0.054c-0.016-0.014-0.039-0.021-0.07-0.021h-0.477l0.473-0.312
	c0.014-0.009,0.027-0.018,0.04-0.025c0.013-0.008,0.022-0.016,0.031-0.024c0.008-0.008,0.014-0.017,0.019-0.027
	c0.005-0.01,0.008-0.022,0.008-0.037c0-0.018-0.006-0.036-0.016-0.053c-0.011-0.016-0.024-0.026-0.04-0.034
	c-0.016-0.006-0.036-0.009-0.062-0.009h-0.618c-0.03,0-0.054,0.007-0.069,0.021c-0.016,0.014-0.024,0.031-0.024,0.056
	c0,0.021,0.009,0.039,0.023,0.055c0.017,0.014,0.039,0.021,0.07,0.021h0.47l-0.468,0.305C35.937,52.135,35.926,52.145,35.913,52.153
	z"/>
<circle cx="33.691" cy="51.492" r="1.529"/>
</svg>
