<?xml version="1.0" encoding="iso-8859-1"?>
<!-- Generator: Adobe Illustrator 17.0.0, SVG Export Plug-In . SVG Version: 6.00 Build 0)  -->
<!DOCTYPE svg PUBLIC "-//W3C//DTD SVG 1.1//EN" "http://www.w3.org/Graphics/SVG/1.1/DTD/svg11.dtd">
<svg version="1.1" id="Capa_1" xmlns="http://www.w3.org/2000/svg" xmlns:xlink="http://www.w3.org/1999/xlink" x="0px" y="0px"
	 width="64px" height="64px" viewBox="0 0 64 64" style="enable-background:new 0 0 64 64;" xml:space="preserve">
<path d="M43.711,59.094c4.793,0,8.678-4.252,8.678-9.497V14.38c0-5.245-3.885-9.497-8.678-9.497H20.265
	c-4.793,0-8.678,4.252-8.678,9.497v35.217c0,5.245,3.885,9.497,8.678,9.497H43.711z M22.928,8.249h18.641
	c2.242,0,4.059,1.817,4.059,4.059s-1.817,4.059-4.059,4.059H22.928c-2.242,0-4.059-1.817-4.059-4.059S20.686,8.249,22.928,8.249z
	 M14.758,37.466c0-9.659,7.831-17.49,17.49-17.49s17.49,7.83,17.49,17.49s-7.83,17.49-17.49,17.49S14.758,47.126,14.758,37.466z"/>
<path d="M22.928,15.368h18.641c1.687,0,3.059-1.372,3.059-3.059s-1.372-3.059-3.059-3.059H22.928c-1.687,0-3.059,1.372-3.059,3.059
	S21.241,15.368,22.928,15.368z"/>
<path d="M48.738,37.466c0-9.093-7.397-16.49-16.49-16.49s-16.49,7.397-16.49,16.49s7.397,16.49,16.49,16.49
	S48.738,46.559,48.738,37.466z M18.868,37.466c0-7.389,5.99-13.38,13.38-13.38s13.38,5.99,13.38,13.38s-5.99,13.38-13.38,13.38
	S18.868,44.856,18.868,37.466z"/>
<circle cx="32.248" cy="37.466" r="8.3"/>
<path d="M57.483,25.649c-0.553,0-1,0.447-1,1s0.447,1,1,1c1.316,0,3.228,4.106,3.228,10.542S58.8,48.734,57.483,48.734
	c-0.553,0-1,0.447-1,1s0.447,1,1,1c3.432,0,5.228-6.31,5.228-12.543C62.711,31.959,60.915,25.649,57.483,25.649z"/>
<path d="M58.406,38.191c0-3.377-1.002-7.012-3.202-7.012c-0.553,0-1.025,0.443-1.025,0.996s0.423,0.996,0.976,0.996
	c0.356,0.153,1.252,1.871,1.252,5.02c0,3.149-0.896,4.867-1.202,5.013c-0.553,0-1,0.447-1,1s0.447,1,1,1
	C57.404,45.204,58.406,41.569,58.406,38.191z"/>
<path d="M6.759,50.734c0.553,0,1-0.447,1-1s-0.447-1-1-1c-1.316,0-3.228-4.107-3.228-10.543s1.911-10.542,3.228-10.542
	c0.553,0,1-0.447,1-1s-0.447-1-1-1c-3.432,0-5.228,6.31-5.228,12.542C1.531,44.425,3.327,50.734,6.759,50.734z"/>
<path d="M9.073,33.179c0.536-0.018,0.965-0.458,0.965-0.999c0-0.553-0.447-1-1-1c-2.2,0-3.202,3.635-3.202,7.012
	c0,3.378,1.002,7.013,3.202,7.013c0.553,0,1.025-0.443,1.025-0.996s-0.423-0.996-0.976-0.996c-0.356-0.153-1.252-1.871-1.252-5.021
	C7.836,35.087,8.707,33.373,9.073,33.179z"/>
</svg>
