<?xml version="1.0" encoding="iso-8859-1"?>
<!-- Generator: Adobe Illustrator 17.0.0, SVG Export Plug-In . SVG Version: 6.00 Build 0)  -->
<!DOCTYPE svg PUBLIC "-//W3C//DTD SVG 1.1//EN" "http://www.w3.org/Graphics/SVG/1.1/DTD/svg11.dtd">
<svg version="1.1" id="Capa_1" xmlns="http://www.w3.org/2000/svg" xmlns:xlink="http://www.w3.org/1999/xlink" x="0px" y="0px"
	 width="64px" height="64px" viewBox="0 0 64 64" style="enable-background:new 0 0 64 64;" xml:space="preserve">
<path d="M15.632,5.389c-3.974,0-7.206,3.232-7.206,7.206V62.5h48.648V8.206C57.074,4.232,53.842,1,49.868,1
	s-7.206,3.232-7.206,7.206V20.68c-1.185-0.856-2.635-1.367-4.206-1.367c-2.754,0-5.149,1.554-6.362,3.83
	c-1.301-1.281-3.084-2.074-5.05-2.074c-1.571,0-3.021,0.511-4.206,1.367v-9.84C22.838,8.622,19.605,5.389,15.632,5.389z
	 M27.044,24.069c1.488,0,2.79,0.781,3.538,1.95c0.418,0.653,0.668,1.424,0.668,2.256v0.744v7.157c0,2.319-1.887,4.206-4.206,4.206
	s-4.206-1.887-4.206-4.206v-7.157v-0.744c0-0.832,0.25-1.603,0.668-2.256C24.254,24.85,25.556,24.069,27.044,24.069z M38.456,22.313
	c2.148,0,3.905,1.624,4.156,3.706c0.02,0.166,0.051,0.329,0.051,0.5v2.5v7.157c0,2.319-1.887,4.206-4.206,4.206
	s-4.206-1.887-4.206-4.206v-7.157v-0.744v-1.756c0-0.171,0.031-0.334,0.051-0.5C34.551,23.937,36.308,22.313,38.456,22.313z
	 M45.662,8.206C45.662,5.887,47.549,4,49.868,4c2.319,0,4.206,1.887,4.206,4.206V59.5H11.426V12.595
	c0-2.319,1.887-4.206,4.206-4.206s4.206,1.887,4.206,4.206v15.68v0.744v7.157c0,3.974,3.232,7.206,7.206,7.206
	c2.323,0,4.387-1.11,5.706-2.822c1.319,1.712,3.383,2.822,5.706,2.822c3.974,0,7.206-3.232,7.206-7.206v-7.157v-2.5V8.206z"/>
<path d="M31.885,51.538c0,3.588,2.919,6.508,6.508,6.508H51.5v-1.5v-1.5H38.393c-1.934,0-3.508-1.574-3.508-3.508
	s1.574-3.507,3.508-3.507H51.5v-1.5v-1.5H38.393C34.805,45.031,31.885,47.95,31.885,51.538z"/>
</svg>
