<?xml version="1.0" encoding="iso-8859-1"?>
<!-- Generator: Adobe Illustrator 17.0.0, SVG Export Plug-In . SVG Version: 6.00 Build 0)  -->
<!DOCTYPE svg PUBLIC "-//W3C//DTD SVG 1.1//EN" "http://www.w3.org/Graphics/SVG/1.1/DTD/svg11.dtd">
<svg version="1.1" id="Capa_1" xmlns="http://www.w3.org/2000/svg" xmlns:xlink="http://www.w3.org/1999/xlink" x="0px" y="0px"
	 width="64px" height="64px" viewBox="0 0 64 64" style="enable-background:new 0 0 64 64;" xml:space="preserve">
<g>
	<path d="M8.238,33.865c-0.688,0.932-1.378,1.857-1.358,1.793c-2.006,2.236-2.064,3.613-2.293,6.365c0,0,0,6.119,2.455,7.275
		c0.276,0.578,0.598,1.162,0.975,1.74c0.602,0.924,2.166,1.976,3.357,2.451c1.191,0.475,2.156,0.859,2.156,0.859
		c0.517,0.172,0.803-0.059,0.803-0.059l0.014-23.549c-0.227-0.18-0.777-0.191-1.002-0.188l-0.013-0.172
		c0.757-11.023,8.364-19.023,18.091-19.023c9.809,0,17.574,8.316,18.266,19.203c-0.248,0.016-0.547,0.059-0.697,0.18l0.014,23.549
		c0,0,0.286,0.23,0.803,0.059c0,0,0.965-0.385,2.156-0.859c1.191-0.475,2.756-1.527,3.357-2.451c0.377-0.578,0.698-1.162,0.975-1.74
		c2.455-1.156,2.455-7.275,2.455-7.275c-0.229-2.752-0.287-4.129-2.293-6.365c0.019,0.064-0.671-0.861-1.358-1.793
		c-0.614-0.832-1.694-1.762-2.624-2.289c0.066-0.506,0.174-1.432,0.239-2.592l0.022-0.406l-0.623-0.168
		c-0.066-1.002-0.172-1.879-0.324-2.67l-0.061,0.012l0.061-0.016c-0.02-0.104-0.045-0.205-0.07-0.307l-0.048-0.203
		c-0.106-0.492-0.22-0.982-0.357-1.463c-0.046-0.164-0.1-0.322-0.153-0.482l-0.08-0.244c-0.129-0.395-0.26-0.789-0.408-1.174
		c-0.081-0.209-0.169-0.414-0.257-0.617l-0.056-0.133c-0.156-0.361-0.316-0.719-0.489-1.07c-0.12-0.244-0.247-0.486-0.376-0.727
		c-0.186-0.342-0.379-0.678-0.582-1.008c-0.139-0.229-0.277-0.455-0.424-0.678c-0.221-0.332-0.454-0.656-0.691-0.977l-0.12-0.16
		c-0.106-0.146-0.214-0.291-0.327-0.434c-0.277-0.348-0.571-0.68-0.869-1.008l-0.146-0.168c-0.081-0.094-0.162-0.188-0.248-0.277
		c-0.473-0.492-0.924-0.926-1.381-1.324c-0.039-0.033-0.078-0.064-0.178-0.143c-0.445-0.381-0.891-0.732-1.325-1.047
		c-0.116-0.084-0.235-0.162-0.354-0.238l-0.181-0.119c-0.351-0.238-0.703-0.469-1.069-0.686c-0.176-0.103-0.356-0.201-0.537-0.297
		l-0.111-0.061c-0.346-0.188-0.694-0.367-1.049-0.533c-0.235-0.109-0.473-0.213-0.713-0.315c-0.356-0.15-0.719-0.289-1.084-0.418
		c-0.244-0.088-0.49-0.172-0.739-0.248c-0.38-0.119-0.767-0.219-1.155-0.314l-0.15-0.037c-0.193-0.049-0.387-0.096-0.585-0.137
		c-0.43-0.088-0.867-0.152-1.308-0.211l-0.237-0.035c-0.133-0.022-0.266-0.041-0.4-0.055c-1.43-0.142-2.596-0.142-4.006,0.002
		c-0.148,0.014-0.295,0.037-0.441,0.06l-0.238,0.035c-0.424,0.059-0.848,0.119-1.264,0.203c-0.218,0.045-0.432,0.1-0.645,0.152
		l-0.242,0.062c-0.326,0.082-0.649,0.164-0.968,0.262c-0.332,0.102-0.657,0.219-0.985,0.336c-0.25,0.094-0.5,0.186-0.746,0.287
		c-0.39,0.16-0.772,0.334-1.154,0.518c-0.139,0.068-0.275,0.137-0.409,0.207c-6.681,3.424-11.128,10.277-11.671,17.947l-0.434,0.115
		l0.024,0.406c0.072,1.279,0.197,2.277,0.262,2.738C9.745,32.265,8.798,33.107,8.238,33.865z"/>
	<path d="M44.7,53.833c0,0,0.346,0.975,2.008,0.744l0.975-0.344c0,0,1.203-13.73,0-23.533c0,0-2.409-0.604-3.096,1.117
		c0,0,0.005,0.012,0.013,0.031c0.521,0.33,0.932,5.119,0.932,10.998c0,5.445-0.353,9.955-0.818,10.854
		C44.708,53.746,44.704,53.789,44.7,53.833z"/>
	<path d="M18.751,31.818c-0.687-1.721-3.096-1.117-3.096-1.117c-1.203,9.803,0,23.533,0,23.533l0.975,0.344
		c1.662,0.231,2.008-0.744,2.008-0.744c-0.004-0.045-0.008-0.088-0.013-0.133c-0.466-0.898-0.818-5.408-0.818-10.854
		c0-5.879,0.411-10.668,0.932-10.998C18.746,31.83,18.751,31.818,18.751,31.818z"/>
</g>
</svg>
