<?xml version="1.0" encoding="iso-8859-1"?>
<!-- Generator: Adobe Illustrator 17.0.0, SVG Export Plug-In . SVG Version: 6.00 Build 0)  -->
<!DOCTYPE svg PUBLIC "-//W3C//DTD SVG 1.1//EN" "http://www.w3.org/Graphics/SVG/1.1/DTD/svg11.dtd">
<svg version="1.1" id="Capa_1" xmlns="http://www.w3.org/2000/svg" xmlns:xlink="http://www.w3.org/1999/xlink" x="0px" y="0px"
	 width="64px" height="64px" viewBox="0 0 64 64" style="enable-background:new 0 0 64 64;" xml:space="preserve">
<g>
	<path d="M5.76,38.044v4.55c0,5.799,4.701,10.501,10.5,10.501h24.503c5.8,0,10.501-4.702,10.501-10.501v-4.55
		c0-5.799-4.701-10.501-10.501-10.501H16.26C10.461,27.544,5.76,32.245,5.76,38.044z M33.629,48.991
		c-1.223,0-2.216-0.992-2.216-2.217c0-1.225,0.993-2.217,2.216-2.217c1.225,0,2.219,0.992,2.219,2.217
		C35.848,47.999,34.853,48.991,33.629,48.991z M42.965,48.057c-2.32,0-4.2-1.88-4.2-4.2c0-2.321,1.88-4.201,4.2-4.201
		c2.319,0,4.2,1.88,4.2,4.201C47.165,46.177,45.284,48.057,42.965,48.057z M28.593,33.413c0.107-0.736,2.129-1.421,4.514-1.529
		l4.316-0.196c0,0,1.933,0.087,4.317,0.196c2.383,0.108,4.404,0.815,4.512,1.578c0.109,0.764,0.109,1.954,0,2.658
		c-0.107,0.705-2.129,1.364-4.512,1.472l-4.317,0.196c0,0-1.933-0.088-4.316-0.196c-2.385-0.108-4.406-0.789-4.514-1.521
		C28.483,35.339,28.483,34.149,28.593,33.413z M17.12,31.547c4.845,0,8.774,3.928,8.774,8.772c0,4.845-3.929,8.772-8.774,8.772
		s-8.772-3.927-8.772-8.772C8.348,35.475,12.275,31.547,17.12,31.547z"/>
	<rect x="30.597" y="33.161" width="13.563" height="3.2"/>
	<circle cx="33.638" cy="46.686" r="1.313"/>
	<circle cx="42.985" cy="43.835" r="3.121"/>
	<circle cx="17.18" cy="33.414" r="1.008"/>
	<circle cx="13.738" cy="34.169" r="1.008"/>
	<circle cx="11.024" cy="36.797" r="1.008"/>
	<circle cx="15.096" cy="36.797" r="1.008"/>
	<circle cx="13.434" cy="40.037" r="1.008"/>
	<circle cx="16.933" cy="40.037" r="1.008"/>
	<circle cx="20.434" cy="40.037" r="1.008"/>
	<circle cx="18.538" cy="36.797" r="1.008"/>
	<circle cx="15.212" cy="43.494" r="1.008"/>
	<circle cx="18.654" cy="43.494" r="1.008"/>
	<circle cx="10.018" cy="40.037" r="1.008"/>
	<circle cx="11.024" cy="43.494" r="1.008"/>
	<circle cx="13.738" cy="46.116" r="1.008"/>
	<circle cx="20.517" cy="34.169" r="1.008"/>
	<circle cx="23.23" cy="36.797" r="1.008"/>
	<circle cx="24.238" cy="40.036" r="1.008"/>
	<circle cx="23.23" cy="43.494" r="1.008"/>
	<circle cx="20.517" cy="46.116" r="1.008"/>
	<circle cx="17.18" cy="46.956" r="1.008"/>
	<path d="M52.356,45.955l0.593-0.565c2.444-2.329,4.426-7.352,4.426-11.218v-7.264c0-5.337-6.286-8.051-10.151-8.051H35.321
		l11.37-7.614l1.085-1.215c0.129-0.144,0.146-0.39,0.043-0.552l1.401-0.797c0.069,0.042,0.146,0.073,0.233,0.073
		c0.258,0,0.467-0.21,0.467-0.467c0-0.258-0.209-0.467-0.467-0.467c-0.257,0-0.467,0.209-0.467,0.467
		c0,0.039,0.014,0.074,0.023,0.111l-1.393,0.792C47.501,9.059,47.3,8.99,47.135,9.037l-1.612,0.46l-14.018,9.388
		c-3.817,0.225-8.968,1.898-11.932,3.932l-4.254,2.921c0.588-0.092,1.189-0.142,1.801-0.142h24.503
		c6.368,0,11.55,5.182,11.55,11.551v4.55C53.173,43.202,52.882,44.637,52.356,45.955z"/>
</g>
</svg>
