<?xml version="1.0" encoding="iso-8859-1"?>
<!-- Generator: Adobe Illustrator 16.0.4, SVG Export Plug-In . SVG Version: 6.00 Build 0)  -->
<!DOCTYPE svg PUBLIC "-//W3C//DTD SVG 1.1//EN" "http://www.w3.org/Graphics/SVG/1.1/DTD/svg11.dtd">
<svg version="1.1" id="Capa_1" xmlns="http://www.w3.org/2000/svg" xmlns:xlink="http://www.w3.org/1999/xlink" x="0px" y="0px"
	 width="64px" height="64px" viewBox="0 0 64 64" style="enable-background:new 0 0 64 64;" xml:space="preserve">
<g>
	<circle cx="36.389" cy="22.44" r="2.375"/>
	<circle cx="31.848" cy="29.909" r="2.375"/>
	<circle cx="26.733" cy="37.873" r="2.375"/>
	<path d="M38.876,46.986l5.796-4.617c0,0-1.648-1.067-3.684-2.385c-2.035-1.316-5.342-2.67-7.387-3.021L29.9,36.329
		c0.164,0.407,0.26,0.853,0.26,1.319c0,0.729-0.223,1.41-0.602,1.975l0.477,7.952c0,0,0,1.866-2.26,1.769
		c-2.259-0.099-2.848-2.554-2.062-7.171c0.047-0.278,0.148-0.628,0.289-1.032c-1.67-0.289-2.947-1.74-2.947-3.492
		c0-1.959,1.594-3.553,3.553-3.553c0.89,0,1.693,0.34,2.318,0.883c0.371-0.695,0.764-1.416,1.171-2.152
		c-1.14-0.593-1.928-1.77-1.928-3.141c0-1.96,1.594-3.554,3.554-3.554c0.693,0,1.335,0.208,1.884,0.554
		c0.281-0.481,0.562-0.958,0.843-1.431c-1.037-0.621-1.739-1.744-1.739-3.038c0-1.96,1.596-3.554,3.555-3.554
		c0.674,0,1.297,0.199,1.836,0.526c1.785-2.923,3.035-4.914,3.035-4.914s1.965-4.027-2.062-4.027c-2.562,0-6.231,0.278-8.566,0.48
		l0.708-2.609l-9.888,2.129L21,12.507l8.35,2.487l0.391-1.438l6.485,1.995L17.008,41.4c-1.646,2.217-2.533,6.255-1.141,8.64
		c0.818,1.399,1.973,2.917,3.588,4.237c0,0,5.496,4.988,12.395,2.762c1.843-0.596,3.244-1.237,4.307-1.857
		c2.237-1.309,3.153-4.35,2.999-5.718L38.876,46.986z M36.004,41.399c-3.01-1.289-5.308-2.661-5.135-3.065
		c0.173-0.404,2.752,0.313,5.762,1.603c3.008,1.289,5.307,2.661,5.135,3.065C41.592,43.406,39.012,42.688,36.004,41.399z"/>
</g>
</svg>
