<?xml version="1.0" encoding="iso-8859-1"?>
<!-- Generator: Adobe Illustrator 17.0.0, SVG Export Plug-In . SVG Version: 6.00 Build 0)  -->
<!DOCTYPE svg PUBLIC "-//W3C//DTD SVG 1.1//EN" "http://www.w3.org/Graphics/SVG/1.1/DTD/svg11.dtd">
<svg version="1.1" id="Capa_1" xmlns="http://www.w3.org/2000/svg" xmlns:xlink="http://www.w3.org/1999/xlink" x="0px" y="0px"
	 width="64px" height="64px" viewBox="0 0 64 64" style="enable-background:new 0 0 64 64;" xml:space="preserve">
<g>
	<path d="M26.293,38.132c0.217,0.114,0.42,0.254,0.592,0.433l1.197,0.059c0.038-0.357,0.072-0.716,0.103-1.076l-0.849-0.042
		C27.052,37.81,26.69,38.019,26.293,38.132z"/>
	<path d="M48.395,11.621c-1-1.125-1.944,0.913-5.622-5.123c-2.437-3.997-8.62-0.874-8.745,6.06c-0.008,0.399-0.034,0.94-0.074,1.593
		h-2.064c-0.21-0.402-0.503-0.655-0.828-0.655c-0.639,0-1.156,0.964-1.156,2.154s0.518,2.155,1.156,2.155
		c0.325,0,0.618-0.253,0.828-0.655h1.844c-0.057,0.704-0.121,1.457-0.189,2.248h-1.654c-0.21-0.403-0.503-0.656-0.828-0.656
		c-0.639,0-1.156,0.966-1.156,2.156c0,1.189,0.518,2.154,1.156,2.154c0.325,0,0.618-0.252,0.828-0.656h1.392
		c-0.065,0.736-0.134,1.487-0.202,2.25h-1.502c-0.21-0.404-0.502-0.656-0.828-0.656c-0.639,0-1.155,0.965-1.155,2.154
		c0,1.19,0.517,2.156,1.155,2.156c0.326,0,0.618-0.253,0.828-0.656h1.232c-0.195,2.174-0.387,4.345-0.553,6.346
		c0.121-0.019,0.242-0.037,0.366-0.037c1.274,0,2.312,1.038,2.312,2.312c0,1.054-0.711,1.934-1.676,2.212
		c0.732,0.389,1.239,1.149,1.239,2.035c0,1.275-1.037,2.312-2.312,2.312c-0.152,0-0.299-0.028-0.444-0.059
		c0,0.043-0.001,0.086-0.002,0.127c0.024,0,0.047-0.007,0.071-0.007c1.274,0,2.311,1.037,2.311,2.312s-1.036,2.312-2.311,2.312
		c-0.726,0-1.408-0.349-1.84-0.919l-3.432-0.17c-0.432,0.474-1.039,0.746-1.693,0.746c-1.275,0-2.312-1.038-2.312-2.312
		c0-1.275,1.037-2.312,2.312-2.312c0.717,0,1.377,0.33,1.811,0.883l1,0.049c-0.021-0.48-0.009-1.029,0.062-1.681
		c0.006-0.062,0.014-0.123,0.02-0.185l-0.686-0.033c-0.432,0.562-1.106,0.905-1.832,0.905c-1.275,0-2.312-1.037-2.312-2.312
		c0-1.053,0.712-1.933,1.677-2.211c-0.733-0.39-1.239-1.15-1.239-2.036c0-1.274,1.037-2.311,2.312-2.311
		c0.728,0,1.394,0.336,1.825,0.9l0.797,0.039c-0.065-2.125-0.466-4.265-1.592-6.344c0,0-0.938-1.874,0.656-3.373
		c0,0-10.494-0.937-11.525,10.775c0,0,2.155-1.218,3.654,0L19.004,49.85c0,0,0.094,6.84,6.841,6.84c6.746,0,9.745-7.964,10.4-15.366
		c0.655-7.401,1.874-31.201,4.591-31.482c2.717-0.281,2.436,3.092,5.341,4.497c2.905,1.406,3.903,1.032,3.903,1.032
		S49.394,12.745,48.395,11.621z"/>
</g>
<g>
	<path d="M25.72,37.452c0.562,0,1.052-0.3,1.327-0.746l4.238,0.209c0.254,0.52,0.783,0.881,1.399,0.881
		c0.862,0,1.562-0.699,1.562-1.562s-0.699-1.562-1.562-1.562c-0.562,0-1.052,0.301-1.327,0.746l-4.238-0.208
		c-0.254-0.52-0.782-0.881-1.399-0.881c-0.862,0-1.562,0.699-1.562,1.562C24.158,36.754,24.857,37.452,25.72,37.452z"/>
	<path d="M32.248,38.919c-0.483,0-0.909,0.223-1.195,0.567l-4.475-0.221c-0.279-0.416-0.756-0.69-1.295-0.69
		c-0.863,0-1.562,0.699-1.562,1.562c0,0.864,0.699,1.562,1.562,1.562c0.635,0,1.18-0.381,1.424-0.927l4.065,0.201
		c0.207,0.62,0.786,1.069,1.476,1.069c0.861,0,1.562-0.699,1.562-1.562C33.81,39.617,33.109,38.919,32.248,38.919z"/>
	<path d="M31.873,43.604c-0.557,0-1.041,0.292-1.317,0.729l-4.259-0.21c-0.257-0.509-0.779-0.861-1.389-0.861
		c-0.863,0-1.562,0.698-1.562,1.562c0,0.863,0.699,1.562,1.562,1.562c0.569,0,1.062-0.309,1.336-0.764l4.219,0.208
		c0.25,0.53,0.785,0.898,1.41,0.898c0.862,0,1.562-0.699,1.562-1.562C33.435,44.303,32.735,43.604,31.873,43.604z"/>
</g>
</svg>
