<?xml version="1.0" encoding="iso-8859-1"?>
<!-- Generator: Adobe Illustrator 17.0.0, SVG Export Plug-In . SVG Version: 6.00 Build 0)  -->
<!DOCTYPE svg PUBLIC "-//W3C//DTD SVG 1.1//EN" "http://www.w3.org/Graphics/SVG/1.1/DTD/svg11.dtd">
<svg version="1.1" id="Capa_1" xmlns="http://www.w3.org/2000/svg" xmlns:xlink="http://www.w3.org/1999/xlink" x="0px" y="0px"
	 width="64px" height="64px" viewBox="0 0 64 64" style="enable-background:new 0 0 64 64;" xml:space="preserve">
<g>
	<path d="M58.584,23.139l-10.508,5.806c-1.8-0.6-3.828-0.525-5.669,0.373l-5.476,2.671c-0.993,0.484-0.91,1.091-0.597,1.733
		c0.314,0.645,1.091,0.912,1.734,0.598l4.543-2.217l0.227,0.466l-12.581,6.139c-0.643,0.312-0.91,1.089-0.597,1.732
		c0.314,0.644,1.09,0.911,1.733,0.597l8.97-4.376l0.228,0.466l-10.368,5.059c-0.643,0.312-0.911,1.09-0.597,1.732
		c0.314,0.645,1.091,0.911,1.732,0.599l10.368-5.059l0.228,0.466l-8.97,4.376c-0.644,0.313-0.909,1.09-0.596,1.732
		c0.313,0.644,1.09,0.912,1.733,0.598l9.669-4.717l0.227,0.465l-5.476,2.672c-0.644,0.313-0.912,1.09-0.598,1.733
		c0.314,0.644,1.091,0.91,2.083,0.426l9.669-4.718c1.443-0.704,2.543-2.095,3.111-3.759l5.835-3.796
		c0.76-0.494,1.376-1.63,1.376-2.536v-8.411C60.02,23.081,59.377,22.7,58.584,23.139z"/>
	<path d="M23.537,12.441C12.735,12.441,3.978,21.198,3.978,32s8.757,19.559,19.559,19.559c4.227,0,8.138-1.346,11.335-3.624
		c-0.248,0.08-0.504,0.136-0.77,0.136c-0.96,0-1.851-0.558-2.272-1.421c-0.111-0.229-0.186-0.467-0.223-0.706
		c-1.031,0.1-2.08-0.464-2.539-1.407c-0.297-0.605-0.338-1.291-0.118-1.93c0.121-0.355,0.317-0.672,0.57-0.933
		c-0.165-0.18-0.307-0.385-0.418-0.612c-0.297-0.608-0.339-1.295-0.118-1.934c0.221-0.638,0.676-1.152,1.283-1.447l5.825-2.842
		c-0.123-0.15-0.229-0.316-0.316-0.496c-0.198-0.405-0.443-1.026-0.288-1.731c0.154-0.698,0.642-1.254,1.451-1.649
		c3.562-1.737,4.909-2.395,5.488-2.644l-0.013-0.026c0.1-0.048,0.202-0.087,0.302-0.131C40.933,19.198,33.024,12.441,23.537,12.441z
		 M12.809,23.968c-0.197,0.258-0.494,0.393-0.796,0.393c-0.211,0-0.425-0.066-0.605-0.205c-0.439-0.335-0.523-0.963-0.188-1.401
		c2.912-3.816,7.333-6.005,12.129-6.005c0.553,0,1,0.447,1,1s-0.447,1-1,1C19.181,18.75,15.34,20.652,12.809,23.968z M23.537,38.019
		c-3.324,0-6.018-2.694-6.018-6.019s2.694-6.019,6.018-6.019s6.019,2.694,6.019,6.019S26.861,38.019,23.537,38.019z"/>
</g>
</svg>
