<?xml version="1.0" encoding="iso-8859-1"?>
<!-- Generator: Adobe Illustrator 17.0.0, SVG Export Plug-In . SVG Version: 6.00 Build 0)  -->
<!DOCTYPE svg PUBLIC "-//W3C//DTD SVG 1.1//EN" "http://www.w3.org/Graphics/SVG/1.1/DTD/svg11.dtd">
<svg version="1.1" id="Capa_1" xmlns="http://www.w3.org/2000/svg" xmlns:xlink="http://www.w3.org/1999/xlink" x="0px" y="0px"
	 width="64px" height="64px" viewBox="0 0 64 64" style="enable-background:new 0 0 64 64;" xml:space="preserve">
<g>
	<path d="M32.607,21.626l-0.132,0.087c-0.025-0.038-2.582-3.864-5.675-5.853c-2.189-1.407-5.504-2.185-7.276-2.522
		c-0.044,0.121-0.093,0.24-0.132,0.361c-0.153,0.485-0.257,0.986-0.304,1.498c-0.293,1.542-0.703,3.995-0.782,6.004
		c-0.125,3.191-1.502,6.634-2.941,8.573c-1.439,1.939-7.384,7.446-9.574,9.762c-2.191,2.315-2.379,4.255-1.44,5.256l1.023,0.67
		c1.198,0.667,3.036,0.014,4.75-2.673c1.714-2.687,5.613-9.791,7.146-11.658c1.532-1.867,4.537-4.038,7.603-4.934
		c3.065-0.895,6.719-3.741,6.719-3.741l-0.008-0.006C31.943,22.205,32.284,21.926,32.607,21.626z"/>
	<path d="M29.9,11.823c-2.205-1.418-5.555-2.196-7.316-2.53c-0.84,0.67-1.576,1.448-2.157,2.309c1.989,0.41,5.144,1.237,7.388,2.68
		c2.874,1.847,5.221,4.966,5.974,6.032c0.679-0.911,1.201-1.941,1.518-3.023C34.572,16.266,32.414,13.438,29.9,11.823z"/>
	<path d="M30.915,10.243c1.928,1.239,3.62,3.051,4.751,4.432c0.055-6.303-4.379-8.641-8.412-7.677
		c-0.815,0.195-1.624,0.49-2.4,0.867C26.75,8.332,29.123,9.091,30.915,10.243z"/>
</g>
<g>
	<path d="M51.444,25.673l-0.053,0.149c-0.043-0.015-4.393-1.517-8.059-1.23c-2.594,0.203-5.705,1.589-7.32,2.392
		c0.037,0.123,0.07,0.247,0.113,0.367c0.171,0.48,0.391,0.941,0.663,1.377c0.699,1.405,1.855,3.606,3.008,5.255
		c1.83,2.618,2.815,6.191,2.842,8.607c0.027,2.416-1.379,10.396-1.724,13.564c-0.344,3.169,0.68,4.828,2.032,5.057l1.22-0.086
		c1.359-0.193,2.427-1.824,2.168-5c-0.259-3.176-1.449-11.192-1.358-13.606c0.091-2.413,1.172-5.96,3.072-8.527
		c1.9-2.567,3.088-7.042,3.088-7.042h-0.01C51.265,26.534,51.368,26.106,51.444,25.673z"/>
	<path d="M43.36,19.501c-2.613,0.205-5.753,1.61-7.357,2.409c-0.265,1.041-0.38,2.106-0.322,3.144
		c1.832-0.876,4.845-2.125,7.504-2.334c3.406-0.267,7.162,0.799,8.406,1.192c-0.01-1.136-0.218-2.271-0.619-3.325
		C49.768,20.215,46.338,19.268,43.36,19.501z"/>
	<path d="M43.213,17.629c2.285-0.179,4.727,0.242,6.464,0.657c-3.767-5.053-8.712-4.233-11.342-1.028
		c-0.532,0.648-0.998,1.373-1.388,2.141C38.741,18.625,41.089,17.795,43.213,17.629z"/>
</g>
</svg>
