<?xml version="1.0" encoding="iso-8859-1"?>
<!-- Generator: Adobe Illustrator 17.0.0, SVG Export Plug-In . SVG Version: 6.00 Build 0)  -->
<!DOCTYPE svg PUBLIC "-//W3C//DTD SVG 1.1//EN" "http://www.w3.org/Graphics/SVG/1.1/DTD/svg11.dtd">
<svg version="1.1" id="Capa_1" xmlns="http://www.w3.org/2000/svg" xmlns:xlink="http://www.w3.org/1999/xlink" x="0px" y="0px"
	 width="64px" height="64px" viewBox="0 0 64 64" style="enable-background:new 0 0 64 64;" xml:space="preserve">
<g>
	<path d="M20.597,43.446l1.083,5.844c3.298,0.395,6.593,0.534,8.552,0.582l1.315-5.018V21.352c-4.795-0.013-8.34-0.221-10.949-0.507
		V43.446z"/>
	<path d="M32.952,44.829l1.33,5.029c2.045-0.06,5.177-0.213,8.279-0.597l1.363-4.805V20.918c-2.26,0.273-5.506,0.419-10.973,0.435
		V44.829z"/>
	<path d="M52.614,18.716c0-2.001-3.269-3.198-7.204-3.914l0.664-0.523c0.217-0.171,0.254-0.485,0.083-0.702
		c-0.172-0.218-0.486-0.255-0.702-0.083l-1.382,1.088c-0.059-0.009-0.118-0.017-0.179-0.026l-0.886-1.729
		c-0.126-0.245-0.427-0.341-0.674-0.217c-0.245,0.126-0.343,0.428-0.217,0.674l0.566,1.104c-4.836-0.607-9.776-0.648-10.587-0.651
		l0.934-1.369c0.155-0.229,0.097-0.54-0.131-0.695c-0.229-0.153-0.539-0.097-0.695,0.131l-1.076,1.577l-1.459-1.478
		c-0.194-0.195-0.511-0.199-0.707-0.004c-0.196,0.193-0.198,0.511-0.004,0.707l1.146,1.16c-2.353,0.061-6.489,0.249-10.284,0.831
		l0.625-1.249c0.123-0.247,0.023-0.547-0.224-0.671c-0.247-0.123-0.547-0.022-0.671,0.224l-0.854,1.707l-1.643-1.268
		c-0.221-0.167-0.533-0.126-0.702,0.091c-0.168,0.219-0.128,0.533,0.091,0.702l1.128,0.869c-3.465,0.733-6.187,1.888-6.187,3.713
		c0,0.785,0.508,1.445,1.358,2.003c-0.002,0.042-0.011,0.076-0.011,0.12v22.084c-0.845,0.556-1.348,1.215-1.348,1.997
		c0,1.832,2.74,2.988,6.224,3.721l1.581-4.891V20.673c-4.345-0.597-5.479-1.389-5.646-1.526c-0.008-0.006-0.012-0.016-0.018-0.022
		c-0.028-0.025-0.049-0.059-0.073-0.09c-0.034-0.043-0.07-0.084-0.094-0.132c-0.002-0.007-0.009-0.011-0.011-0.017
		c-0.012-0.027-0.011-0.057-0.019-0.084c-0.017-0.055-0.032-0.107-0.035-0.163c-0.003-0.041,0.006-0.08,0.011-0.12
		c0.006-0.049,0.01-0.096,0.025-0.143c0.016-0.046,0.043-0.085,0.068-0.127c0.018-0.03,0.025-0.064,0.048-0.092
		c0.006-0.006,0.014-0.009,0.019-0.016c0.028-0.031,0.066-0.054,0.1-0.081c0.039-0.03,0.076-0.064,0.12-0.086
		c0.008-0.003,0.013-0.01,0.021-0.014c0.184-0.081,4.664-1.993,18.299-1.878c13.619,0.116,18.078,1.795,18.261,1.866
		c0.01,0.003,0.016,0.012,0.024,0.016c0.047,0.02,0.085,0.051,0.126,0.08c0.033,0.024,0.07,0.045,0.099,0.074
		c0.028,0.03,0.048,0.068,0.071,0.104c0.027,0.041,0.057,0.081,0.074,0.127c0.004,0.009,0.012,0.016,0.015,0.024
		c0.011,0.032,0.007,0.066,0.014,0.098c0.009,0.049,0.021,0.096,0.019,0.146c0,0.05-0.014,0.097-0.025,0.144
		c-0.008,0.033-0.004,0.065-0.017,0.097c-0.004,0.011-0.012,0.019-0.017,0.028c-0.011,0.025-0.025,0.045-0.039,0.067
		c-0.029,0.051-0.062,0.098-0.104,0.139c-0.019,0.018-0.037,0.036-0.058,0.053c-0.055,0.044-0.113,0.079-0.178,0.105
		c-0.012,0.004-0.018,0.013-0.03,0.017l-0.816,0.286c-1.371,0.482-2.468,0.868-4.093,1.156v23.885l1.253,4.004
		c3.39-0.734,6.031-1.881,6.031-3.679c0-0.782-0.503-1.441-1.348-1.997V20.839c0-0.044-0.009-0.078-0.011-0.12
		C52.106,20.161,52.614,19.501,52.614,18.716z"/>
	<path d="M31.992,17.488c-8.499-0.069-13.37,0.669-15.78,1.21c2.152,0.551,6.677,1.25,15.786,1.25
		c10.246,0,12.973-0.415,15.551-1.239C45.051,18.215,40.218,17.56,31.992,17.488z"/>
</g>
</svg>
