<?xml version="1.0" encoding="iso-8859-1"?>
<!-- Generator: Adobe Illustrator 17.0.0, SVG Export Plug-In . SVG Version: 6.00 Build 0)  -->
<!DOCTYPE svg PUBLIC "-//W3C//DTD SVG 1.1//EN" "http://www.w3.org/Graphics/SVG/1.1/DTD/svg11.dtd">
<svg version="1.1" id="Capa_1" xmlns="http://www.w3.org/2000/svg" xmlns:xlink="http://www.w3.org/1999/xlink" x="0px" y="0px"
	 width="64px" height="64px" viewBox="0 0 64 64" style="enable-background:new 0 0 64 64;" xml:space="preserve">
<g>
	<circle cx="32.626" cy="33.86" r="3.077"/>
	<path d="M6.662,47.006h10.354c1.129,0,2.044-0.915,2.044-2.044V24.119c0-1.129-0.915-2.044-2.044-2.044H6.662
		c-1.129,0-2.044,0.915-2.044,2.044v20.844C4.618,46.091,5.533,47.006,6.662,47.006z M11.839,24.8c1.7,0,3.077,1.377,3.077,3.077
		c0,1.699-1.377,3.077-3.077,3.077c-1.699,0-3.076-1.377-3.076-3.077C8.763,26.177,10.14,24.8,11.839,24.8z M11.839,33.064
		c3.317,0,6.006,2.688,6.006,6.005c0,3.317-2.688,6.005-6.006,6.005c-3.316,0-6.006-2.688-6.006-6.005
		C5.833,35.753,8.522,33.064,11.839,33.064z"/>
	<path d="M46.135,24.05v20.844c0,1.129,0.915,2.044,2.044,2.044h10.354c1.129,0,2.044-0.915,2.044-2.044V24.05
		c0-1.128-0.915-2.044-2.044-2.044H48.179C47.05,22.007,46.135,22.922,46.135,24.05z M53.355,24.731c1.7,0,3.077,1.378,3.077,3.077
		c0,1.7-1.377,3.077-3.077,3.077c-1.699,0-3.076-1.377-3.076-3.077C50.279,26.109,51.656,24.731,53.355,24.731z M53.355,32.996
		c3.317,0,6.006,2.688,6.006,6.006c0,3.317-2.688,6.006-6.006,6.006c-3.316,0-6.005-2.688-6.005-6.006
		C47.351,35.684,50.039,32.996,53.355,32.996z"/>
	<path d="M44.205,44.962V24.119c0-1.129-0.915-2.044-2.044-2.044H23.089c-1.128,0-2.043,0.915-2.043,2.044v20.844
		c0,1.128,0.915,2.044,2.043,2.044h19.072C43.29,47.006,44.205,46.091,44.205,44.962z M24.315,24.664
		c0-0.452,0.365-0.817,0.816-0.817h14.986c0.451,0,0.817,0.366,0.817,0.817v0.272c0,0.452-0.366,0.817-0.817,0.817H25.132
		c-0.451,0-0.816-0.366-0.816-0.817V24.664z M37.655,39.887c-0.113,0.395-0.57,0.715-1.021,0.715h-8.107
		c-0.451,0-0.909-0.32-1.022-0.715l-0.203-0.715h10.558C37.859,39.172,37.768,39.492,37.655,39.887z M41.583,38.151h-8.924h-0.067
		h-8.923c-0.452,0-0.818-0.274-0.818-0.613v-0.613c0-0.452,0.343-0.945,0.766-1.103l1.431-0.533v-2.656l-1.408-0.393
		c-0.436-0.121-0.788-0.585-0.788-1.037v-0.818c0-0.452,0.366-0.817,0.818-0.817h8.854h0.203h8.856c0.45,0,0.816,0.366,0.816,0.817
		v0.818c0,0.451-0.353,0.915-0.787,1.037l-1.409,0.393v2.656l1.431,0.533c0.423,0.157,0.766,0.651,0.766,1.103v0.409
		C42.399,37.785,42.033,38.151,41.583,38.151z"/>
	<circle cx="37.144" cy="30.93" r="0.647"/>
	<circle cx="38.063" cy="32.702" r="0.647"/>
	<circle cx="38.063" cy="34.677" r="0.647"/>
	<circle cx="37.144" cy="36.516" r="0.647"/>
</g>
</svg>
