<?xml version="1.0" encoding="iso-8859-1"?>
<!-- Generator: Adobe Illustrator 17.0.0, SVG Export Plug-In . SVG Version: 6.00 Build 0)  -->
<!DOCTYPE svg PUBLIC "-//W3C//DTD SVG 1.1//EN" "http://www.w3.org/Graphics/SVG/1.1/DTD/svg11.dtd">
<svg version="1.1" id="Capa_1" xmlns="http://www.w3.org/2000/svg" xmlns:xlink="http://www.w3.org/1999/xlink" x="0px" y="0px"
	 width="64px" height="64px" viewBox="0 0 64 64" style="enable-background:new 0 0 64 64;" xml:space="preserve">
<g>
	<circle cx="17.049" cy="56.028" r="4.139"/>
	<circle cx="17.049" cy="45.91" r="4.139"/>
	<circle cx="27.167" cy="56.028" r="4.139"/>
	<circle cx="27.167" cy="45.91" r="4.139"/>
	<circle cx="27.167" cy="35.793" r="4.139"/>
	<circle cx="6.932" cy="56.028" r="4.139"/>
	<circle cx="6.932" cy="45.91" r="4.139"/>
	<circle cx="6.932" cy="35.793" r="4.139"/>
	<circle cx="6.932" cy="24.756" r="4.139"/>
	<circle cx="37.284" cy="56.028" r="4.139"/>
	<circle cx="37.284" cy="45.91" r="4.139"/>
	<circle cx="37.284" cy="35.793" r="4.139"/>
	<circle cx="47.401" cy="56.028" r="4.139"/>
	<circle cx="47.401" cy="45.91" r="4.139"/>
	<circle cx="57.401" cy="56.028" r="4.139"/>
	<circle cx="57.401" cy="45.91" r="4.139"/>
	<circle cx="57.401" cy="36.028" r="4.139"/>
	<circle cx="57.401" cy="25.91" r="4.139"/>
	<circle cx="57.401" cy="16.028" r="4.139"/>
	<circle cx="57.401" cy="5.91" r="4.139"/>
	<circle cx="37.284" cy="24.756" r="4.139"/>
	<circle cx="37.284" cy="14.639" r="4.139"/>
</g>
</svg>
