<?xml version="1.0" encoding="iso-8859-1"?>
<!-- Generator: Adobe Illustrator 17.0.0, SVG Export Plug-In . SVG Version: 6.00 Build 0)  -->
<!DOCTYPE svg PUBLIC "-//W3C//DTD SVG 1.1//EN" "http://www.w3.org/Graphics/SVG/1.1/DTD/svg11.dtd">
<svg version="1.1" id="Capa_1" xmlns="http://www.w3.org/2000/svg" xmlns:xlink="http://www.w3.org/1999/xlink" x="0px" y="0px"
	 width="64px" height="64px" viewBox="0 0 64 64" style="enable-background:new 0 0 64 64;" xml:space="preserve">
<g>
	<path d="M6.65,47.733h11.516c2.736,6.498,8.874,9.946,11.412,11.138c0.617,0.29,1.684,0.488,2.366,0.488h5.758
		c4.202,0,7.609-11.872,7.609-26.518c0-14.645-3.406-26.518-7.609-26.518h-5.758c-0.681,0-1.749,0.198-2.366,0.488
		c-2.538,1.192-8.676,4.641-11.412,11.138H6.65c-2.499,0-4.524,6.667-4.524,14.892C2.126,41.065,4.151,47.733,6.65,47.733z"/>
	<path d="M50.094,14.578c-0.829,0-1.5,0.672-1.5,1.5s0.671,1.5,1.5,1.5c4.56,0,8.412,6.989,8.412,15.263s-3.852,15.264-8.412,15.264
		c-0.829,0-1.5,0.672-1.5,1.5s0.671,1.5,1.5,1.5c6.399,0,11.412-8.022,11.412-18.264S56.493,14.578,50.094,14.578z"/>
	<path d="M49.055,40.66c-0.829,0-1.5,0.672-1.5,1.5s0.671,1.5,1.5,1.5c3.497,0,5.327-5.442,5.327-10.819s-1.83-10.819-5.327-10.819
		c-0.829,0-1.5,0.672-1.5,1.5s0.671,1.5,1.5,1.5c0.598,0,2.327,2.688,2.327,7.819S49.653,40.66,49.055,40.66z"/>
</g>
</svg>
