<?xml version="1.0" encoding="iso-8859-1"?>
<!-- Generator: Adobe Illustrator 17.0.0, SVG Export Plug-In . SVG Version: 6.00 Build 0)  -->
<!DOCTYPE svg PUBLIC "-//W3C//DTD SVG 1.1//EN" "http://www.w3.org/Graphics/SVG/1.1/DTD/svg11.dtd">
<svg version="1.1" id="Capa_1" xmlns="http://www.w3.org/2000/svg" xmlns:xlink="http://www.w3.org/1999/xlink" x="0px" y="0px"
	 width="64px" height="64px" viewBox="0 0 64 64" style="enable-background:new 0 0 64 64;" xml:space="preserve">
<g>
	<path d="M53.872,15.448c-0.073-1.418,0.582-3.055,1.884-4.357c1.366-1.366,3.1-2.015,4.563-1.863l0.982-0.982l-0.148-3.006
		l-0.31-0.31c-0.111,0.331-0.273,0.67-0.5,0.997c-0.794,1.145-1.989,1.69-2.669,1.219c-0.419-0.291-0.543-0.901-0.391-1.594
		C56.59,5.703,55.98,5.58,55.689,5.16c-0.472-0.68,0.074-1.875,1.219-2.669c0.327-0.227,0.667-0.39,0.997-0.5L57.724,1.81
		l-3.036-0.15l-1.134,1.134c0.023,1.383-0.628,2.953-1.885,4.21c-1.257,1.257-2.827,1.908-4.21,1.885l-0.076,0.076
		c0.768,0.966,0.604,2.537-0.355,3.84L33.474,26.572c-1.434,0.522-2.688,0.307-2.433-2.27c0.289-2.918,2.885-6.608,5.317-9.486
		c0,0-8.827,8.005-14.436,6.883c1.875,0.597,3.525,1.418,3.846,2.502c0.811,2.738-1.934,6.38-6.544,7.651
		c-4.61,1.271-13.211,2.911-15.543,5.243C2.999,37.647,2.502,38.4,2.502,38.4s-1.596,4.993,0.606,9.484l1.728,1.728
		c-0.001-0.049-0.005-0.097-0.005-0.147c0-3.423,1.952-6.198,4.36-6.198c2.408,0,4.36,2.775,4.36,6.198
		c0,0.497-0.046,0.978-0.123,1.441c0.463-0.078,0.944-0.123,1.442-0.123c3.423,0,6.198,1.952,6.198,4.36
		c0,2.408-2.775,4.36-6.198,4.36c-0.05,0-0.098-0.004-0.147-0.005l1.791,1.791c4.492,2.202,9.485,0.606,9.485,0.606
		c2.205-2.205,2.864-3.676,4.335-9.607c1.47-5.932,3.904-11.407,6.895-10.038c1.129,0.517,1.745,1.806,2.074,3.211
		c0.064-4.036,3.585-8.831,6.96-12.51c-4.146,4.253-9.537,6.465-11.468,3.216c-2.079-3.498,4.613-9.582,4.613-9.582l-0.032-0.032
		l10.677-10.846C51.366,14.776,52.93,14.642,53.872,15.448z"/>
</g>
</svg>
