<?xml version="1.0" encoding="iso-8859-1"?>
<!-- Generator: Adobe Illustrator 17.0.0, SVG Export Plug-In . SVG Version: 6.00 Build 0)  -->
<!DOCTYPE svg PUBLIC "-//W3C//DTD SVG 1.1//EN" "http://www.w3.org/Graphics/SVG/1.1/DTD/svg11.dtd">
<svg version="1.1" id="Capa_1" xmlns="http://www.w3.org/2000/svg" xmlns:xlink="http://www.w3.org/1999/xlink" x="0px" y="0px"
	 width="64px" height="64px" viewBox="0 0 64 64" style="enable-background:new 0 0 64 64;" xml:space="preserve">
<path d="M30.92,41.676c4.518,0,8.18-3.662,8.18-8.18s-3.662-8.18-8.18-8.18c-4.519,0-8.181,3.662-8.181,8.18
	S26.402,41.676,30.92,41.676z M30.92,29.607c2.148,0,3.889,1.742,3.889,3.889c0,2.148-1.741,3.889-3.889,3.889
	s-3.889-1.74-3.889-3.889C27.032,31.35,28.773,29.607,30.92,29.607z"/>
<path d="M30.92,47.529c7.737,0,14.032-6.295,14.032-14.033c0-7.737-6.295-14.032-14.032-14.032s-14.032,6.295-14.032,14.032
	C16.888,41.234,23.183,47.529,30.92,47.529z M30.92,22.507c6.06,0,10.989,4.931,10.989,10.989c0,6.06-4.93,10.99-10.989,10.99
	s-10.989-4.93-10.989-10.99C19.931,27.438,24.861,22.507,30.92,22.507z"/>
<circle cx="17.269" cy="21.535" r="2.024"/>
<circle cx="17.269" cy="44.865" r="2.024"/>
<circle cx="44.403" cy="21.535" r="2.023"/>
<circle cx="44.403" cy="44.865" r="2.024"/>
<path d="M8.476,21.154v25.232c0,5.604,4.542,10.145,10.145,10.145h25.232c5.602,0,10.143-4.541,10.143-10.145V21.154
	c0-5.602-4.541-10.143-10.143-10.143H18.621C13.018,11.012,8.476,15.553,8.476,21.154z M14.309,21.662c0-1.75,1.419-3.17,3.17-3.17
	c1.221,0,2.278,0.691,2.808,1.703c2.915-2.334,6.609-3.732,10.634-3.732c4.023,0,7.718,1.398,10.632,3.73
	c0.529-1.011,1.587-1.701,2.808-1.701c1.751,0,3.169,1.42,3.169,3.17c0,1.361-0.859,2.519-2.063,2.968
	c1.577,2.583,2.487,5.618,2.487,8.866c0,3.053-0.807,5.914-2.213,8.393c1.059,0.514,1.789,1.596,1.789,2.85
	c0,1.752-1.418,3.17-3.169,3.17c-1.054,0-1.985-0.516-2.562-1.307c-2.95,2.451-6.742,3.928-10.878,3.928
	c-4.137,0-7.929-1.477-10.88-3.93c-0.576,0.793-1.508,1.309-2.562,1.309c-1.751,0-3.17-1.418-3.17-3.17
	c0-1.254,0.731-2.338,1.791-2.85c-1.405-2.479-2.212-5.34-2.212-8.393c0-3.248,0.909-6.283,2.486-8.865
	C15.169,24.182,14.309,23.023,14.309,21.662z"/>
</svg>
