<?xml version="1.0" encoding="iso-8859-1"?>
<!-- Generator: Adobe Illustrator 17.0.0, SVG Export Plug-In . SVG Version: 6.00 Build 0)  -->
<!DOCTYPE svg PUBLIC "-//W3C//DTD SVG 1.1//EN" "http://www.w3.org/Graphics/SVG/1.1/DTD/svg11.dtd">
<svg version="1.1" id="Capa_1" xmlns="http://www.w3.org/2000/svg" xmlns:xlink="http://www.w3.org/1999/xlink" x="0px" y="0px"
	 width="64px" height="64px" viewBox="0 0 64 64" style="enable-background:new 0 0 64 64;" xml:space="preserve">
<path d="M9.794,55.447h4.967c0.899,0,1.63-0.731,1.63-1.63V48.85c0-0.899-0.731-1.63-1.63-1.63H9.794c-0.899,0-1.63,0.731-1.63,1.63
	v4.967C8.164,54.716,8.895,55.447,9.794,55.447z"/>
<path d="M36.09,16.447h4.967c0.899,0,1.63-0.731,1.63-1.63V9.85c0-0.899-0.731-1.63-1.63-1.63H36.09c-0.899,0-1.63,0.731-1.63,1.63
	v4.967C34.461,15.716,35.192,16.447,36.09,16.447z"/>
<path d="M22.942,29.447h4.967c0.899,0,1.63-0.731,1.63-1.63V22.85c0-0.899-0.731-1.63-1.63-1.63h-4.967
	c-0.899,0-1.63,0.731-1.63,1.63v4.967C21.312,28.716,22.044,29.447,22.942,29.447z"/>
<path d="M49.572,42.447h4.967c0.899,0,1.63-0.731,1.63-1.63V35.85c0-0.899-0.731-1.63-1.63-1.63h-4.967
	c-0.899,0-1.63,0.731-1.63,1.63v4.967C47.943,41.716,48.674,42.447,49.572,42.447z"/>
<path d="M3.667,8.667v46.667c0,2.761,2.239,5,5,5h46.667c2.761,0,5-2.239,5-5V8.667c0-2.761-2.239-5-5-5H8.667
	C5.905,3.667,3.667,5.905,3.667,8.667z M46.943,9.85c0-1.452,1.177-2.63,2.63-2.63h4.967c1.452,0,2.63,1.177,2.63,2.63v4.967
	c0,1.452-1.177,2.63-2.63,2.63h-4.967c-1.452,0-2.63-1.177-2.63-2.63V9.85z M46.943,22.85c0-1.452,1.177-2.63,2.63-2.63h4.967
	c1.452,0,2.63,1.177,2.63,2.63v4.967c0,1.452-1.177,2.63-2.63,2.63h-4.967c-1.452,0-2.63-1.177-2.63-2.63V22.85z M46.943,35.85
	c0-1.452,1.177-2.63,2.63-2.63h4.967c1.452,0,2.63,1.177,2.63,2.63v4.967c0,1.452-1.177,2.63-2.63,2.63h-4.967
	c-1.452,0-2.63-1.177-2.63-2.63V35.85z M46.943,48.85c0-1.452,1.177-2.63,2.63-2.63h4.967c1.452,0,2.63,1.177,2.63,2.63v4.967
	c0,1.452-1.177,2.63-2.63,2.63h-4.967c-1.452,0-2.63-1.177-2.63-2.63V48.85z M33.461,9.85c0-1.452,1.177-2.63,2.63-2.63h4.967
	c1.452,0,2.63,1.177,2.63,2.63v4.967c0,1.452-1.177,2.63-2.63,2.63H36.09c-1.452,0-2.63-1.177-2.63-2.63V9.85z M33.461,22.85
	c0-1.452,1.177-2.63,2.63-2.63h4.967c1.452,0,2.63,1.177,2.63,2.63v4.967c0,1.452-1.177,2.63-2.63,2.63H36.09
	c-1.452,0-2.63-1.177-2.63-2.63V22.85z M33.461,35.85c0-1.452,1.177-2.63,2.63-2.63h4.967c1.452,0,2.63,1.177,2.63,2.63v4.967
	c0,1.452-1.177,2.63-2.63,2.63H36.09c-1.452,0-2.63-1.177-2.63-2.63V35.85z M33.461,48.85c0-1.452,1.177-2.63,2.63-2.63h4.967
	c1.452,0,2.63,1.177,2.63,2.63v4.967c0,1.452-1.177,2.63-2.63,2.63H36.09c-1.452,0-2.63-1.177-2.63-2.63V48.85z M20.312,9.85
	c0-1.452,1.177-2.63,2.63-2.63h4.967c1.452,0,2.63,1.177,2.63,2.63v4.967c0,1.452-1.177,2.63-2.63,2.63h-4.967
	c-1.452,0-2.63-1.177-2.63-2.63V9.85z M20.312,22.85c0-1.452,1.177-2.63,2.63-2.63h4.967c1.452,0,2.63,1.177,2.63,2.63v4.967
	c0,1.452-1.177,2.63-2.63,2.63h-4.967c-1.452,0-2.63-1.177-2.63-2.63V22.85z M20.312,35.85c0-1.452,1.177-2.63,2.63-2.63h4.967
	c1.452,0,2.63,1.177,2.63,2.63v4.967c0,1.452-1.177,2.63-2.63,2.63h-4.967c-1.452,0-2.63-1.177-2.63-2.63V35.85z M20.312,48.85
	c0-1.452,1.177-2.63,2.63-2.63h4.967c1.452,0,2.63,1.177,2.63,2.63v4.967c0,1.452-1.177,2.63-2.63,2.63h-4.967
	c-1.452,0-2.63-1.177-2.63-2.63V48.85z M7.164,9.85c0-1.452,1.177-2.63,2.63-2.63h4.967c1.452,0,2.63,1.177,2.63,2.63v4.967
	c0,1.452-1.177,2.63-2.63,2.63H9.794c-1.452,0-2.63-1.177-2.63-2.63V9.85z M7.164,22.85c0-1.452,1.177-2.63,2.63-2.63h4.967
	c1.452,0,2.63,1.177,2.63,2.63v4.967c0,1.452-1.177,2.63-2.63,2.63H9.794c-1.452,0-2.63-1.177-2.63-2.63V22.85z M7.164,35.85
	c0-1.452,1.177-2.63,2.63-2.63h4.967c1.452,0,2.63,1.177,2.63,2.63v4.967c0,1.452-1.177,2.63-2.63,2.63H9.794
	c-1.452,0-2.63-1.177-2.63-2.63V35.85z M7.164,48.85c0-1.452,1.177-2.63,2.63-2.63h4.967c1.452,0,2.63,1.177,2.63,2.63v4.967
	c0,1.452-1.177,2.63-2.63,2.63H9.794c-1.452,0-2.63-1.177-2.63-2.63V48.85z"/>
</svg>
