<?xml version="1.0" encoding="iso-8859-1"?>
<!-- Generator: Adobe Illustrator 17.0.0, SVG Export Plug-In . SVG Version: 6.00 Build 0)  -->
<!DOCTYPE svg PUBLIC "-//W3C//DTD SVG 1.1//EN" "http://www.w3.org/Graphics/SVG/1.1/DTD/svg11.dtd">
<svg version="1.1" id="Capa_1" xmlns="http://www.w3.org/2000/svg" xmlns:xlink="http://www.w3.org/1999/xlink" x="0px" y="0px"
	 width="64px" height="64px" viewBox="0 0 64 64" style="enable-background:new 0 0 64 64;" xml:space="preserve">
<g>
	<path d="M4.143,43.91l14.047,2.318l2.767,13.598c0.548,3.463,3.181,4.635,4.773,1.511l4.976-14.687l10.905,0.972
		c3.463,0.548,4.26-1.017,1.781-3.496l-7.552-7.552l5.874-10.199c0.19-0.374,0.324-0.732,0.412-1.073l10.237-10.398
		c1.515-0.081,3.361-0.976,4.922-2.538c0.129-0.129,0.251-0.261,0.371-0.394l0.001,0.002c0,0,5.009-5.22,3.193-11.326
		c0,0-2.836,3.254-5.176,4.141c-0.119,0.036-0.237,0.075-0.357,0.12c-0.009,0.003-0.019,0.007-0.028,0.009l0,0.001
		c-1.099,0.41-2.249,1.147-3.277,2.174c-1.632,1.632-2.522,3.567-2.529,5.118l-9.819,9.974c-0.495,0.056-1.041,0.222-1.622,0.517
		l-10.199,5.874l-7.552-7.552c-2.479-2.479-4.044-1.682-3.496,1.781l0.972,10.905L3.08,38.689C-0.043,40.28,0.68,43.362,4.143,43.91
		z"/>
</g>
</svg>
