<?xml version="1.0" encoding="iso-8859-1"?>
<!-- Generator: Adobe Illustrator 17.0.0, SVG Export Plug-In . SVG Version: 6.00 Build 0)  -->
<!DOCTYPE svg PUBLIC "-//W3C//DTD SVG 1.1//EN" "http://www.w3.org/Graphics/SVG/1.1/DTD/svg11.dtd">
<svg version="1.1" id="Capa_1" xmlns="http://www.w3.org/2000/svg" xmlns:xlink="http://www.w3.org/1999/xlink" x="0px" y="0px"
	 width="64px" height="64px" viewBox="0 0 64 64" style="enable-background:new 0 0 64 64;" xml:space="preserve">
<g>
	<path d="M56.568,1.218c0,0-7.483,9.053-7.181,10.221c0.172,0.668-0.192,1.267-0.536,1.664L36.955,23.822
		c-1.36,0.188-3.071-0.162-5.101-1.752l-4.625,6.96L2.806,40.955c-2.427,1.185-2.205,2.156,0.496,2.169l12.811,0.061
		c2.701,0.013,4.865,2.213,4.833,4.914L20.799,60.54c-0.032,2.701,1.054,3.004,2.425,0.677l12.65-21.467l12.137-6.643
		c2.369-1.297,2.114-2.592-0.57-2.893l-1.086-0.122c-2.438-0.273-5.947-1.471-5.962-3.113l11.94-12.034
		c0.152-0.009,0.308,0,0.47,0.049c1.155,0.349,10.504-6.76,10.504-6.76l-7.399,0.361L56.568,1.218z"/>
</g>
</svg>
