<?xml version="1.0" encoding="iso-8859-1"?>
<!-- Generator: Adobe Illustrator 17.0.0, SVG Export Plug-In . SVG Version: 6.00 Build 0)  -->
<!DOCTYPE svg PUBLIC "-//W3C//DTD SVG 1.1//EN" "http://www.w3.org/Graphics/SVG/1.1/DTD/svg11.dtd">
<svg version="1.1" id="Capa_1" xmlns="http://www.w3.org/2000/svg" xmlns:xlink="http://www.w3.org/1999/xlink" x="0px" y="0px"
	 width="64px" height="64px" viewBox="0 0 64 64" style="enable-background:new 0 0 64 64;" xml:space="preserve">
<g>
	<path d="M9.625,20.5h15.5c0.567,0,1.395-0.485,1.697-1.019l3.161-5.231H9.625c-4.418,0-8,3.582-8,8v2.647
		C3.315,22.258,6.265,20.5,9.625,20.5z"/>
	<path d="M54.375,11h-18.75c-1.105,0-2.439,0.78-2.981,1.743l-0.91,1.507l-3.629,6.007C27.564,21.22,26.23,22,25.125,22h-15.5
		c-4.418,0-8,3.582-8,8v14.75v1.75c0,4.418,3.582,8,8,8h44.75c4.418,0,8-3.582,8-8v-1.75v-22.5V19
		C62.375,14.582,58.793,11,54.375,11z M17.754,29.415c0-0.631,0.512-1.143,1.143-1.143h2.89c3.76,0.136,6.182,2.952,8.522,5.79
		c-0.623,0.804-1.234,1.621-1.834,2.431c-0.227,0.308-0.452,0.606-0.676,0.908c-0.923-1.201-1.824-2.302-2.695-3.156
		c-1.378-1.38-2.56-1.97-3.316-1.94h-2.89c-0.631,0-1.143-0.512-1.143-1.143V29.415z M17.751,45.548
		c0-0.631,0.512-1.143,1.143-1.143h1.747c0.631,0,1.672,0.016,2.24-0.261c1.173-0.571,2.755-2.024,4.333-4.085
		c2.184-2.732,4.396-6.169,6.926-8.686c1.528-1.493,3.28-2.794,5.474-3.047V26.42c0-0.631,0.443-0.887,0.99-0.571l6.727,3.884
		c0.547,0.316,0.547,0.827,0,1.143l-6.727,3.884c-0.547,0.316-0.99,0.06-0.99-0.571v-1.778c-1.198,0.389-2.974,1.915-4.753,4.238
		c-2.181,2.733-4.396,6.169-6.924,8.686c-1.683,1.644-3.635,3.07-6.153,3.103h-2.89c-0.631,0-1.143-0.512-1.143-1.143V45.548z
		 M31.769,42.646c0.628-0.81,1.246-1.634,1.848-2.451c0.221-0.3,0.441-0.592,0.66-0.887c0.924,1.202,1.825,2.303,2.697,3.157
		c1.019,1.02,1.928,1.605,2.64,1.83v-1.739c0-0.631,0.443-0.887,0.99-0.572l6.727,3.882c0.547,0.316,0.547,0.827,0,1.143
		l-6.727,3.883c-0.547,0.316-0.99,0.06-0.99-0.571v-1.969C36.24,47.921,33.961,45.31,31.769,42.646z"/>
</g>
</svg>
