<?xml version="1.0" encoding="iso-8859-1"?>
<!-- Generator: Adobe Illustrator 17.0.0, SVG Export Plug-In . SVG Version: 6.00 Build 0)  -->
<!DOCTYPE svg PUBLIC "-//W3C//DTD SVG 1.1//EN" "http://www.w3.org/Graphics/SVG/1.1/DTD/svg11.dtd">
<svg version="1.1" id="Capa_1" xmlns="http://www.w3.org/2000/svg" xmlns:xlink="http://www.w3.org/1999/xlink" x="0px" y="0px"
	 width="64px" height="64px" viewBox="0 0 64 64" style="enable-background:new 0 0 64 64;" xml:space="preserve">
<path d="M59.333,10.667H47.79c-3.441,0.821-4.804,7.744-5.243,10.828c-0.2,1.405-1.4,2.506-2.732,2.506H24.479
	c-1.339,0-2.469-1.122-2.57-2.553c-0.62-8.688-5.087-10.438-6.553-10.781H5c-1.657,0-3,1.343-3,3v32.667c0,1.657,1.343,3,3,3h54.333
	c1.657,0,3-1.343,3-3V13.667C62.333,12.01,60.99,10.667,59.333,10.667z M23.95,46.773H19.9v-6.397h1.347V27h1.232v13.377h1.47
	V46.773z M4.383,27h2.579v13.377h1.47v6.397H4.383V27z M9.556,40.377h1.347V27h1.232v13.377h1.47v6.397H9.556V40.377z
	 M14.728,40.377h1.347V27h1.232v13.377h1.47v6.397h-4.049V40.377z M24.95,40.377h1.471V27h1.108v13.377h1.47v6.397H24.95V40.377z
	 M30.122,40.377h1.347V27h1.232v13.377h1.47v6.397h-4.049V40.377z M35.294,40.377h1.347V27h1.232v13.377h1.47v6.397h-4.049V40.377z
	 M40.467,40.377h1.347V27h1.199v13.377h1.503v6.397h-4.049V40.377z M55.972,40.377h1.347V27h2.702v19.773h-4.049V40.377z
	 M45.607,40.377h1.347V27h1.232v13.377h1.47v6.397h-4.049V40.377z M50.779,40.377h1.347V27h1.251v13.377h1.451v6.397h-4.049V40.377z
	 M49.704,18.39c0-2.319,1.88-4.2,4.2-4.2h1.221c2.319,0,4.2,1.88,4.2,4.2v1.22c0,2.319-1.88,4.2-4.2,4.2h-1.221
	c-2.319,0-4.2-1.88-4.2-4.2V18.39z M44.314,21.466c0-1.003,0.813-1.816,1.816-1.816h0.528c1.003,0,1.816,0.813,1.816,1.816v0.528
	c0,1.003-0.813,1.816-1.816,1.816H46.13c-1.003,0-1.816-0.813-1.816-1.816V21.466z M16.163,21.466c0-1.003,0.813-1.816,1.816-1.816
	h0.528c1.003,0,1.816,0.813,1.816,1.816v0.528c0,1.003-0.813,1.816-1.816,1.816H17.98c-1.003,0-1.816-0.813-1.816-1.816V21.466z
	 M5.314,18.39c0-2.319,1.88-4.2,4.2-4.2h1.221c2.319,0,4.2,1.88,4.2,4.2v1.22c0,2.319-1.88,4.2-4.2,4.2H9.513
	c-2.319,0-4.2-1.88-4.2-4.2V18.39z"/>
<path d="M22.906,21.376C22.971,22.287,23.662,23,24.479,23h15.334c0.832,0,1.613-0.739,1.742-1.646
	c0.48-3.368,1.61-8.478,4.162-10.687H17.761C19.858,11.993,22.446,14.922,22.906,21.376z"/>
</svg>
