<?xml version="1.0" encoding="iso-8859-1"?>
<!-- Generator: Adobe Illustrator 17.0.0, SVG Export Plug-In . SVG Version: 6.00 Build 0)  -->
<!DOCTYPE svg PUBLIC "-//W3C//DTD SVG 1.1//EN" "http://www.w3.org/Graphics/SVG/1.1/DTD/svg11.dtd">
<svg version="1.1" id="Capa_1" xmlns="http://www.w3.org/2000/svg" xmlns:xlink="http://www.w3.org/1999/xlink" x="0px" y="0px"
	 width="64px" height="64px" viewBox="0 0 64 64" style="enable-background:new 0 0 64 64;" xml:space="preserve">
<ellipse cx="31.66" cy="24.825" rx="27.984" ry="6.096"/>
<g>
	<path d="M4.322,35.419c0,0,0,0.854,0,1.907c0,1.054,0.764,2.379,1.766,2.842c3.397,1.568,11.836,4.507,26.588,3.96
		c14.314-0.529,21.971-2.867,25.154-4.146c1.025-0.411,1.814-1.737,1.814-2.842v-2.612c-3.334,1.814-10.992,4.711-25.953,4.711
		C18.809,39.239,8.971,36.874,4.322,35.419z M10.387,40.25c-2.832-0.616-3.078-2.71-3.078-2.71l7.389,1.663
		C14.697,39.203,13.219,40.865,10.387,40.25z M33.199,42.16c-2.709-0.062-4.094-1.774-4.094-1.774h8.189
		C37.295,40.386,35.908,42.221,33.199,42.16z M54.062,39.756c-2.834,0.616-4.31-1.047-4.31-1.047l7.389-1.662
		C57.141,37.047,56.894,39.141,54.062,39.756z"/>
	<path d="M33.691,36.239c18.578,0,25.125-4.607,25.953-5.255V27.86c-4.191,3.894-19.369,5-27.984,5
		c-8.217,0-22.404-1.005-27.338-4.475v3.868C8.238,33.554,18.199,36.239,33.691,36.239z M52.74,31.88
		c0.846-0.078,1.564,0.2,1.604,0.624c0.039,0.424-0.615,0.83-1.463,0.907c-0.846,0.078-1.565-0.201-1.604-0.624
		C51.238,32.364,51.893,31.958,52.74,31.88z M33.18,33.95c0.852-0.021,1.549,0.305,1.559,0.73c0.01,0.425-0.67,0.786-1.521,0.807
		c-0.848,0.021-1.545-0.306-1.557-0.731C31.65,34.331,32.33,33.971,33.18,33.95z M12.182,32.249
		c0.848,0.079,1.502,0.484,1.463,0.907c-0.039,0.424-0.758,0.703-1.603,0.624c-0.846-0.077-1.502-0.483-1.463-0.907
		C10.617,32.45,11.336,32.171,12.182,32.249z"/>
</g>
</svg>
