<?xml version="1.0" encoding="iso-8859-1"?>
<!-- Generator: Adobe Illustrator 17.0.0, SVG Export Plug-In . SVG Version: 6.00 Build 0)  -->
<!DOCTYPE svg PUBLIC "-//W3C//DTD SVG 1.1//EN" "http://www.w3.org/Graphics/SVG/1.1/DTD/svg11.dtd">
<svg version="1.1" id="Capa_1" xmlns="http://www.w3.org/2000/svg" xmlns:xlink="http://www.w3.org/1999/xlink" x="0px" y="0px"
	 width="64px" height="64px" viewBox="0 0 64 64" style="enable-background:new 0 0 64 64;" xml:space="preserve">
<g>
	<circle cx="34.47" cy="19.16" r="8.756"/>
	<path d="M52.892,22.696c-0.659-1.384-2.315-1.971-3.698-1.311l-1.226,0.583c0.454-0.777,0.727-1.779,0.727-2.872
		c0-2.478-1.4-4.485-3.126-4.485c-0.3,0-0.589,0.064-0.864,0.178c-1.716-4.105-5.771-6.998-10.492-6.998
		c-4.813,0-8.927,3.012-10.582,7.244c-0.212,0.007-0.457,0.036-0.599,0.039c-1.726,0.045-3.075,2.086-3.013,4.562
		c0.062,2.477,1.513,4.449,3.238,4.406c0.432-0.012,0.84-0.147,1.208-0.384c0,0-0.091-0.098-0.221-0.303
		c-0.56-1.329-0.845-2.741-0.845-4.196c0-5.963,4.851-10.814,10.813-10.814c5.963,0,10.814,4.852,10.814,10.814
		c0,1.459-0.286,2.875-0.85,4.209l0.511,0.216c0.206,0.055,0.667-0.003,0.881-0.003c0.495,0,0.962-0.17,1.378-0.464l4.589,9.63
		l-6.112-3.247l0.484-2.011c0.129-0.537-0.195-1.103-0.723-1.263l-1.181-0.357c-0.528-0.16-1.183,0.099-1.528,0.53
		c-1.827,2.287-4.733,3.15-8.006,3.15c-3.464,0-6.518-1.045-8.316-3.583c-0.319-0.451-0.964-0.768-1.507-0.664l-1.91,0.365
		L8.588,35.915c-0.788,0.57-1.219,1.511-1.138,2.479c0.082,0.97,0.665,1.825,1.537,2.255L24.285,48.2l0.079,2.434l18.863,0.575
		l1.037-16.041l12.09,6.423c0.411,0.218,0.857,0.324,1.301,0.324c0.699,0,1.391-0.265,1.919-0.771
		c0.865-0.827,1.101-2.117,0.586-3.198L52.892,22.696z M15.569,37.711l8.026-5.812l0.214,1.555l0.273,8.459L15.569,37.711z"/>
</g>
</svg>
