<?xml version="1.0" encoding="iso-8859-1"?>
<!-- Generator: Adobe Illustrator 17.0.0, SVG Export Plug-In . SVG Version: 6.00 Build 0)  -->
<!DOCTYPE svg PUBLIC "-//W3C//DTD SVG 1.1//EN" "http://www.w3.org/Graphics/SVG/1.1/DTD/svg11.dtd">
<svg version="1.1" id="Capa_1" xmlns="http://www.w3.org/2000/svg" xmlns:xlink="http://www.w3.org/1999/xlink" x="0px" y="0px"
	 width="64px" height="64px" viewBox="0 0 64 64" style="enable-background:new 0 0 64 64;" xml:space="preserve">
<path d="M54.773,12.527H9.906c-2.865,0-5.188,2.322-5.188,5.187V37.89c0,2.865,2.322,5.188,5.188,5.188h44.867
	c2.865,0,5.188-2.322,5.188-5.188V17.714C59.961,14.849,57.639,12.527,54.773,12.527z M44.826,32.782
	c-0.049,0-0.093-0.014-0.141-0.015v0.035H19.712v-0.035c-2.683-0.076-4.838-2.265-4.838-4.965c0-2.749,2.229-4.979,4.978-4.979
	c2.749,0,4.979,2.23,4.979,4.979c0,0.669-0.136,1.305-0.376,1.888h15.768c-0.239-0.583-0.376-1.219-0.376-1.888
	c0-2.749,2.229-4.979,4.979-4.979s4.979,2.23,4.979,4.979C49.805,30.551,47.576,32.782,44.826,32.782z"/>
</svg>
