<?xml version="1.0" encoding="iso-8859-1"?>
<!-- Generator: Adobe Illustrator 17.0.0, SVG Export Plug-In . SVG Version: 6.00 Build 0)  -->
<!DOCTYPE svg PUBLIC "-//W3C//DTD SVG 1.1//EN" "http://www.w3.org/Graphics/SVG/1.1/DTD/svg11.dtd">
<svg version="1.1" id="Capa_1" xmlns="http://www.w3.org/2000/svg" xmlns:xlink="http://www.w3.org/1999/xlink" x="0px" y="0px"
	 width="64px" height="64px" viewBox="0 0 64 64" style="enable-background:new 0 0 64 64;" xml:space="preserve">
<path d="M16.988,45.324c6.741,0,12.205-3.301,12.205-7.373V22.359l21.76,4.665v14.797c-2.236-1.7-5.681-2.793-9.555-2.793
	c-6.74,0-12.205,3.301-12.205,7.373c0,4.072,5.465,7.373,12.205,7.373c6.741,0,12.206-3.301,12.206-7.373V27.592l0.015,0.003V15.5
	l-27.077-5.274v23.145c-2.235-1.7-5.681-2.794-9.554-2.794c-6.741,0-12.205,3.301-12.205,7.373
	C4.783,42.023,10.247,45.324,16.988,45.324z"/>
</svg>
