<?xml version="1.0" encoding="iso-8859-1"?>
<!-- Generator: Adobe Illustrator 17.0.0, SVG Export Plug-In . SVG Version: 6.00 Build 0)  -->
<!DOCTYPE svg PUBLIC "-//W3C//DTD SVG 1.1//EN" "http://www.w3.org/Graphics/SVG/1.1/DTD/svg11.dtd">
<svg version="1.1" id="Capa_1" xmlns="http://www.w3.org/2000/svg" xmlns:xlink="http://www.w3.org/1999/xlink" x="0px" y="0px"
	 width="64px" height="64px" viewBox="0 0 64 64" style="enable-background:new 0 0 64 64;" xml:space="preserve">
<path d="M29.975,58.274c4.982-1.058,8.498-4.876,8.568-8.95c0.031-0.181,0.053-0.363,0.053-0.547V36.211
	c1.601,0.601,3.3,1.035,3.979,1.487c0.497,0.332,0.812,0.784,1.014,1.229c0.368,0.812,0.644,1.744,1.003,1.965
	c0.359,0.22,0.84,0.22,1.071,0c0.231-0.221,0.511-1.319,0.503-2.457c-0.004-0.575-0.026-1.264-0.083-2.06
	c-0.189-2.646-2.269-5.167-5.356-6.239c-0.808-0.28-1.52-0.594-2.131-0.906v-3.096c1.601,0.601,3.3,1.035,3.979,1.487
	c0.497,0.332,0.812,0.784,1.014,1.229c0.368,0.812,0.644,1.744,1.003,1.965c0.359,0.22,0.84,0.22,1.071,0
	c0.231-0.221,0.511-1.319,0.503-2.457c-0.004-0.575-0.026-1.264-0.083-2.06c-0.189-2.646-2.269-5.167-5.356-6.239
	c-0.808-0.28-1.52-0.594-2.131-0.906v-3.461c1.601,0.601,3.3,1.035,3.979,1.487c0.497,0.332,0.812,0.784,1.014,1.229
	c0.368,0.812,0.644,1.744,1.003,1.965c0.359,0.22,0.84,0.22,1.071,0c0.231-0.221,0.511-1.319,0.503-2.457
	c-0.004-0.575-0.026-1.264-0.083-2.06c-0.189-2.646-2.269-5.167-5.356-6.239c-0.808-0.28-1.52-0.594-2.131-0.906v-1.89
	c0-1.747-1.416-3.163-3.163-3.163s-3.163,1.416-3.163,3.163v34.847c-1.785-0.521-3.803-0.621-5.859-0.184
	c-5.634,1.196-9.403,5.924-8.419,10.562C18.976,56.682,24.342,59.471,29.975,58.274z"/>
</svg>
