<?xml version="1.0" encoding="iso-8859-1"?>
<!-- Generator: Adobe Illustrator 17.0.0, SVG Export Plug-In . SVG Version: 6.00 Build 0)  -->
<!DOCTYPE svg PUBLIC "-//W3C//DTD SVG 1.1//EN" "http://www.w3.org/Graphics/SVG/1.1/DTD/svg11.dtd">
<svg version="1.1" id="Capa_1" xmlns="http://www.w3.org/2000/svg" xmlns:xlink="http://www.w3.org/1999/xlink" x="0px" y="0px"
	 width="64px" height="64px" viewBox="0 0 64 64" style="enable-background:new 0 0 64 64;" xml:space="preserve">
<path d="M32.79,18.156c-0.775,1.184-1.675,2.171-2.68,2.944l-1.646,1.313c-2.516,2.236-4.326,4.042-5.383,5.368
	c-1.925,2.412-2.981,4.862-3.14,7.282c-0.178,2.729,0.601,5.32,2.315,7.702c1.817,2.538,4.111,3.914,6.82,4.091
	c0.621,0.041,1.301,0.034,1.867-0.003l-0.212-1.906c-0.394,0.037-0.812,0.042-1.25,0.013c-1.78-0.116-3.369-0.85-4.727-2.182
	c-1.419-1.383-2.055-2.908-1.94-4.659c0.217-3.317,2.369-6.601,6.398-9.767l1.8-1.433c1.583-1.353,2.865-3.054,3.812-5.059
	c0.938-1.991,1.488-4.146,1.636-6.405c0.088-1.327-0.096-2.975-0.542-4.897c-0.611-2.61-1.481-3.916-2.666-3.994
	c-0.421-0.026-0.882,0.186-1.444,0.682c-1.368,1.235-2.362,2.731-2.958,4.44c-0.46,1.306-0.765,3.053-0.906,5.192
	c-0.059,0.89,0.059,2.534,0.34,4.519l1.668-1.545c-0.005-0.223,0.001-0.455,0.018-0.698c0.088-1.362,0.432-2.841,1.018-4.393
	c0.746-1.942,1.45-2.529,1.911-2.679c0.126-0.041,0.249-0.056,0.38-0.048c0.6,0.04,1.199,0.294,1.096,1.882
	C34.289,15.262,33.755,16.688,32.79,18.156z"/>
<path d="M34.268,46.008c1.08-0.484,2.003-1.222,2.749-2.197c0.953-1.238,1.489-2.7,1.597-4.347c0.135-2.021-0.35-3.854-1.437-5.449
	c-1.192-1.747-2.825-2.7-4.855-2.834c-0.233-0.015-0.48-0.014-0.735,0.005l-0.434-3.242l-1.824,1.341l0.28,2.3
	c-1.092,0.451-2.042,1.163-2.832,2.122c-0.91,1.117-1.416,2.347-1.502,3.656c-0.088,1.359,0.215,2.604,0.902,3.693
	c0.357,0.581,0.85,1.098,1.414,1.519c0.925,0.689,1.992,0.637,2.161,0.263c0.171-0.374-0.463-0.961-0.96-1.744
	c-0.283-0.443-0.423-0.976-0.423-1.603c0-1.33,0.803-2.473,1.946-2.979l1.07,8.338l0.25,1.934c0.163,0.919,0.324,1.834,0.479,2.739
	c0.188,1.223,0.254,2.284,0.196,3.152c-0.079,1.202-0.454,2.185-1.116,2.922c-0.422,0.469-0.914,0.765-1.471,0.929
	c0.747-0.747,1.21-1.779,1.21-2.919c0-2.278-1.847-4.125-4.125-4.125c-0.632,0-1.224,0.153-1.759,0.407
	c-0.068,0.029-0.132,0.073-0.199,0.108c-0.147,0.08-0.294,0.16-0.431,0.257c-0.047,0.035-0.092,0.076-0.138,0.114
	c-0.922,0.72-1.526,1.814-1.58,3.061c0,0.002-0.002,0.004-0.002,0.006c0,0.001,0,0.002,0,0.003
	c-0.002,0.058-0.017,0.111-0.017,0.169c0,0.048,0.013,0.092,0.015,0.139c-0.002,1.336,0.553,2.486,1.667,3.417
	c1.053,0.88,2.315,1.373,3.751,1.467c0.816,0.053,1.604-0.041,2.34-0.28c0.602-0.196,1.184-0.494,1.726-0.884
	c1.312-0.947,2.027-2.185,2.126-3.684c0.075-1.143,0.017-2.496-0.177-4.038l-0.535-3.475l-1.35-9.977
	c1.506,0.289,2.646,1.612,2.646,3.2c0,1.129-0.365,2.911-1.047,3.843L34.268,46.008z"/>
</svg>
