<?xml version="1.0" encoding="iso-8859-1"?>
<!-- Generator: Adobe Illustrator 17.0.0, SVG Export Plug-In . SVG Version: 6.00 Build 0)  -->
<!DOCTYPE svg PUBLIC "-//W3C//DTD SVG 1.1//EN" "http://www.w3.org/Graphics/SVG/1.1/DTD/svg11.dtd">
<svg version="1.1" id="Capa_1" xmlns="http://www.w3.org/2000/svg" xmlns:xlink="http://www.w3.org/1999/xlink" x="0px" y="0px"
	 width="64px" height="64px" viewBox="0 0 64 64" style="enable-background:new 0 0 64 64;" xml:space="preserve">
<path d="M57.892,26.903c-0.276,0-0.5,0.224-0.5,0.5v0.014v0.63l-1.51,0.426l-4.432-0.211c-0.341-0.054-0.693-0.085-1.058-0.085
	h-0.417v-2.78h1.458c0,0,0-0.261,0-0.583c0-0.322-0.448-0.583-1-0.583h-1.917c-0.552,0-1,0.261-1,0.583v0.583h1.458v2.748
	l-1.838-0.087c-0.711-0.034-1.405-0.069-2.078-0.105V24h1.458c0,0,0-0.261,0-0.583c0-0.322-0.448-0.583-1-0.583h-1.917
	c-0.552,0-1,0.261-1,0.583V24h1.458v3.896c-1.588-0.089-2.998-0.181-4.083-0.264V25h1.458c0,0,0-0.261,0-0.583
	c0-0.322-0.448-0.583-1-0.583h-1.917c-0.552,0-1,0.261-1,0.583V25h1.458v2.55c-0.681-0.061-1.121-0.114-1.224-0.154
	c-0.267-0.102-2.627-0.252-5.756-0.365c-0.966-0.045-2.06-0.082-3.352-0.106c-0.586-0.011-1.189-0.022-1.797-0.033
	c-2.164-0.047-4.423-0.09-6.517-0.118L5.875,22.91c-2.124-0.424-1.941-2.383-2.054,1.48c-0.037,1.258-0.096,3.047-0.049,5.186
	c-0.047,2.139,0.013,3.928,0.049,5.186c0.112,3.863-0.07,1.904,2.054,1.48l14.454-3.864c0.847-0.011,1.723-0.026,2.606-0.042
	c0.22,1.978,2.305,3.487,4.957,3.487h10.167v1.832h-0.836c0,0,0,0.3,0,0.67c0,0.371,0.515,0.671,1.15,0.671h2.205
	c0.635,0,1.15-0.301,1.15-0.671v-0.67h-0.669v-1.832h2.083v1.832h-0.836c0,0,0,0.3,0,0.67c0,0.371,0.515,0.671,1.15,0.671h2.205
	c0.635,0,1.15-0.301,1.15-0.671v-0.67h-0.669v-1.832h1.917v1.832H47.39c0,0,0,0.3,0,0.67c0,0.371,0.515,0.671,1.15,0.671h2.205
	c0.635,0,1.15-0.301,1.15-0.671v-0.67h-0.836v-1.882c2.474-0.245,4.333-1.805,4.333-3.774c0-0.455-0.118-0.881-0.3-1.283l0.79-0.038
	l1.51,0.426v0.63v0.014c0,0.276,0.224,0.5,0.5,0.5c0.276,0,0.5-0.224,0.5-0.5v-0.014v-4.319v-0.014
	C58.392,27.126,58.168,26.903,57.892,26.903z M27.893,33.824c-1.431,0-2.696-0.684-2.947-1.524c0.637-0.013,1.273-0.026,1.9-0.04
	c0.608-0.011,1.211-0.022,1.797-0.033c1.292-0.025,2.387-0.062,3.352-0.106c3.129-0.113,5.49-0.264,5.756-0.365
	c0.044-0.017,0.149-0.036,0.308-0.058v2.126H27.893z M41.059,33.824v-2.383c0.632-0.044,1.331-0.088,2.083-0.133v2.516H41.059z
	 M46.143,33.824v-2.68c0.328-0.017,0.659-0.033,0.995-0.049l0.922-0.044v2.772H46.143z M53.393,32c0,0.833-1.033,1.574-2.333,1.77
	v-2.861l1.583-0.075C53.1,31.156,53.393,31.563,53.393,32z"/>
</svg>
