<?xml version="1.0" encoding="iso-8859-1"?>
<!-- Generator: Adobe Illustrator 17.0.0, SVG Export Plug-In . SVG Version: 6.00 Build 0)  -->
<!DOCTYPE svg PUBLIC "-//W3C//DTD SVG 1.1//EN" "http://www.w3.org/Graphics/SVG/1.1/DTD/svg11.dtd">
<svg version="1.1" id="Capa_1" xmlns="http://www.w3.org/2000/svg" xmlns:xlink="http://www.w3.org/1999/xlink" x="0px" y="0px"
	 width="64px" height="64px" viewBox="0 0 64 64" style="enable-background:new 0 0 64 64;" xml:space="preserve">
<g>
	<path d="M54.982,9.229c-1.895,1.45-5.629,2.306-5.629,2.306l0.635,0.48L37.537,28.453c-3.393-1.399-7.293-0.561-9.465,2.306
		c0,0-2.52,3.655-5.229,5.006c-0.234,0.117-0.641,0.242-0.895,0.311c-2.318,0.627-4.414,1.96-5.935,3.967
		c-3.861,5.099-2.545,12.599,2.939,16.754c5.484,4.154,13.061,3.391,16.924-1.708c1.601-2.114,2.31-4.642,2.201-7.173
		c-0.012-0.262,0.01-0.684,0.074-0.939c0.746-2.856,3.305-5.938,3.305-5.938c2.17-2.865,1.984-6.897-0.258-9.798l12.457-16.444
		l0.568,0.43c0,0,5.779-6.578,3.996-7.925C56.947,6.338,56.879,7.777,54.982,9.229z M30.543,43.729l-5.512,7.276
		c-0.275-0.103-0.543-0.232-0.799-0.389l5.721-7.553C30.174,43.27,30.369,43.493,30.543,43.729z M28.393,42.1
		c0.275,0.103,0.543,0.232,0.801,0.39l-5.721,7.553c-0.223-0.205-0.418-0.429-0.592-0.665L28.393,42.1z M22.916,43.678
		c1.084-1.43,2.818-2.075,4.478-1.837l-5.033,6.645C21.682,46.953,21.832,45.108,22.916,43.678z M18.773,50.594l1.006-1.328
		l1.266,0.958l-1.006,1.328L18.773,50.594z M20.797,52.127l1.006-1.328l0.695,0.527l-1.006,1.328L20.797,52.127z M22.252,53.229
		l1.006-1.328l0.695,0.526l-1.006,1.328L22.252,53.229z M24.846,55.193l-1.139-0.862l1.006-1.328l1.139,0.863L24.846,55.193z
		 M30.508,49.428c-1.084,1.431-2.82,2.075-4.479,1.837l5.033-6.645C31.74,46.153,31.59,47.998,30.508,49.428z M38.412,28.873
		L50.746,12.59l0.697,0.527L39.16,29.331C38.916,29.166,38.666,29.013,38.412,28.873z M40.56,30.505
		c-0.201-0.207-0.416-0.406-0.641-0.597l12.283-16.215l0.695,0.526L40.56,30.505z M53.391,11.661
		c-0.158,0.211-0.457,0.252-0.666,0.093c-0.211-0.158-0.252-0.457-0.092-0.667c0.158-0.209,0.457-0.25,0.666-0.092
		C53.508,11.154,53.549,11.452,53.391,11.661z M55.533,10.74c-0.158,0.21-0.457,0.251-0.668,0.092
		c-0.209-0.158-0.25-0.457-0.09-0.667c0.158-0.21,0.457-0.251,0.666-0.093C55.652,10.231,55.693,10.529,55.533,10.74z M57.371,9.102
		c-0.16,0.211-0.457,0.252-0.668,0.093c-0.209-0.158-0.25-0.457-0.092-0.667c0.16-0.21,0.459-0.251,0.668-0.093
		C57.488,8.594,57.529,8.892,57.371,9.102z"/>
</g>
</svg>
