<?xml version="1.0" encoding="iso-8859-1"?>
<!-- Generator: Adobe Illustrator 17.0.0, SVG Export Plug-In . SVG Version: 6.00 Build 0)  -->
<!DOCTYPE svg PUBLIC "-//W3C//DTD SVG 1.1//EN" "http://www.w3.org/Graphics/SVG/1.1/DTD/svg11.dtd">
<svg version="1.1" id="Capa_1" xmlns="http://www.w3.org/2000/svg" xmlns:xlink="http://www.w3.org/1999/xlink" x="0px" y="0px"
	 width="64px" height="64px" viewBox="0 0 64 64" style="enable-background:new 0 0 64 64;" xml:space="preserve">
<path d="M17.666,18.992l31.243-8.417l-0.055-0.203c0.511,0.636,1.286,1.051,2.165,1.051c1.54,0,2.788-1.248,2.788-2.788
	c0-1.54-1.248-2.788-2.788-2.788s-2.788,1.248-2.788,2.788c0,0.018,0.005,0.034,0.005,0.052L15.742,17.44
	C16.53,17.824,17.191,18.357,17.666,18.992z"/>
<path d="M12.817,17.779c-2.424,0-4.398,1.42-4.616,3.221h9.232c-0.077-0.638-0.361-1.228-0.825-1.723
	c-0.571-0.61-1.391-1.067-2.344-1.306C13.806,17.856,13.325,17.779,12.817,17.779z"/>
<polygon points="5.665,58 5.664,58 5.665,58 "/>
<path d="M7.228,22H5.665C4.338,22,3,26.711,3,28.871v19.625C3,50.963,4.423,57,5.665,57H56.46c1.306,0,3.54-6.273,3.54-8.504V28.871
	c0-1.992-2.131-6.867-3.539-6.87l-0.002,0H18.406h-0.517h-0.503H8.248H7.746H7.228z M34.125,52.625c0,0.587-0.476,1.062-1.063,1.062
	c-0.587,0-1.062-0.476-1.062-1.062V41.562c0-0.587,0.476-1.062,1.062-1.062c0.587,0,1.063,0.476,1.063,1.062V52.625z M39.125,52.625
	c0,0.587-0.476,1.062-1.063,1.062c-0.587,0-1.062-0.476-1.062-1.062V41.562c0-0.587,0.476-1.062,1.062-1.062
	c0.587,0,1.063,0.476,1.063,1.062V52.625z M44.125,52.625c0,0.587-0.476,1.062-1.063,1.062c-0.587,0-1.062-0.476-1.062-1.062V41.562
	c0-0.587,0.476-1.062,1.062-1.062c0.587,0,1.063,0.476,1.063,1.062V52.625z M49.125,52.625c0,0.587-0.476,1.062-1.063,1.062
	c-0.587,0-1.062-0.476-1.062-1.062V41.562c0-0.587,0.476-1.062,1.062-1.062c0.587,0,1.063,0.476,1.063,1.062V52.625z M54.125,52.625
	c0,0.587-0.476,1.062-1.063,1.062c-0.587,0-1.062-0.476-1.062-1.062V41.562c0-0.587,0.476-1.062,1.062-1.062
	c0.587,0,1.063,0.476,1.063,1.062V52.625z M30,27.231C30,25.999,30.999,25,32.231,25h20.538C54.001,25,55,25.999,55,27.231v6.538
	C55,35.001,54.001,36,52.769,36H32.231C30.999,36,30,35.001,30,33.769V27.231z M19.788,32.267c0,2.349-1.904,4.252-4.252,4.252
	c-2.349,0-4.252-1.904-4.252-4.252c0-2.349,1.904-4.252,4.252-4.252C17.885,28.014,19.788,29.918,19.788,32.267z"/>
<polygon points="47.396,31.315 47.417,35.13 49.417,35.12 49.396,31.311 53.204,31.303 53.202,30.303 49.391,30.311 49.37,26.476 
	47.37,26.486 47.391,30.315 30.988,30.349 30.99,31.349 "/>
</svg>
