<?xml version="1.0" encoding="iso-8859-1"?>
<!-- Generator: Adobe Illustrator 17.0.0, SVG Export Plug-In . SVG Version: 6.00 Build 0)  -->
<!DOCTYPE svg PUBLIC "-//W3C//DTD SVG 1.1//EN" "http://www.w3.org/Graphics/SVG/1.1/DTD/svg11.dtd">
<svg version="1.1" id="Capa_1" xmlns="http://www.w3.org/2000/svg" xmlns:xlink="http://www.w3.org/1999/xlink" x="0px" y="0px"
	 width="64px" height="64px" viewBox="0 0 64 64" style="enable-background:new 0 0 64 64;" xml:space="preserve">
<path d="M58.95,52.802l0.035-0.096c0.068-0.268,6.753-27.085-5.541-49.928c-0.039-0.083-0.402-0.809-1.121-0.809
	c-0.951,0-1.726,1.221-2.534,4.043c-1.599,5.58-4.574,15.967-39.762,24.695c-0.067,0.009-6.738,0.939-6.931,8.034
	c-0.115,4.224,0.849,5.886,4.63,7.284H6.891v2.994h1.087v-0.011h11.037h3.722h12.378v0.011H36.2v-2.994h-4.455l-0.304-0.146
	c-0.075-0.036-1.882-0.888-4.333-0.888c-1.575,0-3.04,0.349-4.377,1.033h-3.924l-9.96-3.527c-0.009-0.002-0.894-0.21-1.214-0.905
	c-0.24-0.521-0.124-1.225,0.32-2.051C8.07,39.367,8.4,38.634,7.72,36.591c-0.036-0.108-0.015-0.151,0.015-0.192
	c0.13-0.18,0.846-0.766,4.616-0.766c0.366,0,0.679,0.005,0.902,0.009l0.296,0.004c0.038,0,0.07-0.001,0.088-0.002
	c0.091,0.01,0.294,0.051,0.594,0.108c1.628,0.311,5.951,1.135,11.002,1.135l0.631-0.003c6.29,0,20.388,5.676,23.69,8.18
	c3.007,2.281,3.271,3.496,3.276,3.527c0.083,0.429,0.86,4.225,2.709,5.365c0.411,0.254,0.828,0.383,1.238,0.383
	C58.18,54.338,58.919,52.864,58.95,52.802z"/>
<polygon points="9.577,59.224 11.696,59.224 11.696,60.024 11.696,60.583 18.117,60.583 18.117,60.024 18.117,59.224 25.024,59.224 
	25.024,60.024 25.024,60.583 31.444,60.583 31.444,60.024 31.444,59.224 33.515,59.224 33.515,50.609 9.577,50.609 "/>
</svg>
