<?xml version="1.0" encoding="iso-8859-1"?>
<!-- Generator: Adobe Illustrator 17.0.0, SVG Export Plug-In . SVG Version: 6.00 Build 0)  -->
<!DOCTYPE svg PUBLIC "-//W3C//DTD SVG 1.1//EN" "http://www.w3.org/Graphics/SVG/1.1/DTD/svg11.dtd">
<svg version="1.1" id="Capa_1" xmlns="http://www.w3.org/2000/svg" xmlns:xlink="http://www.w3.org/1999/xlink" x="0px" y="0px"
	 width="64px" height="64px" viewBox="0 0 64 64" style="enable-background:new 0 0 64 64;" xml:space="preserve">
<g>
	<path d="M61.5,19.221h-3.015L31.995,8.405c-0.028-1.37-1.143-2.473-2.52-2.473c-1.394,0-2.525,1.13-2.525,2.525
		c0,1.394,1.13,2.525,2.525,2.525c0.688,0,1.311-0.277,1.766-0.724l21.953,8.963h-7.647c-0.036-1.253-1.057-2.259-2.319-2.259
		h-3.322c-1.262,0-2.283,1.006-2.319,2.259h-2.671c-0.036-1.253-1.057-2.259-2.319-2.259h-3.322c-1.262,0-2.283,1.006-2.319,2.259
		h-2.671c-0.036-1.253-1.057-2.259-2.319-2.259h-3.322c-1.262,0-2.283,1.006-2.319,2.259h-2.671
		c-0.036-1.253-1.057-2.259-2.319-2.259H8.015c-1.262,0-2.283,1.006-2.319,2.259H2.5v35.347h59V19.221z M33.86,32.288v0.316H6.221
		v-0.316c0-0.687,0.081-1.355,0.224-1.999h27.192C33.779,30.933,33.86,31.6,33.86,32.288z M33.86,37.919H6.221v-2.315h27.64V37.919z
		 M33.86,41.501c0,0.593-0.061,1.172-0.168,1.734H6.389c-0.107-0.562-0.168-1.14-0.168-1.734v-0.582h27.64V41.501z M24.647,23.074
		c3.244,0,6.09,1.68,7.732,4.214H7.702c1.642-2.534,4.488-4.214,7.732-4.214H24.647z M24.647,50.714h-9.213
		c-3.355,0-6.282-1.799-7.893-4.48h25C30.929,48.915,28.002,50.714,24.647,50.714z M58.545,43.595H36.815V30.194h21.729V43.595z"/>
	<rect x="37.815" y="31.194" width="19.729" height="11.401"/>
</g>
</svg>
