<?xml version="1.0" encoding="iso-8859-1"?>
<!-- Generator: Adobe Illustrator 17.0.0, SVG Export Plug-In . SVG Version: 6.00 Build 0)  -->
<!DOCTYPE svg PUBLIC "-//W3C//DTD SVG 1.1//EN" "http://www.w3.org/Graphics/SVG/1.1/DTD/svg11.dtd">
<svg version="1.1" id="Capa_1" xmlns="http://www.w3.org/2000/svg" xmlns:xlink="http://www.w3.org/1999/xlink" x="0px" y="0px"
	 width="64px" height="64px" viewBox="0 0 64 64" style="enable-background:new 0 0 64 64;" xml:space="preserve">
<g>
	<circle cx="26.755" cy="26.717" r="1.356"/>
	<path d="M34.327,33.005l0.548,0.669l1.944-1.583l-0.423-0.513l3.03-2.214l-0.229-0.299l3.111-2.396
		c0.123-0.095,0.195-0.241,0.195-0.396v-4.64l1.765-3.88c0.114-0.251,0.003-0.548-0.248-0.662c-0.25-0.113-0.547-0.003-0.662,0.248
		l-1.81,3.979c-0.029,0.065-0.045,0.136-0.045,0.207v4.502l-2.914,2.246l-0.203-0.264l-2.984,2.319l-0.422-0.51l-1.93,1.627
		l0.45,0.55l-0.541,1.332L34.327,33.005z"/>
	<polygon points="12.465,49.056 12.465,51.95 60.669,44.172 60.669,41.187 	"/>
	<polygon points="11.66,49.236 3.883,20.838 3.883,24.185 11.66,51.95 	"/>
	<path d="M60.262,39.64L46.92,13.064L4.677,20.126l7.556,27.299L60.262,39.64z M38.535,16.205c1.297,0,2.352,0.495,2.352,1.106
		c0,0.612-1.055,1.106-2.352,1.106c-1.3,0-2.352-0.494-2.352-1.106C36.184,16.7,37.235,16.205,38.535,16.205z M8.306,23.008
		c-0.851,0-1.538-0.323-1.538-0.724c0-0.4,0.688-0.723,1.538-0.723c0.849,0,1.536,0.323,1.536,0.723
		C9.842,22.685,9.154,23.008,8.306,23.008z M26.894,18.418c6.284,0,11.693,2.349,14.234,5.74v-2.867
		c0-0.141,0.031-0.283,0.089-0.413l1.583-3.479c-0.074-0.196-0.12-0.407-0.12-0.63c0-0.994,0.807-1.799,1.8-1.799
		c0.993,0,1.8,0.805,1.8,1.799c0,0.994-0.807,1.8-1.8,1.8c-0.005,0-0.01-0.001-0.015-0.001l-1.337,2.94v4.531
		c0,0.308-0.146,0.604-0.391,0.792l-0.245,0.188c0.111,0.482,0.188,0.97,0.188,1.472c0,5.563-7.067,10.074-15.786,10.074
		c-8.718,0-15.786-4.511-15.786-10.074S18.177,18.418,26.894,18.418z"/>
</g>
</svg>
