<?xml version="1.0" encoding="iso-8859-1"?>
<!-- Generator: Adobe Illustrator 17.0.0, SVG Export Plug-In . SVG Version: 6.00 Build 0)  -->
<!DOCTYPE svg PUBLIC "-//W3C//DTD SVG 1.1//EN" "http://www.w3.org/Graphics/SVG/1.1/DTD/svg11.dtd">
<svg version="1.1" id="Capa_1" xmlns="http://www.w3.org/2000/svg" xmlns:xlink="http://www.w3.org/1999/xlink" x="0px" y="0px"
	 width="64px" height="64px" viewBox="0 0 64 64" style="enable-background:new 0 0 64 64;" xml:space="preserve">
<g>
	<path d="M26.385,26.782l-1.795-0.434l1.796-7.438c0.514-2.13,2.091-3.618,3.835-3.618c0.235,0,0.469,0.028,0.697,0.083
		c1.017,0.246,1.843,1.017,2.268,2.117c0.357,0.925,0.411,2.024,0.151,3.097l-1.797,7.438l-2.237-0.54
		c-0.827,2.6-2.17,4.988-5.542,7.761c3.171,6.279,9.663,10.594,17.177,10.594c10.631,0,19.25-8.618,19.25-19.25
		c0-10.632-8.619-19.25-19.25-19.25c-10.631,0-19.25,8.618-19.25,19.25c0,2.003,0.307,3.934,0.875,5.75
		C24.804,30.364,25.763,28.679,26.385,26.782z M40.939,19.842c3.728,0,6.75,3.022,6.75,6.75c0,3.727-3.022,6.75-6.75,6.75
		c-3.728,0-6.75-3.023-6.75-6.75C34.189,22.865,37.211,19.842,40.939,19.842z"/>
	<path d="M10.5,55.089c5.201,0,9.417-4.217,9.417-9.417c0-2.256-0.795-4.325-2.119-5.947c-1.317,1.125-2.261,2.147-2.923,2.978
		c0.576,0.847,0.914,1.869,0.914,2.969c0,2.92-2.368,5.289-5.289,5.289s-5.289-2.369-5.289-5.289c0-2.92,2.368-5.289,5.289-5.289
		c0.73,0,1.425,0.148,2.058,0.416c0.716-0.896,1.687-1.945,2.974-3.077c-1.457-0.924-3.179-1.467-5.032-1.467
		c-5.201,0-9.417,4.217-9.417,9.417S5.299,55.089,10.5,55.089z"/>
	<path d="M12.314,42.786c-0.527-0.332-1.146-0.531-1.814-0.531c-1.887,0-3.417,1.53-3.417,3.417c0,1.887,1.53,3.417,3.417,3.417
		s3.417-1.53,3.417-3.417c0-0.85-0.322-1.618-0.836-2.216c0.907-1.404,2.926-3.928,6.987-6.634
		c6.308-4.204,7.627-7.154,8.592-10.996l1.775,0.429l1.445-5.981c0.389-1.61-0.199-3.134-1.313-3.403
		c-1.115-0.269-2.333,0.818-2.722,2.429l-1.444,5.981l1.287,0.311c-0.932,3.711-2.15,6.384-8.175,10.399
		C15.416,38.72,13.316,41.262,12.314,42.786z"/>
</g>
</svg>
