<?xml version="1.0" encoding="iso-8859-1"?>
<!-- Generator: Adobe Illustrator 17.0.0, SVG Export Plug-In . SVG Version: 6.00 Build 0)  -->
<!DOCTYPE svg PUBLIC "-//W3C//DTD SVG 1.1//EN" "http://www.w3.org/Graphics/SVG/1.1/DTD/svg11.dtd">
<svg version="1.1" id="Capa_1" xmlns="http://www.w3.org/2000/svg" xmlns:xlink="http://www.w3.org/1999/xlink" x="0px" y="0px"
	 width="64px" height="64px" viewBox="0 0 64 64" style="enable-background:new 0 0 64 64;" xml:space="preserve">
<g>
	<path d="M42.162,40.885c-0.125-0.41-0.559-0.644-0.969-0.517l-1.71,0.521L8.686,27.372c-0.393-0.173-0.851,0.006-1.023,0.399
		c-0.173,0.392,0.007,0.851,0.399,1.022l31.061,13.633c0.1,0.043,0.205,0.064,0.312,0.064c0.076,0,0.152-0.011,0.226-0.033
		l1.984-0.604C42.056,41.729,42.287,41.295,42.162,40.885z"/>
	<path d="M31.068,42.31h0.854v1.725h-0.926h-2.748h-1.033V42.31h1.167l0.28-3.624l-4.312-1.892
		c-0.512,0.625-1.281,1.032-2.152,1.032c-0.078,0-0.15-0.017-0.227-0.022c-0.348,5.684,0.19,11.302,5.232,12.697l1.139,8.395h1.789
		l1.313-8.089h0.084c4.842-0.325,6.575-3.616,7.028-7.778l-7.382-3.24L31.068,42.31z"/>
	<path d="M24.5,33.467l4.416,1.938l0.461-5.955l0.013,0.001l1.484-19.195h0.52L30.209,25.57h-0.014l-0.781,10.103l1.391,0.61
		l0.453-10.717c-0.006,0.001-0.01,0.001-0.015,0.001l0.647-15.311h0.519l-0.823,19.465l0.015,0.002l-0.284,6.735l7.366,3.233
		c-0.012-0.632-0.039-1.269-0.079-1.908c-0.141,0.022-0.283,0.043-0.432,0.043c-1.543,0-2.795-1.251-2.795-2.796
		c0-1.515,1.207-2.741,2.711-2.786c-0.654-5.173-3.891-6.359-5.684-6.616l0.687-15.372h0.444c0.105,0.283,0.375,0.485,0.695,0.485
		c0.41,0,0.744-0.333,0.744-0.744c0-0.411-0.334-0.744-0.744-0.744c-0.32,0-0.59,0.202-0.695,0.485h-0.422l0.062-1.392h0.553
		c0.106,0.283,0.377,0.486,0.695,0.486c0.412,0,0.744-0.334,0.744-0.745c0-0.41-0.332-0.744-0.744-0.744
		c-0.318,0-0.59,0.202-0.695,0.485h-0.529l0.029-0.68c0.815-0.357,1.385-1.168,1.385-2.113c0-1.275-1.033-2.309-2.309-2.309
		c-1.274,0-2.309,1.033-2.309,2.309c0,0.656,0.277,1.245,0.717,1.665l-0.137,1.128h-0.602c-0.105-0.283-0.375-0.485-0.695-0.485
		c-0.41,0-0.744,0.334-0.744,0.744c0,0.411,0.334,0.745,0.744,0.745c0.32,0,0.59-0.203,0.695-0.486h0.54l-0.168,1.392h-0.565
		c-0.105-0.283-0.376-0.485-0.695-0.485c-0.412,0-0.744,0.333-0.744,0.744c0,0.411,0.332,0.744,0.744,0.744
		c0.319,0,0.59-0.202,0.695-0.485h0.504l-1.85,15.339c-1.72,0.179-5.268,1.215-5.949,6.67C23.324,32.352,24.047,32.81,24.5,33.467z
		 M32.432,9.738h-0.519l0.06-1.392h0.518L32.432,9.738z M32.533,7.321l-0.021,0.508h-0.518l0.021-0.515
		c0.096,0.013,0.19,0.029,0.289,0.029C32.383,7.344,32.457,7.329,32.533,7.321z M31.125,7.01c0.156,0.094,0.324,0.167,0.502,0.222
		l-0.046,0.598h-0.52L31.125,7.01z M31.541,8.347l-0.107,1.392h-0.519l0.107-1.392H31.541z"/>
	<polygon points="29.16,38.954 28.901,42.31 30.551,42.31 30.664,39.614 	"/>
</g>
</svg>
