<?xml version="1.0" encoding="iso-8859-1"?>
<!-- Generator: Adobe Illustrator 17.0.0, SVG Export Plug-In . SVG Version: 6.00 Build 0)  -->
<!DOCTYPE svg PUBLIC "-//W3C//DTD SVG 1.1//EN" "http://www.w3.org/Graphics/SVG/1.1/DTD/svg11.dtd">
<svg version="1.1" id="Capa_1" xmlns="http://www.w3.org/2000/svg" xmlns:xlink="http://www.w3.org/1999/xlink" x="0px" y="0px"
	 width="64px" height="64px" viewBox="0 0 64 64" style="enable-background:new 0 0 64 64;" xml:space="preserve">
<g>
	<path d="M32,60.828c11.172,0,20.229-5.901,20.229-13.181c0-4.257-3.11-8.031-7.916-10.441c-0.148,1.119-0.267,2.303-0.349,3.565
		c-0.301-0.112-0.628-0.186-0.983-0.22c-0.149-0.014-0.286-0.048-0.443-0.048c-0.184,0-0.373,0.018-0.562,0.037
		c0.101-1.488,0.255-2.871,0.445-4.174c0.939-6.465,2.825-10.799,4.317-14.213c0.944-2.16,1.718-3.939,2.057-5.708
		C44.603,18.848,38.675,20.326,32,20.326s-12.603-1.478-16.796-3.881c0.339,1.769,1.113,3.547,2.057,5.708
		c1.493,3.414,3.378,7.747,4.317,14.213c0.186,1.278,0.337,2.633,0.438,4.088c-0.132-0.01-0.266-0.026-0.396-0.026
		c-0.215,0-0.407,0.039-0.606,0.065c-0.355,0.048-0.683,0.133-0.98,0.261c-0.082-1.255-0.2-2.435-0.347-3.548
		c-4.806,2.41-7.916,6.185-7.916,10.441C11.771,54.927,20.828,60.828,32,60.828z M34.914,47.562
		c-0.598,0.635-1.678,1.064-2.926,1.064c-1.248,0-2.33-0.43-2.927-1.066c-0.288-0.306-0.462-0.658-0.482-1.037
		c-0.001-0.025-0.012-0.049-0.012-0.075c0-1.202,1.532-2.177,3.421-2.177c1.89,0,3.421,0.975,3.421,2.177
		c0,0.026-0.011,0.05-0.012,0.076C35.376,46.904,35.202,47.256,34.914,47.562z M43.839,44.442c-0.405,0.563-1.057,1.112-1.878,1.519
		c-0.138,0.068-0.275,0.123-0.413,0.179c-0.646,0.263-1.284,0.401-1.84,0.401c-0.56,0-1.03-0.137-1.345-0.397
		c-0.123-0.101-0.227-0.217-0.296-0.357c-0.462-0.933,0.531-2.368,2.219-3.204c0.547-0.271,1.098-0.44,1.612-0.521
		c0.222-0.035,0.438-0.058,0.641-0.058c0.128,0,0.243,0.018,0.361,0.031c0.399,0.046,0.741,0.165,0.984,0.366
		c0.123,0.101,0.227,0.217,0.296,0.357C44.417,43.236,44.266,43.847,43.839,44.442z M23.872,42.507
		c1.688,0.836,2.682,2.271,2.219,3.204c-0.091,0.183-0.244,0.321-0.423,0.438c-0.31,0.202-0.725,0.316-1.218,0.316
		c-0.674,0-1.469-0.191-2.253-0.579c-0.201-0.1-0.391-0.209-0.571-0.324c-0.671-0.428-1.176-0.946-1.471-1.461
		c-0.291-0.508-0.38-1.011-0.178-1.419c0.035-0.071,0.093-0.125,0.142-0.186c0.216-0.268,0.549-0.449,0.977-0.524
		c0.164-0.029,0.338-0.045,0.522-0.045c0.153,0,0.314,0.013,0.478,0.033C22.655,42.027,23.267,42.206,23.872,42.507z M24.569,47.953
		c0.808-0.02,1.491-0.25,2.025-0.635c0.198-0.143,0.372-0.305,0.522-0.493c0.026,0.198,0.067,0.39,0.132,0.577
		c0.133,0.382,0.333,0.742,0.609,1.062C26.558,48.341,25.466,48.167,24.569,47.953z M36.117,48.466
		c0.277-0.32,0.476-0.679,0.61-1.061c0.082-0.235,0.133-0.479,0.153-0.732c0.155,0.245,0.347,0.457,0.574,0.638
		c0.476,0.381,1.093,0.613,1.817,0.683C38.402,48.191,37.347,48.351,36.117,48.466z"/>
	<path d="M32.815,3.475c-0.471,0-0.746,0.015-0.761,0.015l-0.054,0.003l-0.056-0.003c-0.015,0-0.29-0.015-0.761-0.015
		c-3.039,0-13.143,0.564-15.595,7.819c-0.317,0.937-0.488,1.804-0.547,2.638c3.902,2.645,10.112,4.394,16.957,4.394
		s13.055-1.748,16.957-4.394c-0.059-0.835-0.23-1.702-0.547-2.638C45.958,4.039,35.854,3.475,32.815,3.475z"/>
</g>
</svg>
