<?xml version="1.0" encoding="iso-8859-1"?>
<!-- Generator: Adobe Illustrator 17.0.0, SVG Export Plug-In . SVG Version: 6.00 Build 0)  -->
<!DOCTYPE svg PUBLIC "-//W3C//DTD SVG 1.1//EN" "http://www.w3.org/Graphics/SVG/1.1/DTD/svg11.dtd">
<svg version="1.1" id="Capa_1" xmlns="http://www.w3.org/2000/svg" xmlns:xlink="http://www.w3.org/1999/xlink" x="0px" y="0px"
	 width="64px" height="64px" viewBox="0 0 64 64" style="enable-background:new 0 0 64 64;" xml:space="preserve">
<rect x="4.922" y="21.849" width="9.644" height="19.952"/>
<rect x="19.759" y="17.02" width="9.644" height="24.781"/>
<rect x="34.596" y="12.191" width="9.644" height="29.61"/>
<rect x="49.434" y="7.362" width="9.644" height="34.439"/>
<path d="M14.566,51.514H4.922c-1.104,0-2,0.896-2,2s0.896,2,2,2h9.645c1.104,0,2-0.896,2-2S15.671,51.514,14.566,51.514z"/>
<path d="M58.732,51.514H55.91v-2.822c0-1.104-0.896-2-2-2s-2,0.896-2,2v2.822h-2.822c-1.104,0-2,0.896-2,2s0.896,2,2,2h2.822v2.822
	c0,1.104,0.896,2,2,2s2-0.896,2-2v-2.822h2.822c1.104,0,2-0.896,2-2S59.837,51.514,58.732,51.514z"/>
</svg>
