<?xml version="1.0" encoding="iso-8859-1"?>
<!-- Generator: Adobe Illustrator 17.0.0, SVG Export Plug-In . SVG Version: 6.00 Build 0)  -->
<!DOCTYPE svg PUBLIC "-//W3C//DTD SVG 1.1//EN" "http://www.w3.org/Graphics/SVG/1.1/DTD/svg11.dtd">
<svg version="1.1" id="Capa_1" xmlns="http://www.w3.org/2000/svg" xmlns:xlink="http://www.w3.org/1999/xlink" x="0px" y="0px"
	 width="64px" height="64px" viewBox="0 0 64 64" style="enable-background:new 0 0 64 64;" xml:space="preserve">
<g>
	<path d="M31.558,43.541c1.218-0.771,2.255-1.26,3.11-1.569l-0.072-0.066l-3.618-7.612c-0.839,0.253-1.951,0.718-3.36,1.611
		c-0.998,0.635-1.701,1.421-2.193,2.165l3.613,7.939C29.604,45.161,30.41,44.27,31.558,43.541z"/>
	<path d="M19.121,9.354l-1.729-3.639c-0.841,0.252-1.958,0.717-3.379,1.618c-0.774,0.491-1.366,1.075-1.825,1.659l1.708,3.754
		c0.516-0.63,1.171-1.253,2.015-1.788C17.177,10.155,18.248,9.661,19.121,9.354z"/>
	<path d="M27.014,34.953c1.394-0.885,2.555-1.396,3.474-1.692l-10.88-22.885c-0.805,0.271-1.838,0.737-3.094,1.534
		c-0.928,0.59-1.598,1.311-2.085,2.008l10.455,22.968C25.416,36.207,26.105,35.529,27.014,34.953z"/>
	<path d="M16.788,4.723c-0.845-1.187-2.616-3.051-4.728-1.644c-1.557,1.038-0.892,3.462-0.383,4.765
		c0.469-0.515,1.034-1.018,1.731-1.461C14.758,5.526,15.885,5.023,16.788,4.723z"/>
	<path d="M35.707,52.118c2.623-1.88,5.408-2.74,7.193-2.397l-7.293-6.865c-0.848,0.246-1.987,0.712-3.444,1.637
		c-1.432,0.909-2.258,2.131-2.723,3.093l1.734,10.218C31.586,56.055,33.254,53.875,35.707,52.118z"/>
	<path d="M45.47,51.599c-1.186-1.734-5.094-1.126-8.722,1.358c-3.631,2.485-5.613,5.904-4.428,7.639
		c1.187,1.733,5.094,1.126,8.724-1.358C44.675,56.752,46.658,53.333,45.47,51.599z M40.203,57.891
		c-2.149,1.566-4.475,2.031-5.197,1.04c-0.722-0.989,0.434-3.062,2.582-4.629c2.148-1.565,4.476-2.03,5.197-1.04
		C43.507,54.251,42.351,56.324,40.203,57.891z"/>
</g>
</svg>
