<?xml version="1.0" encoding="iso-8859-1"?>
<!-- Generator: Adobe Illustrator 17.0.0, SVG Export Plug-In . SVG Version: 6.00 Build 0)  -->
<!DOCTYPE svg PUBLIC "-//W3C//DTD SVG 1.1//EN" "http://www.w3.org/Graphics/SVG/1.1/DTD/svg11.dtd">
<svg version="1.1" id="Capa_1" xmlns="http://www.w3.org/2000/svg" xmlns:xlink="http://www.w3.org/1999/xlink" x="0px" y="0px"
	 width="64px" height="64px" viewBox="0 0 64 64" style="enable-background:new 0 0 64 64;" xml:space="preserve">
<path d="M57.502,21.316c0-0.659-0.402-0.843-0.9-0.41l-8.199,7.146L22.27,23.44c-0.126-0.039-0.256-0.065-0.393-0.068L3.48,20.123
	V24.1l0.024,0.006v15.061c0,0.988,0.801,1.789,1.79,1.789c0.988,0,1.79-0.801,1.79-1.789V24.861l3.281,0.692v10.943
	c0,0.988,0.801,1.79,1.79,1.79c0.989,0,1.79-0.802,1.79-1.79V26.31l6.39,1.349v5.146c0,0.824,0.667,1.492,1.491,1.492
	c0.824,0,1.491-0.668,1.491-1.492v1.786c0,0.824,0.668,1.491,1.492,1.491c0.824,0,1.491-0.667,1.491-1.491v1.774
	c0,0.824,0.668,1.491,1.492,1.491c0.824,0,1.491-0.667,1.491-1.491v1.271c0,0.824,0.668,1.492,1.492,1.492
	c0.824,0,1.491-0.668,1.491-1.492v1.457c0,0.824,0.668,1.492,1.492,1.492c0.823,0,1.491-0.668,1.491-1.492v1.837
	c0,0.823,0.668,1.491,1.492,1.491c0.697,0,1.278-0.481,1.441-1.127v1.223c0,0.824,0.668,1.492,1.492,1.492
	c0.593,0,1.102-0.35,1.342-0.853v0.185c0,0.824,0.668,1.492,1.492,1.492c0.823,0,1.491-0.668,1.491-1.492V32.655l1.417,0.3v15.312
	c0,0.988,0.801,1.79,1.79,1.79c0.989,0,1.79-0.802,1.79-1.79V32.93l4.698-3.767V43.74c0,0.988,0.802,1.79,1.79,1.79
	c0.989,0,1.791-0.802,1.791-1.79V26.644c0-0.11-0.015-0.219-0.033-0.323l0.256-0.207V21.316z"/>
<path d="M43.597,19.094c0.043,0.396-0.072,0.785-0.321,1.096c-0.251,0.31-0.608,0.504-1.005,0.546l-4.375,0.466
	c-0.438,0.627-1.155,1.01-1.947,1.01c-1.316,0-2.387-1.07-2.387-2.387s1.07-2.387,2.387-2.387c0.686,0,1.318,0.29,1.763,0.784
	l3.407-0.363l-16.744-1.876l-1.493,2.405c0.108,0.274,0.164,0.565,0.164,0.864c0,1.316-1.07,2.387-2.387,2.387
	c-1.315,0-2.386-1.07-2.386-2.387c0-1.193,0.879-2.185,2.024-2.359l0.794-1.279l-8.47-0.949c-0.654-0.073-1.638,0.151-2.196,0.502
	l-6.944,4.36l44.749,7.657l7.754-6.773c0.495-0.434,0.367-0.845-0.288-0.918l-12.68-1.422C43.33,18.312,43.552,18.674,43.597,19.094
	z"/>
<g>
	<path d="M23.832,14.117c-0.28-0.174-0.647-0.087-0.821,0.192l-2.208,3.559c-0.048-0.005-0.096-0.015-0.144-0.015
		c-0.824,0-1.492,0.668-1.492,1.492c0,0.823,0.668,1.491,1.492,1.491c0.824,0,1.491-0.668,1.491-1.491
		c0-0.338-0.116-0.644-0.304-0.894l2.178-3.512C24.197,14.658,24.111,14.291,23.832,14.117z"/>
	<path d="M42.051,18.752L37.28,19.26c-0.243-0.492-0.746-0.834-1.333-0.834c-0.824,0-1.492,0.668-1.492,1.492
		c0,0.823,0.668,1.49,1.492,1.49c0.634,0,1.173-0.396,1.388-0.953l4.842-0.517c0.327-0.035,0.565-0.329,0.529-0.657
		C42.671,18.955,42.372,18.717,42.051,18.752z"/>
</g>
</svg>
